<svg width="764" height="1583" viewBox="0 0 764 1583" fill="none" xmlns="http://www.w3.org/2000/svg">
<path d="M-1107.09 824.088C-1084.04 720.486 -1017.35 622.211 -930.31 559.747C-843.16 497.205 -725.308 448.566 -624.44 477.432C-562.355 495.2 -519.841 544.909 -477.759 597.291C-435.824 649.49 -394.312 704.369 -334.347 731.016C-321.194 736.861 -307.988 735.587 -294.901 730.717C-281.869 725.867 -268.78 717.386 -255.746 708.609C-242.639 699.783 -229.579 690.653 -216.381 684.225C-203.202 677.806 -190.106 674.199 -176.965 676.226C-164.082 678.214 -153.257 684.962 -143.365 694.204C-133.448 703.467 -124.599 715.106 -115.601 726.757C-106.651 738.345 -97.5516 749.945 -87.2507 758.821C-76.9161 767.725 -65.2579 773.99 -51.1705 774.771C-19.1398 776.547 13.7203 768.566 46.5167 756.795C79.2815 745.035 112.233 729.391 144.258 715.798C208.63 688.475 269.186 669.503 320.569 703.573C330.201 709.96 336.487 717.497 340.19 725.955C343.9 734.429 345.071 743.943 344.283 754.347C342.701 775.224 333.266 799.357 321.207 825.109C309.223 850.702 294.576 878.022 283.022 904.666C271.444 931.366 262.752 957.842 262.657 982.157C262.51 1020.08 272.696 1055.87 284.687 1091.22C296.707 1126.66 310.498 1161.56 317.85 1198.11C322.687 1222.16 330.521 1246.5 338.886 1270.83C347.264 1295.2 356.161 1319.52 363.204 1343.69C377.291 1392.04 383.799 1439.28 363.88 1483.79C344.952 1526.08 302.884 1546.5 256.24 1564.5C233.027 1573.46 208.646 1581.83 185.838 1591.99C162.997 1602.17 141.538 1614.21 124.044 1630.64C104.791 1648.72 90.1736 1674.04 77.4751 1701.52C64.8076 1728.93 53.8706 1758.93 42.2644 1786.06C30.5946 1813.33 18.1829 1837.86 2.40167 1855.06C-13.3023 1872.16 -32.2792 1881.93 -57.2689 1879.87C-90.3362 1877.13 -116.179 1861.41 -138.318 1838.35C-160.498 1815.25 -178.879 1784.87 -196.999 1752.97C-215.078 1721.15 -232.904 1687.8 -253.891 1659.1C-274.894 1630.37 -299.19 1606.12 -330.343 1592.56C-348.91 1584.47 -367.674 1585.17 -386.486 1590.57C-405.251 1595.96 -424.18 1606.07 -443.157 1616.93C-462.201 1627.83 -481.279 1639.48 -500.583 1648.19C-519.866 1656.89 -539.177 1662.57 -558.587 1661.6C-598.636 1659.62 -634.966 1644.46 -670.721 1625.92C-706.356 1607.43 -741.622 1585.44 -778.986 1570.29C-805.48 1559.55 -834.594 1552.29 -864.234 1545.96C-893.938 1539.61 -924.067 1534.21 -952.896 1527.15C-1010.53 1513.04 -1062.07 1492.48 -1092.15 1445.49C-1119.76 1402.36 -1110.88 1351.47 -1095 1297.63C-1087.12 1270.89 -1077.44 1243.2 -1069.98 1215.93C-1062.49 1188.58 -1057.11 1161.24 -1057.76 1134.7C-1059.06 1081.32 -1077.29 1029.29 -1092.14 977.975C-1107.03 926.521 -1118.57 875.697 -1107.09 824.088Z" stroke="#E7EBE9" stroke-width="3.72718"/>
<path d="M-1098.2 827.45C-1075.44 725.071 -1009.54 627.961 -923.539 566.242C-837.423 504.443 -720.97 456.391 -621.297 484.925C-559.949 502.488 -517.935 551.613 -476.342 603.385C-434.897 654.975 -393.866 709.218 -334.598 735.561C-321.592 741.342 -308.536 740.083 -295.599 735.27C-282.718 730.477 -269.782 722.095 -256.903 713.422C-243.95 704.7 -231.047 695.68 -218.006 689.329C-204.985 682.989 -192.049 679.427 -179.069 681.431C-166.344 683.396 -155.649 690.062 -145.874 699.194C-136.074 708.349 -127.33 719.851 -118.436 731.366C-109.59 742.819 -100.596 754.286 -90.4131 763.06C-80.1971 771.863 -68.6718 778.058 -54.7439 778.832C-23.0857 780.59 9.3906 772.705 41.8009 761.075C74.1795 749.456 106.743 733.998 138.388 720.568C202 693.572 261.831 674.834 312.601 708.502C322.118 714.813 328.327 722.259 331.986 730.614C335.652 738.984 336.809 748.384 336.031 758.663C334.47 779.29 325.151 803.136 313.237 828.585C301.397 853.875 286.924 880.875 275.509 907.205C264.069 933.592 255.48 959.759 255.389 983.793C255.247 1021.28 265.317 1056.65 277.171 1091.59C289.053 1126.61 302.684 1161.11 309.953 1197.23C314.736 1220.99 322.48 1245.05 330.749 1269.09C339.031 1293.18 347.826 1317.21 354.789 1341.1C368.714 1388.88 375.147 1435.56 355.471 1479.54C336.773 1521.32 295.212 1541.5 249.119 1559.28C226.181 1568.13 202.086 1576.41 179.546 1586.45C156.974 1596.5 135.767 1608.41 118.478 1624.64C99.4504 1642.51 85.0051 1667.53 72.4584 1694.69C59.9428 1721.78 49.1371 1751.43 37.6712 1778.23C26.1414 1805.18 13.8794 1829.43 -1.71161 1846.41C-17.2252 1863.31 -35.9711 1872.96 -60.6586 1870.92C-93.3301 1868.22 -118.865 1852.68 -140.743 1829.89C-162.663 1807.06 -180.829 1777.04 -198.74 1745.51C-216.609 1714.06 -234.228 1681.09 -254.972 1652.73C-275.731 1624.34 -299.746 1600.37 -330.539 1586.95C-348.894 1578.96 -367.442 1579.65 -386.036 1584.98C-404.583 1590.31 -423.29 1600.3 -442.042 1611.03C-460.862 1621.8 -479.712 1633.31 -498.787 1641.92C-517.841 1650.52 -536.92 1656.12 -556.096 1655.17C-595.669 1653.2 -631.569 1638.22 -666.904 1619.89C-702.119 1601.62 -736.976 1579.88 -773.903 1564.9C-800.087 1554.28 -828.86 1547.11 -858.152 1540.85C-887.508 1534.57 -917.282 1529.23 -945.772 1522.25C-1002.73 1508.3 -1053.65 1487.98 -1083.38 1441.55C-1110.67 1398.93 -1101.89 1348.64 -1086.21 1295.44C-1078.42 1269.01 -1068.86 1241.65 -1061.49 1214.7C-1054.09 1187.67 -1048.78 1160.65 -1049.42 1134.42C-1050.72 1081.66 -1068.73 1030.24 -1083.41 979.523C-1098.13 928.671 -1109.54 878.446 -1098.2 827.45Z" stroke="#E7EBE9" stroke-width="3.72718"/>
<path d="M-1089.3 830.806C-1066.82 729.65 -1001.73 633.704 -916.757 572.729C-831.675 511.673 -716.622 464.21 -618.144 492.412C-557.533 509.771 -516.017 558.31 -474.915 609.473C-433.96 660.452 -393.408 714.061 -334.837 740.1C-321.979 745.816 -309.073 744.572 -296.288 739.816C-283.558 735.08 -270.774 726.798 -258.049 718.23C-245.251 709.612 -232.504 700.701 -219.621 694.429C-206.758 688.165 -193.981 684.649 -181.162 686.63C-168.594 688.572 -158.03 695.157 -148.372 704.18C-138.69 713.226 -130.049 724.59 -121.26 735.97C-112.519 747.288 -103.629 758.621 -93.5647 767.293C-83.4673 775.994 -72.0748 782.12 -58.3065 782.886C-27.0209 784.628 5.07095 776.838 37.0952 765.349C69.0876 753.871 101.264 738.599 132.529 725.332C195.382 698.662 254.486 680.159 304.644 713.425C314.045 719.66 320.178 727.015 323.793 735.267C327.414 743.534 328.557 752.818 327.79 762.973C326.25 783.351 317.046 806.91 305.276 832.055C293.581 857.041 279.282 883.722 268.006 909.738C256.705 935.811 248.219 961.671 248.132 985.424C247.996 1022.47 257.95 1057.42 269.666 1091.95C281.41 1126.56 294.882 1160.64 302.068 1196.33C306.796 1219.82 314.451 1243.59 322.624 1267.35C330.81 1291.15 339.501 1314.9 346.383 1338.51C360.147 1385.72 366.507 1431.84 347.072 1475.28C328.606 1516.56 287.551 1536.49 242.008 1554.06C219.346 1562.8 195.536 1570.98 173.266 1580.9C150.962 1590.83 130.006 1602.59 112.923 1618.63C94.12 1636.29 79.8486 1661.01 67.4538 1687.85C55.09 1714.62 44.4145 1743.92 33.0886 1770.4C21.699 1797.03 9.58665 1820.98 -5.81415 1837.76C-21.1374 1854.45 -39.6523 1863.99 -64.0375 1861.96C-96.3131 1859.29 -121.541 1843.94 -143.158 1821.42C-164.817 1798.86 -182.768 1769.2 -200.468 1738.04C-218.127 1706.96 -235.541 1674.39 -256.041 1646.35C-276.557 1618.3 -300.292 1594.6 -330.724 1581.35C-348.867 1573.44 -367.2 1574.12 -385.575 1579.39C-403.903 1584.65 -422.388 1594.52 -440.915 1605.12C-459.511 1615.77 -478.134 1627.14 -496.979 1635.64C-515.804 1644.13 -534.652 1649.67 -553.595 1648.72C-592.692 1646.78 -628.162 1631.98 -663.078 1613.86C-697.873 1595.8 -732.319 1574.32 -768.808 1559.51C-794.684 1549.01 -823.117 1541.92 -852.06 1535.73C-881.068 1529.53 -910.485 1524.25 -938.636 1517.35C-994.918 1503.56 -1045.23 1483.47 -1074.6 1437.6C-1101.56 1395.49 -1092.9 1345.81 -1077.41 1293.24C-1069.72 1267.13 -1060.27 1240.09 -1052.99 1213.47C-1045.69 1186.75 -1040.44 1160.05 -1041.08 1134.13C-1042.36 1081.99 -1060.17 1031.18 -1074.68 981.065C-1089.23 930.815 -1100.5 881.19 -1089.3 830.806Z" stroke="#E7EBE9" stroke-width="3.72718"/>
<path d="M-1080.41 834.163C-1058.21 734.231 -993.912 639.449 -909.978 579.219C-825.929 518.907 -712.276 472.03 -614.993 499.901C-555.118 517.054 -514.102 565.009 -473.489 615.562C-433.024 665.932 -392.953 718.906 -335.08 744.641C-322.369 750.293 -309.612 749.064 -296.977 744.365C-284.398 739.686 -271.768 731.503 -259.198 723.039C-246.554 714.526 -233.963 705.725 -221.238 699.53C-208.533 693.344 -195.915 689.873 -183.256 691.83C-170.846 693.749 -160.413 700.253 -150.872 709.167C-141.308 718.103 -132.771 729.331 -124.087 740.575C-115.45 751.758 -106.664 762.958 -96.7191 771.529C-86.7402 780.129 -75.4793 786.185 -61.8705 786.943C-30.9576 788.667 0.749533 780.973 32.3875 769.625C63.9939 758.288 95.782 743.202 126.668 730.098C188.761 703.754 247.141 685.485 296.686 718.349C305.971 724.508 312.027 731.773 315.597 739.922C319.173 748.086 320.304 757.255 319.547 767.285C318.028 787.413 308.94 810.684 297.314 835.527C285.763 860.209 271.639 886.572 260.501 912.274C249.339 938.033 240.956 963.584 240.872 987.057C240.742 1023.66 250.581 1058.2 262.16 1092.31C273.766 1126.51 287.077 1160.18 294.18 1195.44C298.853 1218.65 306.419 1242.13 314.496 1265.61C322.586 1289.13 331.175 1312.59 337.976 1335.92C351.579 1382.56 357.864 1428.12 338.672 1471.03C320.437 1511.8 279.887 1531.48 234.895 1548.84C212.508 1557.47 188.985 1565.55 166.983 1575.35C144.949 1585.16 124.244 1596.78 107.366 1612.63C88.7882 1630.07 74.6897 1654.5 62.4466 1681.02C50.2347 1707.46 39.6899 1736.41 28.5042 1762.57C17.2547 1788.88 5.2919 1812.54 -9.91864 1829.11C-25.0515 1845.6 -43.3355 1855.01 -67.4184 1853.01C-99.2984 1850.37 -124.22 1835.2 -145.576 1812.95C-166.974 1790.66 -184.711 1761.36 -202.2 1730.58C-219.649 1699.87 -236.856 1667.68 -257.113 1639.98C-277.386 1612.26 -300.84 1588.84 -330.912 1575.74C-348.842 1567.93 -366.96 1568.59 -385.116 1573.8C-403.225 1579 -421.489 1588.75 -439.792 1599.22C-458.163 1609.73 -476.56 1620.97 -495.175 1629.36C-513.77 1637.75 -532.387 1643.22 -551.096 1642.28C-589.716 1640.36 -624.757 1625.73 -659.252 1607.83C-693.627 1589.98 -727.663 1568.75 -763.715 1554.12C-789.282 1543.75 -817.374 1536.74 -845.97 1530.62C-874.629 1524.48 -903.692 1519.27 -931.504 1512.45C-987.107 1498.82 -1036.8 1478.97 -1065.82 1433.65C-1092.45 1392.06 -1083.91 1342.98 -1068.61 1291.04C-1061.02 1265.25 -1051.68 1238.53 -1044.49 1212.23C-1037.28 1185.84 -1032.1 1159.46 -1032.73 1133.84C-1034 1082.33 -1051.6 1032.12 -1065.94 982.607C-1080.32 932.96 -1091.46 883.935 -1080.41 834.163Z" stroke="#E7EBE9" stroke-width="3.72718"/>
<path d="M-1071.51 837.518C-1049.6 738.809 -986.097 645.191 -903.198 585.705C-820.183 526.136 -707.931 479.846 -611.842 507.386C-552.704 524.335 -512.187 571.705 -472.064 621.648C-432.089 671.408 -392.497 723.747 -335.322 749.177C-322.759 754.765 -310.151 753.551 -297.668 748.909C-285.24 744.288 -272.762 736.204 -260.346 727.845C-247.857 719.436 -235.423 710.745 -222.856 704.627C-210.308 698.518 -197.85 695.092 -185.352 697.026C-173.099 698.922 -162.796 705.346 -153.373 714.151C-143.926 722.978 -135.494 734.068 -126.913 745.177C-118.381 756.224 -109.7 767.29 -99.8737 775.76C-90.0134 784.258 -78.8849 790.245 -65.4355 790.996C-34.8953 792.703 -3.57256 785.104 27.6794 773.897C58.8996 762.701 90.3 747.801 120.806 734.861C182.14 708.843 239.794 690.808 288.727 723.27C297.896 729.353 303.876 736.527 307.401 744.573C310.932 752.634 312.051 761.687 311.305 771.592C309.807 791.471 300.833 814.456 289.352 838.995C277.946 863.374 263.994 889.416 252.995 914.805C241.972 940.25 233.693 965.494 233.612 988.685C233.487 1024.85 243.211 1058.97 254.652 1092.67C266.121 1126.46 279.273 1159.72 286.292 1194.55C290.911 1217.47 298.388 1240.68 306.368 1263.87C314.362 1287.1 322.848 1310.28 329.568 1333.32C343.009 1379.4 349.221 1424.4 330.271 1466.78C312.267 1507.04 272.223 1526.47 227.782 1543.61C205.67 1552.14 182.433 1560.11 160.7 1569.79C138.935 1579.48 118.482 1590.96 101.808 1606.62C83.456 1623.85 69.5308 1647.99 57.4396 1674.18C45.3795 1700.3 34.9648 1728.9 23.9192 1754.74C12.81 1780.72 0.996672 1804.09 -14.0235 1820.46C-28.9662 1836.74 -47.0199 1846.03 -70.8011 1844.06C-102.285 1841.44 -126.898 1826.46 -147.993 1804.48C-169.13 1782.46 -186.652 1753.51 -203.932 1723.1C-221.17 1692.77 -238.172 1660.97 -258.186 1633.6C-278.215 1606.21 -301.388 1583.08 -331.099 1570.13C-348.817 1562.41 -366.72 1563.06 -384.658 1568.21C-402.548 1573.34 -420.59 1582.97 -438.668 1593.32C-456.815 1603.7 -474.984 1614.79 -493.371 1623.08C-511.736 1631.37 -530.121 1636.76 -548.597 1635.84C-586.741 1633.93 -621.352 1619.48 -655.427 1601.79C-689.383 1584.16 -723.009 1563.19 -758.624 1548.73C-783.881 1538.48 -811.633 1531.55 -839.88 1525.5C-868.192 1519.44 -896.898 1514.28 -924.371 1507.54C-979.297 1494.07 -1028.38 1474.46 -1057.05 1429.7C-1083.35 1388.62 -1074.92 1340.15 -1059.81 1288.84C-1052.31 1263.37 -1043.1 1236.97 -1036 1210.99C-1028.87 1184.92 -1023.76 1158.86 -1024.38 1133.55C-1025.65 1082.66 -1043.04 1033.05 -1057.21 984.146C-1071.42 935.102 -1082.42 886.677 -1071.51 837.518Z" stroke="#E7EBE9" stroke-width="3.72718"/>
</svg>
