<svg width="621" height="2321" viewBox="0 0 621 2321" fill="none" xmlns="http://www.w3.org/2000/svg">
<path d="M1552.33 442.051C1652.58 501.933 1738.79 607.209 1784.71 722.417C1807.66 779.998 1825.63 844.802 1831.67 907.642C1837.72 970.501 1831.82 1031.25 1807.22 1080.84C1776.94 1141.86 1718.29 1170.98 1656.98 1198.75C1595.89 1226.42 1532.09 1252.76 1493.21 1308.58C1484.69 1320.81 1483.38 1335.45 1485.69 1351.12C1487.99 1366.76 1493.95 1383.7 1500.23 1400.75C1506.55 1417.86 1513.2 1435.09 1517.09 1451.56C1520.98 1468.02 1522.03 1483.47 1517.35 1497.03C1512.78 1510.29 1503.82 1519.68 1492.55 1527.22C1481.23 1534.79 1467.73 1540.41 1454.16 1546.2C1427.3 1557.66 1399.89 1569.81 1392.74 1599.63C1384.59 1633.57 1386.13 1671.7 1391.51 1711.06C1396.9 1750.39 1406.16 1791.22 1413.55 1830.42C1420.96 1869.71 1426.49 1907.41 1424.55 1940.84C1422.6 1974.23 1413.2 2003.17 1390.91 2025.14C1382.57 2033.36 1373.75 2037.58 1364.51 2038.72C1355.25 2039.86 1345.4 2037.92 1335.02 2033.55C1314.18 2024.78 1291.62 2006.42 1267.96 1984.7C1244.44 1963.09 1219.76 1938.09 1195.11 1916.62C1170.43 1895.13 1145.42 1876.83 1120.89 1868.54C1082.58 1855.58 1044.36 1854.51 1006.22 1855.53C967.993 1856.55 929.978 1859.67 891.571 1855.28C866.292 1852.39 840.119 1852.64 813.855 1853.47C787.548 1854.29 761.193 1855.7 735.356 1855.15C683.724 1854.05 634.623 1845.16 593.492 1808.55C554.328 1773.7 542.012 1721.16 533.077 1664.73C524.18 1608.53 518.653 1548.45 492.517 1499.83C478.111 1473.02 455.472 1448.74 430.215 1425.76C405.011 1402.83 376.883 1380.93 351.736 1359.22C326.48 1337.42 304.08 1315.69 289.783 1292.77C275.524 1269.9 269.384 1245.96 276.462 1219.57C285.803 1184.74 306.831 1162.17 334.482 1146.08C362.212 1129.93 396.546 1120.34 432.401 1111.53C468.161 1102.75 505.445 1094.74 538.652 1081.75C571.895 1068.75 601.282 1050.66 621.205 1021.57C633.068 1004.24 636.07 983.783 634.351 961.735C632.634 939.711 626.189 915.908 618.976 891.751C611.743 867.526 603.741 842.954 598.759 819.135C593.779 795.326 591.869 772.485 596.711 751.787C606.681 709.172 629.226 675.046 655.069 642.704C680.829 610.464 710.076 579.781 732.818 544.536C748.945 519.545 762.065 490.551 774.353 460.68C786.668 430.745 798.113 400.022 810.976 371.267C836.711 313.737 867.715 265.098 921.089 248.497C945.572 240.883 970.235 243.737 995.238 252.944C1020.27 262.162 1045.54 277.708 1071.15 295.34C1096.64 312.895 1122.68 332.67 1148.77 349.928C1174.93 367.235 1201.49 382.255 1228.43 390.506C1282.67 407.111 1338.91 404.982 1393.74 406.258C1448.7 407.536 1502.39 412.216 1552.33 442.051Z" stroke="#E7EBE9" stroke-width="3.72718"/>
<path d="M1547.17 450.514C1646.24 509.678 1731.42 613.7 1776.8 727.539C1799.48 784.436 1817.23 848.47 1823.2 910.565C1829.17 972.678 1823.34 1032.7 1799.02 1081.7C1769.1 1142 1711.14 1170.77 1650.54 1198.22C1590.16 1225.57 1527.1 1251.61 1488.66 1306.77C1480.24 1318.87 1478.94 1333.34 1481.22 1348.82C1483.5 1364.29 1489.39 1381.03 1495.6 1397.87C1501.84 1414.79 1508.41 1431.81 1512.26 1448.08C1516.1 1464.35 1517.13 1479.6 1512.51 1493.01C1507.99 1506.1 1499.14 1515.38 1488 1522.83C1476.82 1530.31 1463.48 1535.86 1450.06 1541.58C1423.52 1552.91 1396.42 1564.92 1389.34 1594.4C1381.29 1627.95 1382.81 1665.63 1388.12 1704.52C1393.44 1743.39 1402.6 1783.74 1409.9 1822.48C1417.21 1861.3 1422.68 1898.55 1420.75 1931.58C1418.83 1964.57 1409.54 1993.17 1387.51 2014.87C1379.27 2022.99 1370.55 2027.16 1361.43 2028.28C1352.28 2029.41 1342.55 2027.5 1332.29 2023.18C1311.7 2014.52 1289.41 1996.38 1266.03 1974.91C1242.78 1953.57 1218.4 1928.86 1194.04 1907.65C1169.65 1886.41 1144.93 1868.33 1120.68 1860.13C1082.81 1847.34 1045.04 1846.28 1007.34 1847.29C969.561 1848.3 931.994 1851.39 894.038 1847.05C869.053 1844.2 843.184 1844.45 817.226 1845.26C791.226 1846.08 765.181 1847.47 739.647 1846.93C688.62 1845.85 640.099 1837.07 599.458 1800.9C560.761 1766.47 548.593 1714.56 539.767 1658.79C530.978 1603.27 525.52 1543.89 499.691 1495.84C485.453 1469.35 463.079 1445.36 438.118 1422.65C413.211 1399.99 385.412 1378.35 360.561 1356.9C335.603 1335.36 313.468 1313.89 299.341 1291.24C285.253 1268.65 279.19 1245 286.185 1218.93C295.417 1184.52 316.198 1162.22 343.522 1146.31C370.926 1130.36 404.857 1120.88 440.294 1112.17C475.635 1103.49 512.485 1095.57 545.307 1082.73C578.165 1069.88 607.214 1052.01 626.91 1023.24C638.64 1006.11 641.608 985.896 639.911 964.105C638.215 942.339 631.848 918.816 624.721 894.945C617.573 871.006 609.666 846.726 604.744 823.19C599.824 799.664 597.94 777.097 602.726 756.648C612.581 714.54 634.864 680.819 660.406 648.858C685.866 617 714.775 586.675 737.256 551.844C753.197 527.145 766.166 498.491 778.313 468.971C790.486 439.388 801.8 409.029 814.514 380.613C839.953 323.761 870.595 275.702 923.336 259.297C947.528 251.772 971.897 254.591 996.604 263.686C1021.34 272.792 1046.31 288.152 1071.62 305.574C1096.81 322.918 1122.55 342.458 1148.33 359.51C1174.19 376.611 1200.43 391.453 1227.06 399.605C1280.67 416.011 1336.25 413.903 1390.44 415.159C1444.76 416.418 1497.82 421.038 1547.17 450.514Z" stroke="#E7EBE9" stroke-width="3.72718"/>
<path d="M1542.01 458.991C1639.89 517.437 1724.06 620.204 1768.89 732.673C1791.3 788.887 1808.83 852.153 1814.73 913.502C1820.62 974.869 1814.86 1034.17 1790.82 1082.58C1761.25 1142.15 1703.98 1170.59 1644.1 1197.71C1584.43 1224.74 1522.11 1250.47 1484.12 1304.98C1475.79 1316.94 1474.51 1331.24 1476.76 1346.55C1479.01 1361.83 1484.83 1378.37 1490.96 1395.01C1497.13 1411.72 1503.62 1428.54 1507.42 1444.61C1511.21 1460.69 1512.24 1475.76 1507.67 1488.99C1503.2 1501.92 1494.46 1511.09 1483.46 1518.45C1472.41 1525.84 1459.22 1531.32 1445.97 1536.98C1419.74 1548.17 1392.95 1560.05 1385.95 1589.18C1377.99 1622.33 1379.48 1659.57 1384.74 1698C1389.99 1736.4 1399.03 1776.27 1406.24 1814.54C1413.47 1852.9 1418.87 1889.7 1416.96 1922.33C1415.06 1954.93 1405.88 1983.17 1384.11 2004.62C1375.97 2012.64 1367.36 2016.75 1358.35 2017.86C1349.31 2018.98 1339.71 2017.09 1329.57 2012.83C1309.23 2004.27 1287.2 1986.35 1264.1 1965.15C1241.13 1944.06 1217.03 1919.65 1192.97 1898.69C1168.87 1877.71 1144.44 1859.84 1120.47 1851.75C1083.05 1839.1 1045.72 1838.06 1008.47 1839.06C971.132 1840.07 934.011 1843.12 896.506 1838.84C871.815 1836.02 846.251 1836.27 820.6 1837.08C794.907 1837.89 769.17 1839.26 743.939 1838.73C693.518 1837.66 645.577 1828.99 605.425 1793.27C567.195 1759.25 555.177 1707.98 546.459 1652.88C537.78 1598.02 532.389 1539.35 506.867 1491.87C492.798 1465.69 470.687 1441.99 446.023 1419.55C421.412 1397.17 393.942 1375.78 369.388 1354.59C344.727 1333.31 322.858 1312.1 308.902 1289.73C294.985 1267.42 288.997 1244.05 295.909 1218.3C305.034 1184.31 325.565 1162.27 352.564 1146.56C379.643 1130.8 413.17 1121.43 448.188 1112.82C483.112 1104.24 519.529 1096.42 551.965 1083.73C584.437 1071.02 613.148 1053.36 632.617 1024.94C644.213 1008 647.149 988.021 645.473 966.488C643.798 944.981 637.506 921.738 630.466 898.153C623.405 874.499 615.594 850.512 610.733 827.259C605.873 804.016 604.013 781.723 608.743 761.523C618.484 719.923 640.502 686.607 665.744 655.027C690.904 623.55 719.476 593.582 741.694 559.164C757.45 534.758 770.269 506.445 782.275 477.277C794.307 448.046 805.488 418.049 818.054 389.973C843.196 333.799 873.476 286.322 925.585 270.112C949.485 262.677 973.561 265.458 997.972 274.441C1022.41 283.436 1047.08 298.608 1072.09 315.82C1096.98 332.953 1122.42 352.259 1147.89 369.106C1173.44 386.001 1199.38 400.664 1225.7 408.718C1278.67 424.925 1333.6 422.836 1387.15 424.073C1440.82 425.313 1493.25 429.876 1542.01 458.991Z" stroke="#E7EBE9" stroke-width="3.72718"/>
<path d="M1536.85 467.466C1633.55 525.194 1716.7 626.706 1760.98 737.807C1783.12 793.337 1800.44 855.832 1806.25 916.436C1812.07 977.057 1806.37 1035.64 1782.63 1083.46C1753.41 1142.31 1696.83 1170.39 1637.66 1197.2C1578.71 1223.9 1517.12 1249.33 1479.58 1303.19C1471.34 1315.01 1470.07 1329.14 1472.3 1344.27C1474.52 1359.36 1480.27 1375.71 1486.33 1392.15C1492.42 1408.66 1498.84 1425.27 1502.58 1441.15C1506.33 1457.02 1507.34 1471.91 1502.83 1484.97C1498.42 1497.75 1489.78 1506.79 1478.91 1514.06C1468 1521.36 1454.97 1526.78 1441.87 1532.37C1415.96 1543.43 1389.47 1555.17 1382.55 1583.96C1374.68 1616.72 1376.16 1653.5 1381.35 1691.47C1386.53 1729.41 1395.47 1768.8 1402.59 1806.6C1409.72 1844.49 1415.05 1880.85 1413.17 1913.08C1411.29 1945.28 1402.22 1973.18 1380.71 1994.36C1372.67 2002.28 1364.17 2006.34 1355.28 2007.44C1346.35 2008.55 1336.86 2006.68 1326.85 2002.47C1306.76 1994.02 1284.99 1976.32 1262.18 1955.38C1239.48 1934.55 1215.67 1910.43 1191.89 1889.73C1168.08 1869 1143.95 1851.35 1120.26 1843.35C1083.29 1830.87 1046.4 1829.84 1009.59 1830.83C972.702 1831.83 936.028 1834.84 898.974 1830.62C874.577 1827.84 849.318 1828.08 823.974 1828.89C798.588 1829.69 773.16 1831.05 748.232 1830.52C698.416 1829.48 651.056 1820.91 611.393 1785.63C573.63 1752.04 561.761 1701.39 553.152 1646.96C544.581 1592.76 539.258 1534.8 514.043 1487.89C500.142 1462.03 478.297 1438.61 453.929 1416.45C429.615 1394.34 402.472 1373.21 378.215 1352.28C353.851 1331.26 332.248 1310.31 318.463 1288.21C304.716 1266.18 298.805 1243.1 305.635 1217.67C314.651 1184.09 334.933 1162.33 361.607 1146.81C388.359 1131.24 421.483 1121.97 456.083 1113.47C490.588 1104.99 526.571 1097.26 558.622 1084.72C590.709 1072.17 619.083 1054.71 638.325 1026.63C649.787 1009.89 652.689 990.146 651.034 968.871C649.382 947.621 643.167 924.657 636.212 901.358C629.237 877.991 621.521 854.296 616.72 831.326C611.921 808.366 610.087 786.348 614.76 766.396C624.387 725.304 646.142 692.392 671.084 661.193C695.943 630.097 724.178 600.487 746.133 566.483C761.703 542.369 774.371 514.396 786.236 485.58C798.127 456.701 809.176 427.068 821.594 399.33C846.439 343.835 876.357 296.939 927.834 280.924C951.443 273.579 975.226 276.324 999.34 285.195C1023.48 294.078 1047.86 309.063 1072.56 326.064C1097.16 342.987 1122.28 362.059 1147.45 378.7C1172.7 395.388 1198.32 409.874 1224.33 417.828C1276.67 433.836 1330.95 431.769 1383.86 432.987C1436.88 434.208 1488.68 438.71 1536.85 467.466Z" stroke="#E7EBE9" stroke-width="3.72718"/>
<path d="M1531.69 475.943C1627.21 532.953 1709.34 633.21 1753.08 742.942C1774.94 797.788 1792.04 859.514 1797.79 919.372C1803.53 979.248 1797.89 1037.1 1774.43 1084.34C1745.57 1142.46 1689.68 1170.2 1631.22 1196.68C1572.98 1223.06 1512.14 1248.19 1475.04 1301.4C1466.89 1313.08 1465.64 1327.05 1467.84 1341.99C1470.04 1356.9 1475.71 1373.05 1481.7 1389.29C1487.71 1405.6 1494.05 1422 1497.75 1437.68C1501.45 1453.36 1502.45 1468.06 1497.99 1480.96C1493.63 1493.57 1485.1 1502.5 1474.37 1509.68C1463.59 1516.89 1450.72 1522.25 1437.78 1527.77C1412.19 1538.69 1386 1550.29 1379.16 1578.75C1371.38 1611.11 1372.84 1647.44 1377.96 1684.94C1383.08 1722.42 1391.9 1761.32 1398.94 1798.67C1405.98 1836.09 1411.24 1872 1409.38 1903.84C1407.52 1935.64 1398.56 1963.19 1377.32 1984.1C1369.37 1991.93 1360.98 1995.94 1352.2 1997.02C1343.39 1998.11 1334.02 1996.28 1324.13 1992.12C1304.29 1983.78 1282.79 1966.3 1260.25 1945.61C1237.84 1925.04 1214.31 1901.22 1190.83 1880.77C1167.31 1860.3 1143.46 1842.87 1120.06 1834.97C1083.53 1822.63 1047.08 1821.62 1010.72 1822.6C974.276 1823.59 938.048 1826.57 901.445 1822.4C877.343 1819.66 852.387 1819.9 827.35 1820.7C802.27 1821.49 777.152 1822.84 752.526 1822.32C703.316 1821.29 656.537 1812.84 617.364 1777.99C580.068 1744.82 568.347 1694.8 559.846 1641.04C551.384 1587.51 546.131 1530.25 521.222 1483.92C507.491 1458.37 485.909 1435.24 461.837 1413.35C437.818 1391.51 411.005 1370.65 387.046 1349.97C362.978 1329.21 341.641 1308.52 328.026 1286.7C314.45 1264.94 308.615 1242.15 315.361 1217.04C324.269 1183.88 344.304 1162.39 370.652 1147.05C397.078 1131.67 429.799 1122.53 463.98 1114.12C498.067 1105.74 533.618 1098.11 565.283 1085.72C596.984 1073.31 625.02 1056.07 644.034 1028.32C655.363 1011.78 658.232 992.273 656.598 971.255C654.967 950.263 648.829 927.579 641.961 904.567C635.072 881.485 627.452 858.082 622.711 835.395C618.047 813.073 616.22 791.653 620.568 772.196L620.78 771.271C630.292 730.686 651.783 698.179 676.425 667.361C700.984 636.647 728.882 607.394 750.575 573.804C765.959 549.983 778.477 522.35 790.2 493.886C801.949 465.358 812.867 436.088 825.137 408.69C849.685 353.873 879.241 307.558 930.086 291.738C953.403 284.483 976.892 287.191 1000.71 295.951C1024.56 304.721 1048.63 319.521 1073.04 336.311C1097.33 353.023 1122.16 371.861 1147.02 388.295C1171.96 404.777 1197.27 419.085 1222.97 426.941C1274.68 442.75 1328.3 440.703 1380.57 441.902C1432.95 443.103 1484.11 447.546 1531.69 475.943Z" stroke="#E7EBE9" stroke-width="3.72718"/>
</svg>
