<svg width="876" height="1034" viewBox="0 0 876 1034" fill="none" xmlns="http://www.w3.org/2000/svg">
<path d="M983.842 -832.103C1087.11 -856.601 1204.64 -839.501 1298.84 -788.463C1393.15 -737.361 1488.36 -652.566 1506.43 -549.217C1517.55 -485.604 1491.38 -425.654 1462.63 -364.926C1433.97 -304.41 1402.72 -243.104 1404.93 -177.521C1405.41 -163.136 1412.32 -151.812 1422.42 -142.164C1432.47 -132.557 1445.82 -124.483 1459.4 -116.589C1473.07 -108.65 1486.98 -100.886 1498.53 -91.8184C1510.05 -82.7638 1519.02 -72.5567 1522.93 -59.8488C1526.76 -47.3909 1525.42 -34.7061 1521.42 -21.7719C1517.42 -8.80569 1510.81 4.23641 1504.26 17.4179C1497.74 30.5295 1491.28 43.7802 1487.79 56.9222C1484.29 70.1073 1483.74 83.3309 1489.19 96.346C1501.57 125.939 1523.1 152.018 1548.01 176.385C1572.89 200.728 1601.35 223.545 1627.56 246.422C1680.25 292.407 1723.75 338.606 1715.53 399.707C1713.99 411.161 1709.95 420.107 1703.96 427.131C1697.96 434.168 1689.91 439.375 1680.21 443.208C1660.73 450.899 1634.9 452.946 1606.47 453.34C1578.21 453.731 1547.24 452.48 1518.22 453.718C1489.15 454.957 1461.53 458.696 1439.62 469.226C1405.43 485.65 1377.68 510.438 1351.11 536.661C1324.48 562.945 1299.09 590.589 1269.42 613.161C1249.9 628.009 1231.42 645.683 1213.19 663.831C1194.92 682.006 1176.92 700.629 1158.25 717.519C1120.9 751.3 1081.24 777.779 1032.51 779.287C986.193 780.721 949.456 751.788 912.899 717.682C894.706 700.709 876.526 682.431 857.427 666.347C838.3 650.24 818.095 636.193 795.68 627.625C771.011 618.196 741.852 616.098 711.585 616.67C681.391 617.242 649.623 620.5 620.155 621.899C590.525 623.306 563.031 622.852 540.675 616.159C518.428 609.499 501.352 596.692 492.301 573.308C480.324 542.364 483.189 512.25 494.269 482.266C505.37 452.225 524.676 422.427 545.463 392.198C566.204 362.039 588.427 331.442 605.085 300.03C621.756 268.596 632.969 236.15 631.572 202.2C630.74 181.967 621.923 165.388 608.85 150.822C595.81 136.292 578.452 123.675 560.396 111.344C542.275 98.9692 523.465 86.8909 507.2 73.3272C490.951 59.7779 477.417 44.881 469.809 26.9987C454.112 -9.89932 451.886 -49.2002 452.963 -89.4654C454.038 -129.596 458.423 -170.923 455.743 -211.152C453.842 -239.679 447.662 -269.041 440.42 -298.472C433.162 -327.966 424.867 -357.429 418.631 -386.448C406.165 -444.464 402.164 -499.804 431.305 -547.38C458.054 -591.05 507.72 -605.277 563.088 -614.499C590.587 -619.08 619.724 -622.459 647.51 -627.649C675.392 -632.858 702.332 -639.954 725.925 -652.121C773.384 -676.598 812.236 -715.708 851.921 -751.472C891.712 -787.331 932.4 -819.9 983.842 -832.103Z" stroke="#034728" stroke-width="3.72718"/>
<path d="M984.699 -822.64C1086.74 -846.858 1202.88 -829.968 1295.95 -779.537C1389.15 -729.04 1483.22 -645.249 1501.06 -543.118C1512.04 -480.258 1486.19 -421.012 1457.76 -360.991C1429.45 -301.182 1398.56 -240.586 1400.73 -175.764C1401.21 -161.539 1408.04 -150.342 1418.02 -140.805C1427.95 -131.309 1441.14 -123.33 1454.57 -115.529C1468.07 -107.683 1481.82 -100.012 1493.22 -91.0525C1504.61 -82.1061 1513.47 -72.0229 1517.33 -59.4703C1521.12 -47.1639 1519.79 -34.6317 1515.84 -21.8507C1511.88 -9.03762 1505.35 3.85115 1498.87 16.8797C1492.43 29.8383 1486.04 42.9363 1482.59 55.9275C1479.13 68.9617 1478.59 82.0352 1483.98 94.9035C1496.21 124.153 1517.49 149.929 1542.1 174.01C1566.69 198.068 1594.81 220.616 1620.71 243.223C1672.77 288.668 1715.75 334.315 1707.62 394.69C1706.1 406.007 1702.11 414.845 1696.19 421.784C1690.26 428.736 1682.31 433.88 1672.72 437.668C1653.48 445.269 1627.96 447.295 1599.86 447.686C1571.94 448.075 1541.33 446.842 1512.66 448.066C1483.93 449.294 1456.63 452.99 1434.97 463.401C1401.19 479.637 1373.76 504.139 1347.5 530.058C1321.18 556.038 1296.1 583.36 1266.77 605.669C1247.48 620.345 1229.22 637.815 1211.2 655.752C1193.14 673.717 1175.36 692.124 1156.9 708.818C1120 742.205 1080.81 768.372 1032.66 769.867C986.902 771.287 950.608 742.703 914.485 708.998C896.509 692.225 878.543 674.16 859.67 658.266C840.77 642.348 820.802 628.465 798.65 619.998C774.269 610.679 745.451 608.606 715.54 609.175C685.703 609.742 654.308 612.966 625.19 614.35C595.911 615.743 568.744 615.296 546.657 608.684C524.679 602.105 507.812 589.454 498.873 566.351C487.043 535.777 489.874 506.02 500.825 476.388C511.796 446.7 530.874 417.251 551.418 387.374C571.916 357.566 593.88 327.324 610.345 296.277C626.822 265.208 637.905 233.136 636.528 199.577C635.707 179.574 626.992 163.186 614.073 148.788C601.185 134.427 584.032 121.957 566.19 109.772C548.284 97.5424 529.699 85.6079 513.627 72.2051C497.573 58.8165 484.203 44.0973 476.689 26.4292C461.182 -10.0318 458.984 -48.8691 460.052 -88.6627C461.117 -128.322 465.453 -169.17 462.808 -208.931C460.932 -237.125 454.827 -266.145 447.673 -295.231C440.503 -324.381 432.308 -353.499 426.149 -382.177C413.835 -439.513 409.886 -494.198 438.682 -541.213C465.112 -584.366 514.183 -598.429 568.897 -607.548C596.069 -612.076 624.866 -615.418 652.323 -620.55C679.877 -625.7 706.502 -632.716 729.82 -644.744C776.723 -668.94 815.121 -707.599 854.338 -742.946C893.662 -778.389 933.869 -810.577 984.699 -822.64Z" stroke="#034728" stroke-width="3.72718"/>
<path d="M985.562 -813.17C1086.38 -837.109 1201.12 -820.428 1293.07 -770.603C1385.15 -720.711 1478.08 -637.923 1495.7 -537.013C1506.54 -474.904 1481 -416.363 1452.91 -357.049C1424.93 -297.947 1394.4 -238.059 1396.54 -173.998C1397.01 -159.934 1403.77 -148.866 1413.63 -139.44C1423.44 -130.054 1436.48 -122.169 1449.74 -114.461C1463.08 -106.709 1476.66 -99.1312 1487.93 -90.2793C1499.18 -81.441 1507.92 -71.4809 1511.74 -59.0828C1515.48 -46.928 1514.16 -34.5492 1510.26 -21.9214C1506.35 -9.26166 1499.9 3.47362 1493.5 16.3491C1487.13 29.1545 1480.82 42.1002 1477.41 54.9404C1473.99 67.8235 1473.45 80.7471 1478.77 93.4686C1490.86 122.376 1511.88 147.847 1536.2 171.643C1560.49 195.415 1588.28 217.695 1613.86 240.032C1665.3 284.936 1707.75 330.033 1699.72 389.681C1698.21 400.86 1694.27 409.589 1688.43 416.444C1682.57 423.31 1674.71 428.393 1665.24 432.135C1646.24 439.646 1621.03 441.651 1593.26 442.039C1565.68 442.425 1535.43 441.209 1507.1 442.422C1478.71 443.637 1451.74 447.293 1430.33 457.584C1396.95 473.633 1369.85 497.849 1343.9 523.463C1317.89 549.139 1293.1 576.139 1264.13 598.185C1245.07 612.69 1227.02 629.956 1209.21 647.682C1191.38 665.436 1173.8 683.625 1155.57 700.123C1119.1 733.117 1080.38 758.974 1032.82 760.454C987.618 761.861 951.766 733.624 916.078 700.321C898.319 683.748 880.569 665.897 861.922 650.192C843.248 634.463 823.518 620.744 801.627 612.377C777.534 603.169 749.058 601.124 719.504 601.688C690.024 602.251 659.001 605.439 630.234 606.809C601.305 608.187 574.466 607.748 552.647 601.217C530.938 594.719 514.281 582.223 505.453 559.402C493.769 529.197 496.568 499.797 507.388 470.519C518.229 441.184 537.081 412.083 557.382 382.558C577.636 353.102 599.341 323.214 615.612 292.532C631.895 261.827 642.85 230.129 641.492 196.962C640.682 177.19 632.071 160.991 619.304 146.761C606.57 132.569 589.621 120.247 571.993 108.207C554.301 96.1235 535.94 84.3327 520.063 71.0905C504.203 57.8625 490.996 43.3209 483.575 25.8669C468.259 -10.1573 466.09 -48.5314 467.149 -87.8538C468.204 -127.041 472.493 -167.41 469.882 -206.701C468.031 -234.564 462 -263.241 454.933 -291.984C447.851 -320.789 439.757 -349.56 433.674 -377.898C421.512 -434.554 417.617 -488.584 446.067 -535.038C472.179 -577.673 520.654 -591.573 574.715 -600.588C601.561 -605.065 630.016 -608.371 657.145 -613.444C684.371 -618.536 710.68 -625.47 733.723 -637.36C780.07 -661.274 818.015 -699.482 856.764 -734.413C895.62 -769.44 935.345 -801.247 985.562 -813.17Z" stroke="#034728" stroke-width="3.72718"/>
<path d="M986.426 -803.701C1086.02 -827.359 1199.37 -810.889 1290.2 -761.671C1381.15 -712.385 1472.94 -630.6 1490.34 -530.909C1501.04 -469.553 1475.81 -411.716 1448.06 -353.108C1420.41 -294.713 1390.24 -235.535 1392.35 -172.234C1392.82 -158.331 1399.49 -147.39 1409.23 -138.074C1418.94 -128.8 1431.81 -121.009 1444.91 -113.395C1458.09 -105.736 1471.51 -98.2513 1482.64 -89.5076C1493.75 -80.7773 1502.38 -70.9408 1506.15 -58.6976C1509.84 -46.6945 1508.54 -34.4684 1504.69 -21.994C1500.82 -9.48759 1494.45 3.09393 1488.12 15.8163C1481.83 28.4687 1475.59 41.2621 1472.22 53.9515C1468.84 66.6836 1468.31 79.4585 1473.57 92.0333C1485.51 120.597 1506.28 145.764 1530.3 169.274C1554.3 192.76 1581.75 214.773 1607.02 236.839C1657.83 281.202 1699.75 325.749 1691.81 384.671C1690.33 395.713 1686.43 404.333 1680.66 411.102C1674.88 417.884 1667.12 422.904 1657.77 426.602C1639 434.023 1614.09 436.005 1586.67 436.391C1559.42 436.775 1529.53 435.577 1501.55 436.777C1473.5 437.98 1446.85 441.594 1425.7 451.765C1392.71 467.626 1365.93 491.558 1340.3 516.868C1314.6 542.24 1290.11 568.915 1261.49 590.698C1242.66 605.033 1224.83 622.094 1207.23 639.61C1189.61 657.153 1172.25 675.126 1154.23 691.427C1118.2 724.029 1079.96 749.574 1032.97 751.04C988.334 752.434 952.925 724.544 917.671 691.642C900.129 675.27 882.594 657.633 864.174 642.116C845.726 626.576 826.234 613.022 804.606 604.756C780.8 595.658 752.666 593.64 723.469 594.199C694.345 594.758 663.695 597.91 635.277 599.266C606.698 600.631 580.188 600.198 558.638 593.748C537.198 587.332 520.749 574.991 512.033 552.451C500.495 522.615 503.261 493.572 513.952 464.647C524.663 435.665 543.287 406.913 563.345 377.74C583.355 348.635 604.801 319.103 620.879 288.785C636.968 258.444 647.795 227.121 646.455 194.346C645.657 174.804 637.148 158.795 624.534 144.734C611.954 130.71 595.209 118.535 577.796 106.641C560.318 94.7028 542.181 83.0549 526.498 69.9733C510.833 56.9061 497.791 42.5425 490.463 25.3027C475.337 -10.2843 473.197 -48.1942 474.246 -87.0449C475.291 -125.761 479.531 -165.65 476.955 -204.472C475.128 -232.003 469.173 -260.338 462.194 -288.737C455.2 -317.198 447.206 -345.623 441.198 -373.621C429.188 -429.597 425.347 -482.973 453.452 -528.865C479.246 -570.983 527.125 -584.719 580.533 -593.631C607.052 -598.056 635.166 -601.324 661.966 -606.339C688.864 -611.372 714.858 -618.227 737.626 -629.977C783.418 -653.611 820.908 -691.368 859.19 -725.882C897.579 -760.493 936.822 -791.917 986.426 -803.701Z" stroke="#034728" stroke-width="3.72718"/>
<path d="M987.291 -794.233C1085.66 -817.612 1197.61 -801.351 1287.32 -752.739C1377.15 -704.059 1467.81 -623.277 1484.98 -524.806C1495.55 -464.201 1470.62 -407.069 1443.2 -349.169C1415.89 -291.48 1386.08 -233.011 1388.16 -170.47C1388.62 -156.728 1395.22 -145.915 1404.84 -136.711C1414.43 -127.547 1427.15 -119.851 1440.09 -112.33C1453.11 -104.765 1466.35 -97.3727 1477.34 -88.7371C1488.32 -80.115 1496.84 -70.4021 1500.55 -58.3138C1504.2 -46.4621 1502.92 -34.3888 1499.11 -22.0675C1495.29 -9.71422 1489 2.71363 1482.75 15.283C1476.53 27.7822 1470.37 40.4225 1467.04 52.9608C1463.7 65.542 1463.17 78.1676 1468.36 90.5957C1480.16 118.817 1500.67 143.68 1524.4 166.904C1548.1 190.104 1575.21 211.849 1600.17 233.645C1650.36 277.468 1691.75 321.464 1683.91 379.659C1682.44 390.563 1678.6 399.075 1672.9 405.759C1667.19 412.456 1659.53 417.414 1650.29 421.067C1631.75 428.398 1607.16 430.359 1580.07 430.743C1553.16 431.124 1523.64 429.942 1495.99 431.13C1468.29 432.321 1441.96 435.893 1421.06 445.945C1388.48 461.619 1362.02 485.264 1336.69 510.27C1311.31 535.338 1287.12 561.691 1258.85 583.212C1240.25 597.375 1222.63 614.232 1205.25 631.537C1187.84 648.87 1170.69 666.625 1152.9 682.729C1117.31 714.938 1079.54 740.172 1033.13 741.624C989.052 743.004 954.085 715.463 919.265 682.962C901.94 666.791 884.62 649.367 866.426 634.039C848.205 618.689 828.95 605.298 807.585 597.133C784.068 588.146 756.274 586.155 727.434 586.71C698.667 587.264 668.389 590.38 640.322 591.722C612.093 593.072 585.911 592.646 564.63 586.278C543.459 579.942 527.218 567.756 518.613 545.498C507.222 516.031 509.956 487.347 520.516 458.775C531.098 430.146 549.495 401.743 569.309 372.921C589.077 344.168 610.263 314.99 626.147 285.036C642.043 255.06 652.742 224.112 651.421 191.728C650.634 172.416 642.227 156.597 629.767 142.705C617.339 128.849 600.798 116.822 583.599 105.074C566.335 93.2808 548.423 81.7769 532.935 68.856C517.464 55.9495 504.586 41.7637 497.351 24.7381C482.415 -10.4121 480.305 -47.8588 481.344 -86.2382C482.38 -124.483 486.571 -163.892 484.029 -202.245C482.227 -229.445 476.346 -257.438 469.455 -285.491C462.549 -313.608 454.655 -341.687 448.724 -369.345C436.866 -424.641 433.078 -477.362 460.838 -522.693C486.313 -564.294 533.598 -577.866 586.352 -586.674C612.544 -591.047 640.317 -594.279 666.789 -599.235C693.359 -604.21 719.037 -610.984 741.529 -622.595C786.766 -645.948 823.803 -683.253 861.618 -717.351C899.539 -751.546 938.3 -782.59 987.291 -794.233Z" stroke="#034728" stroke-width="3.72718"/>
</svg>
