<svg width="669" height="1837" viewBox="0 0 669 1837" fill="none" xmlns="http://www.w3.org/2000/svg">
<path d="M1537.85 -82.7862C1641.19 -28.4239 1732.98 72.0266 1785.07 184.577C1811.11 240.83 1832.56 304.565 1842 366.985C1851.45 429.424 1848.85 490.4 1826.97 541.25C1800.04 603.827 1743.06 636.079 1683.34 667.131C1623.84 698.074 1561.56 727.833 1525.76 785.673C1517.92 798.351 1517.4 813.033 1520.56 828.554C1523.71 844.051 1530.57 860.646 1537.77 877.323C1545 894.073 1552.58 910.914 1557.36 927.147C1562.13 943.377 1564.02 958.743 1560.08 972.543C1556.23 986.029 1547.79 995.891 1536.95 1004.03C1526.06 1012.2 1512.89 1018.54 1499.65 1025.06C1473.45 1037.96 1446.74 1051.58 1441.21 1081.74C1434.91 1116.07 1438.52 1154.06 1446.03 1193.07C1453.53 1232.06 1465 1272.32 1474.5 1311.07C1484.02 1349.9 1491.59 1387.24 1491.46 1420.73C1491.33 1454.17 1483.51 1483.58 1462.44 1506.72C1454.56 1515.38 1445.98 1520.07 1436.82 1521.71C1427.63 1523.35 1417.69 1521.95 1407.08 1518.15C1385.81 1510.53 1362.28 1493.41 1337.48 1473C1312.82 1452.7 1286.83 1429.08 1261.05 1408.97C1235.24 1388.85 1209.28 1371.94 1184.33 1364.98C1145.37 1354.12 1107.16 1355.12 1069.13 1358.21C1031.01 1361.3 993.22 1366.47 954.631 1364.17C929.234 1362.66 903.112 1364.32 876.931 1366.57C850.708 1368.82 824.468 1371.65 798.639 1372.5C747.023 1374.2 697.512 1367.99 654.459 1333.66C613.463 1300.98 598.319 1249.19 586.339 1193.32C574.411 1137.69 565.636 1078 536.903 1030.86C521.066 1004.88 497.145 981.862 470.68 960.284C444.271 938.753 414.997 918.407 388.711 898.091C362.311 877.688 338.767 857.206 323.248 835.091C307.771 813.035 300.343 789.456 305.98 762.722C313.42 727.44 333.195 703.763 359.933 686.193C386.748 668.573 420.512 657.132 455.837 646.394C491.068 635.684 527.863 625.673 560.317 610.902C592.807 596.115 621.171 576.466 639.488 546.33C650.395 528.385 652.285 507.798 649.373 485.875C646.465 463.977 638.74 440.558 630.229 416.827C621.693 393.029 612.372 368.927 606.107 345.413C599.844 321.909 596.699 299.205 600.413 278.275C608.058 235.182 628.722 199.885 652.774 166.19C676.75 132.602 704.29 100.379 725.09 63.9537C739.838 38.1255 751.368 8.46357 762.02 -22.0297C772.694 -52.5879 782.458 -83.8857 793.744 -113.295C816.324 -172.136 844.647 -222.383 897.043 -241.851C921.078 -250.782 945.859 -249.268 971.324 -241.429C996.819 -233.581 1022.89 -219.427 1049.42 -203.208C1075.83 -187.061 1102.9 -168.726 1129.89 -152.906C1156.95 -137.043 1184.28 -123.483 1211.63 -116.705C1266.69 -103.063 1322.73 -108.236 1377.55 -109.933C1432.5 -111.635 1486.36 -109.871 1537.85 -82.7862Z" stroke="#E7EBE9" stroke-width="3.72718"/>
<path d="M1533.15 -74.0555C1635.28 -20.3462 1725.97 78.9077 1777.45 190.12C1803.18 245.705 1824.38 308.683 1833.7 370.363C1843.03 432.061 1840.46 492.313 1818.83 542.559C1792.22 604.392 1735.9 636.263 1676.88 666.954C1618.07 697.535 1556.52 726.952 1521.13 784.118C1513.37 796.653 1512.86 811.168 1515.97 826.509C1519.09 841.825 1525.87 858.226 1532.99 874.705C1540.13 891.257 1547.62 907.898 1552.34 923.936C1557.06 939.973 1558.92 955.152 1555.03 968.783C1551.23 982.104 1542.89 991.848 1532.17 999.889C1521.41 1007.96 1508.39 1014.23 1495.3 1020.67C1469.42 1033.42 1443 1046.88 1437.53 1076.7C1431.31 1110.64 1434.87 1148.18 1442.29 1186.73C1449.7 1225.25 1461.03 1265.05 1470.42 1303.33C1479.83 1341.7 1487.3 1378.6 1487.17 1411.68C1487.04 1444.73 1479.31 1473.79 1458.49 1496.65C1450.7 1505.21 1442.22 1509.84 1433.18 1511.46C1424.1 1513.09 1414.28 1511.7 1403.8 1507.95C1382.78 1500.41 1359.53 1483.5 1335.03 1463.34C1310.65 1443.28 1284.96 1419.94 1259.49 1400.07C1233.99 1380.19 1208.33 1363.47 1183.67 1356.6C1145.16 1345.88 1107.39 1346.86 1069.8 1349.92C1032.13 1352.98 994.783 1358.09 956.648 1355.82C931.546 1354.33 905.727 1355.98 879.852 1358.2C853.935 1360.43 828.003 1363.22 802.477 1364.07C751.467 1365.75 702.541 1359.61 660 1325.7C619.494 1293.41 604.532 1242.24 592.697 1187.04C580.913 1132.07 572.245 1073.07 543.85 1026.49C528.198 1000.81 504.557 978.068 478.402 956.747C452.304 935.472 423.373 915.367 397.397 895.295C371.307 875.135 348.042 854.899 332.709 833.049C317.417 811.259 310.081 787.966 315.653 761.555C323.008 726.695 342.549 703.3 368.972 685.939C395.472 668.527 428.838 657.218 463.751 646.604C498.57 636.018 534.938 626.121 567.015 611.521C599.128 596.905 627.166 577.484 645.275 547.697C656.06 529.958 657.928 509.608 655.052 487.941C652.179 466.299 644.547 443.156 636.137 419.706C627.703 396.189 618.492 372.373 612.302 349.138C606.115 325.913 603.01 303.482 606.681 282.804C614.24 240.224 634.663 205.345 658.436 172.047C682.132 138.856 709.356 107.009 729.916 71.0107C744.495 45.4845 755.893 16.1696 766.423 -13.9647C776.975 -44.164 786.627 -75.0917 797.783 -104.155C820.104 -162.302 848.097 -211.95 899.872 -231.189C923.62 -240.013 948.106 -238.52 973.269 -230.776C998.463 -223.024 1024.23 -209.039 1050.44 -193.014C1076.54 -177.061 1103.3 -158.945 1129.97 -143.314C1156.71 -127.64 1183.72 -114.242 1210.76 -107.545C1265.17 -94.0672 1320.56 -99.1842 1374.74 -100.866C1429.04 -102.552 1482.27 -100.813 1533.15 -74.0555Z" stroke="#E7EBE9" stroke-width="3.72718"/>
<path d="M1528.46 -65.3119C1629.36 -12.2555 1718.98 85.7993 1769.84 195.674C1795.25 250.591 1816.19 312.814 1825.4 373.754C1834.61 434.711 1832.07 494.238 1810.7 543.88C1784.39 604.968 1728.75 636.46 1670.42 666.79C1612.31 697.01 1551.47 726.082 1516.49 782.574C1508.82 794.967 1508.32 809.315 1511.4 824.475C1514.47 839.611 1521.17 855.817 1528.2 872.099C1535.27 888.453 1542.66 904.892 1547.32 920.737C1551.98 936.58 1553.82 951.573 1549.98 965.036C1546.22 978.192 1537.98 987.815 1527.39 995.759C1516.76 1003.74 1503.9 1009.93 1490.97 1016.3C1465.39 1028.89 1439.27 1042.2 1433.86 1071.68C1427.71 1105.21 1431.22 1142.31 1438.55 1180.39C1445.87 1218.46 1457.06 1257.78 1466.34 1295.6C1475.63 1333.51 1483.02 1369.97 1482.88 1402.66C1482.75 1435.31 1475.11 1464.01 1454.54 1486.6C1446.84 1495.05 1438.47 1499.62 1429.54 1501.22C1420.57 1502.83 1410.88 1501.46 1400.52 1497.75C1379.75 1490.31 1356.78 1473.61 1332.57 1453.69C1308.49 1433.88 1283.1 1410.81 1257.94 1391.19C1232.74 1371.54 1207.38 1355.02 1183 1348.24C1144.95 1337.64 1107.62 1338.62 1070.48 1341.64C1033.25 1344.67 996.349 1349.72 958.668 1347.48C933.861 1346.01 908.347 1347.64 882.778 1349.84C857.166 1352.04 831.542 1354.8 806.32 1355.64C755.914 1357.31 707.574 1351.25 665.546 1317.75C625.528 1285.86 610.75 1235.31 599.059 1180.76C587.42 1126.45 578.858 1068.16 550.801 1022.13C535.334 996.762 511.972 974.289 486.128 953.224C460.34 932.206 431.751 912.34 406.086 892.511C380.307 872.594 357.322 852.604 342.174 831.02C327.068 809.496 319.823 786.487 325.33 760.399C332.599 725.962 351.907 702.85 378.015 685.696C404.199 668.492 437.169 657.316 471.67 646.826C506.077 636.364 542.017 626.582 573.717 612.153C605.454 597.708 633.166 578.514 651.066 549.076C661.728 531.542 663.576 511.429 660.735 490.018C657.898 468.633 650.356 445.765 642.048 422.596C633.715 399.36 624.617 375.831 618.502 352.876C612.391 329.93 609.326 307.771 612.954 287.344C620.426 245.277 640.607 210.817 664.101 177.916C687.518 145.122 714.424 113.65 734.745 78.0789C749.155 52.8548 760.421 23.8886 770.829 -5.88673C781.259 -35.7272 790.799 -66.2853 801.825 -95.0018C823.886 -152.455 851.549 -201.503 902.703 -220.513C926.166 -229.232 950.357 -227.76 975.219 -220.112C1000.11 -212.455 1025.57 -198.642 1051.47 -182.811C1077.26 -167.051 1103.7 -149.152 1130.05 -133.71C1156.48 -118.225 1183.17 -104.988 1209.89 -98.3725C1263.66 -85.0596 1318.4 -90.1212 1371.93 -91.7875C1425.59 -93.4575 1478.19 -91.7426 1528.46 -65.3119Z" stroke="#E7EBE9" stroke-width="3.72718"/>
<path d="M1523.76 -56.5691C1623.45 -4.16567 1711.98 92.6919 1762.22 201.23C1787.33 255.479 1808.01 316.944 1817.1 377.144C1826.2 437.361 1823.68 496.163 1802.56 545.201C1776.57 605.545 1721.6 636.658 1663.97 666.626C1606.55 696.484 1546.43 725.212 1511.86 781.03C1504.27 793.281 1503.78 807.462 1506.82 822.441C1509.86 837.396 1516.48 853.408 1523.42 869.492C1530.4 885.648 1537.7 901.886 1542.31 917.538C1546.91 933.187 1548.72 947.993 1544.93 961.287C1541.21 974.279 1533.08 983.783 1522.62 991.63C1512.12 999.51 1499.41 1005.63 1486.63 1011.92C1461.35 1024.36 1435.54 1037.52 1430.19 1066.65C1424.11 1099.78 1427.58 1136.43 1434.81 1174.06C1442.05 1211.67 1453.1 1250.51 1462.26 1287.87C1471.44 1325.32 1478.73 1361.34 1478.6 1393.63C1478.46 1425.88 1470.91 1454.23 1450.59 1476.54C1442.99 1484.89 1434.72 1489.4 1425.9 1490.98C1417.05 1492.57 1407.47 1491.22 1397.24 1487.56C1376.73 1480.21 1354.04 1463.72 1330.12 1444.04C1306.33 1424.47 1281.24 1401.68 1256.38 1382.3C1231.48 1362.89 1206.43 1346.57 1182.34 1339.87C1144.74 1329.4 1107.85 1330.38 1071.16 1333.36C1034.37 1336.36 997.916 1341.36 960.687 1339.14C936.176 1337.69 910.967 1339.3 885.704 1341.48C860.398 1343.65 835.082 1346.39 810.162 1347.22C760.362 1348.87 712.607 1342.88 671.091 1309.8C631.563 1278.3 616.967 1228.38 605.422 1174.49C593.927 1120.84 585.472 1063.25 557.751 1017.78C542.47 992.709 519.388 970.507 493.855 949.699C468.378 928.937 440.13 909.314 414.775 889.728C389.307 870.055 366.601 850.309 351.639 828.99C336.718 807.731 329.566 785.009 335.007 759.243C342.191 725.229 361.265 702.399 387.058 685.452C412.927 668.456 445.5 657.414 479.588 647.047C513.583 636.709 549.095 627.042 580.419 612.784C611.779 598.51 639.165 579.544 656.857 550.455C667.396 533.126 669.224 513.251 666.419 492.097C663.617 470.968 656.167 448.375 647.96 425.487C639.729 402.532 630.741 379.29 624.702 356.614C618.666 333.947 615.641 312.06 619.227 291.885C626.612 250.331 646.553 216.289 669.767 183.784C692.905 151.387 719.494 120.29 739.575 85.1468C753.815 60.2248 764.949 31.6065 775.235 2.1904C785.543 -27.2911 794.97 -57.4791 805.867 -85.8488C827.669 -142.609 855.002 -191.058 905.535 -209.838C928.711 -218.452 952.608 -216.999 977.168 -209.447C1001.76 -201.886 1026.91 -188.244 1052.5 -172.607C1077.97 -157.041 1104.1 -139.358 1130.13 -124.106C1156.24 -108.81 1182.61 -95.734 1209.01 -89.2005C1262.15 -76.0522 1316.23 -81.0569 1369.13 -82.7075C1422.14 -84.362 1474.11 -82.6729 1523.76 -56.5691Z" stroke="#E7EBE9" stroke-width="3.72718"/>
<path d="M1519.07 -47.8243C1617.54 3.92612 1704.99 99.5861 1754.6 206.786C1779.4 260.368 1799.83 321.077 1808.8 380.535C1817.78 440.012 1815.29 498.089 1794.42 546.524C1768.75 606.123 1714.45 636.857 1657.51 666.463C1600.79 695.96 1541.39 724.345 1507.23 779.489C1499.73 791.597 1499.24 805.611 1502.24 820.41C1505.24 835.184 1511.78 851.002 1518.64 866.888C1525.53 882.846 1532.75 898.884 1537.29 914.341C1541.84 929.797 1543.63 944.416 1539.88 957.541C1536.21 970.368 1528.17 979.753 1517.85 987.504C1507.47 995.287 1494.92 1001.33 1482.29 1007.55C1457.33 1019.84 1431.81 1032.84 1426.52 1061.63C1420.51 1094.36 1423.93 1130.56 1431.08 1167.73C1438.22 1204.88 1449.14 1243.24 1458.18 1280.15C1467.25 1317.14 1474.45 1352.71 1474.31 1384.6C1474.17 1416.45 1466.72 1444.45 1446.64 1466.49C1439.14 1474.73 1430.97 1479.19 1422.26 1480.75C1413.52 1482.31 1404.07 1480.99 1393.97 1477.37C1373.7 1470.12 1351.29 1453.83 1327.66 1434.39C1304.17 1415.06 1279.39 1392.55 1254.83 1373.41C1230.23 1354.24 1205.48 1338.13 1181.68 1331.51C1144.53 1321.17 1108.09 1322.13 1071.84 1325.09C1035.5 1328.05 999.484 1332.99 962.71 1330.81C938.494 1329.37 913.588 1330.97 888.63 1333.12C863.631 1335.27 838.622 1337.97 814.005 1338.79C764.811 1340.43 717.643 1334.52 676.639 1301.86C637.6 1270.75 623.186 1221.45 611.785 1168.22C600.435 1115.23 592.087 1058.34 564.705 1013.42C549.609 988.658 526.805 966.729 501.582 946.177C476.416 925.672 448.511 906.288 423.467 886.946C398.31 867.516 375.883 848.017 361.106 826.963C346.371 805.97 339.309 783.533 344.685 758.09C351.783 724.498 370.624 701.95 396.102 685.212C421.657 668.423 453.833 657.514 487.509 647.271C521.092 637.057 556.176 627.505 587.124 613.418C618.106 599.315 645.166 580.576 662.649 551.837C673.066 534.714 674.873 515.075 672.103 494.177C669.337 473.304 661.979 450.986 653.873 428.38C645.744 405.705 636.868 382.75 630.904 360.353C625.037 338.316 622.052 317.027 625.34 297.362L625.502 296.427C632.8 255.387 652.499 221.763 675.434 189.655C698.293 157.655 724.564 126.934 744.406 92.2179C758.477 67.5978 769.478 39.3268 779.642 10.2695C789.829 -18.853 799.144 -48.671 809.911 -76.694C831.454 -132.76 858.457 -180.609 908.369 -199.161C931.26 -207.668 954.861 -206.238 979.119 -198.781C1003.41 -191.315 1028.25 -177.843 1053.53 -162.399C1078.69 -147.028 1104.5 -129.563 1130.22 -114.5C1156.01 -99.3931 1182.06 -86.4781 1208.15 -80.0261C1260.64 -67.0426 1314.07 -71.9919 1366.32 -73.6269C1418.7 -75.2657 1470.02 -73.6012 1519.07 -47.8243Z" stroke="#E7EBE9" stroke-width="3.72718"/>
</svg>
