<svg width="1392" height="366" viewBox="0 0 1392 366" fill="none" xmlns="http://www.w3.org/2000/svg">
<path opacity="0.01" fill-rule="evenodd" clip-rule="evenodd" d="M916.309 905.593C941.698 1093 1090.27 1314.76 965.894 1456.95C845.251 1594.86 613.96 1443.34 432.236 1458.97C263.38 1473.49 104.643 1597.36 -56.4406 1544.88C-228.428 1488.85 -366.238 1342.96 -437.285 1175.7C-506.945 1011.7 -497.272 820.633 -435.172 653.265C-379.049 502.007 -234.94 414.724 -115.078 307.305C0.295158 203.909 95.8347 38.4099 250.126 39.1117C404.699 39.8148 496.283 208.447 612.602 310.615C700.209 387.563 791.402 457.101 844.547 561.216C899.109 668.107 900.167 786.444 916.309 905.593Z" stroke="url(#paint0_linear_1513_5220)" stroke-width="6.1855"/>
<path opacity="0.02" fill-rule="evenodd" clip-rule="evenodd" d="M924.595 900.576C953.158 1086.89 1105.08 1305.29 983.604 1449.14C865.777 1588.67 632.648 1441.7 451.823 1460.43C283.803 1477.84 127.769 1604.04 -33.6719 1554.54C-206.041 1501.7 -345.914 1358.71 -419.627 1193.27C-491.9 1031.06 -485.585 840.489 -426.612 672.626C-373.315 520.921 -231.223 431.438 -113.644 322.311C-0.468014 217.27 91.8618 50.688 245.632 48.7048C399.685 46.718 493.887 213.169 611.583 312.957C700.226 388.113 792.314 455.822 847.088 558.65C903.322 664.218 906.436 782.123 924.595 900.576Z" stroke="url(#paint1_linear_1513_5220)" stroke-width="6.1855"/>
<path opacity="0.03" fill-rule="evenodd" clip-rule="evenodd" d="M932.719 895.436C964.425 1080.6 1119.62 1295.59 1001.07 1441.05C886.079 1582.14 651.199 1439.74 471.326 1461.55C304.19 1481.82 150.893 1610.29 -10.8507 1563.77C-183.542 1514.11 -325.419 1374.05 -401.756 1210.47C-476.602 1050.09 -473.625 860.079 -417.777 691.779C-367.305 539.68 -227.262 448.039 -111.989 337.251C-1.03255 230.611 88.0788 63.0074 241.283 58.3575C394.767 53.6992 491.54 217.928 610.565 315.321C700.209 388.672 793.157 454.542 849.531 556.057C907.407 660.277 912.562 777.715 932.719 895.436Z" stroke="url(#paint2_linear_1513_5220)" stroke-width="6.1855"/>
<path opacity="0.04" fill-rule="evenodd" clip-rule="evenodd" d="M940.652 890.197C975.47 1074.16 1133.87 1285.69 1018.26 1432.7C906.123 1575.3 669.58 1437.48 490.712 1462.34C324.509 1485.45 173.979 1616.13 11.9881 1572.59C-160.968 1526.11 -304.79 1389.01 -383.708 1227.33C-461.084 1068.81 -461.424 879.418 -408.699 710.739C-361.049 558.297 -223.086 464.544 -110.141 352.14C-1.42569 243.946 84.4598 75.3829 237.051 68.0856C389.921 60.7749 489.216 222.744 609.522 317.724C700.131 389.258 793.902 453.281 851.847 553.459C911.336 656.306 918.516 773.241 940.652 890.197Z" stroke="url(#paint3_linear_1513_5220)" stroke-width="6.1855"/>
<path opacity="0.05" fill-rule="evenodd" clip-rule="evenodd" d="M948.413 884.844C986.31 1067.55 1147.84 1275.58 1035.19 1424.09C925.924 1568.12 687.808 1434.9 509.995 1462.79C344.773 1488.71 197.042 1621.54 34.8571 1580.98C-138.305 1537.66 -284.011 1403.55 -365.468 1243.81C-445.333 1087.2 -448.968 898.481 -399.361 729.481C-354.529 576.748 -218.678 480.927 -108.082 366.957C-1.62804 257.254 81.0254 87.7927 232.958 77.8678C385.168 67.9248 486.936 227.596 608.475 320.148C700.014 389.855 794.572 452.021 854.058 550.838C915.129 652.287 924.319 768.685 948.413 884.844Z" stroke="url(#paint4_linear_1513_5220)" stroke-width="6.1855"/>
<path opacity="0.06" fill-rule="evenodd" clip-rule="evenodd" d="M955.982 879.382C996.926 1060.78 1161.51 1265.27 1051.84 1415.21C945.46 1560.63 705.858 1432.03 529.151 1462.91C364.958 1491.6 220.054 1626.54 57.7302 1588.93C-115.581 1548.79 -263.111 1417.68 -347.062 1259.93C-429.373 1105.26 -436.278 917.27 -389.785 748.006C-347.767 595.034 -214.058 497.19 -105.832 381.7C-1.65845 270.535 77.7577 100.236 228.987 87.7047C380.492 75.1501 484.682 232.486 607.407 322.598C699.838 390.466 795.148 450.767 856.145 548.199C918.768 648.228 929.951 764.053 955.982 879.382Z" stroke="url(#paint5_linear_1513_5220)" stroke-width="6.1855"/>
<path opacity="0.07" fill-rule="evenodd" clip-rule="evenodd" d="M963.354 873.823C1007.31 1053.87 1174.87 1254.77 1068.2 1406.08C964.721 1552.84 723.721 1428.85 548.172 1462.7C385.053 1494.15 243.004 1631.12 80.5954 1596.47C-92.8065 1559.48 -242.101 1431.41 -328.502 1275.68C-413.215 1122.99 -423.367 935.786 -379.981 766.315C-340.772 613.157 -209.234 513.335 -103.397 396.373C-1.52214 283.792 74.6529 112.717 225.134 97.6002C375.89 82.4557 482.452 237.421 606.314 325.078C699.602 391.098 795.627 449.528 858.105 545.553C922.249 644.137 935.408 759.357 963.354 873.823Z" stroke="url(#paint6_linear_1513_5220)" stroke-width="6.1855"/>
<path opacity="0.08" fill-rule="evenodd" clip-rule="evenodd" d="M970.557 868.15C1017.49 1046.79 1187.96 1244.06 1084.29 1396.68C983.731 1544.72 741.422 1425.37 567.079 1462.15C405.081 1496.32 265.914 1635.28 103.474 1603.58C-69.9618 1569.73 -220.959 1444.71 -309.766 1291.04C-396.838 1140.36 -410.21 954.008 -369.925 784.386C-333.518 631.091 -204.18 529.338 -100.749 410.953C-1.19128 297.001 71.7397 125.211 221.428 107.532C371.391 89.8195 480.274 242.379 605.226 327.57C699.334 391.732 796.038 448.284 859.967 542.881C925.6 639.998 940.717 754.578 970.557 868.15Z" stroke="url(#paint7_linear_1513_5220)" stroke-width="6.1855"/>
<path opacity="0.09" fill-rule="evenodd" clip-rule="evenodd" d="M977.593 862.415C1027.47 1039.6 1200.77 1233.2 1100.12 1387.08C1002.49 1536.34 758.96 1421.63 585.871 1461.3C425.039 1498.17 288.781 1639.05 126.362 1610.29C-47.0506 1579.58 -199.69 1457.63 -290.857 1306.05C-380.243 1157.43 -396.809 971.977 -359.618 802.261C-326.006 648.882 -198.893 545.244 -97.8869 425.483C-0.662724 310.207 69.0226 137.764 217.876 117.544C367.001 97.2875 478.154 247.408 604.147 330.121C699.04 392.417 796.386 447.085 861.735 540.232C928.826 635.86 945.883 749.768 977.593 862.415Z" stroke="url(#paint8_linear_1513_5220)" stroke-width="6.1855"/>
<path opacity="0.1" fill-rule="evenodd" clip-rule="evenodd" d="M984.427 856.566C1037.21 1032.25 1213.26 1222.14 1115.64 1377.22C1020.96 1527.64 776.295 1417.57 604.509 1460.12C444.887 1499.65 311.562 1642.39 149.218 1616.56C-24.1155 1588.98 -178.336 1470.12 -271.817 1320.67C-363.471 1174.14 -383.205 989.638 -349.097 819.884C-318.273 666.471 -193.413 560.993 -94.8469 439.906C0.0279415 323.353 66.4671 150.316 214.441 127.58C362.687 104.803 476.058 252.451 603.044 332.677C698.684 393.099 796.637 445.878 863.375 537.554C931.892 631.672 950.87 744.874 984.427 856.566Z" stroke="url(#paint9_linear_1513_5220)" stroke-width="6.1855"/>
<path opacity="0.11" fill-rule="evenodd" clip-rule="evenodd" d="M991.046 850.651C1046.7 1024.78 1225.43 1210.93 1130.85 1367.15C1039.12 1518.67 793.412 1413.26 622.976 1458.64C464.608 1500.8 334.239 1645.35 172.022 1622.44C-1.17539 1597.97 -156.915 1482.22 -252.664 1334.94C-346.542 1190.52 -369.415 1007.03 -338.381 837.293C-310.334 683.896 -187.752 576.627 -91.6423 454.261C0.868473 336.478 64.062 162.908 211.116 137.681C358.438 112.407 473.975 257.553 601.905 335.281C698.257 393.822 796.78 444.707 864.876 534.892C934.787 627.481 955.666 739.945 991.046 850.651Z" stroke="url(#paint10_linear_1513_5220)" stroke-width="6.1855"/>
<path opacity="0.12" fill-rule="evenodd" clip-rule="evenodd" d="M997.487 844.638C1055.97 1017.17 1237.3 1199.54 1145.78 1356.84C1057.01 1509.41 810.341 1408.65 641.301 1456.83C484.232 1501.6 356.841 1647.89 194.803 1627.88C21.7972 1606.51 -135.401 1493.89 -233.37 1348.8C-329.425 1206.55 -355.409 1024.11 -327.437 854.451C-302.158 701.12 -181.878 592.106 -88.2393 468.511C1.89331 349.544 61.8429 175.502 207.934 147.808C354.292 120.064 471.941 262.675 600.768 337.898C697.795 394.552 796.852 443.54 866.274 532.215C937.546 623.253 960.307 734.947 997.487 844.638Z" stroke="url(#paint11_linear_1513_5220)" stroke-width="6.1855"/>
<path opacity="0.13" fill-rule="evenodd" clip-rule="evenodd" d="M1003.74 838.556C1065.01 1009.45 1248.87 1188 1160.41 1346.32C1074.61 1499.88 827.075 1403.78 659.478 1454.72C503.748 1502.06 379.357 1650.04 217.55 1632.92C44.7906 1614.64 -113.805 1505.16 -213.947 1362.3C-312.133 1222.23 -341.196 1040.91 -316.275 871.378C-293.753 718.163 -175.799 607.452 -84.6442 482.676C3.09734 362.572 59.8059 188.119 204.893 157.984C350.246 127.795 469.955 267.843 599.63 340.552C697.295 395.313 796.85 442.401 867.566 529.547C940.166 619.016 964.789 729.91 1003.74 838.556Z" stroke="url(#paint12_linear_1513_5220)" stroke-width="6.1855"/>
<path opacity="0.14" fill-rule="evenodd" clip-rule="evenodd" d="M1009.79 832.393C1073.81 1001.6 1260.11 1176.3 1174.73 1335.58C1091.91 1490.08 843.583 1398.63 677.473 1452.31C523.124 1502.18 401.753 1651.79 240.228 1637.54C67.7705 1622.34 -92.1598 1516.02 -194.427 1375.42C-294.697 1237.56 -326.809 1057.41 -304.926 888.055C-285.149 735.006 -169.544 622.646 -80.8854 496.738C4.45282 375.545 57.9242 200.739 201.967 168.191C346.274 135.582 467.989 273.04 598.463 343.229C696.731 396.092 796.747 441.277 868.725 526.876C942.621 614.756 969.084 724.819 1009.79 832.393Z" stroke="url(#paint13_linear_1513_5220)" stroke-width="6.1855"/>
<path opacity="0.15" fill-rule="evenodd" clip-rule="evenodd" d="M1015.65 826.169C1082.38 993.641 1271.05 1164.47 1188.74 1324.66C1108.91 1480.03 859.888 1393.24 695.308 1449.6C542.383 1501.98 424.049 1653.15 262.858 1641.77C90.7563 1629.62 -70.4475 1526.47 -174.792 1388.16C-277.098 1252.55 -312.228 1073.61 -293.368 904.497C-276.324 751.662 -163.088 637.701 -76.9381 510.71C5.98573 388.475 56.225 213.377 199.184 178.442C342.404 143.442 466.072 278.281 597.297 345.944C696.13 396.906 796.573 440.186 869.781 524.221C944.939 610.495 973.22 719.696 1015.65 826.169Z" stroke="url(#paint14_linear_1513_5220)" stroke-width="6.1855"/>
<path opacity="0.16" fill-rule="evenodd" clip-rule="evenodd" d="M1021.31 819.881C1090.72 985.579 1281.68 1152.5 1202.45 1313.53C1125.6 1469.73 875.975 1387.58 712.969 1446.61C561.506 1501.45 446.229 1654.13 285.421 1645.59C113.729 1636.48 -48.6863 1536.51 -155.059 1400.52C-259.354 1267.19 -297.468 1089.52 -281.617 920.693C-267.292 768.12 -156.446 652.607 -72.8156 524.582C7.68351 401.352 54.6968 226.021 196.532 188.727C338.627 151.364 464.193 283.558 596.121 348.691C695.484 397.746 796.316 439.121 870.721 521.575C947.108 606.226 977.186 714.535 1021.31 819.881Z" stroke="url(#paint15_linear_1513_5220)" stroke-width="6.1855"/>
<path opacity="0.17" fill-rule="evenodd" clip-rule="evenodd" d="M1026.75 813.538C1098.78 977.42 1291.95 1140.4 1215.81 1302.22C1141.96 1459.18 891.804 1381.68 730.415 1443.33C580.454 1500.6 468.249 1654.73 307.875 1649.02C136.647 1642.92 -26.9189 1546.15 -135.271 1412.51C-241.506 1281.48 -282.572 1105.12 -269.713 936.644C-258.093 784.383 -149.657 667.366 -68.555 538.356C9.50989 414.178 53.3045 238.674 193.978 199.049C334.909 159.351 462.318 288.875 594.901 351.475C694.756 398.621 795.943 438.09 871.512 518.947C949.095 601.958 980.947 709.346 1026.75 813.538Z" stroke="url(#paint16_linear_1513_5220)" stroke-width="6.1855"/>
<g opacity="0.18" filter="url(#filter0_d_1513_5220)">
<path fill-rule="evenodd" clip-rule="evenodd" d="M1032.03 797.408C1106.65 959.433 1301.95 1118.45 1228.9 1281C1158.05 1438.67 907.455 1365.81 747.724 1430.03C599.304 1489.71 490.185 1645.21 330.296 1642.31C159.583 1639.22 -5.07038 1545.65 -115.352 1414.39C-223.479 1285.69 -267.462 1110.7 -257.579 942.615C-248.648 790.713 -142.641 672.24 -64.0766 542.295C11.5457 417.217 52.1298 241.597 191.603 199.671C331.331 157.668 460.53 284.498 593.719 344.56C694.032 389.796 795.537 427.359 872.237 506.603C950.981 587.959 984.584 694.397 1032.03 797.408Z" fill="#194C37"/>
</g>
<path opacity="0.19" fill-rule="evenodd" clip-rule="evenodd" d="M1037.09 800.672C1114.25 960.799 1311.61 1115.84 1241.65 1279.06C1173.79 1437.37 922.848 1369.14 764.816 1435.9C617.975 1497.94 511.958 1654.77 352.601 1654.66C182.457 1654.55 16.777 1564.19 -95.3845 1435.33C-205.355 1308.99 -252.219 1135.41 -245.295 967.778C-239.037 816.282 -135.476 696.403 -59.457 565.572C13.7151 439.64 51.0982 263.963 189.334 219.766C327.823 175.487 458.755 299.601 592.503 357.124C693.236 400.447 795.024 436.105 872.822 513.722C952.693 593.407 988.024 698.868 1037.09 800.672Z" stroke="url(#paint17_linear_1513_5220)" stroke-width="6.1855"/>
<path opacity="0.2" fill-rule="evenodd" clip-rule="evenodd" d="M1041.91 794.165C1121.58 952.356 1320.9 1103.38 1254.04 1267.21C1189.18 1426.12 937.97 1362.51 781.677 1431.77C636.451 1496.14 533.548 1654.23 374.772 1656.9C205.249 1659.74 38.6045 1572.6 -75.3866 1446.17C-187.151 1322.22 -236.861 1150.09 -232.876 982.962C-229.274 831.919 -128.176 710.683 -54.7101 579.015C16.0052 452.277 50.1976 276.602 187.159 230.163C324.372 183.64 456.982 305.015 591.241 359.997C692.358 401.407 794.394 435.162 873.256 511.138C954.22 589.138 991.256 693.592 1041.91 794.165Z" stroke="url(#paint18_linear_1513_5220)" stroke-width="6.1855"/>
<path opacity="0.21" fill-rule="evenodd" clip-rule="evenodd" d="M1046.57 787.626C1128.69 943.842 1329.91 1090.84 1266.14 1255.22C1204.29 1414.67 952.89 1355.66 798.375 1427.39C654.801 1494.04 555.024 1653.33 396.878 1658.75C228.026 1664.54 60.4789 1580.62 -55.2913 1456.65C-168.8 1335.1 -221.319 1164.48 -220.254 997.9C-219.291 847.356 -120.672 724.813 -49.764 592.356C18.4886 464.86 49.5018 289.243 185.153 240.595C321.053 191.857 455.287 310.473 590.008 362.915C691.474 402.412 793.722 434.266 873.616 508.586C955.638 584.888 994.353 688.309 1046.57 787.626Z" stroke="url(#paint19_linear_1513_5220)" stroke-width="6.1855"/>
<path opacity="0.22" fill-rule="evenodd" clip-rule="evenodd" d="M1051.01 781.028C1135.55 935.231 1338.59 1078.18 1277.91 1243.06C1219.05 1402.99 967.556 1348.57 814.856 1422.72C672.97 1491.62 576.329 1652.05 418.859 1660.21C250.731 1668.91 82.3417 1588.22 -35.1568 1466.72C-150.36 1347.6 -205.652 1178.53 -207.485 1012.56C-209.143 862.56 -113.017 738.758 -44.6722 605.562C21.1129 477.354 48.9595 301.854 183.266 251.027C317.818 200.107 453.619 315.944 588.755 365.846C690.534 403.43 792.959 433.386 873.85 506.039C956.896 580.628 997.267 682.989 1051.01 781.028Z" stroke="url(#paint20_linear_1513_5220)" stroke-width="6.1855"/>
<path opacity="0.23" fill-rule="evenodd" clip-rule="evenodd" d="M1055.23 774.422C1142.14 926.577 1346.9 1065.46 1289.31 1230.77C1233.46 1391.13 981.943 1341.29 831.097 1417.82C690.932 1488.93 597.437 1650.45 440.691 1661.31C273.336 1672.9 104.167 1595.44 -15.0092 1476.45C-131.857 1359.78 -189.882 1192.3 -194.594 1026.98C-198.852 877.576 -105.233 752.565 -39.4564 618.679C23.8572 489.807 48.5506 314.48 181.477 261.506C314.647 208.436 451.959 321.476 587.463 368.84C689.519 404.512 792.085 432.574 873.94 503.547C957.976 576.411 999.976 677.686 1055.23 774.422Z" stroke="url(#paint21_linear_1513_5220)" stroke-width="6.1855"/>
<path opacity="0.24" fill-rule="evenodd" clip-rule="evenodd" d="M1059.25 767.763C1148.48 917.834 1354.91 1052.63 1300.4 1218.33C1247.54 1379.05 996.092 1333.78 847.135 1412.64C708.727 1485.92 618.385 1648.46 462.41 1662.01C295.876 1676.47 125.989 1602.24 5.18702 1485.77C-113.255 1371.57 -173.975 1205.74 -181.543 1041.12C-188.382 892.351 -97.2825 766.181 -34.0765 631.654C26.7626 502.165 48.3174 327.067 179.83 271.98C311.583 216.791 450.351 327.018 586.175 371.845C688.472 405.607 791.146 431.779 873.931 501.06C958.921 572.189 1002.53 672.353 1059.25 767.763Z" stroke="url(#paint22_linear_1513_5220)" stroke-width="6.1855"/>
<path opacity="0.25" fill-rule="evenodd" clip-rule="evenodd" d="M1063.1 761.098C1154.61 909.049 1362.6 1039.74 1311.18 1205.77C1261.31 1366.8 1010.01 1326.08 862.98 1407.24C726.36 1482.65 639.179 1646.14 484.02 1662.35C318.358 1679.66 147.813 1608.67 25.4369 1494.74C-94.5482 1383.03 -157.925 1218.88 -168.325 1055.02C-177.724 906.926 -89.156 779.647 -28.5231 644.528C29.8393 514.468 48.271 339.656 178.337 282.488C308.64 225.215 448.806 332.611 584.905 374.906C687.407 406.76 790.154 431.046 873.834 498.626C959.744 568.007 1004.93 667.034 1063.1 761.098Z" stroke="url(#paint23_linear_1513_5220)" stroke-width="6.1855"/>
<path opacity="0.26" fill-rule="evenodd" clip-rule="evenodd" d="M1066.71 754.403C1160.44 900.202 1369.93 1026.78 1321.59 1193.07C1274.7 1354.36 1023.63 1318.17 878.56 1401.58C743.761 1479.08 659.747 1643.48 505.449 1662.32C340.706 1682.45 169.565 1614.7 45.6667 1503.33C-75.8113 1394.13 -141.804 1231.7 -155.012 1068.64C-166.949 921.273 -80.924 792.934 -22.8656 657.271C33.0187 526.688 48.3439 352.217 176.93 293.001C305.752 233.678 447.261 338.228 583.585 377.994C686.258 407.944 789.043 430.35 873.585 496.218C960.38 563.842 1007.11 661.708 1066.71 754.403Z" stroke="url(#paint24_linear_1513_5220)" stroke-width="6.1855"/>
<path opacity="0.27" fill-rule="evenodd" clip-rule="evenodd" d="M1070.1 747.684C1166.02 891.299 1376.92 1013.75 1331.65 1180.25C1287.74 1341.75 1036.98 1310.06 893.907 1395.68C760.96 1475.23 680.117 1640.46 526.725 1661.93C362.95 1684.84 191.273 1620.32 65.9045 1511.53C-57.0152 1404.86 -125.582 1244.2 -141.575 1081.99C-156.027 935.39 -72.5548 806.042 -17.0713 669.883C36.3345 538.824 48.5708 364.748 175.646 303.52C302.954 242.18 445.748 343.87 582.253 381.113C685.062 409.163 787.85 429.695 873.219 493.841C960.864 559.697 1009.12 656.378 1070.1 747.684Z" stroke="url(#paint25_linear_1513_5220)" stroke-width="6.1855"/>
<path opacity="0.28" fill-rule="evenodd" clip-rule="evenodd" d="M1073.31 740.947C1171.36 882.345 1383.6 1000.66 1341.39 1167.31C1300.45 1328.96 1050.09 1301.75 909.036 1389.54C777.972 1471.1 700.304 1637.11 547.862 1661.16C385.102 1686.84 212.95 1625.56 86.1627 1519.36C-38.1477 1415.24 -109.248 1256.38 -127.998 1095.07C-144.944 949.276 -64.0329 818.968 -11.1238 682.363C39.804 550.874 48.9698 377.249 174.503 314.042C300.266 250.72 444.29 349.538 580.928 384.263C683.837 410.416 786.595 429.081 872.758 491.498C961.217 555.577 1010.97 651.05 1073.31 740.947Z" stroke="url(#paint26_linear_1513_5220)" stroke-width="6.1855"/>
<path opacity="0.29" fill-rule="evenodd" clip-rule="evenodd" d="M1076.3 734.224C1176.44 873.375 1389.93 987.544 1350.78 1154.29C1312.8 1316.03 1062.91 1293.29 923.917 1383.19C794.765 1466.73 720.275 1633.45 568.826 1660.07C407.127 1688.48 234.56 1630.43 106.407 1526.84C-19.2429 1425.28 -92.8345 1268.27 -114.317 1107.9C-133.731 962.96 -55.3894 831.742 -5.05336 694.739C43.3977 562.865 49.5125 389.745 173.474 324.595C297.662 259.326 442.858 355.259 579.583 387.474C682.558 411.736 785.253 428.541 872.174 489.219C961.412 551.515 1012.64 645.756 1076.3 734.224Z" stroke="url(#paint27_linear_1513_5220)" stroke-width="6.1855"/>
<path opacity="0.3" fill-rule="evenodd" clip-rule="evenodd" d="M1079.09 727.484C1181.26 864.358 1395.93 974.373 1359.82 1141.16C1324.79 1302.94 1075.46 1284.64 938.55 1376.61C811.338 1462.08 740.027 1629.46 589.615 1658.61C429.022 1689.72 256.101 1634.9 126.634 1533.94C-0.303773 1434.96 -76.344 1279.83 -100.531 1120.45C-122.389 976.403 -46.6241 844.325 1.14114 706.971C47.1177 574.76 50.2019 402.197 172.561 335.14C295.145 267.96 441.458 360.998 578.224 390.709C681.23 413.086 783.827 428.039 871.473 486.972C961.455 547.475 1014.13 640.463 1079.09 727.484Z" stroke="url(#paint28_linear_1513_5220)" stroke-width="6.1855"/>
<path opacity="0.31" fill-rule="evenodd" clip-rule="evenodd" d="M1081.67 720.751C1185.83 855.32 1401.59 961.175 1368.52 1127.95C1336.43 1289.72 1087.73 1275.82 952.943 1369.83C827.7 1457.18 759.568 1625.16 610.234 1656.81C450.793 1690.6 277.577 1639 146.849 1540.68C18.6748 1444.29 -59.7708 1291.08 -86.6342 1132.73C-110.912 989.625 -37.729 856.737 7.46853 719.08C50.9736 586.578 51.0485 414.625 171.778 345.696C292.728 276.641 440.1 366.775 576.862 393.991C679.865 414.489 782.332 427.599 870.668 484.779C961.359 543.483 1015.45 635.196 1081.67 720.751Z" stroke="url(#paint29_linear_1513_5220)" stroke-width="6.1855"/>
<path opacity="0.32" fill-rule="evenodd" clip-rule="evenodd" d="M1084.03 714.028C1190.13 846.264 1406.9 947.954 1376.85 1114.66C1347.7 1276.36 1099.71 1266.85 967.066 1362.84C843.819 1452.03 778.864 1620.55 630.65 1654.68C472.405 1691.11 298.954 1642.72 167.018 1547.06C37.6585 1453.28 -43.1487 1302.03 -72.66 1144.75C-99.3306 1002.62 -28.7355 868.972 13.8984 731.06C54.9358 598.313 52.0237 427.024 171.095 356.259C290.383 285.366 438.759 372.586 575.471 397.316C678.437 415.942 780.74 427.218 869.732 482.639C961.096 539.538 1016.57 629.956 1084.03 714.028Z" stroke="url(#paint30_linear_1513_5220)" stroke-width="6.1855"/>
<path opacity="0.33" fill-rule="evenodd" clip-rule="evenodd" d="M1086.21 707.302C1194.2 837.178 1411.91 934.701 1384.87 1101.29C1358.64 1262.87 1111.43 1257.71 980.966 1355.63C859.74 1446.63 797.961 1615.62 650.909 1652.2C493.902 1691.25 320.276 1646.06 187.184 1553.07C56.6912 1461.9 -26.4332 1312.64 -58.563 1156.49C-87.6 1015.38 -19.5968 881.016 20.4785 742.896C59.053 609.949 53.177 439.374 170.562 366.812C288.163 294.116 437.484 378.415 574.103 400.67C676.997 417.432 779.104 426.883 868.718 480.54C960.72 535.628 1017.55 624.73 1086.21 707.302Z" stroke="url(#paint31_linear_1513_5220)" stroke-width="6.1855"/>
<path opacity="0.34" fill-rule="evenodd" clip-rule="evenodd" d="M1088.16 700.6C1197.99 828.091 1416.56 921.445 1392.51 1087.85C1369.19 1249.26 1122.84 1248.43 994.582 1348.24C875.402 1440.99 816.796 1610.4 670.944 1649.4C515.22 1691.03 341.477 1649.04 207.282 1558.73C75.708 1470.18 -9.68895 1322.95 -44.407 1167.97C-75.7831 1027.91 -10.375 892.888 27.1472 754.608C63.2644 621.506 54.4486 451.697 170.122 377.373C286.008 302.913 436.219 384.285 572.698 404.075C675.488 418.98 777.366 426.617 867.567 478.506C960.172 531.778 1018.33 619.544 1088.16 700.6Z" stroke="url(#paint32_linear_1513_5220)" stroke-width="6.1855"/>
<path opacity="0.35" fill-rule="evenodd" clip-rule="evenodd" d="M1089.91 693.899C1201.53 818.981 1420.87 908.166 1399.81 1074.34C1379.38 1235.53 1133.97 1238.99 1007.94 1340.64C890.828 1435.11 835.39 1604.88 690.779 1646.26C536.379 1690.44 362.578 1651.64 227.332 1564.02C94.7286 1478.11 7.10465 1332.94 -30.1708 1179.16C-63.8582 1040.19 -1.0474 904.561 33.9286 766.167C67.5948 632.956 55.8641 463.963 169.8 387.915C283.945 311.729 434.99 390.168 571.285 407.505C673.937 420.563 775.555 426.396 866.309 476.513C959.481 527.964 1018.94 614.376 1089.91 693.899Z" stroke="url(#paint33_linear_1513_5220)" stroke-width="6.1855"/>
<path opacity="0.36" fill-rule="evenodd" clip-rule="evenodd" d="M1091.46 687.244C1204.82 809.893 1424.87 894.91 1406.77 1060.8C1389.22 1221.71 1144.82 1229.43 1021.04 1332.88C906.026 1429.01 853.751 1599.08 710.419 1642.82C557.384 1689.52 383.583 1653.9 247.34 1568.97C113.759 1485.7 23.9533 1342.63 -15.8479 1190.11C-51.8179 1052.27 8.3941 916.073 40.8313 777.612C72.0539 644.337 57.434 476.209 169.608 398.476C281.988 320.601 433.809 396.103 569.877 411C672.358 422.219 773.683 426.261 864.955 474.601C958.66 524.229 1019.39 609.267 1091.46 687.244Z" stroke="url(#paint34_linear_1513_5220)" stroke-width="6.1855"/>
<path opacity="0.37" fill-rule="evenodd" clip-rule="evenodd" d="M1092.81 680.603C1207.86 800.797 1428.52 881.649 1413.38 1047.21C1398.69 1207.79 1155.37 1219.73 1033.87 1324.93C920.972 1422.69 871.854 1593 729.838 1639.06C578.21 1688.24 404.467 1655.78 267.279 1573.56C132.771 1492.95 40.8312 1352 -1.46361 1200.77C-39.6871 1064.1 17.9258 927.389 47.8326 788.908C76.6194 655.612 59.1371 488.4 169.525 409.019C280.115 329.493 432.656 402.056 568.454 414.525C670.731 423.916 771.732 426.178 863.489 472.739C957.691 520.541 1019.66 604.188 1092.81 680.603Z" stroke="url(#paint35_linear_1513_5220)" stroke-width="6.1855"/>
<path opacity="0.38" fill-rule="evenodd" clip-rule="evenodd" d="M1093.94 673.996C1210.63 791.713 1431.84 868.404 1419.63 1033.57C1407.79 1193.78 1165.63 1209.91 1046.43 1316.81C935.667 1416.15 889.697 1586.64 749.036 1634.99C598.854 1686.62 425.226 1657.32 287.146 1577.81C151.764 1499.85 57.7359 1361.06 12.9805 1211.16C-27.4667 1075.7 27.5475 938.523 54.9331 800.067C81.2931 666.796 60.9758 500.547 169.554 419.558C278.332 338.42 431.537 408.041 567.021 418.096C669.062 425.67 769.708 426.164 861.914 470.944C956.578 516.918 1019.76 599.156 1093.94 673.996Z" stroke="url(#paint36_linear_1513_5220)" stroke-width="6.1855"/>
<path opacity="0.39" fill-rule="evenodd" clip-rule="evenodd" d="M1094.85 667.42C1213.13 782.639 1434.8 855.176 1425.5 1019.9C1416.49 1179.68 1175.56 1199.96 1058.68 1308.52C950.08 1409.39 907.251 1580.01 767.981 1630.62C619.284 1684.65 445.827 1658.49 306.908 1581.7C170.704 1506.41 74.6342 1369.81 27.4518 1221.28C-15.1889 1087.05 37.2281 949.467 62.1024 811.082C86.0453 677.879 62.9212 512.642 169.668 430.082C276.61 347.371 430.424 414.049 565.551 421.706C667.323 427.473 767.583 426.213 860.206 469.211C955.297 513.354 1019.66 594.167 1094.85 667.42Z" stroke="url(#paint37_linear_1513_5220)" stroke-width="6.1855"/>
<path opacity="0.4" fill-rule="evenodd" clip-rule="evenodd" d="M1095.59 660.887C1215.4 773.589 1437.46 841.979 1431.06 1006.21C1424.86 1165.52 1185.23 1189.91 1070.7 1300.07C964.273 1402.43 924.575 1573.12 786.732 1625.95C639.558 1682.36 466.33 1659.32 326.625 1585.26C189.649 1512.64 91.5859 1378.25 42.0106 1231.14C-2.79255 1098.18 47.0295 960.229 69.4035 821.96C90.9396 688.869 65.0379 524.691 169.931 440.6C275.017 356.356 429.383 420.091 564.111 425.365C665.583 429.337 765.426 426.336 858.431 467.55C953.914 509.863 1019.42 589.234 1095.59 660.887Z" stroke="url(#paint38_linear_1513_5220)" stroke-width="6.1855"/>
<path opacity="0.41" fill-rule="evenodd" clip-rule="evenodd" d="M1096.13 654.391C1217.42 764.558 1439.79 828.809 1436.27 992.502C1432.85 1151.28 1194.59 1179.75 1082.43 1291.46C978.202 1395.27 941.623 1565.97 805.242 1620.99C659.628 1679.74 486.685 1659.81 346.246 1588.47C208.551 1518.53 108.542 1386.38 56.6088 1240.71C9.67456 1109.07 56.9049 970.798 76.7902 832.69C95.9308 699.754 67.2813 536.681 170.3 451.099C273.508 365.36 428.371 426.154 562.659 429.061C663.798 431.25 763.195 426.523 856.548 465.954C952.388 506.435 1019.02 584.349 1096.13 654.391Z" stroke="url(#paint39_linear_1513_5220)" stroke-width="6.1855"/>
<path opacity="0.42" fill-rule="evenodd" clip-rule="evenodd" d="M1096.44 647.96C1219.17 755.575 1441.77 815.697 1441.1 978.797C1440.45 1137 1203.63 1169.5 1093.85 1282.72C991.842 1387.93 958.371 1558.59 823.486 1615.76C679.47 1676.81 506.866 1659.97 365.746 1591.36C227.383 1524.1 125.477 1394.22 71.2211 1250.04C22.1879 1119.74 66.8307 981.198 84.2397 843.296C100.997 710.558 69.6302 548.635 170.755 461.602C272.065 374.409 427.369 432.263 561.175 432.82C661.951 433.239 760.872 426.8 854.539 464.448C950.702 503.099 1018.42 579.541 1096.44 647.96Z" stroke="url(#paint40_linear_1513_5220)" stroke-width="6.1855"/>
<path opacity="0.43" fill-rule="evenodd" clip-rule="evenodd" d="M1096.56 641.582C1220.66 746.628 1443.42 802.633 1445.59 965.09C1447.69 1122.67 1212.38 1159.16 1105 1273.84C1005.22 1380.4 974.843 1550.96 841.487 1610.26C699.105 1673.57 526.896 1659.8 385.147 1593.92C246.167 1529.34 142.412 1401.75 85.8698 1259.1C34.7701 1130.17 76.8303 991.411 91.7764 853.759C106.163 721.262 72.1103 560.535 171.322 472.09C270.715 383.482 426.405 438.4 559.687 436.625C660.07 435.288 758.485 427.153 852.432 463.018C948.883 499.839 1017.66 574.796 1096.56 641.582Z" stroke="url(#paint41_linear_1513_5220)" stroke-width="6.1855"/>
<path opacity="0.44" fill-rule="evenodd" clip-rule="evenodd" d="M1096.49 635.24C1221.92 737.703 1444.76 789.603 1449.74 951.369C1454.57 1108.27 1220.83 1148.72 1115.87 1264.81C1018.34 1372.68 991.046 1543.08 859.252 1604.46C718.538 1669.99 546.778 1659.28 404.452 1596.14C264.907 1534.23 159.353 1408.97 100.56 1267.87C47.427 1140.36 86.9107 1001.42 99.4078 864.061C111.437 731.846 74.7309 572.359 172.011 482.542C269.469 392.561 425.489 444.546 558.208 440.457C658.166 437.378 756.047 427.561 850.241 461.646C946.946 496.64 1016.75 570.098 1096.49 635.24Z" stroke="url(#paint42_linear_1513_5220)" stroke-width="6.1855"/>
<path opacity="0.45" fill-rule="evenodd" clip-rule="evenodd" d="M1096.19 628.973C1222.9 728.838 1445.74 776.648 1453.51 937.674C1461.04 1093.86 1228.94 1138.22 1126.42 1255.66C1031.15 1364.8 1006.93 1534.98 876.726 1598.41C737.713 1666.13 566.457 1658.45 423.607 1598.04C283.547 1538.81 176.242 1415.89 115.237 1276.39C60.104 1150.32 97.0178 1011.25 107.081 874.233C116.767 742.343 77.4403 584.139 172.771 492.991C268.276 401.676 424.572 450.735 556.688 444.351C656.191 439.543 753.508 428.062 847.916 460.369C944.84 493.537 1015.64 565.483 1096.19 628.973Z" stroke="url(#paint43_linear_1513_5220)" stroke-width="6.1855"/>
<path opacity="0.46" fill-rule="evenodd" clip-rule="evenodd" d="M1095.74 622.766C1223.67 720.019 1446.45 763.755 1456.98 923.992C1467.19 1079.42 1236.8 1127.63 1136.72 1246.39C1043.73 1356.74 1022.56 1526.65 893.985 1592.09C756.708 1661.96 586.009 1657.29 442.685 1599.62C302.162 1543.07 193.156 1422.52 129.976 1284.64C72.8771 1160.04 107.229 1020.9 114.873 884.255C122.231 752.731 80.3176 595.854 173.682 503.415C267.218 410.807 423.736 456.945 555.208 448.286C654.227 441.765 750.953 428.636 845.541 459.168C942.65 490.514 1014.41 560.935 1095.74 622.766Z" stroke="url(#paint44_linear_1513_5220)" stroke-width="6.1855"/>
<path opacity="0.47" fill-rule="evenodd" clip-rule="evenodd" d="M1095.06 616.628C1224.16 711.258 1446.8 750.936 1460.06 910.338C1472.93 1064.95 1244.31 1116.98 1146.7 1237C1056 1348.52 1037.86 1518.11 910.945 1585.52C775.435 1657.5 605.346 1655.82 461.601 1600.88C320.665 1547.01 210.008 1428.84 144.69 1292.63C85.6602 1169.53 117.458 1030.35 122.7 894.135C127.746 763.018 83.2797 607.508 174.662 513.82C266.213 419.959 422.898 463.184 553.688 452.271C652.194 444.052 748.3 429.292 843.036 458.053C940.296 487.58 1012.99 556.465 1095.06 616.628Z" stroke="url(#paint45_linear_1513_5220)" stroke-width="6.1855"/>
<path opacity="0.48" fill-rule="evenodd" clip-rule="evenodd" d="M1094.2 610.575C1224.42 702.57 1446.83 738.209 1462.81 896.73C1478.31 1050.49 1251.52 1106.29 1156.39 1227.52C1068 1340.16 1052.88 1509.38 927.642 1578.72C793.932 1652.76 624.504 1654.06 480.39 1601.84C339.091 1550.64 226.834 1434.89 159.418 1300.37C98.4909 1178.8 127.745 1039.64 130.602 903.883C133.352 773.213 86.3673 619.113 175.753 524.215C265.303 429.143 422.102 469.463 552.172 456.317C650.134 446.416 745.594 430.042 840.444 457.036C937.821 484.749 1011.41 552.087 1094.2 610.575Z" stroke="url(#paint46_linear_1513_5220)" stroke-width="6.1855"/>
<path opacity="0.49" fill-rule="evenodd" clip-rule="evenodd" d="M1093.17 604.592C1224.45 693.943 1446.58 725.563 1465.25 883.156C1483.35 1036.01 1258.45 1095.54 1165.82 1217.92C1079.74 1331.64 1067.61 1500.43 944.093 1571.67C812.213 1647.74 643.499 1651.98 499.066 1602.49C357.456 1553.96 243.647 1440.63 174.172 1307.84C111.384 1187.83 138.104 1048.73 138.594 913.48C139.065 783.298 89.5981 630.647 176.973 534.581C264.507 438.34 421.367 475.763 550.678 460.406C648.069 448.84 742.856 430.871 837.787 456.102C935.248 482.006 1009.71 547.786 1093.17 604.592Z" stroke="url(#paint47_linear_1513_5220)" stroke-width="6.1855"/>
<path opacity="0.5" fill-rule="evenodd" clip-rule="evenodd" d="M1091.94 598.692C1224.23 685.39 1446 713.011 1467.33 869.631C1488.01 1021.54 1265.06 1084.74 1174.93 1208.24C1091.18 1322.99 1082.03 1491.29 960.251 1564.39C830.231 1642.44 662.281 1649.61 517.582 1602.83C375.708 1556.97 260.4 1446.09 188.905 1315.05C124.292 1196.63 148.488 1057.63 146.629 922.935C144.84 793.279 92.927 642.117 178.277 544.925C263.783 447.554 420.65 482.093 549.165 464.547C645.957 451.332 740.043 431.786 835.024 455.26C932.535 479.36 1007.83 543.573 1091.94 598.692Z" stroke="url(#paint48_linear_1513_5220)" stroke-width="6.1855"/>
<path opacity="0.51" fill-rule="evenodd" clip-rule="evenodd" d="M1090.48 592.874C1223.74 676.91 1445.07 700.555 1469.03 856.157C1492.26 1007.08 1271.33 1073.9 1183.71 1198.46C1102.29 1314.2 1096.1 1481.97 976.093 1556.89C847.962 1636.88 680.827 1646.93 535.91 1602.87C393.825 1559.67 277.066 1451.26 203.592 1322.01C137.189 1205.19 158.875 1066.35 154.687 932.242C150.655 803.152 96.3325 653.518 179.645 555.24C263.11 456.782 419.931 488.446 547.614 468.734C643.778 453.888 737.139 432.784 832.136 454.508C929.665 476.81 1005.76 539.447 1090.48 592.874Z" stroke="url(#paint49_linear_1513_5220)" stroke-width="6.1855"/>
<path opacity="0.52" fill-rule="evenodd" clip-rule="evenodd" d="M1088.87 587.15C1223.04 668.517 1443.87 688.209 1470.42 842.751C1496.18 992.648 1277.32 1063.04 1192.22 1188.6C1113.15 1305.28 1109.89 1472.46 991.681 1549.16C865.467 1631.05 699.196 1643.98 554.113 1602.63C411.865 1562.08 293.707 1456.15 218.294 1328.71C150.139 1213.54 169.326 1074.89 162.828 941.411C156.574 812.926 99.8792 664.857 181.143 565.535C262.555 466.032 419.278 494.833 546.091 472.979C641.601 456.52 734.21 433.877 829.192 453.856C926.705 474.367 1003.58 535.42 1088.87 587.15Z" stroke="url(#paint50_linear_1513_5220)" stroke-width="6.1855"/>
<path opacity="0.53" fill-rule="evenodd" clip-rule="evenodd" d="M1087.05 581.527C1222.07 660.219 1442.33 675.984 1471.45 829.421C1499.71 978.247 1282.97 1052.16 1200.41 1178.68C1123.68 1296.25 1123.35 1462.8 1006.95 1541.24C882.683 1624.99 717.325 1640.75 572.127 1602.1C429.764 1564.19 310.259 1460.76 232.947 1335.17C163.076 1221.66 179.779 1083.26 170.992 950.444C162.534 822.602 103.506 676.136 182.709 575.811C262.058 475.303 418.631 501.256 544.539 477.284C639.368 459.229 731.2 435.068 826.135 453.31C923.6 472.037 1001.21 531.497 1087.05 581.527Z" stroke="url(#paint51_linear_1513_5220)" stroke-width="6.1855"/>
<path opacity="0.54" fill-rule="evenodd" clip-rule="evenodd" d="M1085.07 575.977C1220.89 651.989 1440.51 663.852 1472.18 816.142C1502.89 963.855 1288.34 1041.23 1208.31 1168.67C1133.95 1287.08 1136.5 1452.94 1021.96 1533.08C899.656 1618.64 735.261 1637.23 589.996 1601.26C447.569 1565.99 326.766 1465.08 247.597 1341.35C176.049 1229.53 190.28 1091.42 179.226 959.309C168.586 832.148 107.262 687.321 184.395 586.035C261.67 484.564 418.041 507.681 543.01 481.617C637.13 461.986 728.161 436.326 823.017 452.838C920.401 469.79 998.723 527.65 1085.07 575.977Z" stroke="url(#paint52_linear_1513_5220)" stroke-width="6.1855"/>
<path opacity="0.55" fill-rule="evenodd" clip-rule="evenodd" d="M1082.93 570.55C1219.5 643.879 1438.4 651.867 1472.58 802.968C1505.73 949.528 1293.42 1030.32 1215.93 1158.61C1143.94 1277.83 1149.35 1442.95 1036.68 1524.75C916.372 1612.08 752.986 1633.45 607.704 1600.16C465.261 1567.53 343.213 1469.13 262.228 1347.31C189.039 1237.2 200.815 1099.42 187.515 968.055C174.713 841.611 111.133 698.457 186.187 596.252C261.379 493.86 417.497 514.157 541.491 486.025C634.878 464.837 725.083 437.699 819.829 452.49C917.1 467.675 996.098 523.929 1082.93 570.55Z" stroke="url(#paint53_linear_1513_5220)" stroke-width="6.1855"/>
<path opacity="0.56" fill-rule="evenodd" clip-rule="evenodd" d="M1080.58 565.214C1217.85 635.856 1435.97 639.999 1472.63 789.87C1508.18 935.237 1298.16 1019.38 1223.23 1148.49C1153.6 1268.46 1161.86 1432.79 1051.08 1516.21C932.791 1605.27 770.461 1629.4 625.212 1598.78C482.8 1568.76 359.557 1472.91 276.799 1353C202.007 1244.64 211.344 1107.22 195.821 976.644C180.879 850.954 115.083 709.51 188.049 606.427C261.148 503.155 416.964 520.648 539.949 490.474C632.576 467.749 721.932 439.154 816.537 452.232C913.664 465.66 993.306 520.302 1080.58 565.214Z" stroke="url(#paint54_linear_1513_5220)" stroke-width="6.1855"/>
<path opacity="0.57" fill-rule="evenodd" clip-rule="evenodd" d="M1078.07 559.995C1215.99 627.949 1433.27 628.275 1472.37 776.875C1510.29 921.011 1302.62 1008.46 1230.24 1138.33C1162.99 1259 1174.06 1422.5 1065.19 1507.49C948.951 1598.24 787.724 1625.09 642.556 1597.13C500.224 1569.72 375.838 1476.42 291.348 1358.46C214.992 1251.86 221.905 1114.86 204.183 985.1C187.124 860.2 119.152 720.498 190.022 616.579C261.022 512.469 416.484 527.174 538.428 494.986C630.27 470.743 718.753 440.713 813.186 452.088C910.136 463.768 990.39 516.792 1078.07 559.995Z" stroke="url(#paint55_linear_1513_5220)" stroke-width="6.1855"/>
<path opacity="0.58" fill-rule="evenodd" clip-rule="evenodd" d="M1075.39 554.893C1213.9 620.157 1430.26 616.697 1471.77 763.989C1512.04 906.854 1306.76 997.55 1236.94 1128.13C1172.07 1249.47 1185.93 1412.07 1079 1498.61C964.822 1591 804.744 1620.54 659.705 1595.23C517.5 1570.41 392.022 1479.67 305.844 1363.68C227.962 1258.86 232.469 1122.32 212.571 993.42C193.418 869.345 123.31 731.417 192.078 626.703C260.971 521.798 416.03 533.733 536.9 499.557C627.933 473.818 715.521 442.373 809.751 452.056C906.493 461.997 987.327 513.4 1075.39 554.893Z" stroke="url(#paint56_linear_1513_5220)" stroke-width="6.1855"/>
<path opacity="0.59" fill-rule="evenodd" clip-rule="evenodd" d="M1072.53 549.909C1211.59 612.484 1426.97 605.27 1470.86 751.213C1513.43 892.771 1310.6 986.656 1243.34 1117.9C1180.85 1239.85 1197.47 1401.53 1092.49 1489.55C980.405 1583.54 821.519 1615.75 676.658 1593.07C534.627 1570.83 408.108 1482.66 320.285 1368.67C240.915 1265.64 243.036 1129.61 220.986 1001.6C199.762 878.387 127.56 742.266 194.219 636.798C261 531.138 415.607 540.323 535.37 504.187C625.569 476.971 712.239 444.134 806.237 452.135C902.741 460.349 984.123 510.125 1072.53 549.909Z" stroke="url(#paint57_linear_1513_5220)" stroke-width="6.1855"/>
<path opacity="0.6" fill-rule="evenodd" clip-rule="evenodd" d="M1069.48 545.031C1209.03 604.917 1423.36 593.984 1469.6 738.54C1514.44 878.753 1314.11 975.771 1249.41 1107.63C1189.3 1230.14 1208.66 1390.84 1105.65 1480.32C995.676 1575.86 838.027 1610.7 693.391 1590.64C551.58 1570.97 424.073 1485.38 334.647 1373.4C253.829 1272.2 253.581 1136.71 229.405 1009.63C206.135 887.309 131.88 753.026 196.425 646.847C261.088 540.474 415.194 546.927 533.819 508.859C623.162 480.188 708.892 445.982 802.628 452.312C898.861 458.81 980.759 506.957 1069.48 545.031Z" stroke="url(#paint58_linear_1513_5220)" stroke-width="6.1855"/>
<path opacity="0.61" fill-rule="evenodd" clip-rule="evenodd" d="M1066.29 540.285C1206.28 597.484 1419.51 582.865 1468.05 725.998C1515.13 864.83 1317.34 964.922 1255.21 1097.34C1197.48 1220.38 1219.55 1380.05 1118.53 1470.95C1010.68 1567.99 854.314 1605.42 709.95 1587.97C568.406 1570.86 439.961 1487.85 348.976 1377.91C266.749 1278.55 264.152 1143.64 237.876 1017.53C212.584 896.135 136.318 763.719 198.745 656.871C261.286 549.826 414.843 553.567 532.299 513.597C620.761 483.493 705.531 447.939 798.975 452.61C894.908 457.404 977.29 503.919 1066.29 540.285Z" stroke="url(#paint59_linear_1513_5220)" stroke-width="6.1855"/>
<path opacity="0.62" fill-rule="evenodd" clip-rule="evenodd" d="M1062.92 535.648C1203.3 590.165 1415.36 571.894 1466.17 713.567C1515.46 850.983 1320.26 954.091 1260.69 1087.02C1205.35 1210.54 1230.08 1369.14 1131.08 1461.41C1025.38 1559.91 870.334 1599.91 726.288 1585.04C585.057 1570.47 455.725 1490.06 363.225 1382.17C279.629 1284.67 274.703 1150.38 246.353 1025.27C219.064 904.839 140.83 774.32 201.135 666.843C261.55 559.169 414.511 560.22 530.768 518.375C618.327 486.859 702.115 449.982 795.238 453.005C890.841 456.108 973.676 500.988 1062.92 535.648Z" stroke="url(#paint60_linear_1513_5220)" stroke-width="6.1855"/>
<path opacity="0.63" fill-rule="evenodd" clip-rule="evenodd" d="M1059.41 531.17C1200.13 583.007 1410.95 561.122 1464.01 701.3C1515.47 837.265 1322.89 943.328 1265.89 1076.72C1212.93 1200.67 1240.31 1358.16 1143.33 1451.75C1039.8 1551.67 886.116 1594.2 742.436 1581.9C601.563 1569.85 471.395 1492.04 377.424 1386.23C292.499 1290.6 285.265 1156.98 254.868 1032.9C225.608 913.466 145.449 784.872 203.629 676.808C261.915 568.546 414.233 566.928 529.261 523.239C615.895 490.335 698.682 452.157 791.453 453.545C886.698 454.97 969.952 498.214 1059.41 531.17Z" stroke="url(#paint61_linear_1513_5220)" stroke-width="6.1855"/>
<path opacity="0.64" fill-rule="evenodd" clip-rule="evenodd" d="M1055.73 526.8C1196.73 575.962 1406.26 550.5 1461.51 689.147C1515.11 823.629 1325.21 932.586 1270.77 1066.4C1220.18 1190.73 1250.18 1347.07 1155.25 1441.94C1053.89 1543.23 901.617 1588.25 758.347 1578.51C617.877 1568.96 486.925 1493.75 391.527 1390.04C305.312 1296.3 295.792 1163.39 263.375 1040.37C232.171 921.963 150.129 795.321 206.182 686.712C262.338 577.903 413.966 573.639 527.737 528.136C613.424 493.865 695.189 454.411 787.582 454.177C882.437 453.937 966.08 495.544 1055.73 526.8Z" stroke="url(#paint62_linear_1513_5220)" stroke-width="6.1855"/>
<path opacity="0.65" fill-rule="evenodd" clip-rule="evenodd" d="M1051.89 522.596C1193.14 569.088 1401.31 540.088 1458.73 677.171C1514.42 810.136 1327.24 921.927 1275.36 1056.11C1227.15 1180.78 1259.72 1335.91 1166.85 1432.03C1067.7 1534.65 916.866 1582.12 774.053 1574.92C634.029 1567.86 502.344 1495.26 405.564 1393.65C318.099 1301.83 306.316 1169.65 271.906 1047.74C238.784 930.386 154.904 805.723 208.829 696.608C262.853 587.294 413.746 580.408 526.232 533.121C610.951 497.506 691.674 456.8 783.66 454.958C878.098 453.067 962.097 493.037 1051.89 522.596Z" stroke="url(#paint63_linear_1513_5220)" stroke-width="6.1855"/>
<path opacity="0.66" fill-rule="evenodd" clip-rule="evenodd" d="M1047.89 518.512C1189.32 562.343 1396.07 529.844 1455.62 665.33C1513.37 796.744 1328.95 911.309 1279.62 1045.81C1233.79 1170.78 1268.91 1324.67 1178.11 1421.98C1081.17 1525.88 931.826 1575.77 789.513 1571.09C649.981 1566.5 517.614 1496.51 419.495 1397.03C330.821 1307.13 316.797 1175.73 280.423 1054.95C245.412 938.686 159.737 816.026 211.534 706.448C263.425 596.669 413.537 587.186 524.71 538.146C608.44 501.211 688.104 459.276 779.655 455.841C873.646 452.313 957.971 490.646 1047.89 518.512Z" stroke="url(#paint64_linear_1513_5220)" stroke-width="6.1855"/>
<path opacity="0.67" fill-rule="evenodd" clip-rule="evenodd" d="M1043.77 514.571C1185.33 555.747 1390.62 519.79 1452.25 653.646C1512.03 783.481 1330.4 900.755 1283.63 1035.52C1240.16 1160.75 1277.8 1313.35 1189.09 1411.82C1094.38 1516.95 946.552 1569.22 804.784 1567.04C665.786 1564.9 532.788 1497.52 433.376 1400.19C343.533 1312.22 327.292 1181.65 288.983 1062.03C252.11 946.881 164.684 826.25 214.352 716.249C264.111 606.047 413.399 593.991 523.232 543.23C605.953 504.998 684.54 461.86 775.628 456.845C869.144 451.696 953.763 488.393 1043.77 514.571Z" stroke="url(#paint65_linear_1513_5220)" stroke-width="6.1855"/>
<path opacity="0.68" fill-rule="evenodd" clip-rule="evenodd" d="M1039.49 510.782C1181.14 549.312 1384.89 509.938 1448.57 642.134C1510.34 770.357 1331.55 890.279 1287.32 1025.27C1246.22 1150.7 1286.34 1301.98 1199.73 1401.56C1107.26 1507.88 960.99 1562.5 819.812 1562.79C681.391 1563.08 547.812 1498.31 447.151 1403.14C356.179 1317.13 337.745 1187.41 297.532 1068.98C258.824 954.979 169.693 836.401 217.234 726.018C264.862 615.433 413.281 600.83 521.748 548.379C603.441 508.876 680.931 464.558 771.531 457.979C864.544 451.224 949.425 486.286 1039.49 510.782Z" stroke="url(#paint66_linear_1513_5220)" stroke-width="6.1855"/>
<path opacity="0.69" fill-rule="evenodd" clip-rule="evenodd" d="M1035.06 507.136C1176.76 543.029 1378.93 500.28 1444.62 630.784C1508.33 757.367 1332.42 879.874 1290.72 1015.04C1251.98 1140.63 1294.54 1290.55 1210.04 1391.19C1119.83 1498.66 975.158 1555.58 834.611 1558.33C696.81 1561.03 562.7 1498.88 460.835 1405.87C368.776 1321.82 348.175 1193 306.086 1075.79C265.573 962.968 174.781 846.464 220.197 735.74C265.695 624.814 413.202 607.691 520.278 553.582C600.923 512.83 677.301 467.358 767.384 459.231C859.868 450.886 944.98 484.316 1035.06 507.136Z" stroke="url(#paint67_linear_1513_5220)" stroke-width="6.1855"/>
<path opacity="0.7" fill-rule="evenodd" clip-rule="evenodd" d="M1030.49 503.65C1172.18 536.918 1372.7 490.838 1440.36 619.62C1505.99 744.533 1332.98 869.561 1293.82 1004.86C1257.42 1130.57 1302.4 1279.08 1220.02 1380.75C1132.07 1489.31 989.033 1548.5 849.16 1553.69C712.02 1558.78 577.431 1499.23 474.407 1408.41C381.301 1326.33 358.557 1198.44 314.623 1082.48C272.334 970.865 179.927 856.457 223.22 745.432C266.592 634.204 413.144 614.589 518.804 558.855C598.383 516.879 673.632 470.279 763.172 460.618C855.098 450.7 940.411 482.5 1030.49 503.65Z" stroke="url(#paint68_linear_1513_5220)" stroke-width="6.1855"/>
<path opacity="0.71" fill-rule="evenodd" clip-rule="evenodd" d="M1025.79 500.323C1167.42 530.975 1366.24 481.608 1435.84 608.641C1503.34 731.856 1333.27 859.341 1296.63 994.716C1262.58 1120.5 1309.93 1267.57 1229.68 1370.23C1144.01 1479.83 1002.64 1541.25 863.484 1548.85C727.046 1556.31 592.027 1499.37 487.89 1410.75C393.777 1330.66 368.917 1203.73 323.168 1089.05C279.133 978.663 185.156 866.372 226.329 755.087C267.578 643.598 413.134 621.518 517.354 564.192C595.848 521.016 669.952 473.313 758.924 462.136C850.267 450.662 935.748 480.835 1025.79 500.323Z" stroke="url(#paint69_linear_1513_5220)" stroke-width="6.1855"/>
<path opacity="0.72" fill-rule="evenodd" clip-rule="evenodd" d="M1020.95 497.15C1162.47 525.2 1359.55 472.592 1431.03 597.846C1500.36 719.337 1333.28 849.214 1299.15 984.624C1267.43 1110.44 1317.11 1256.03 1239.01 1359.63C1155.63 1470.23 1015.96 1533.84 877.559 1543.83C741.864 1553.63 606.465 1499.29 501.259 1412.88C406.18 1334.79 379.231 1208.85 331.7 1095.48C285.948 986.358 190.446 876.204 229.504 764.698C268.634 652.988 413.152 628.472 515.91 569.587C593.302 525.238 666.245 476.456 754.623 463.781C845.355 450.767 930.976 479.317 1020.95 497.15Z" stroke="url(#paint70_linear_1513_5220)" stroke-width="6.1855"/>
<path opacity="0.73" fill-rule="evenodd" clip-rule="evenodd" d="M1015.97 494.135C1157.34 519.596 1352.61 463.792 1425.94 587.241C1497.07 706.981 1332.99 839.186 1301.36 974.583C1271.97 1100.39 1323.96 1244.46 1248.01 1348.95C1166.91 1460.52 1028.98 1526.27 891.379 1538.63C756.467 1550.74 620.737 1499.01 514.508 1414.81C418.505 1338.72 389.493 1213.82 340.211 1101.79C292.774 993.95 195.793 885.952 232.741 774.265C269.756 662.373 413.196 635.451 514.468 575.041C590.741 529.542 662.509 479.71 750.267 465.552C840.364 451.017 926.093 477.948 1015.97 494.135Z" stroke="url(#paint71_linear_1513_5220)" stroke-width="6.1855"/>
<path opacity="0.74" fill-rule="evenodd" clip-rule="evenodd" d="M1010.89 491.291C1152.06 514.176 1345.48 455.223 1420.61 576.841C1493.5 694.804 1332.45 829.272 1303.32 964.611C1276.24 1090.37 1330.49 1232.88 1256.7 1338.23C1177.91 1450.7 1041.74 1518.56 904.977 1533.26C770.888 1547.67 634.876 1498.53 527.67 1416.56C430.782 1342.49 399.736 1218.65 348.734 1107.98C299.642 1001.45 201.229 895.626 236.072 783.798C270.979 671.765 413.301 642.466 513.065 580.564C588.203 533.942 658.781 483.084 745.895 467.462C835.332 451.424 921.138 476.742 1010.89 491.291Z" stroke="url(#paint72_linear_1513_5220)" stroke-width="6.1855"/>
<path opacity="0.75" fill-rule="evenodd" clip-rule="evenodd" d="M1005.67 488.622C1146.59 508.946 1338.1 446.892 1415.01 566.653C1489.6 682.815 1331.63 819.479 1304.97 954.715C1280.2 1080.38 1336.67 1221.3 1265.04 1327.46C1188.56 1440.8 1054.19 1510.72 918.307 1527.73C785.079 1544.41 648.836 1497.86 540.696 1418.13C442.966 1346.08 409.914 1223.34 357.225 1114.05C306.509 1008.86 206.709 905.227 239.454 793.297C272.259 681.162 413.423 649.518 511.66 586.158C585.647 538.439 655.02 486.581 741.467 469.513C830.217 451.991 916.072 475.7 1005.67 488.622Z" stroke="url(#paint73_linear_1513_5220)" stroke-width="6.1855"/>
<path opacity="0.76" fill-rule="evenodd" clip-rule="evenodd" d="M1000.36 486.104C1140.98 503.882 1330.54 438.776 1409.17 556.655C1485.44 670.993 1330.56 809.788 1306.37 944.875C1283.89 1070.4 1342.55 1209.7 1273.09 1316.62C1198.92 1430.78 1066.38 1502.73 931.418 1522.03C799.089 1540.95 662.663 1496.98 553.636 1419.5C455.104 1349.47 420.075 1227.87 365.732 1119.99C313.424 1016.16 212.283 914.73 242.937 802.737C273.647 690.538 413.616 656.58 510.303 591.798C583.124 543.007 651.281 490.176 737.035 471.681C825.075 452.692 910.947 474.8 1000.36 486.104Z" stroke="url(#paint74_linear_1513_5220)" stroke-width="6.1855"/>
<path opacity="0.77" fill-rule="evenodd" clip-rule="evenodd" d="M995.129 482.926C1135.42 498.176 1322.98 430.065 1403.29 546.04C1481.19 658.53 1329.43 799.39 1307.69 934.284C1287.5 1059.63 1348.3 1197.28 1281.01 1304.92C1209.17 1419.85 1078.48 1493.78 944.475 1515.34C813.084 1536.48 676.523 1495.08 566.654 1419.85C467.36 1351.85 430.383 1231.41 374.419 1124.98C320.551 1022.53 218.117 923.321 246.688 811.303C275.31 699.081 414.047 662.841 509.165 596.67C580.805 546.833 647.731 493.056 732.771 473.152C820.076 452.718 905.937 473.23 995.129 482.926Z" stroke="url(#paint75_linear_1513_5220)" stroke-width="6.1855"/>
<path opacity="0.78" fill-rule="evenodd" clip-rule="evenodd" d="M989.395 480.614C1129.3 493.352 1314.81 422.288 1396.76 536.335C1476.25 646.956 1327.64 789.814 1308.34 924.47C1290.41 1049.59 1353.32 1185.56 1288.21 1293.88C1218.7 1409.54 1089.9 1485.4 956.881 1509.19C826.464 1532.52 689.816 1493.7 579.149 1420.72C479.136 1354.76 440.241 1235.51 382.689 1130.54C327.293 1029.49 223.612 932.522 250.107 820.519C276.651 708.31 414.118 669.821 507.65 602.297C578.093 551.44 643.778 496.745 728.079 475.451C814.626 453.59 900.446 472.515 989.395 480.614Z" stroke="url(#paint76_linear_1513_5220)" stroke-width="6.1855"/>
<path opacity="0.79" fill-rule="evenodd" clip-rule="evenodd" d="M983.635 479.608C1123.11 489.853 1306.53 415.886 1390.08 527.984C1471.12 636.714 1325.67 781.504 1308.8 915.879C1293.13 1040.74 1358.1 1174.99 1295.17 1283.95C1227.98 1400.28 1101.1 1478.04 969.112 1504.04C839.705 1529.53 703.018 1493.26 591.6 1422.54C490.907 1358.63 450.124 1240.61 391.019 1137.11C334.128 1037.49 229.246 942.773 253.676 830.822C278.151 718.666 414.311 677.961 506.238 609.118C575.472 557.269 639.903 501.681 723.443 479.018C809.21 455.751 894.959 473.095 983.635 479.608Z" stroke="url(#paint77_linear_1513_5220)" stroke-width="6.1855"/>
<path opacity="0.8" fill-rule="evenodd" clip-rule="evenodd" d="M977.867 477.814C1116.87 485.585 1298.15 408.766 1383.25 518.894C1465.8 625.712 1323.54 772.367 1309.08 906.417C1295.65 1030.97 1362.65 1163.47 1301.9 1273.03C1237.04 1389.99 1112.1 1469.6 981.18 1497.78C852.818 1525.41 716.14 1491.68 604.015 1423.23C502.683 1361.36 460.043 1244.59 399.419 1142.6C341.066 1044.43 235.03 951.976 257.404 840.115C279.819 728.05 414.639 685.162 504.942 615.036C572.955 562.221 636.121 505.767 718.878 481.755C803.841 457.102 889.492 472.874 977.867 477.814Z" stroke="url(#paint78_linear_1513_5220)" stroke-width="6.1855"/>
<path opacity="0.81" fill-rule="evenodd" clip-rule="evenodd" d="M971.996 476.17C1110.48 481.486 1289.58 401.868 1376.2 510.005C1460.21 614.894 1321.16 763.346 1309.09 897.028C1297.88 1021.24 1366.86 1151.96 1308.3 1262.07C1245.78 1379.62 1122.8 1461.04 992.985 1491.36C865.704 1521.1 729.081 1489.91 616.294 1423.72C514.364 1363.9 469.899 1248.42 407.79 1147.95C348.007 1051.25 240.864 961.068 261.194 849.335C281.56 737.397 415.004 692.362 503.668 620.989C570.445 567.234 632.336 509.942 714.289 484.6C798.426 458.583 883.949 472.791 971.996 476.17Z" stroke="url(#paint79_linear_1513_5220)" stroke-width="6.1855"/>
<path opacity="0.82" fill-rule="evenodd" clip-rule="evenodd" d="M966.007 474.743C1103.94 477.624 1280.81 395.259 1368.89 501.388C1454.33 604.327 1318.51 754.51 1308.82 887.782C1299.81 1011.62 1370.74 1140.53 1314.36 1251.14C1254.17 1369.24 1133.19 1452.42 1004.51 1484.86C878.341 1516.67 741.82 1488 628.416 1424.09C525.928 1366.32 479.669 1252.14 416.11 1153.23C354.93 1058.02 246.728 970.113 265.024 858.545C283.352 746.772 415.387 699.623 502.395 627.039C567.926 572.371 628.532 514.268 709.66 487.618C792.95 460.258 878.316 472.912 966.007 474.743Z" stroke="url(#paint80_linear_1513_5220)" stroke-width="6.1855"/>
<path opacity="0.83" fill-rule="evenodd" clip-rule="evenodd" d="M959.931 473.478C1097.26 473.945 1271.87 388.887 1361.37 492.988C1448.19 593.961 1315.62 745.807 1308.29 878.626C1301.47 1002.04 1374.3 1129.12 1320.11 1240.19C1262.25 1358.79 1143.28 1443.69 1015.77 1478.22C890.753 1512.07 754.381 1485.91 640.404 1424.27C537.399 1368.56 489.378 1255.72 424.404 1158.37C361.863 1064.66 252.647 979.054 268.921 867.688C285.224 756.117 415.816 706.891 501.154 633.13C565.427 577.578 624.739 518.691 705.02 490.753C787.441 462.071 872.624 473.181 959.931 473.478Z" stroke="url(#paint81_linear_1513_5220)" stroke-width="6.1855"/>
<path opacity="0.84" fill-rule="evenodd" clip-rule="evenodd" d="M953.778 472.415C1090.46 470.491 1262.76 382.792 1353.65 484.849C1441.81 583.839 1312.5 737.281 1307.51 869.606C1302.86 992.561 1377.55 1117.78 1325.54 1229.28C1270.02 1348.32 1153.08 1434.89 1026.78 1471.48C902.945 1507.35 766.766 1483.69 652.262 1424.32C548.78 1370.66 499.03 1259.18 432.676 1163.42C368.806 1071.24 258.625 987.931 272.889 876.802C287.179 765.47 416.297 714.202 499.95 639.302C562.954 582.891 620.962 523.248 700.378 494.045C781.91 464.063 866.88 473.638 953.778 472.415Z" stroke="url(#paint82_linear_1513_5220)" stroke-width="6.1855"/>
<path opacity="0.85" fill-rule="evenodd" clip-rule="evenodd" d="M947.531 471.533C1083.53 467.24 1253.49 376.956 1345.71 476.952C1435.16 573.943 1309.14 728.914 1306.46 860.703C1303.97 983.161 1380.47 1106.49 1330.65 1218.37C1277.46 1337.82 1162.58 1426.02 1037.52 1464.63C914.894 1502.49 778.955 1481.31 663.967 1424.21C560.048 1372.6 508.602 1262.51 440.903 1168.35C375.739 1077.72 264.639 996.719 276.907 885.865C289.198 774.808 416.81 721.534 498.765 645.531C560.489 588.289 617.186 527.917 695.715 497.469C776.338 466.21 861.069 474.262 947.531 471.533Z" stroke="url(#paint83_linear_1513_5220)" stroke-width="6.1855"/>
<path opacity="0.86" fill-rule="evenodd" clip-rule="evenodd" d="M941.183 470.833C1076.45 464.195 1244.03 371.38 1337.55 469.3C1428.26 564.277 1305.52 720.709 1305.14 851.923C1304.79 973.846 1383.07 1095.26 1335.42 1207.48C1284.55 1327.3 1171.76 1417.07 1047.97 1457.68C926.588 1497.49 790.934 1478.77 675.507 1423.94C571.191 1374.39 518.081 1265.71 449.074 1173.18C382.65 1084.11 270.677 1005.42 280.964 894.876C291.269 784.129 417.345 728.887 497.588 651.817C558.023 593.771 613.4 532.698 691.025 501.028C770.719 468.513 855.183 475.054 941.183 470.833Z" stroke="url(#paint84_linear_1513_5220)" stroke-width="6.1855"/>
<path opacity="0.87" fill-rule="evenodd" clip-rule="evenodd" d="M934.782 470.355C1069.28 461.395 1234.44 366.106 1329.21 461.934C1421.13 554.883 1301.7 712.708 1303.6 843.307C1305.37 964.659 1385.37 1084.14 1339.9 1196.65C1291.36 1316.79 1180.67 1408.1 1058.17 1450.67C938.069 1492.4 802.743 1476.13 686.921 1423.57C582.248 1376.06 527.509 1268.83 457.229 1177.93C389.58 1090.44 276.782 1014.07 285.101 903.872C293.435 793.471 417.945 736.297 496.464 658.197C555.601 599.375 609.652 537.628 686.354 504.758C765.099 471.011 849.27 476.051 934.782 470.355Z" stroke="url(#paint85_linear_1513_5220)" stroke-width="6.1855"/>
<path opacity="0.88" fill-rule="evenodd" clip-rule="evenodd" d="M928.29 470.053C1061.99 458.796 1224.69 361.088 1320.66 454.812C1413.75 545.72 1297.63 704.871 1301.79 834.815C1305.65 955.558 1387.34 1073.08 1344.05 1185.85C1297.82 1306.25 1189.25 1399.06 1068.09 1443.55C949.292 1487.18 814.34 1473.34 698.166 1423.04C593.176 1377.58 536.841 1271.81 465.324 1182.56C396.485 1096.66 282.907 1022.62 289.274 912.805C295.653 802.785 418.568 743.718 495.352 664.624C553.182 605.054 605.9 542.661 681.66 508.612C759.439 473.657 843.29 477.209 928.29 470.053Z" stroke="url(#paint86_linear_1513_5220)" stroke-width="6.1855"/>
<path opacity="0.89" fill-rule="evenodd" clip-rule="evenodd" d="M921.753 469.955C1054.6 456.428 1214.82 356.357 1311.95 447.964C1406.16 536.818 1293.38 697.227 1299.77 826.478C1305.71 946.576 1389.04 1062.11 1347.91 1175.1C1304 1295.73 1197.57 1389.98 1077.76 1436.37C960.301 1481.85 825.765 1470.43 709.284 1422.39C604.015 1378.97 546.12 1274.68 473.402 1187.11C403.407 1102.82 289.097 1031.11 293.528 921.705C297.966 812.099 419.259 751.177 494.297 671.126C550.812 610.835 602.191 547.823 676.992 512.62C753.786 476.479 837.291 478.556 921.753 469.955Z" stroke="url(#paint87_linear_1513_5220)" stroke-width="6.1855"/>
<path opacity="0.9" fill-rule="evenodd" clip-rule="evenodd" d="M915.141 470.055C1047.11 454.282 1204.81 351.905 1303.05 441.383C1398.34 528.173 1288.89 689.773 1297.49 818.292C1305.49 937.711 1390.42 1051.24 1351.45 1164.4C1309.85 1285.22 1205.57 1380.86 1087.16 1429.11C971.059 1476.42 836.982 1467.39 720.237 1421.61C614.729 1380.23 555.307 1277.45 481.425 1191.57C410.31 1108.89 295.314 1039.52 297.825 930.56C300.34 821.403 419.983 758.665 493.265 677.693C548.458 616.708 598.493 553.106 672.317 516.771C748.109 479.468 831.241 480.083 915.141 470.055Z" stroke="url(#paint88_linear_1513_5220)" stroke-width="6.1855"/>
<path opacity="0.91" fill-rule="evenodd" clip-rule="evenodd" d="M908.456 470.353C1039.5 452.362 1194.65 347.737 1293.97 435.075C1390.3 519.789 1284.18 682.513 1294.97 810.262C1305 928.966 1391.48 1040.47 1354.67 1153.76C1315.37 1274.72 1213.26 1371.72 1096.27 1421.8C981.562 1470.89 847.987 1464.24 731.02 1420.7C625.313 1381.36 564.399 1280.11 489.389 1195.92C417.189 1114.89 301.554 1047.85 302.162 939.371C302.77 830.697 420.737 766.181 492.255 684.325C546.118 622.675 594.804 558.509 667.635 521.066C742.407 482.625 825.142 481.792 908.456 470.353Z" stroke="url(#paint89_linear_1513_5220)" stroke-width="6.1855"/>
<path opacity="0.92" fill-rule="evenodd" clip-rule="evenodd" d="M901.722 470.841C1031.81 450.659 1184.38 343.843 1284.72 429.032C1382.04 511.66 1279.28 675.441 1292.23 802.384C1304.27 920.338 1392.26 1029.8 1357.6 1143.18C1320.59 1264.24 1220.67 1362.54 1105.12 1414.41C991.83 1465.26 858.798 1460.96 741.653 1419.67C635.784 1382.36 573.414 1282.66 497.313 1200.18C424.063 1120.8 307.835 1056.09 306.557 948.128C305.277 839.97 421.542 773.715 491.286 691.013C543.815 628.725 591.146 564.024 662.969 525.496C736.705 485.941 819.017 483.673 901.722 470.841Z" stroke="url(#paint90_linear_1513_5220)" stroke-width="6.1855"/>
<path opacity="0.93" fill-rule="evenodd" clip-rule="evenodd" d="M894.939 471.541C1024.03 449.195 1173.99 340.247 1275.31 423.277C1373.59 503.811 1274.17 668.582 1289.27 794.682C1303.29 911.853 1392.75 1019.25 1360.22 1132.69C1325.5 1253.8 1227.78 1353.36 1113.7 1406.98C1001.86 1459.56 869.411 1457.59 752.13 1418.54C646.139 1383.25 582.347 1285.12 505.193 1204.37C430.927 1126.64 314.153 1064.26 311.008 956.851C307.857 849.242 422.396 781.289 490.359 697.776C541.546 634.878 587.52 569.669 658.318 530.08C731.002 489.436 812.867 485.748 894.939 471.541Z" stroke="url(#paint91_linear_1513_5220)" stroke-width="6.1855"/>
<path opacity="0.94" fill-rule="evenodd" clip-rule="evenodd" d="M888.101 472.438C1016.16 447.957 1163.48 336.935 1265.74 417.798C1364.92 496.23 1268.87 661.923 1286.07 787.145C1302.06 903.499 1392.93 1008.82 1362.54 1122.26C1330.09 1243.38 1234.59 1344.16 1122.01 1399.5C1011.64 1453.77 879.814 1454.11 762.439 1417.29C656.363 1384.01 591.186 1287.47 513.015 1208.45C437.77 1132.4 320.495 1072.36 315.501 965.526C310.498 858.498 423.287 788.886 489.463 704.6C539.303 641.12 583.917 575.43 653.675 534.804C725.292 493.095 806.685 488.002 888.101 472.438Z" stroke="url(#paint92_linear_1513_5220)" stroke-width="6.1855"/>
<path opacity="0.95" fill-rule="evenodd" clip-rule="evenodd" d="M881.225 473.545C1008.22 446.959 1152.88 333.921 1256.03 412.609C1356.07 488.933 1263.37 655.482 1282.67 779.79C1300.6 895.295 1392.84 998.519 1364.57 1111.93C1334.38 1233.02 1241.11 1334.96 1130.06 1391.99C1021.17 1447.91 890.017 1450.54 772.591 1415.94C666.469 1384.67 599.942 1289.74 520.79 1212.47C444.602 1138.09 326.872 1080.39 320.049 974.165C313.213 867.749 424.23 796.518 488.611 711.496C537.1 647.461 580.35 581.318 649.054 539.679C719.589 496.93 800.486 490.448 881.225 473.545Z" stroke="url(#paint93_linear_1513_5220)" stroke-width="6.1855"/>
<path opacity="0.96" fill-rule="evenodd" clip-rule="evenodd" d="M874.304 474.866C1000.2 446.204 1142.17 331.21 1246.16 407.717C1347.03 481.926 1257.69 649.265 1279.04 772.624C1298.89 887.248 1392.46 988.36 1366.3 1101.71C1338.37 1222.72 1247.33 1325.78 1137.82 1384.46C1030.46 1441.99 900.01 1446.89 782.574 1414.5C676.442 1385.23 608.603 1291.92 528.507 1216.41C451.411 1143.72 333.271 1088.35 324.639 982.769C315.991 876.996 425.213 804.187 487.794 718.466C534.928 653.904 576.812 587.336 644.448 544.708C713.886 500.945 794.264 493.088 874.304 474.866Z" stroke="url(#paint94_linear_1513_5220)" stroke-width="6.1855"/>
<path opacity="0.97" fill-rule="evenodd" clip-rule="evenodd" d="M867.346 476.382C992.107 445.675 1131.36 328.783 1236.16 403.105C1337.81 475.193 1251.82 643.255 1275.21 765.632C1296.94 879.343 1391.8 978.328 1367.74 1091.57C1342.05 1212.47 1253.26 1316.6 1145.33 1376.89C1039.5 1436 909.797 1443.15 792.391 1412.96C686.288 1385.68 617.171 1294.01 536.17 1220.26C458.201 1149.27 339.697 1096.23 329.276 991.32C318.835 886.222 426.241 811.876 487.018 725.492C532.793 660.431 573.311 593.465 639.864 549.873C708.192 505.119 788.027 495.905 867.346 476.382Z" stroke="url(#paint95_linear_1513_5220)" stroke-width="6.1855"/>
<path opacity="0.98" fill-rule="evenodd" clip-rule="evenodd" d="M860.355 478.109C983.949 445.387 1120.47 326.658 1226.02 398.789C1328.41 468.752 1245.78 637.472 1271.17 758.833C1294.76 871.6 1390.86 968.445 1368.88 1081.54C1345.42 1202.29 1258.89 1307.44 1152.56 1369.31C1048.3 1429.96 919.372 1439.32 802.039 1411.33C696.001 1386.02 625.643 1296.01 543.773 1224.04C464.968 1154.76 346.145 1104.04 333.955 999.833C321.743 895.439 427.313 819.597 486.282 732.587C530.695 667.054 569.844 599.718 635.303 555.186C702.507 509.469 781.777 498.913 860.355 478.109Z" stroke="url(#paint96_linear_1513_5220)" stroke-width="6.1855"/>
<path opacity="0.99" fill-rule="evenodd" clip-rule="evenodd" d="M853.337 480.042C975.732 445.337 1109.49 324.83 1215.76 394.766C1318.84 462.601 1239.56 631.912 1266.93 752.225C1292.36 864.019 1389.65 958.71 1369.75 1071.62C1348.5 1192.17 1264.24 1298.3 1159.52 1361.71C1056.85 1423.87 928.742 1435.42 811.521 1409.6C705.584 1386.27 634.023 1297.93 551.321 1227.74C471.716 1160.18 352.618 1111.77 338.681 1008.3C324.719 904.642 428.434 827.345 485.591 739.746C528.64 673.77 566.42 606.089 630.772 560.644C696.839 513.987 775.522 502.107 853.337 480.042Z" stroke="url(#paint97_linear_1513_5220)" stroke-width="6.1855"/>
<path fill-rule="evenodd" clip-rule="evenodd" d="M846.296 482.177C967.461 445.52 1098.44 323.295 1205.38 391.034C1309.11 456.737 1233.17 626.575 1262.49 745.808C1289.74 856.599 1388.17 949.123 1370.33 1061.81C1351.29 1182.13 1269.3 1289.19 1166.22 1354.09C1065.15 1417.73 937.902 1431.45 820.834 1407.8C715.035 1386.42 642.307 1299.76 558.81 1231.36C478.44 1165.52 359.112 1119.43 343.45 1016.72C327.76 913.826 429.601 835.116 484.944 746.963C526.627 680.571 563.038 612.575 626.271 566.24C691.19 518.67 769.262 505.483 846.296 482.177Z" stroke="url(#paint98_linear_1513_5220)" stroke-width="6.1855"/>
<defs>
<filter id="filter0_d_1513_5220" x="-262.467" y="191.309" width="1510.99" height="1458.12" filterUnits="userSpaceOnUse" color-interpolation-filters="sRGB">
<feFlood flood-opacity="0" result="BackgroundImageFix"/>
<feColorMatrix in="SourceAlpha" type="matrix" values="0 0 0 0 0 0 0 0 0 0 0 0 0 0 0 0 0 0 127 0" result="hardAlpha"/>
<feOffset dy="3.53761"/>
<feGaussianBlur stdDeviation="1.76881"/>
<feComposite in2="hardAlpha" operator="out"/>
<feColorMatrix type="matrix" values="0 0 0 0 0 0 0 0 0 0 0 0 0 0 0 0 0 0 0.25 0"/>
<feBlend mode="normal" in2="BackgroundImageFix" result="effect1_dropShadow_1513_5220"/>
<feBlend mode="normal" in="SourceGraphic" in2="effect1_dropShadow_1513_5220" result="shape"/>
</filter>
<linearGradient id="paint0_linear_1513_5220" x1="1083.27" y1="975.559" x2="-453.987" y2="688.544" gradientUnits="userSpaceOnUse">
<stop stop-color="#0A4432"/>
<stop offset="1" stop-color="#5EDCA8"/>
</linearGradient>
<linearGradient id="paint1_linear_1513_5220" x1="1092.2" y1="967.394" x2="-444.748" y2="708.11" gradientUnits="userSpaceOnUse">
<stop stop-color="#0A4432"/>
<stop offset="1" stop-color="#5EDCA8"/>
</linearGradient>
<linearGradient id="paint2_linear_1513_5220" x1="1100.91" y1="959.106" x2="-435.234" y2="727.454" gradientUnits="userSpaceOnUse">
<stop stop-color="#0A4432"/>
<stop offset="1" stop-color="#5EDCA8"/>
</linearGradient>
<linearGradient id="paint3_linear_1513_5220" x1="1109.37" y1="950.719" x2="-425.474" y2="746.591" gradientUnits="userSpaceOnUse">
<stop stop-color="#0A4432"/>
<stop offset="1" stop-color="#5EDCA8"/>
</linearGradient>
<linearGradient id="paint4_linear_1513_5220" x1="1117.59" y1="942.218" x2="-415.453" y2="765.498" gradientUnits="userSpaceOnUse">
<stop stop-color="#0A4432"/>
<stop offset="1" stop-color="#5EDCA8"/>
</linearGradient>
<linearGradient id="paint5_linear_1513_5220" x1="1125.57" y1="933.612" x2="-405.195" y2="784.175" gradientUnits="userSpaceOnUse">
<stop stop-color="#0A4432"/>
<stop offset="1" stop-color="#5EDCA8"/>
</linearGradient>
<linearGradient id="paint6_linear_1513_5220" x1="1133.29" y1="924.911" x2="-394.708" y2="802.624" gradientUnits="userSpaceOnUse">
<stop stop-color="#0A4432"/>
<stop offset="1" stop-color="#5EDCA8"/>
</linearGradient>
<linearGradient id="paint7_linear_1513_5220" x1="1140.78" y1="916.101" x2="-383.968" y2="820.822" gradientUnits="userSpaceOnUse">
<stop stop-color="#0A4432"/>
<stop offset="1" stop-color="#5EDCA8"/>
</linearGradient>
<linearGradient id="paint8_linear_1513_5220" x1="1148.05" y1="907.234" x2="-372.977" y2="838.811" gradientUnits="userSpaceOnUse">
<stop stop-color="#0A4432"/>
<stop offset="1" stop-color="#5EDCA8"/>
</linearGradient>
<linearGradient id="paint9_linear_1513_5220" x1="1155.06" y1="898.26" x2="-361.774" y2="856.535" gradientUnits="userSpaceOnUse">
<stop stop-color="#0A4432"/>
<stop offset="1" stop-color="#5EDCA8"/>
</linearGradient>
<linearGradient id="paint10_linear_1513_5220" x1="1161.8" y1="889.227" x2="-350.375" y2="874.033" gradientUnits="userSpaceOnUse">
<stop stop-color="#0A4432"/>
<stop offset="1" stop-color="#5EDCA8"/>
</linearGradient>
<linearGradient id="paint11_linear_1513_5220" x1="1168.3" y1="880.105" x2="-338.749" y2="891.266" gradientUnits="userSpaceOnUse">
<stop stop-color="#0A4432"/>
<stop offset="1" stop-color="#5EDCA8"/>
</linearGradient>
<linearGradient id="paint12_linear_1513_5220" x1="1174.57" y1="870.923" x2="-326.907" y2="908.256" gradientUnits="userSpaceOnUse">
<stop stop-color="#0A4432"/>
<stop offset="1" stop-color="#5EDCA8"/>
</linearGradient>
<linearGradient id="paint13_linear_1513_5220" x1="1180.56" y1="861.671" x2="-314.878" y2="924.985" gradientUnits="userSpaceOnUse">
<stop stop-color="#0A4432"/>
<stop offset="1" stop-color="#5EDCA8"/>
</linearGradient>
<linearGradient id="paint14_linear_1513_5220" x1="1186.32" y1="852.37" x2="-302.642" y2="941.465" gradientUnits="userSpaceOnUse">
<stop stop-color="#0A4432"/>
<stop offset="1" stop-color="#5EDCA8"/>
</linearGradient>
<linearGradient id="paint15_linear_1513_5220" x1="1191.82" y1="843.017" x2="-290.215" y2="957.687" gradientUnits="userSpaceOnUse">
<stop stop-color="#0A4432"/>
<stop offset="1" stop-color="#5EDCA8"/>
</linearGradient>
<linearGradient id="paint16_linear_1513_5220" x1="1197.04" y1="833.622" x2="-277.637" y2="973.652" gradientUnits="userSpaceOnUse">
<stop stop-color="#0A4432"/>
<stop offset="1" stop-color="#5EDCA8"/>
</linearGradient>
<linearGradient id="paint17_linear_1513_5220" x1="1206.79" y1="814.699" x2="-251.876" y2="1004.78" gradientUnits="userSpaceOnUse">
<stop stop-color="#0A4432"/>
<stop offset="1" stop-color="#5EDCA8"/>
</linearGradient>
<linearGradient id="paint18_linear_1513_5220" x1="1211.23" y1="805.188" x2="-238.79" y2="1019.94" gradientUnits="userSpaceOnUse">
<stop stop-color="#0A4432"/>
<stop offset="1" stop-color="#5EDCA8"/>
</linearGradient>
<linearGradient id="paint19_linear_1513_5220" x1="1215.46" y1="795.662" x2="-225.504" y2="1034.84" gradientUnits="userSpaceOnUse">
<stop stop-color="#0A4432"/>
<stop offset="1" stop-color="#5EDCA8"/>
</linearGradient>
<linearGradient id="paint20_linear_1513_5220" x1="1219.43" y1="786.095" x2="-212.074" y2="1049.45" gradientUnits="userSpaceOnUse">
<stop stop-color="#0A4432"/>
<stop offset="1" stop-color="#5EDCA8"/>
</linearGradient>
<linearGradient id="paint21_linear_1513_5220" x1="1223.11" y1="776.54" x2="-198.524" y2="1063.82" gradientUnits="userSpaceOnUse">
<stop stop-color="#0A4432"/>
<stop offset="1" stop-color="#5EDCA8"/>
</linearGradient>
<linearGradient id="paint22_linear_1513_5220" x1="1226.54" y1="766.952" x2="-184.818" y2="1077.89" gradientUnits="userSpaceOnUse">
<stop stop-color="#0A4432"/>
<stop offset="1" stop-color="#5EDCA8"/>
</linearGradient>
<linearGradient id="paint23_linear_1513_5220" x1="1229.76" y1="757.378" x2="-170.949" y2="1091.7" gradientUnits="userSpaceOnUse">
<stop stop-color="#0A4432"/>
<stop offset="1" stop-color="#5EDCA8"/>
</linearGradient>
<linearGradient id="paint24_linear_1513_5220" x1="1232.67" y1="747.797" x2="-156.989" y2="1105.23" gradientUnits="userSpaceOnUse">
<stop stop-color="#0A4432"/>
<stop offset="1" stop-color="#5EDCA8"/>
</linearGradient>
<linearGradient id="paint25_linear_1513_5220" x1="1235.33" y1="738.215" x2="-142.908" y2="1118.48" gradientUnits="userSpaceOnUse">
<stop stop-color="#0A4432"/>
<stop offset="1" stop-color="#5EDCA8"/>
</linearGradient>
<linearGradient id="paint26_linear_1513_5220" x1="1237.75" y1="728.639" x2="-128.693" y2="1131.44" gradientUnits="userSpaceOnUse">
<stop stop-color="#0A4432"/>
<stop offset="1" stop-color="#5EDCA8"/>
</linearGradient>
<linearGradient id="paint27_linear_1513_5220" x1="1239.91" y1="719.101" x2="-114.377" y2="1144.14" gradientUnits="userSpaceOnUse">
<stop stop-color="#0A4432"/>
<stop offset="1" stop-color="#5EDCA8"/>
</linearGradient>
<linearGradient id="paint28_linear_1513_5220" x1="1241.81" y1="709.571" x2="-99.9613" y2="1156.55" gradientUnits="userSpaceOnUse">
<stop stop-color="#0A4432"/>
<stop offset="1" stop-color="#5EDCA8"/>
</linearGradient>
<linearGradient id="paint29_linear_1513_5220" x1="1243.46" y1="700.075" x2="-85.4399" y2="1168.69" gradientUnits="userSpaceOnUse">
<stop stop-color="#0A4432"/>
<stop offset="1" stop-color="#5EDCA8"/>
</linearGradient>
<linearGradient id="paint30_linear_1513_5220" x1="1244.84" y1="690.615" x2="-70.8456" y2="1180.55" gradientUnits="userSpaceOnUse">
<stop stop-color="#0A4432"/>
<stop offset="1" stop-color="#5EDCA8"/>
</linearGradient>
<linearGradient id="paint31_linear_1513_5220" x1="1246" y1="681.181" x2="-56.1338" y2="1192.12" gradientUnits="userSpaceOnUse">
<stop stop-color="#0A4432"/>
<stop offset="1" stop-color="#5EDCA8"/>
</linearGradient>
<linearGradient id="paint32_linear_1513_5220" x1="1246.89" y1="671.799" x2="-41.3685" y2="1203.42" gradientUnits="userSpaceOnUse">
<stop stop-color="#0A4432"/>
<stop offset="1" stop-color="#5EDCA8"/>
</linearGradient>
<linearGradient id="paint33_linear_1513_5220" x1="1247.52" y1="662.447" x2="-26.5283" y2="1214.42" gradientUnits="userSpaceOnUse">
<stop stop-color="#0A4432"/>
<stop offset="1" stop-color="#5EDCA8"/>
</linearGradient>
<linearGradient id="paint34_linear_1513_5220" x1="1247.92" y1="653.171" x2="-11.6074" y2="1225.16" gradientUnits="userSpaceOnUse">
<stop stop-color="#0A4432"/>
<stop offset="1" stop-color="#5EDCA8"/>
</linearGradient>
<linearGradient id="paint35_linear_1513_5220" x1="1248.06" y1="643.94" x2="3.3691" y2="1235.61" gradientUnits="userSpaceOnUse">
<stop stop-color="#0A4432"/>
<stop offset="1" stop-color="#5EDCA8"/>
</linearGradient>
<linearGradient id="paint36_linear_1513_5220" x1="1247.96" y1="634.775" x2="18.3993" y2="1245.78" gradientUnits="userSpaceOnUse">
<stop stop-color="#0A4432"/>
<stop offset="1" stop-color="#5EDCA8"/>
</linearGradient>
<linearGradient id="paint37_linear_1513_5220" x1="1247.58" y1="625.672" x2="33.4503" y2="1255.67" gradientUnits="userSpaceOnUse">
<stop stop-color="#0A4432"/>
<stop offset="1" stop-color="#5EDCA8"/>
</linearGradient>
<linearGradient id="paint38_linear_1513_5220" x1="1247" y1="616.646" x2="48.5826" y2="1265.28" gradientUnits="userSpaceOnUse">
<stop stop-color="#0A4432"/>
<stop offset="1" stop-color="#5EDCA8"/>
</linearGradient>
<linearGradient id="paint39_linear_1513_5220" x1="1246.17" y1="607.69" x2="63.7476" y2="1274.61" gradientUnits="userSpaceOnUse">
<stop stop-color="#0A4432"/>
<stop offset="1" stop-color="#5EDCA8"/>
</linearGradient>
<linearGradient id="paint40_linear_1513_5220" x1="1245.07" y1="598.833" x2="78.92" y2="1283.68" gradientUnits="userSpaceOnUse">
<stop stop-color="#0A4432"/>
<stop offset="1" stop-color="#5EDCA8"/>
</linearGradient>
<linearGradient id="paint41_linear_1513_5220" x1="1243.74" y1="590.064" x2="94.122" y2="1292.47" gradientUnits="userSpaceOnUse">
<stop stop-color="#0A4432"/>
<stop offset="1" stop-color="#5EDCA8"/>
</linearGradient>
<linearGradient id="paint42_linear_1513_5220" x1="1242.19" y1="581.367" x2="109.358" y2="1300.96" gradientUnits="userSpaceOnUse">
<stop stop-color="#0A4432"/>
<stop offset="1" stop-color="#5EDCA8"/>
</linearGradient>
<linearGradient id="paint43_linear_1513_5220" x1="1240.37" y1="572.78" x2="124.574" y2="1309.19" gradientUnits="userSpaceOnUse">
<stop stop-color="#0A4432"/>
<stop offset="1" stop-color="#5EDCA8"/>
</linearGradient>
<linearGradient id="paint44_linear_1513_5220" x1="1238.37" y1="564.29" x2="139.845" y2="1317.15" gradientUnits="userSpaceOnUse">
<stop stop-color="#0A4432"/>
<stop offset="1" stop-color="#5EDCA8"/>
</linearGradient>
<linearGradient id="paint45_linear_1513_5220" x1="1236.1" y1="555.906" x2="155.084" y2="1324.83" gradientUnits="userSpaceOnUse">
<stop stop-color="#0A4432"/>
<stop offset="1" stop-color="#5EDCA8"/>
</linearGradient>
<linearGradient id="paint46_linear_1513_5220" x1="1233.61" y1="547.644" x2="170.327" y2="1332.26" gradientUnits="userSpaceOnUse">
<stop stop-color="#0A4432"/>
<stop offset="1" stop-color="#5EDCA8"/>
</linearGradient>
<linearGradient id="paint47_linear_1513_5220" x1="1230.92" y1="539.492" x2="185.591" y2="1339.41" gradientUnits="userSpaceOnUse">
<stop stop-color="#0A4432"/>
<stop offset="1" stop-color="#5EDCA8"/>
</linearGradient>
<linearGradient id="paint48_linear_1513_5220" x1="1227.99" y1="531.461" x2="200.824" y2="1346.3" gradientUnits="userSpaceOnUse">
<stop stop-color="#0A4432"/>
<stop offset="1" stop-color="#5EDCA8"/>
</linearGradient>
<linearGradient id="paint49_linear_1513_5220" x1="1224.81" y1="523.55" x2="216.004" y2="1352.91" gradientUnits="userSpaceOnUse">
<stop stop-color="#0A4432"/>
<stop offset="1" stop-color="#5EDCA8"/>
</linearGradient>
<linearGradient id="paint50_linear_1513_5220" x1="1221.45" y1="515.774" x2="231.191" y2="1359.27" gradientUnits="userSpaceOnUse">
<stop stop-color="#0A4432"/>
<stop offset="1" stop-color="#5EDCA8"/>
</linearGradient>
<linearGradient id="paint51_linear_1513_5220" x1="1217.84" y1="508.139" x2="246.321" y2="1365.38" gradientUnits="userSpaceOnUse">
<stop stop-color="#0A4432"/>
<stop offset="1" stop-color="#5EDCA8"/>
</linearGradient>
<linearGradient id="paint52_linear_1513_5220" x1="1214.04" y1="500.616" x2="261.44" y2="1371.2" gradientUnits="userSpaceOnUse">
<stop stop-color="#0A4432"/>
<stop offset="1" stop-color="#5EDCA8"/>
</linearGradient>
<linearGradient id="paint53_linear_1513_5220" x1="1210.05" y1="493.258" x2="276.531" y2="1376.79" gradientUnits="userSpaceOnUse">
<stop stop-color="#0A4432"/>
<stop offset="1" stop-color="#5EDCA8"/>
</linearGradient>
<linearGradient id="paint54_linear_1513_5220" x1="1205.82" y1="486.033" x2="291.554" y2="1382.11" gradientUnits="userSpaceOnUse">
<stop stop-color="#0A4432"/>
<stop offset="1" stop-color="#5EDCA8"/>
</linearGradient>
<linearGradient id="paint55_linear_1513_5220" x1="1201.42" y1="478.967" x2="306.546" y2="1387.19" gradientUnits="userSpaceOnUse">
<stop stop-color="#0A4432"/>
<stop offset="1" stop-color="#5EDCA8"/>
</linearGradient>
<linearGradient id="paint56_linear_1513_5220" x1="1196.81" y1="472.059" x2="321.476" y2="1392.03" gradientUnits="userSpaceOnUse">
<stop stop-color="#0A4432"/>
<stop offset="1" stop-color="#5EDCA8"/>
</linearGradient>
<linearGradient id="paint57_linear_1513_5220" x1="1191.99" y1="465.312" x2="336.342" y2="1396.62" gradientUnits="userSpaceOnUse">
<stop stop-color="#0A4432"/>
<stop offset="1" stop-color="#5EDCA8"/>
</linearGradient>
<linearGradient id="paint58_linear_1513_5220" x1="1186.97" y1="458.714" x2="351.12" y2="1400.96" gradientUnits="userSpaceOnUse">
<stop stop-color="#0A4432"/>
<stop offset="1" stop-color="#5EDCA8"/>
</linearGradient>
<linearGradient id="paint59_linear_1513_5220" x1="1181.78" y1="452.291" x2="365.856" y2="1405.06" gradientUnits="userSpaceOnUse">
<stop stop-color="#0A4432"/>
<stop offset="1" stop-color="#5EDCA8"/>
</linearGradient>
<linearGradient id="paint60_linear_1513_5220" x1="1176.39" y1="446.021" x2="380.504" y2="1408.91" gradientUnits="userSpaceOnUse">
<stop stop-color="#0A4432"/>
<stop offset="1" stop-color="#5EDCA8"/>
</linearGradient>
<linearGradient id="paint61_linear_1513_5220" x1="1170.83" y1="439.954" x2="395.092" y2="1412.55" gradientUnits="userSpaceOnUse">
<stop stop-color="#0A4432"/>
<stop offset="1" stop-color="#5EDCA8"/>
</linearGradient>
<linearGradient id="paint62_linear_1513_5220" x1="1165.08" y1="434.037" x2="409.575" y2="1415.94" gradientUnits="userSpaceOnUse">
<stop stop-color="#0A4432"/>
<stop offset="1" stop-color="#5EDCA8"/>
</linearGradient>
<linearGradient id="paint63_linear_1513_5220" x1="1159.16" y1="428.331" x2="423.982" y2="1419.13" gradientUnits="userSpaceOnUse">
<stop stop-color="#0A4432"/>
<stop offset="1" stop-color="#5EDCA8"/>
</linearGradient>
<linearGradient id="paint64_linear_1513_5220" x1="1153.05" y1="422.791" x2="438.274" y2="1422.07" gradientUnits="userSpaceOnUse">
<stop stop-color="#0A4432"/>
<stop offset="1" stop-color="#5EDCA8"/>
</linearGradient>
<linearGradient id="paint65_linear_1513_5220" x1="1146.8" y1="417.438" x2="452.506" y2="1424.8" gradientUnits="userSpaceOnUse">
<stop stop-color="#0A4432"/>
<stop offset="1" stop-color="#5EDCA8"/>
</linearGradient>
<linearGradient id="paint66_linear_1513_5220" x1="1140.38" y1="412.281" x2="466.623" y2="1427.31" gradientUnits="userSpaceOnUse">
<stop stop-color="#0A4432"/>
<stop offset="1" stop-color="#5EDCA8"/>
</linearGradient>
<linearGradient id="paint67_linear_1513_5220" x1="1133.81" y1="407.311" x2="480.641" y2="1429.59" gradientUnits="userSpaceOnUse">
<stop stop-color="#0A4432"/>
<stop offset="1" stop-color="#5EDCA8"/>
</linearGradient>
<linearGradient id="paint68_linear_1513_5220" x1="1127.06" y1="402.548" x2="494.536" y2="1431.68" gradientUnits="userSpaceOnUse">
<stop stop-color="#0A4432"/>
<stop offset="1" stop-color="#5EDCA8"/>
</linearGradient>
<linearGradient id="paint69_linear_1513_5220" x1="1120.18" y1="397.988" x2="508.332" y2="1433.56" gradientUnits="userSpaceOnUse">
<stop stop-color="#0A4432"/>
<stop offset="1" stop-color="#5EDCA8"/>
</linearGradient>
<linearGradient id="paint70_linear_1513_5220" x1="1113.14" y1="393.629" x2="522.005" y2="1435.24" gradientUnits="userSpaceOnUse">
<stop stop-color="#0A4432"/>
<stop offset="1" stop-color="#5EDCA8"/>
</linearGradient>
<linearGradient id="paint71_linear_1513_5220" x1="1105.94" y1="389.472" x2="535.548" y2="1436.71" gradientUnits="userSpaceOnUse">
<stop stop-color="#0A4432"/>
<stop offset="1" stop-color="#5EDCA8"/>
</linearGradient>
<linearGradient id="paint72_linear_1513_5220" x1="1098.64" y1="385.532" x2="548.994" y2="1438" gradientUnits="userSpaceOnUse">
<stop stop-color="#0A4432"/>
<stop offset="1" stop-color="#5EDCA8"/>
</linearGradient>
<linearGradient id="paint73_linear_1513_5220" x1="1091.18" y1="381.812" x2="562.295" y2="1439.1" gradientUnits="userSpaceOnUse">
<stop stop-color="#0A4432"/>
<stop offset="1" stop-color="#5EDCA8"/>
</linearGradient>
<linearGradient id="paint74_linear_1513_5220" x1="1083.63" y1="378.289" x2="575.499" y2="1439.99" gradientUnits="userSpaceOnUse">
<stop stop-color="#0A4432"/>
<stop offset="1" stop-color="#5EDCA8"/>
</linearGradient>
<linearGradient id="paint75_linear_1513_5220" x1="1076.15" y1="374.152" x2="588.772" y2="1439.87" gradientUnits="userSpaceOnUse">
<stop stop-color="#0A4432"/>
<stop offset="1" stop-color="#5EDCA8"/>
</linearGradient>
<linearGradient id="paint76_linear_1513_5220" x1="1068.15" y1="370.927" x2="601.512" y2="1440.26" gradientUnits="userSpaceOnUse">
<stop stop-color="#0A4432"/>
<stop offset="1" stop-color="#5EDCA8"/>
</linearGradient>
<linearGradient id="paint77_linear_1513_5220" x1="1060.12" y1="369.054" x2="614.198" y2="1441.61" gradientUnits="userSpaceOnUse">
<stop stop-color="#0A4432"/>
<stop offset="1" stop-color="#5EDCA8"/>
</linearGradient>
<linearGradient id="paint78_linear_1513_5220" x1="1052.08" y1="366.437" x2="626.838" y2="1441.81" gradientUnits="userSpaceOnUse">
<stop stop-color="#0A4432"/>
<stop offset="1" stop-color="#5EDCA8"/>
</linearGradient>
<linearGradient id="paint79_linear_1513_5220" x1="1043.93" y1="364.017" x2="639.333" y2="1441.82" gradientUnits="userSpaceOnUse">
<stop stop-color="#0A4432"/>
<stop offset="1" stop-color="#5EDCA8"/>
</linearGradient>
<linearGradient id="paint80_linear_1513_5220" x1="1035.66" y1="361.858" x2="651.66" y2="1441.7" gradientUnits="userSpaceOnUse">
<stop stop-color="#0A4432"/>
<stop offset="1" stop-color="#5EDCA8"/>
</linearGradient>
<linearGradient id="paint81_linear_1513_5220" x1="1027.3" y1="359.907" x2="663.844" y2="1441.4" gradientUnits="userSpaceOnUse">
<stop stop-color="#0A4432"/>
<stop offset="1" stop-color="#5EDCA8"/>
</linearGradient>
<linearGradient id="paint82_linear_1513_5220" x1="1018.85" y1="358.204" x2="675.888" y2="1440.96" gradientUnits="userSpaceOnUse">
<stop stop-color="#0A4432"/>
<stop offset="1" stop-color="#5EDCA8"/>
</linearGradient>
<linearGradient id="paint83_linear_1513_5220" x1="1010.31" y1="356.726" x2="687.769" y2="1440.36" gradientUnits="userSpaceOnUse">
<stop stop-color="#0A4432"/>
<stop offset="1" stop-color="#5EDCA8"/>
</linearGradient>
<linearGradient id="paint84_linear_1513_5220" x1="1001.67" y1="355.476" x2="699.475" y2="1439.6" gradientUnits="userSpaceOnUse">
<stop stop-color="#0A4432"/>
<stop offset="1" stop-color="#5EDCA8"/>
</linearGradient>
<linearGradient id="paint85_linear_1513_5220" x1="992.978" y1="354.493" x2="711.045" y2="1438.74" gradientUnits="userSpaceOnUse">
<stop stop-color="#0A4432"/>
<stop offset="1" stop-color="#5EDCA8"/>
</linearGradient>
<linearGradient id="paint86_linear_1513_5220" x1="984.194" y1="353.73" x2="722.437" y2="1437.72" gradientUnits="userSpaceOnUse">
<stop stop-color="#0A4432"/>
<stop offset="1" stop-color="#5EDCA8"/>
</linearGradient>
<linearGradient id="paint87_linear_1513_5220" x1="975.367" y1="353.216" x2="733.691" y2="1436.57" gradientUnits="userSpaceOnUse">
<stop stop-color="#0A4432"/>
<stop offset="1" stop-color="#5EDCA8"/>
</linearGradient>
<linearGradient id="paint88_linear_1513_5220" x1="966.468" y1="352.944" x2="744.771" y2="1435.3" gradientUnits="userSpaceOnUse">
<stop stop-color="#0A4432"/>
<stop offset="1" stop-color="#5EDCA8"/>
</linearGradient>
<linearGradient id="paint89_linear_1513_5220" x1="957.499" y1="352.915" x2="755.672" y2="1433.91" gradientUnits="userSpaceOnUse">
<stop stop-color="#0A4432"/>
<stop offset="1" stop-color="#5EDCA8"/>
</linearGradient>
<linearGradient id="paint90_linear_1513_5220" x1="948.484" y1="353.119" x2="766.412" y2="1432.38" gradientUnits="userSpaceOnUse">
<stop stop-color="#0A4432"/>
<stop offset="1" stop-color="#5EDCA8"/>
</linearGradient>
<linearGradient id="paint91_linear_1513_5220" x1="939.427" y1="353.579" x2="776.987" y2="1430.76" gradientUnits="userSpaceOnUse">
<stop stop-color="#0A4432"/>
<stop offset="1" stop-color="#5EDCA8"/>
</linearGradient>
<linearGradient id="paint92_linear_1513_5220" x1="930.32" y1="354.279" x2="787.384" y2="1429.02" gradientUnits="userSpaceOnUse">
<stop stop-color="#0A4432"/>
<stop offset="1" stop-color="#5EDCA8"/>
</linearGradient>
<linearGradient id="paint93_linear_1513_5220" x1="921.182" y1="355.232" x2="797.615" y2="1427.18" gradientUnits="userSpaceOnUse">
<stop stop-color="#0A4432"/>
<stop offset="1" stop-color="#5EDCA8"/>
</linearGradient>
<linearGradient id="paint94_linear_1513_5220" x1="912.006" y1="356.442" x2="807.667" y2="1425.25" gradientUnits="userSpaceOnUse">
<stop stop-color="#0A4432"/>
<stop offset="1" stop-color="#5EDCA8"/>
</linearGradient>
<linearGradient id="paint95_linear_1513_5220" x1="902.802" y1="357.89" x2="817.544" y2="1423.21" gradientUnits="userSpaceOnUse">
<stop stop-color="#0A4432"/>
<stop offset="1" stop-color="#5EDCA8"/>
</linearGradient>
<linearGradient id="paint96_linear_1513_5220" x1="893.573" y1="359.591" x2="827.242" y2="1421.09" gradientUnits="userSpaceOnUse">
<stop stop-color="#0A4432"/>
<stop offset="1" stop-color="#5EDCA8"/>
</linearGradient>
<linearGradient id="paint97_linear_1513_5220" x1="884.329" y1="361.54" x2="836.765" y2="1418.88" gradientUnits="userSpaceOnUse">
<stop stop-color="#0A4432"/>
<stop offset="1" stop-color="#5EDCA8"/>
</linearGradient>
<linearGradient id="paint98_linear_1513_5220" x1="875.071" y1="363.732" x2="846.109" y2="1416.59" gradientUnits="userSpaceOnUse">
<stop stop-color="#0A4432"/>
<stop offset="1" stop-color="#5EDCA8"/>
</linearGradient>
</defs>
</svg>
