<svg width="1440" height="1070" viewBox="0 0 1440 1070" fill="none" xmlns="http://www.w3.org/2000/svg">
<g clip-path="url(#clip0_6_50)">
<rect width="1440" height="1070" fill="black"/>
<path opacity="0.01" fill-rule="evenodd" clip-rule="evenodd" d="M1034.67 610.253C1073.17 797.49 1238.25 1010.88 1122.61 1162.82C1010.44 1310.2 766.784 1173.32 584.61 1201.58C415.335 1227.85 263.788 1363.68 97.7405 1321.85C-79.5465 1277.18 -228.552 1139.54 -311.706 975.761C-393.235 815.182 -396.627 621.844 -345.522 448.797C-299.336 292.408 -160.022 194.476 -46.545 77.9074C62.6831 -34.2956 147.637 -207.759 303.272 -217.667C459.192 -227.594 563.149 -63.8473 687.475 31.1749C781.112 102.741 877.855 166.588 938.611 267.921C1000.99 371.955 1010.2 491.213 1034.67 610.253Z" stroke="url(#paint0_linear_6_50)" stroke-width="6.25195"/>
<path opacity="0.02" fill-rule="evenodd" clip-rule="evenodd" d="M1042.69 604.625C1084.31 790.538 1252.53 1000.32 1139.94 1153.73C1030.72 1302.54 785.519 1170.38 604.465 1201.71C436.231 1230.83 287.571 1368.82 121.368 1330.02C-56.0843 1288.6 -206.971 1154.03 -292.687 992.268C-376.728 833.669 -383.473 641.065 -335.555 467.735C-292.249 311.089 -155.121 211.076 -44.0632 92.9422C62.8358 -20.7681 144.479 -195.102 299.404 -207.683C454.614 -220.286 561.061 -58.9193 686.611 33.6088C781.17 103.297 878.691 165.238 941 265.161C1004.97 367.746 1016.22 486.427 1042.69 604.625Z" stroke="url(#paint1_linear_6_50)" stroke-width="6.25195"/>
<path opacity="0.03" fill-rule="evenodd" clip-rule="evenodd" d="M1050.53 598.89C1095.24 783.427 1266.53 989.543 1156.99 1144.38C1050.75 1294.57 804.095 1167.13 624.212 1201.51C457.067 1233.45 311.322 1373.54 145.02 1337.77C-32.5394 1299.57 -185.245 1168.1 -273.479 1008.4C-359.989 851.814 -370.062 660.003 -325.325 486.447C-284.894 329.598 -149.981 227.551 -41.3625 107.9C63.1881 -7.27008 141.515 -182.412 295.686 -197.643C450.139 -212.901 559.025 -53.9517 685.751 36.0686C781.195 103.868 879.456 163.896 943.288 262.384C1008.82 363.497 1022.1 481.567 1050.53 598.89Z" stroke="url(#paint2_linear_6_50)" stroke-width="6.25195"/>
<path opacity="0.04" fill-rule="evenodd" clip-rule="evenodd" d="M1058.15 593.049C1105.92 776.159 1280.21 978.571 1173.74 1134.77C1070.47 1286.28 822.463 1163.58 643.803 1200.96C477.794 1235.69 334.992 1377.83 168.644 1345.07C-8.96273 1310.1 -163.426 1181.75 -254.131 1024.14C-343.065 869.613 -356.44 678.653 -314.878 504.929C-277.317 347.928 -144.647 243.895 -38.4872 122.776C63.6967 6.1924 138.705 -169.696 292.075 -187.554C445.727 -205.445 557 -48.9479 684.852 38.5518C781.144 104.453 880.108 162.561 945.433 259.593C1012.5 359.21 1027.78 476.633 1058.15 593.049Z" stroke="url(#paint3_linear_6_50)" stroke-width="6.25195"/>
<path opacity="0.05" fill-rule="evenodd" clip-rule="evenodd" d="M1065.62 587.123C1116.4 768.756 1293.6 967.423 1190.22 1124.92C1089.95 1277.69 840.67 1159.74 663.282 1200.09C498.456 1237.59 358.624 1381.71 192.286 1351.96C14.6888 1320.2 -141.469 1194.99 -234.601 1039.51C-325.913 887.079 -342.563 697.026 -304.168 523.193C-269.469 366.093 -139.071 260.119 -35.3881 137.582C64.4118 19.6327 136.099 -156.939 288.625 -177.402C441.429 -197.901 555.038 -43.8921 683.967 41.0752C781.07 105.069 880.7 161.251 947.485 256.804C1016.05 354.904 1033.33 471.646 1065.62 587.123Z" stroke="url(#paint4_linear_6_50)" stroke-width="6.25195"/>
<path opacity="0.06" fill-rule="evenodd" clip-rule="evenodd" d="M1072.87 581.089C1126.64 761.196 1306.67 956.077 1206.4 1114.82C1109.13 1268.79 858.669 1155.59 682.603 1198.88C519.005 1239.12 382.169 1385.16 215.894 1358.41C38.3652 1329.85 -119.425 1207.79 -214.936 1054.49C-308.581 904.184 -328.479 715.093 -293.242 541.208C-261.397 384.061 -133.298 276.195 -32.1089 152.288C65.2905 33.0213 133.656 -144.172 285.292 -167.215C437.207 -190.299 553.098 -38.8114 683.054 43.6127C780.931 105.691 881.191 159.941 949.404 253.994C1019.44 350.554 1038.68 466.583 1072.87 581.089Z" stroke="url(#paint5_linear_6_50)" stroke-width="6.25195"/>
<path opacity="0.07" fill-rule="evenodd" clip-rule="evenodd" d="M1079.94 574.98C1136.65 753.511 1319.45 944.568 1222.28 1104.49C1128.04 1259.6 876.483 1151.16 701.788 1197.37C539.463 1240.3 405.646 1388.2 239.489 1364.44C62.0857 1339.07 -97.2747 1220.19 -195.117 1069.1C-291.049 920.954 -314.166 732.881 -282.077 559.001C-253.077 401.858 -127.303 292.147 -28.6244 166.921C66.3591 46.3835 131.403 -131.369 282.107 -156.967C433.087 -182.612 551.207 -33.6781 682.142 46.1929C780.756 106.348 881.607 158.662 951.218 251.194C1022.68 346.193 1043.88 461.475 1079.94 574.98Z" stroke="url(#paint6_linear_6_50)" stroke-width="6.25195"/>
<path opacity="0.08" fill-rule="evenodd" clip-rule="evenodd" d="M1086.81 568.769C1146.43 745.677 1331.9 932.874 1237.86 1093.91C1146.65 1250.12 894.088 1146.43 720.811 1195.52C559.804 1241.12 429.03 1390.82 263.044 1370.03C85.8231 1347.84 -75.0447 1232.16 -175.171 1083.3C-273.342 937.356 -299.649 750.355 -270.698 576.537C-244.533 419.45 -121.109 307.942 -24.9558 181.446C67.5972 59.6864 129.32 -118.564 279.049 -146.692C429.053 -174.872 549.348 -28.5228 681.211 48.786C780.525 107.012 881.932 157.385 952.907 248.377C1025.77 341.794 1048.9 456.296 1086.81 568.769Z" stroke="url(#paint7_linear_6_50)" stroke-width="6.25195"/>
<path opacity="0.09" fill-rule="evenodd" clip-rule="evenodd" d="M1093.5 562.493C1155.99 737.732 1344.06 921.033 1253.15 1083.13C1164.98 1240.36 911.508 1141.44 739.696 1193.36C580.049 1241.61 452.341 1393.05 286.579 1375.22C109.597 1356.19 -52.7154 1243.72 -155.078 1097.14C-255.441 953.42 -284.907 767.545 -259.081 593.845C-235.741 436.865 -114.692 323.61 -21.0775 195.893C69.0312 72.9593 127.436 -105.727 276.148 -136.359C425.132 -167.047 547.548 -23.314 680.291 51.4248C780.267 107.715 882.192 156.144 954.5 245.576C1028.73 337.391 1053.77 451.082 1093.5 562.493Z" stroke="url(#paint8_linear_6_50)" stroke-width="6.25195"/>
<path opacity="0.1" fill-rule="evenodd" clip-rule="evenodd" d="M1099.98 556.13C1165.29 729.654 1355.89 909.026 1268.13 1072.13C1183 1230.32 928.703 1136.17 758.402 1190.89C600.159 1241.74 475.537 1394.86 310.051 1379.98C133.365 1364.09 -30.3292 1254.85 -134.879 1110.57C-237.386 969.118 -269.981 784.424 -247.267 610.897C-226.739 454.075 -108.088 339.12 -17.0264 210.233C70.6255 86.1731 125.716 -92.8882 273.369 -125.997C421.292 -159.166 545.775 -18.0782 679.347 54.0834C779.948 108.432 882.355 154.915 955.962 242.768C1031.53 332.963 1058.46 445.81 1099.98 556.13Z" stroke="url(#paint9_linear_6_50)" stroke-width="6.25195"/>
<path opacity="0.11" fill-rule="evenodd" clip-rule="evenodd" d="M1106.26 549.698C1174.36 721.46 1367.4 896.871 1282.78 1060.91C1200.71 1220.02 945.681 1130.63 776.936 1188.12C620.14 1241.53 498.622 1396.27 333.465 1384.32C157.13 1371.56 -7.88235 1265.56 -114.57 1123.63C-219.172 984.463 -254.864 801 -235.248 627.703C-217.52 471.088 -101.29 354.483 -12.7929 224.476C72.3904 99.3381 124.172 -80.037 270.724 -115.595C417.546 -151.218 544.039 -12.8032 678.393 56.7751C779.582 109.178 882.433 153.712 957.307 239.969C1034.18 328.524 1062.97 440.497 1106.26 549.698Z" stroke="url(#paint10_linear_6_50)" stroke-width="6.25195"/>
<path opacity="0.12" fill-rule="evenodd" clip-rule="evenodd" d="M1112.34 543.197C1183.19 713.154 1378.59 884.573 1297.12 1049.49C1218.11 1209.46 962.433 1124.82 795.289 1185.04C639.98 1240.99 521.586 1397.28 356.811 1388.25C180.881 1378.61 14.6136 1275.86 -94.1617 1136.29C-200.812 999.448 -239.566 817.269 -223.034 644.257C-208.093 487.899 -94.3043 369.693 -8.38305 238.617C74.3207 112.449 122.798 -67.1793 268.211 -105.158C413.889 -143.206 542.34 -7.49228 677.424 59.4975C779.164 109.951 882.424 152.535 958.53 237.178C1036.66 324.076 1067.3 435.143 1112.34 543.197Z" stroke="url(#paint11_linear_6_50)" stroke-width="6.25195"/>
<path opacity="0.13" fill-rule="evenodd" clip-rule="evenodd" d="M1118.23 536.637C1191.77 704.746 1389.46 872.145 1311.15 1037.88C1235.2 1198.64 978.969 1118.76 813.469 1181.67C659.688 1240.12 544.435 1397.9 380.091 1391.77C204.623 1385.22 37.1629 1285.74 -73.6504 1148.57C-182.299 1014.08 -224.083 833.234 -210.618 660.562C-198.449 504.51 -87.1221 384.754 -3.78708 252.657C76.4273 125.508 121.608 -54.3129 265.841 -94.6837C410.337 -135.129 540.688 -2.14064 676.455 62.2564C778.708 110.757 882.339 151.39 959.645 234.403C1039.01 319.627 1071.47 429.758 1118.23 536.637Z" stroke="url(#paint12_linear_6_50)" stroke-width="6.25195"/>
<path opacity="0.14" fill-rule="evenodd" clip-rule="evenodd" d="M1123.9 530.008C1200.11 696.227 1399.99 859.578 1324.85 1026.08C1251.96 1187.57 995.264 1112.44 831.451 1178C679.238 1238.91 567.142 1398.12 403.28 1394.87C228.328 1391.4 59.7385 1295.2 -53.0625 1160.45C-163.66 1028.34 -208.438 848.88 -198.023 676.6C-188.611 520.905 -79.7663 399.647 0.973088 266.581C78.689 138.498 120.581 -41.4548 263.595 -84.1882C406.87 -127 539.065 3.2369 675.465 65.0379C778.195 111.584 882.161 150.266 960.633 231.631C1041.2 315.165 1075.45 424.331 1123.9 530.008Z" stroke="url(#paint13_linear_6_50)" stroke-width="6.25195"/>
<path opacity="0.15" fill-rule="evenodd" clip-rule="evenodd" d="M1129.39 523.324C1208.21 687.61 1410.22 846.888 1338.24 1014.09C1268.42 1176.26 1011.34 1105.87 849.258 1174.04C698.652 1237.38 589.726 1397.96 426.398 1397.57C252.015 1397.16 82.3592 1304.23 -32.3785 1171.94C-144.875 1042.24 -192.612 864.212 -185.23 692.38C-178.559 537.089 -72.2134 414.379 5.92207 280.394C81.1316 151.426 119.745 -28.599 261.5 -73.6646C403.516 -118.813 537.5 8.64898 674.483 67.8515C777.653 112.44 881.917 149.173 961.522 228.876C1043.25 310.703 1079.28 418.876 1129.39 523.324Z" stroke="url(#paint14_linear_6_50)" stroke-width="6.25195"/>
<path opacity="0.16" fill-rule="evenodd" clip-rule="evenodd" d="M1134.65 516.602C1216.04 678.915 1420.09 834.095 1351.28 1001.93C1284.53 1164.73 1027.16 1099.07 866.842 1169.81C717.881 1235.53 612.14 1397.43 449.395 1399.88C275.634 1402.5 104.976 1312.87 -11.6476 1183.06C-125.993 1055.79 -176.652 879.243 -172.284 707.912C-168.337 553.072 -64.5088 428.962 11.0153 294.108C83.7112 164.303 119.055 -15.735 259.516 -63.102C400.233 -110.556 535.95 14.1084 673.468 70.7109C777.04 113.341 881.566 148.125 962.269 226.152C1045.12 306.258 1082.91 413.407 1134.65 516.602Z" stroke="url(#paint15_linear_6_50)" stroke-width="6.25195"/>
<path opacity="0.17" fill-rule="evenodd" clip-rule="evenodd" d="M1139.71 509.82C1223.63 670.122 1429.64 821.182 1363.99 989.601C1300.32 1152.96 1042.73 1092.02 884.227 1165.29C736.948 1233.37 634.404 1396.5 472.291 1401.78C299.205 1407.42 127.607 1321.08 9.14972 1193.78C-106.993 1068.96 -160.539 893.946 -159.165 723.168C-157.923 568.828 -56.6289 443.367 16.2773 307.693C86.4534 177.101 118.54 -2.89143 257.668 -52.5284C397.051 -102.256 534.443 19.5887 672.447 73.5908C776.385 114.263 881.137 147.1 962.904 223.436C1046.85 301.807 1086.36 407.905 1139.71 509.82Z" stroke="url(#paint16_linear_6_50)" stroke-width="6.25195"/>
<path opacity="0.18" fill-rule="evenodd" clip-rule="evenodd" d="M1144.57 502.993C1230.97 661.244 1438.86 808.163 1376.38 977.104C1315.77 1140.97 1058.06 1084.74 901.411 1160.49C755.851 1230.88 656.516 1395.2 495.084 1403.28C322.725 1411.91 150.25 1328.88 30.0099 1204.1C-87.8807 1081.77 -144.273 908.328 -145.873 738.155C-147.319 584.362 -48.5736 457.6 21.7093 321.158C89.3603 189.826 118.201 9.93835 255.961 -41.9366C393.973 -93.9065 532.983 25.099 671.424 76.5008C775.692 115.214 880.634 146.108 963.431 220.74C1048.43 297.362 1089.64 402.382 1144.57 502.993Z" stroke="url(#paint17_linear_6_50)" stroke-width="6.25195"/>
<path opacity="0.19" fill-rule="evenodd" clip-rule="evenodd" d="M1149.23 496.145C1238.07 652.308 1447.75 795.067 1388.43 964.471C1330.9 1128.78 1073.15 1077.24 918.387 1155.44C774.581 1228.11 678.464 1393.55 517.761 1404.41C346.181 1416 172.892 1336.28 50.9219 1214.06C-68.665 1094.23 -127.867 922.409 -132.419 752.893C-136.532 599.694 -40.3501 471.682 27.3049 334.521C92.4264 202.497 118.036 22.7727 254.391 -31.3077C390.996 -85.487 531.568 30.6598 670.398 79.4627C774.958 116.219 880.054 145.173 963.846 218.088C1049.87 292.947 1092.76 396.862 1149.23 496.145Z" stroke="url(#paint18_linear_6_50)" stroke-width="6.25195"/>
<path opacity="0.2" fill-rule="evenodd" clip-rule="evenodd" d="M1153.67 489.248C1244.89 643.286 1456.28 781.867 1400.13 951.675C1345.66 1116.38 1087.96 1069.52 935.122 1150.12C793.106 1225.02 700.216 1391.51 540.291 1405.13C369.54 1419.67 195.499 1343.26 71.8513 1223.61C-49.3807 1106.3 -111.352 936.155 -118.833 767.346C-125.594 614.787 -31.9893 485.576 33.0342 347.747C95.6228 215.079 118.015 35.5754 252.931 -20.6771C388.095 -77.0327 530.171 36.2373 669.34 82.4434C774.156 117.244 879.371 144.261 964.124 215.448C1051.14 288.533 1095.67 391.316 1153.67 489.248Z" stroke="url(#paint19_linear_6_50)" stroke-width="6.25195"/>
<path opacity="0.21" fill-rule="evenodd" clip-rule="evenodd" d="M1157.9 482.332C1251.47 634.209 1464.5 768.595 1411.5 938.749C1360.09 1103.79 1102.53 1061.58 951.649 1144.55C811.455 1221.64 721.801 1389.13 562.699 1405.48C392.828 1422.93 218.098 1349.84 92.8256 1232.79C-29.9998 1118.03 -94.7004 949.589 -105.088 781.539C-114.476 629.665 -23.46 499.306 38.9294 360.858C98.9824 227.594 118.172 48.3692 251.616 -10.0219C385.304 -68.5199 528.826 41.8562 668.288 85.4686C773.324 118.315 878.622 143.401 964.3 212.849C1052.26 284.147 1098.42 385.773 1157.9 482.332Z" stroke="url(#paint20_linear_6_50)" stroke-width="6.25195"/>
<path opacity="0.22" fill-rule="evenodd" clip-rule="evenodd" d="M1161.93 475.374C1257.79 625.056 1472.37 755.234 1422.52 925.674C1374.17 1090.99 1116.82 1053.43 967.943 1138.71C829.605 1217.95 743.192 1386.38 584.96 1405.43C416.019 1425.78 240.663 1355.99 113.818 1241.56C-10.5492 1129.37 -77.9385 962.686 -91.2082 795.444C-103.201 644.3 -14.7856 512.844 44.9679 373.827C102.484 240.016 118.488 61.1258 250.425 0.630361C382.604 -59.9758 527.516 47.4906 667.221 88.5132C772.441 119.409 877.787 142.569 964.356 210.266C1053.23 279.768 1100.99 380.211 1161.93 475.374Z" stroke="url(#paint21_linear_6_50)" stroke-width="6.25195"/>
<path opacity="0.23" fill-rule="evenodd" clip-rule="evenodd" d="M1165.74 468.417C1263.85 615.87 1479.89 741.826 1433.19 912.495C1387.9 1078.04 1130.84 1045.09 983.996 1132.64C847.547 1213.99 764.38 1383.3 607.065 1405.03C439.101 1428.24 263.182 1361.77 134.817 1249.98C8.96049 1140.37 -61.076 975.482 -77.2027 809.097C-91.7771 658.728 -5.97338 526.226 51.1435 386.689C106.121 252.378 118.958 73.8797 249.356 11.3147C379.993 -51.3649 526.236 53.1771 666.137 91.6147C771.505 120.564 876.864 141.804 964.289 207.741C1054.04 275.435 1103.37 374.671 1165.74 468.417Z" stroke="url(#paint22_linear_6_50)" stroke-width="6.25195"/>
<path opacity="0.24" fill-rule="evenodd" clip-rule="evenodd" d="M1169.34 461.428C1269.64 606.619 1487.07 728.341 1443.51 899.182C1401.26 1064.89 1144.59 1036.54 999.808 1126.32C865.279 1209.74 785.363 1379.86 629.009 1404.25C462.072 1430.29 285.651 1367.13 155.82 1257.99C28.526 1150.99 -44.1155 987.939 -63.0734 822.46C-80.2065 672.909 2.97649 539.412 57.4568 399.406C109.897 264.643 119.585 86.5912 248.411 21.9919C377.474 -42.7257 524.991 58.8781 665.041 94.7364C770.52 121.743 875.857 141.07 964.104 205.237C1054.7 271.115 1105.57 369.119 1169.34 461.428Z" stroke="url(#paint23_linear_6_50)" stroke-width="6.25195"/>
<path opacity="0.25" fill-rule="evenodd" clip-rule="evenodd" d="M1172.75 454.44C1275.21 597.338 1493.94 714.817 1453.52 885.772C1414.3 1051.59 1158.09 1027.82 1015.41 1119.77C882.832 1205.22 806.169 1376.09 650.822 1403.11C484.96 1431.96 308.098 1372.11 176.854 1265.64C48.1753 1161.25 -27.0284 1000.09 -48.7909 835.56C-68.4585 686.872 12.0951 552.43 63.94 412.004C113.843 276.836 120.401 99.2873 247.626 32.6894C375.083 -34.0306 523.816 64.6227 663.968 97.9082C769.523 122.977 874.804 140.397 963.837 202.787C1055.24 266.839 1107.62 363.589 1172.75 454.44Z" stroke="url(#paint24_linear_6_50)" stroke-width="6.25195"/>
<path opacity="0.26" fill-rule="evenodd" clip-rule="evenodd" d="M1175.94 447.44C1280.49 588.015 1500.45 701.242 1463.14 872.254C1426.96 1038.13 1171.29 1018.9 1030.74 1113C900.144 1200.43 826.736 1371.98 672.439 1401.61C507.698 1433.24 330.457 1376.69 197.855 1272.91C67.8433 1171.15 -9.87942 1011.9 -34.4189 848.381C-56.5963 700.597 21.3206 565.262 70.5319 424.464C117.9 288.939 121.349 111.948 246.941 43.3876C372.763 -25.2983 522.654 70.3929 662.859 101.113C768.456 124.25 873.645 139.772 963.43 200.376C1055.61 262.595 1109.47 358.067 1175.94 447.44Z" stroke="url(#paint25_linear_6_50)" stroke-width="6.25195"/>
<path opacity="0.27" fill-rule="evenodd" clip-rule="evenodd" d="M1178.9 440.428C1285.5 578.649 1506.6 687.618 1472.41 858.63C1439.24 1024.5 1184.2 1009.8 1045.81 1105.99C917.22 1195.36 847.068 1367.54 693.864 1399.74C530.291 1434.11 352.733 1380.87 218.825 1279.79C87.5333 1180.68 7.33566 1023.39 -19.9525 860.914C-44.614 714.077 30.6595 577.899 77.2402 436.78C122.077 300.945 122.438 124.565 246.367 54.0789C370.524 -16.5364 521.515 76.1827 661.728 104.346C767.33 125.557 872.395 139.189 962.895 198C1055.81 258.379 1111.12 352.551 1178.9 440.428Z" stroke="url(#paint26_linear_6_50)" stroke-width="6.25195"/>
<path opacity="0.28" fill-rule="evenodd" clip-rule="evenodd" d="M1181.66 433.424C1290.27 569.263 1512.43 673.969 1481.33 844.925C1451.17 1010.74 1196.83 1000.54 1060.64 1098.76C934.084 1190.04 867.187 1362.78 715.12 1397.52C552.759 1434.62 374.945 1384.66 239.786 1286.3C107.267 1189.86 24.6388 1034.56 -5.369 873.177C-32.4883 727.329 40.1361 590.36 84.0901 448.967C126.398 312.868 123.694 137.154 245.933 64.7794C368.395 -7.72817 520.428 82.0095 660.602 107.625C766.176 126.917 871.081 138.668 962.262 195.68C1055.87 254.211 1112.62 347.062 1181.66 433.424Z" stroke="url(#paint27_linear_6_50)" stroke-width="6.25195"/>
<path opacity="0.29" fill-rule="evenodd" clip-rule="evenodd" d="M1184.22 426.433C1294.77 559.863 1517.91 660.3 1489.9 831.145C1462.74 996.856 1209.19 991.116 1075.21 1091.34C950.721 1184.46 887.077 1357.71 736.188 1394.97C575.085 1434.75 397.075 1388.08 260.718 1292.45C127.025 1198.68 42.0113 1045.41 9.31359 885.169C-20.2366 740.351 49.7342 602.64 91.066 461.022C130.85 324.707 125.104 149.712 245.624 75.4854C366.364 1.12318 519.381 87.8715 659.471 110.949C764.98 128.329 869.693 138.21 961.52 193.416C1055.79 250.094 1113.94 341.603 1184.22 426.433Z" stroke="url(#paint28_linear_6_50)" stroke-width="6.25195"/>
<path opacity="0.3" fill-rule="evenodd" clip-rule="evenodd" d="M1186.56 419.445C1299.01 550.438 1523.05 646.606 1498.11 817.284C1473.93 982.832 1221.24 981.528 1089.51 1083.7C967.113 1178.63 906.72 1352.33 757.05 1392.07C597.249 1434.5 419.104 1391.11 281.603 1298.21C146.788 1207.13 59.4352 1055.93 24.0783 896.875C-7.87517 753.126 59.4383 614.725 98.1536 472.931C135.419 336.446 126.656 162.222 245.429 86.1818C364.419 10.0028 518.363 93.7547 658.322 114.305C763.733 129.782 868.221 137.802 960.658 191.198C1055.56 246.018 1115.07 336.163 1186.56 419.445Z" stroke="url(#paint29_linear_6_50)" stroke-width="6.25195"/>
<path opacity="0.31" fill-rule="evenodd" clip-rule="evenodd" d="M1188.71 412.478C1303 541.01 1527.86 632.908 1505.98 803.363C1484.76 968.695 1233.01 971.795 1103.56 1075.86C983.276 1172.57 926.13 1346.64 777.72 1388.84C619.264 1433.88 441.044 1393.76 302.453 1303.62C166.569 1215.24 76.9229 1066.14 38.9381 908.309C4.60964 765.669 69.2632 626.629 105.368 484.706C140.122 348.098 128.366 174.696 245.366 96.8809C362.58 18.9235 517.392 99.6733 657.176 117.708C762.454 131.291 866.684 137.46 959.696 189.042C1055.19 241.999 1116.04 330.761 1188.71 412.478Z" stroke="url(#paint30_linear_6_50)" stroke-width="6.25195"/>
<path opacity="0.32" fill-rule="evenodd" clip-rule="evenodd" d="M1190.62 405.535C1306.71 531.581 1532.3 619.21 1513.47 789.388C1495.2 954.452 1244.47 961.922 1117.32 1067.84C999.172 1166.27 945.267 1340.67 798.157 1385.28C641.089 1432.91 462.853 1396.05 323.226 1308.67C186.326 1222.99 94.4334 1076.03 53.8527 919.469C17.1783 777.977 79.1701 638.348 112.673 496.345C144.921 359.659 130.198 187.131 245.4 107.579C360.812 27.8822 516.435 105.625 655.998 121.157C761.11 132.854 865.048 137.185 958.601 186.949C1054.65 238.039 1116.81 325.399 1190.62 405.535Z" stroke="url(#paint31_linear_6_50)" stroke-width="6.25195"/>
<path opacity="0.33" fill-rule="evenodd" clip-rule="evenodd" d="M1192.35 398.601C1310.19 522.137 1536.44 605.499 1520.63 775.346C1505.3 940.088 1255.66 951.895 1130.84 1059.62C1014.85 1159.72 964.185 1334.38 818.414 1381.38C662.775 1431.57 484.582 1397.95 343.973 1313.34C206.112 1230.37 112.019 1085.58 68.875 930.335C29.8841 790.03 89.2134 649.862 120.122 507.825C149.872 371.107 132.21 199.504 245.588 118.255C359.174 36.8568 515.55 111.589 654.847 124.631C759.759 134.453 863.374 136.958 957.433 184.9C1054 234.12 1117.44 320.06 1192.35 398.601Z" stroke="url(#paint32_linear_6_50)" stroke-width="6.25195"/>
<path opacity="0.34" fill-rule="evenodd" clip-rule="evenodd" d="M1193.86 391.712C1313.39 512.717 1540.21 591.816 1527.42 761.277C1515.01 925.647 1266.53 941.754 1144.06 1051.23C1030.26 1152.96 982.819 1327.83 838.426 1377.19C684.258 1429.88 506.167 1399.5 364.63 1317.66C225.859 1237.42 129.614 1094.83 83.9403 940.94C42.6632 801.859 99.3301 661.203 127.653 519.18C154.915 382.475 134.341 211.846 245.872 128.939C357.607 45.8796 514.679 117.599 653.666 128.165C758.345 136.122 861.604 136.813 956.133 182.932C1053.18 230.279 1117.87 314.78 1193.86 391.712Z" stroke="url(#paint33_linear_6_50)" stroke-width="6.25195"/>
<path opacity="0.35" fill-rule="evenodd" clip-rule="evenodd" d="M1195.17 384.837C1316.34 503.289 1543.66 578.13 1533.86 747.153C1524.35 911.098 1277.11 931.469 1157.02 1042.65C1045.42 1145.97 1001.2 1320.98 858.223 1372.66C705.566 1427.83 527.636 1400.67 385.225 1321.61C245.596 1244.11 147.248 1103.75 99.0782 951.248C55.5456 813.428 109.551 672.334 135.298 530.371C160.081 393.725 136.624 224.119 246.285 139.594C356.146 54.9129 513.856 123.618 652.49 131.722C756.902 137.826 859.774 136.717 954.739 181.01C1052.23 226.483 1118.14 309.528 1195.17 384.837Z" stroke="url(#paint34_linear_6_50)" stroke-width="6.25195"/>
<path opacity="0.36" fill-rule="evenodd" clip-rule="evenodd" d="M1196.28 378.013C1319.03 493.892 1546.77 564.483 1539.94 733.016C1533.31 896.485 1287.39 921.08 1169.69 1033.92C1060.33 1138.77 1019.31 1313.87 877.787 1367.83C726.681 1425.45 548.969 1401.49 405.738 1325.23C265.305 1250.45 164.901 1112.36 114.271 961.293C68.5143 824.77 119.861 683.288 143.043 541.433C165.358 404.889 139.046 236.356 246.814 150.251C354.779 63.9893 513.07 129.68 651.307 135.339C755.42 139.601 857.874 136.704 953.239 179.17C1051.15 222.768 1118.24 304.341 1196.28 378.013Z" stroke="url(#paint35_linear_6_50)" stroke-width="6.25195"/>
<path opacity="0.37" fill-rule="evenodd" clip-rule="evenodd" d="M1197.17 371.23C1321.46 484.516 1549.54 550.864 1545.66 718.855C1541.89 881.797 1297.36 910.578 1182.07 1025.03C1074.95 1131.37 1037.14 1306.49 897.103 1362.71C747.585 1422.74 570.15 1401.96 426.152 1328.49C284.968 1256.46 182.557 1120.65 129.501 971.06C81.5525 835.87 130.243 694.049 150.872 552.346C170.729 415.951 141.594 248.537 247.447 160.894C353.494 73.0906 512.309 135.767 650.106 138.997C753.888 141.429 855.893 136.76 951.624 177.399C1049.91 219.121 1118.15 299.206 1197.17 371.23Z" stroke="url(#paint36_linear_6_50)" stroke-width="6.25195"/>
<path opacity="0.38" fill-rule="evenodd" clip-rule="evenodd" d="M1197.86 364.485C1323.63 475.161 1551.97 537.276 1551.02 704.672C1550.11 867.039 1307.02 899.964 1194.18 1015.97C1089.32 1123.76 1054.7 1298.85 916.184 1357.29C768.292 1419.68 591.189 1402.08 446.479 1331.4C304.596 1262.11 200.228 1128.62 144.783 980.543C94.6745 846.72 140.712 704.61 158.801 563.107C176.212 426.903 144.285 260.656 248.203 171.515C352.311 82.2108 511.594 141.875 648.908 142.692C752.326 143.308 853.851 136.882 949.914 175.693C1048.54 215.539 1117.91 294.12 1197.86 364.485Z" stroke="url(#paint37_linear_6_50)" stroke-width="6.25195"/>
<path opacity="0.39" fill-rule="evenodd" clip-rule="evenodd" d="M1198.33 357.79C1325.53 465.839 1554.05 523.732 1556.01 690.483C1557.91 852.224 1316.36 889.252 1205.97 1006.76C1103.4 1115.95 1071.95 1290.95 934.989 1351.57C788.761 1416.29 612.048 1401.84 466.679 1333.97C324.149 1267.42 217.874 1136.28 160.075 989.75C107.84 857.329 151.23 714.979 166.792 573.72C181.77 437.751 147.082 272.717 249.045 182.119C351.194 91.355 510.888 148.01 647.677 146.433C750.7 145.246 851.716 137.077 948.075 174.062C1047 212.033 1117.46 289.096 1198.33 357.79Z" stroke="url(#paint38_linear_6_50)" stroke-width="6.25195"/>
<path opacity="0.4" fill-rule="evenodd" clip-rule="evenodd" d="M1198.63 351.152C1327.2 456.557 1555.82 510.242 1560.67 676.297C1565.38 837.363 1325.41 878.451 1217.5 997.418C1117.23 1107.96 1088.94 1282.82 953.573 1345.58C809.045 1412.59 632.777 1401.27 486.802 1336.2C343.679 1272.4 235.545 1143.62 175.431 998.685C121.103 867.699 161.851 725.158 174.899 584.188C187.458 448.498 150.042 284.722 250.031 192.708C350.202 100.525 510.25 154.174 646.473 150.222C749.07 147.245 849.545 137.35 946.167 172.51C1045.36 208.608 1116.88 284.138 1198.63 351.152Z" stroke="url(#paint39_linear_6_50)" stroke-width="6.25195"/>
<path opacity="0.41" fill-rule="evenodd" clip-rule="evenodd" d="M1198.71 344.566C1328.6 447.313 1557.26 496.803 1564.97 662.113C1572.45 822.456 1334.15 867.559 1228.73 987.932C1130.77 1099.78 1105.63 1274.43 971.888 1339.3C829.094 1408.56 653.326 1400.36 506.799 1338.09C363.135 1277.03 253.193 1150.65 190.801 1007.34C134.415 877.822 172.527 735.138 183.077 594.502C193.231 459.133 153.12 296.661 251.116 203.272C349.291 109.712 509.637 160.36 645.253 154.051C747.393 149.3 847.299 137.694 944.149 171.032C1043.58 205.259 1116.13 279.243 1198.71 344.566Z" stroke="url(#paint40_linear_6_50)" stroke-width="6.25195"/>
<path opacity="0.42" fill-rule="evenodd" clip-rule="evenodd" d="M1198.6 338.056C1329.76 438.131 1558.36 483.441 1568.91 647.957C1579.15 807.529 1342.57 856.602 1239.66 978.33C1144.03 1091.44 1122.02 1265.83 989.94 1332.77C848.915 1404.24 673.703 1399.13 526.677 1339.66C382.523 1281.35 270.825 1157.39 206.192 1015.74C147.782 887.716 183.267 744.938 191.333 604.68C199.098 469.675 156.326 308.55 252.312 213.828C348.473 118.931 509.062 166.585 644.03 157.94C745.681 151.429 844.99 138.129 942.034 169.648C1041.66 202.007 1115.21 274.432 1198.6 338.056Z" stroke="url(#paint41_linear_6_50)" stroke-width="6.25195"/>
<path opacity="0.43" fill-rule="evenodd" clip-rule="evenodd" d="M1198.27 331.613C1330.65 429.003 1559.13 470.15 1572.49 633.823C1585.46 792.577 1350.68 845.573 1250.29 968.606C1157 1082.93 1138.11 1257 1007.71 1325.97C868.491 1399.61 693.889 1397.58 546.416 1340.9C401.825 1285.34 288.42 1163.82 221.587 1023.86C161.187 897.369 194.053 754.546 199.653 614.71C205.043 480.11 159.645 320.376 253.605 224.362C347.736 128.171 508.511 172.837 642.791 161.876C743.925 153.621 842.607 138.645 939.811 168.348C1039.61 198.842 1114.12 269.696 1198.27 331.613Z" stroke="url(#paint42_linear_6_50)" stroke-width="6.25195"/>
<path opacity="0.44" fill-rule="evenodd" clip-rule="evenodd" d="M1197.76 325.233C1331.3 419.925 1559.58 456.929 1575.73 619.71C1591.4 777.601 1358.48 834.472 1260.62 958.758C1169.7 1074.24 1153.9 1247.95 1025.22 1318.91C887.836 1394.68 713.897 1395.7 566.031 1341.82C421.054 1288.99 305.994 1169.94 236.999 1031.7C174.646 906.775 204.901 763.954 208.052 624.582C211.084 490.43 163.096 332.129 255.013 234.864C347.098 137.421 508.006 179.108 641.558 165.852C742.144 155.869 840.171 139.235 937.502 167.125C1037.43 195.758 1112.87 265.03 1197.76 325.233Z" stroke="url(#paint43_linear_6_50)" stroke-width="6.25195"/>
<path opacity="0.45" fill-rule="evenodd" clip-rule="evenodd" d="M1197.04 318.934C1331.68 410.919 1559.69 443.797 1578.6 605.641C1596.94 762.621 1365.95 823.32 1270.64 948.808C1182.09 1065.41 1169.37 1238.69 1042.44 1311.61C906.917 1389.46 733.695 1393.5 585.488 1342.42C440.176 1292.33 323.512 1175.76 252.396 1039.29C188.125 915.947 215.78 773.176 216.499 634.312C217.192 500.648 166.649 343.821 256.509 245.348C346.533 146.694 507.518 185.411 640.303 169.883C740.312 158.188 837.656 139.914 935.08 165.997C1035.1 192.775 1111.44 260.453 1197.04 318.934Z" stroke="url(#paint44_linear_6_50)" stroke-width="6.25195"/>
<path opacity="0.46" fill-rule="evenodd" clip-rule="evenodd" d="M1196.15 312.705C1331.84 401.973 1559.5 430.747 1581.14 591.606C1602.14 747.631 1373.13 812.107 1280.38 938.747C1194.21 1056.42 1184.55 1229.22 1059.4 1304.05C925.773 1383.95 753.319 1390.99 604.823 1342.7C459.228 1295.34 341.013 1181.28 267.814 1046.59C201.662 924.872 226.728 782.197 225.035 643.882C223.405 510.748 170.345 355.436 258.133 255.797C346.082 155.975 507.089 191.731 639.07 173.953C738.472 160.564 835.107 140.669 932.59 164.949C1032.67 189.877 1109.88 255.952 1196.15 312.705Z" stroke="url(#paint45_linear_6_50)" stroke-width="6.25195"/>
<path opacity="0.47" fill-rule="evenodd" clip-rule="evenodd" d="M1195.05 306.557C1331.75 393.099 1558.98 417.791 1583.33 577.62C1606.95 732.645 1379.98 800.847 1289.81 928.588C1206.03 1047.28 1199.4 1219.55 1076.06 1296.26C944.363 1378.16 772.729 1388.18 623.997 1342.66C478.17 1298.03 358.454 1186.49 283.215 1053.63C215.218 933.556 237.707 791.024 233.62 653.301C229.687 520.736 174.146 366.98 259.85 266.216C345.711 165.268 506.687 198.075 637.824 178.071C736.592 163.005 832.49 141.508 930 163.992C1030.11 187.075 1108.15 251.537 1195.05 306.557Z" stroke="url(#paint46_linear_6_50)" stroke-width="6.25195"/>
<path opacity="0.48" fill-rule="evenodd" clip-rule="evenodd" d="M1193.76 300.513C1331.4 384.321 1558.14 404.956 1585.16 563.708C1611.37 717.691 1386.52 789.567 1298.93 918.357C1217.55 1038.03 1213.94 1209.71 1092.42 1288.25C962.686 1372.11 791.924 1385.08 643.007 1342.34C496.998 1300.43 375.833 1191.43 298.595 1060.42C228.791 942.02 248.715 799.678 242.256 662.588C236.038 530.631 178.055 378.47 261.662 276.624C345.422 174.593 506.312 204.462 636.57 182.256C734.674 165.531 829.809 142.451 927.313 163.145C1027.42 184.391 1106.26 247.231 1193.76 300.513Z" stroke="url(#paint47_linear_6_50)" stroke-width="6.25195"/>
<path opacity="0.49" fill-rule="evenodd" clip-rule="evenodd" d="M1192.31 294.554C1330.85 375.622 1557.02 392.223 1586.68 549.855C1615.46 702.751 1392.76 778.249 1307.77 908.038C1228.79 1028.64 1228.18 1199.68 1108.53 1280.02C980.773 1365.79 810.933 1381.68 661.882 1341.71C515.743 1302.52 393.181 1196.07 313.985 1066.94C242.412 950.242 259.785 808.135 250.973 671.718C242.491 540.41 182.104 389.881 263.603 286.996C345.25 183.923 506.002 210.868 635.343 186.484C732.756 168.12 827.102 143.477 924.567 162.388C1024.63 181.803 1104.24 243.013 1192.31 294.554Z" stroke="url(#paint48_linear_6_50)" stroke-width="6.25195"/>
<path opacity="0.5" fill-rule="evenodd" clip-rule="evenodd" d="M1190.66 288.69C1330.03 367.012 1555.57 379.606 1587.85 536.074C1619.16 687.841 1398.69 766.908 1316.29 897.644C1239.73 1019.12 1242.09 1189.47 1124.32 1271.56C998.576 1359.21 829.709 1377.99 680.575 1340.78C534.355 1304.3 410.448 1200.42 329.336 1073.2C256.032 958.229 270.868 816.403 259.725 680.7C248.999 550.079 186.249 401.219 265.628 297.338C345.153 193.266 505.713 217.301 634.1 190.764C730.796 170.779 824.328 144.594 921.721 161.73C1021.71 179.323 1102.06 238.895 1190.66 288.69Z" stroke="url(#paint49_linear_6_50)" stroke-width="6.25195"/>
<path opacity="0.51" fill-rule="evenodd" clip-rule="evenodd" d="M1188.8 282.917C1328.95 358.489 1553.77 367.103 1588.63 522.365C1622.45 672.961 1404.26 755.542 1324.47 887.174C1250.33 1009.49 1255.64 1179.09 1139.78 1262.9C1016.07 1352.38 848.225 1374.02 699.06 1339.56C552.808 1305.77 427.61 1204.48 344.624 1079.2C269.627 965.975 281.941 824.475 268.49 689.525C255.542 559.629 190.467 412.476 267.717 307.64C345.109 202.612 505.425 223.752 632.824 195.089C728.774 173.501 821.467 145.796 918.757 161.165C1018.64 176.944 1099.69 234.87 1188.8 282.917Z" stroke="url(#paint50_linear_6_50)" stroke-width="6.25195"/>
<path opacity="0.52" fill-rule="evenodd" clip-rule="evenodd" d="M1186.78 277.259C1327.67 350.078 1551.71 354.741 1589.12 508.753C1625.41 658.137 1409.55 744.177 1332.38 876.654C1260.67 999.751 1268.89 1168.56 1154.96 1254.04C1033.32 1345.3 866.545 1369.78 717.398 1338.06C571.165 1306.96 444.726 1208.27 359.91 1084.95C283.259 973.501 293.067 832.372 277.33 698.215C262.182 569.081 194.823 423.67 269.935 317.922C345.185 211.981 505.205 230.24 631.58 199.477C726.759 176.308 818.588 147.103 915.743 160.714C1015.49 174.688 1097.21 230.963 1186.78 277.259Z" stroke="url(#paint51_linear_6_50)" stroke-width="6.25195"/>
<path opacity="0.53" fill-rule="evenodd" clip-rule="evenodd" d="M1184.57 271.708C1326.14 341.771 1549.33 342.512 1589.26 495.234C1627.98 643.366 1414.52 732.808 1339.96 866.08C1270.69 989.915 1281.8 1157.88 1169.83 1244.99C1050.28 1337.99 884.62 1365.27 735.541 1336.28C589.375 1307.86 461.749 1211.78 375.146 1090.45C296.879 980.796 304.198 840.082 286.199 706.756C268.873 578.422 199.271 434.788 272.237 328.17C345.336 221.358 505.01 236.755 630.326 203.919C724.709 179.188 815.65 148.504 912.637 160.367C1012.21 172.546 1094.57 227.164 1184.57 271.708Z" stroke="url(#paint52_linear_6_50)" stroke-width="6.25195"/>
<path opacity="0.54" fill-rule="evenodd" clip-rule="evenodd" d="M1182.18 266.252C1324.38 333.557 1546.65 330.408 1589.06 481.798C1630.2 628.639 1419.17 721.426 1347.24 855.441C1280.4 979.967 1294.39 1147.04 1184.39 1235.74C1066.95 1330.43 902.457 1360.48 753.497 1334.21C607.447 1308.45 478.686 1215 390.338 1095.68C310.495 987.847 315.343 847.591 295.106 715.134C275.626 587.636 203.822 445.812 274.634 338.369C345.576 230.728 504.851 243.28 629.076 208.398C722.636 182.126 812.666 149.987 909.455 160.11C1008.82 170.504 1091.78 223.461 1182.18 266.252Z" stroke="url(#paint53_linear_6_50)" stroke-width="6.25195"/>
<path opacity="0.55" fill-rule="evenodd" clip-rule="evenodd" d="M1179.64 260.93C1322.4 325.477 1543.69 318.47 1588.55 468.489C1632.07 613.999 1423.53 710.074 1354.23 844.781C1289.83 969.95 1306.65 1136.08 1198.66 1226.32C1083.35 1322.67 920.063 1355.46 771.271 1331.89C625.385 1308.78 495.542 1217.96 405.494 1100.68C324.114 994.69 326.508 854.936 304.058 723.385C282.448 596.759 208.485 456.779 277.136 348.551C345.914 240.125 504.74 249.85 627.84 212.95C720.553 185.159 809.649 151.586 906.208 159.982C1005.34 168.601 1088.87 219.892 1179.64 260.93Z" stroke="url(#paint54_linear_6_50)" stroke-width="6.25195"/>
<path opacity="0.56" fill-rule="evenodd" clip-rule="evenodd" d="M1176.91 255.709C1320.2 317.5 1540.44 306.668 1587.71 455.276C1633.56 599.418 1427.57 698.721 1360.89 834.071C1298.94 959.837 1318.57 1124.98 1212.6 1216.72C1099.45 1314.67 937.415 1350.17 788.839 1329.29C643.166 1308.82 512.293 1220.64 420.589 1105.42C337.712 1001.29 337.672 862.082 313.034 731.473C289.318 605.756 213.237 467.651 279.723 358.681C346.331 249.512 504.658 256.431 626.601 217.541C718.442 188.252 806.581 153.268 902.88 159.947C1001.75 166.804 1085.82 216.425 1176.91 255.709Z" stroke="url(#paint55_linear_6_50)" stroke-width="6.25195"/>
<path opacity="0.57" fill-rule="evenodd" clip-rule="evenodd" d="M1174.02 250.619C1317.77 309.653 1536.9 295.032 1586.55 442.19C1634.71 584.927 1431.31 687.4 1367.26 823.341C1307.75 949.656 1330.16 1113.76 1226.23 1206.96C1115.25 1306.47 954.52 1344.64 806.209 1326.44C660.795 1308.59 528.945 1223.06 435.629 1109.92C351.296 1007.68 348.841 869.054 322.041 739.425C296.245 614.65 218.089 478.451 282.404 368.782C346.837 258.913 504.617 263.045 625.37 222.196C716.315 191.43 803.475 155.058 899.484 160.032C998.052 165.138 1082.63 213.086 1174.02 250.619Z" stroke="url(#paint56_linear_6_50)" stroke-width="6.25195"/>
<path opacity="0.58" fill-rule="evenodd" clip-rule="evenodd" d="M1170.96 245.657C1315.13 301.939 1533.07 283.563 1585.07 429.235C1635.5 570.53 1434.74 676.112 1373.32 812.594C1316.25 939.412 1341.42 1102.43 1239.54 1197.05C1130.76 1298.07 971.371 1338.88 823.372 1323.33C678.265 1308.09 545.489 1225.22 450.607 1114.19C364.857 1013.84 360.008 875.851 331.073 747.236C303.222 623.437 223.035 489.175 285.175 378.85C347.429 268.323 504.611 269.689 624.144 226.91C714.171 194.69 800.331 156.954 896.019 160.235C994.257 163.603 1079.31 209.875 1170.96 245.657Z" stroke="url(#paint57_linear_6_50)" stroke-width="6.25195"/>
<path opacity="0.59" fill-rule="evenodd" clip-rule="evenodd" d="M1167.72 240.825C1312.25 294.358 1528.95 272.264 1583.25 416.413C1635.91 556.23 1437.84 664.861 1379.05 801.833C1324.42 929.107 1352.31 1091 1252.51 1186.99C1145.95 1289.48 987.942 1332.89 840.304 1319.99C695.55 1307.34 561.902 1227.13 465.497 1118.22C378.372 1019.79 371.15 882.47 340.107 754.904C310.227 632.116 228.052 499.819 288.014 388.88C348.086 277.737 504.623 276.36 622.905 231.681C711.99 198.03 797.128 158.953 892.466 160.554C990.345 162.197 1075.84 206.791 1167.72 240.825Z" stroke="url(#paint58_linear_6_50)" stroke-width="6.25195"/>
<path opacity="0.6" fill-rule="evenodd" clip-rule="evenodd" d="M1164.33 236.119C1309.17 286.906 1524.55 261.133 1581.12 403.722C1635.99 542.027 1440.65 653.645 1384.48 791.058C1332.3 918.742 1362.88 1079.46 1265.16 1176.78C1160.83 1280.69 1004.26 1326.66 857.028 1316.39C712.673 1306.31 578.205 1228.78 480.323 1122.01C391.863 1025.52 382.29 888.904 349.167 762.422C317.285 640.677 233.166 510.375 290.947 398.864C348.835 287.148 504.679 283.051 621.681 236.501C709.801 201.442 793.898 161.049 888.856 160.983C986.345 160.914 1072.24 203.83 1164.33 236.119Z" stroke="url(#paint59_linear_6_50)" stroke-width="6.25195"/>
<path opacity="0.61" fill-rule="evenodd" clip-rule="evenodd" d="M1160.78 231.545C1305.88 279.593 1519.89 250.179 1578.69 391.174C1635.72 527.933 1443.16 642.475 1389.62 780.28C1339.87 908.327 1373.11 1067.82 1277.5 1166.43C1175.42 1271.71 1020.31 1320.22 873.536 1312.55C729.626 1305.03 594.39 1230.17 495.077 1125.56C405.323 1031.02 393.421 895.161 358.246 769.796C324.389 649.126 238.371 520.846 293.97 408.805C349.671 296.558 504.776 289.765 620.468 241.376C707.602 204.932 790.637 163.248 885.187 161.528C982.256 159.761 1068.53 200.998 1160.78 231.545Z" stroke="url(#paint60_linear_6_50)" stroke-width="6.25195"/>
<path opacity="0.62" fill-rule="evenodd" clip-rule="evenodd" d="M1157.06 227.113C1302.37 272.428 1514.95 239.413 1575.94 378.779C1635.1 513.958 1445.35 631.363 1394.43 769.509C1347.12 897.873 1382.98 1056.11 1289.49 1155.96C1189.68 1262.56 1036.08 1313.56 889.805 1308.48C746.385 1303.51 610.434 1231.32 509.733 1128.89C418.726 1036.32 404.519 901.246 367.322 777.031C331.517 657.468 243.645 531.236 297.061 418.707C350.575 305.972 504.894 296.506 619.248 246.311C705.374 208.506 787.328 165.554 881.44 162.195C978.061 158.746 1064.68 198.303 1157.06 227.113Z" stroke="url(#paint61_linear_6_50)" stroke-width="6.25195"/>
<path opacity="0.63" fill-rule="evenodd" clip-rule="evenodd" d="M1153.22 222.833C1298.68 265.422 1509.77 228.847 1572.91 366.552C1634.16 500.118 1447.26 620.323 1398.96 758.761C1354.08 887.396 1392.53 1044.32 1301.18 1145.37C1203.65 1253.26 1051.61 1306.71 905.874 1304.2C762.988 1301.74 626.373 1232.23 524.332 1132C432.114 1041.41 415.625 907.169 376.434 784.137C338.711 665.712 249.03 541.554 300.263 428.579C351.59 315.397 505.076 303.285 618.064 251.314C703.161 212.172 784.016 167.977 877.663 162.994C973.805 157.877 1060.73 195.755 1153.22 222.833Z" stroke="url(#paint62_linear_6_50)" stroke-width="6.25195"/>
<path opacity="0.64" fill-rule="evenodd" clip-rule="evenodd" d="M1149.21 218.689C1294.78 258.562 1504.31 218.469 1569.57 354.479C1632.87 486.402 1448.87 609.341 1403.18 748.022C1360.73 876.883 1401.73 1032.46 1312.53 1134.66C1217.3 1243.78 1066.84 1299.65 921.696 1299.69C779.389 1299.73 642.162 1232.9 538.826 1134.88C445.437 1046.29 426.692 912.913 385.538 791.095C345.924 673.839 254.479 551.779 303.53 438.399C352.671 324.813 505.279 310.08 616.875 256.366C700.923 215.912 780.66 170.5 873.813 163.907C969.448 157.138 1056.66 193.34 1149.21 218.689Z" stroke="url(#paint63_linear_6_50)" stroke-width="6.25195"/>
<path opacity="0.65" fill-rule="evenodd" clip-rule="evenodd" d="M1145.05 214.706C1290.67 251.871 1498.6 208.303 1565.93 342.587C1631.24 472.836 1450.18 598.446 1407.09 737.321C1367.06 866.363 1410.58 1020.56 1323.55 1123.87C1230.62 1234.17 1081.79 1292.42 937.279 1294.99C795.594 1297.5 657.807 1233.35 553.222 1137.55C458.705 1050.97 437.728 918.501 394.64 797.928C353.166 681.87 260.003 561.931 306.873 448.19C353.829 334.24 505.516 316.914 615.692 261.49C698.672 219.747 777.273 173.144 869.905 164.957C965.005 156.553 1052.46 191.078 1145.05 214.706Z" stroke="url(#paint64_linear_6_50)" stroke-width="6.25195"/>
<path opacity="0.66" fill-rule="evenodd" clip-rule="evenodd" d="M1140.73 210.864C1286.37 245.331 1492.62 198.333 1561.99 330.86C1629.27 459.404 1451.18 587.62 1410.7 726.641C1373.08 855.818 1419.08 1008.58 1334.22 1112.96C1243.61 1224.4 1096.45 1284.99 952.616 1290.06C811.596 1295.03 673.301 1233.56 567.513 1140C471.908 1055.44 448.726 923.911 403.736 804.613C360.43 689.783 265.596 571.988 310.288 457.926C355.061 343.655 505.782 323.763 614.514 266.661C696.406 223.655 773.854 175.887 865.937 166.123C960.475 156.098 1048.15 188.951 1140.73 210.864Z" stroke="url(#paint65_linear_6_50)" stroke-width="6.25195"/>
<path opacity="0.67" fill-rule="evenodd" clip-rule="evenodd" d="M1136.3 207.178C1281.89 238.959 1486.43 188.574 1557.78 319.314C1627 446.126 1451.92 576.882 1414.02 716.001C1378.81 845.268 1427.26 996.563 1344.58 1101.96C1256.31 1214.49 1110.84 1277.38 967.731 1284.93C827.419 1292.34 688.667 1233.54 581.722 1142.23C485.072 1059.71 459.71 929.159 412.849 811.166C367.743 697.591 271.283 581.962 313.799 467.62C356.393 353.068 506.105 330.639 613.368 271.894C694.153 227.65 770.431 178.742 861.94 167.417C955.887 155.79 1043.74 186.973 1136.3 207.178Z" stroke="url(#paint66_linear_6_50)" stroke-width="6.25195"/>
<path opacity="0.68" fill-rule="evenodd" clip-rule="evenodd" d="M1131.73 203.645C1277.22 232.751 1479.98 179.026 1553.29 307.95C1624.4 433 1452.36 566.232 1417.04 705.4C1384.23 834.713 1435.09 984.501 1354.61 1090.88C1268.67 1204.45 1124.94 1269.59 982.594 1279.61C843.031 1289.42 703.873 1233.3 595.818 1144.25C498.164 1063.78 470.65 934.239 421.949 817.579C375.073 705.288 277.034 591.846 317.379 477.265C357.798 362.474 506.459 337.537 612.228 277.182C691.888 231.725 766.98 181.703 857.888 168.835C951.218 155.623 1039.22 185.139 1131.73 203.645Z" stroke="url(#paint67_linear_6_50)" stroke-width="6.25195"/>
<path opacity="0.69" fill-rule="evenodd" clip-rule="evenodd" d="M1127.01 200.279C1272.37 226.724 1473.29 169.706 1548.51 296.785C1621.47 420.047 1452.51 555.687 1419.77 694.857C1389.34 824.172 1442.57 972.415 1364.29 1079.72C1280.71 1194.29 1138.74 1261.65 997.206 1274.1C858.434 1286.3 718.921 1232.85 609.801 1146.08C511.185 1067.65 481.546 939.166 431.039 823.868C382.423 712.887 282.852 601.652 321.031 486.873C359.279 371.884 506.846 344.468 611.098 282.537C689.617 235.893 763.507 184.784 853.788 170.39C946.474 155.612 1034.6 183.466 1127.01 200.279Z" stroke="url(#paint68_linear_6_50)" stroke-width="6.25195"/>
<path opacity="0.7" fill-rule="evenodd" clip-rule="evenodd" d="M1122.17 197.081C1267.33 220.879 1466.37 160.614 1543.46 285.823C1618.23 407.269 1452.38 545.251 1422.19 684.376C1394.15 813.65 1449.71 960.31 1373.64 1068.51C1292.42 1184.03 1152.26 1253.56 1011.57 1268.42C873.626 1282.98 733.809 1232.19 623.671 1147.7C524.135 1071.34 492.4 943.94 440.118 830.03C389.794 720.387 288.739 611.377 324.756 496.44C360.839 381.294 507.272 351.43 609.985 287.957C687.343 240.153 760.018 187.984 849.646 172.081C941.662 155.755 1029.88 181.951 1122.17 197.081Z" stroke="url(#paint69_linear_6_50)" stroke-width="6.25195"/>
<path opacity="0.71" fill-rule="evenodd" clip-rule="evenodd" d="M1117.2 194.051C1262.12 215.216 1459.22 151.754 1538.14 275.065C1614.68 394.671 1451.97 534.928 1424.33 673.961C1398.65 803.149 1456.51 948.191 1382.66 1057.23C1303.81 1173.65 1165.48 1245.32 1025.67 1262.56C888.603 1279.46 748.532 1231.33 637.422 1149.13C537.008 1074.85 503.205 948.559 449.182 836.066C397.182 727.785 294.688 621.018 328.55 505.964C362.474 390.701 507.733 358.42 608.884 293.441C685.067 244.502 756.511 191.299 845.461 173.907C936.781 156.051 1025.06 180.595 1117.2 194.051Z" stroke="url(#paint70_linear_6_50)" stroke-width="6.25195"/>
<path opacity="0.72" fill-rule="evenodd" clip-rule="evenodd" d="M1112.09 191.185C1256.73 209.733 1451.84 143.123 1532.54 264.51C1610.82 382.251 1451.27 524.716 1426.17 663.611C1402.84 792.67 1462.96 936.059 1391.33 1045.9C1314.85 1163.18 1178.39 1236.93 1039.52 1256.52C903.356 1275.74 763.08 1230.26 651.045 1150.36C549.795 1078.16 513.954 953.021 458.222 841.969C404.578 735.075 300.695 630.568 332.408 515.438C364.18 400.097 508.225 365.431 607.794 298.981C682.784 248.934 752.984 194.724 841.231 175.861C931.831 156.495 1020.13 179.393 1112.09 191.185Z" stroke="url(#paint71_linear_6_50)" stroke-width="6.25195"/>
<path opacity="0.73" fill-rule="evenodd" clip-rule="evenodd" d="M1106.87 188.483C1251.18 204.43 1444.26 134.721 1526.7 254.161C1606.66 370.013 1450.3 514.618 1427.72 653.329C1406.74 782.217 1469.08 923.918 1399.68 1034.51C1325.58 1152.6 1191.01 1228.39 1053.11 1250.32C917.894 1271.82 777.464 1228.99 664.55 1151.4C562.505 1081.28 524.656 957.324 467.25 847.738C411.994 742.257 306.768 640.025 336.341 524.858C365.968 409.48 508.76 372.462 606.726 304.576C680.51 253.447 749.451 198.257 836.972 177.942C926.826 157.086 1015.13 178.345 1106.87 188.483Z" stroke="url(#paint72_linear_6_50)" stroke-width="6.25195"/>
<path opacity="0.74" fill-rule="evenodd" clip-rule="evenodd" d="M1101.54 185.965C1245.47 199.328 1436.46 126.571 1520.59 244.04C1602.2 357.98 1449.06 504.657 1428.99 643.138C1410.35 771.813 1474.85 911.793 1407.69 1023.1C1335.98 1141.94 1203.33 1219.74 1066.44 1243.97C932.211 1267.73 791.676 1227.53 677.929 1152.26C575.132 1084.22 535.304 961.487 476.258 853.393C419.424 749.347 312.902 649.406 340.343 534.241C367.835 418.865 509.336 379.528 605.679 310.241C678.24 258.058 745.911 201.916 832.683 180.169C921.766 157.842 1010.04 177.468 1101.54 185.965Z" stroke="url(#paint73_linear_6_50)" stroke-width="6.25195"/>
<path opacity="0.75" fill-rule="evenodd" clip-rule="evenodd" d="M1096.11 183.621C1239.61 194.42 1428.47 118.667 1514.26 234.142C1597.47 346.147 1447.57 494.829 1430 633.035C1413.67 761.454 1480.31 899.68 1415.38 1011.66C1346.06 1131.21 1215.37 1210.97 1079.52 1237.47C946.316 1263.45 805.725 1225.89 691.192 1152.93C587.683 1086.99 545.908 965.504 485.257 858.925C426.877 756.337 319.108 658.7 344.426 543.577C369.791 428.243 509.963 386.62 604.665 315.969C675.99 262.758 742.378 205.691 828.376 182.532C916.666 158.755 1004.87 176.756 1096.11 183.621Z" stroke="url(#paint74_linear_6_50)" stroke-width="6.25195"/>
<path opacity="0.76" fill-rule="evenodd" clip-rule="evenodd" d="M1090.56 181.458C1233.59 189.709 1420.27 111.012 1507.67 224.472C1592.44 334.522 1445.81 485.14 1430.71 623.026C1416.69 751.149 1485.42 887.589 1422.73 1000.19C1355.8 1120.41 1227.1 1202.08 1092.32 1230.83C960.187 1259.01 819.589 1224.06 704.315 1153.43C600.137 1089.59 556.446 969.377 494.224 864.336C434.332 763.228 325.363 667.91 348.568 552.866C371.816 437.613 510.624 393.739 603.666 321.759C673.741 267.547 738.835 209.584 824.037 185.032C911.51 159.827 999.625 176.211 1090.56 181.458Z" stroke="url(#paint75_linear_6_50)" stroke-width="6.25195"/>
<path opacity="0.77" fill-rule="evenodd" clip-rule="evenodd" d="M1084.91 179.477C1227.42 185.202 1411.87 103.614 1500.84 215.037C1587.13 323.111 1443.79 475.597 1431.15 613.119C1419.41 740.904 1490.2 875.528 1429.75 988.706C1365.21 1109.54 1238.52 1193.08 1104.87 1224.05C973.825 1254.4 833.268 1222.06 717.3 1153.75C612.494 1092.02 566.919 973.111 503.161 869.631C441.791 770.025 331.671 677.035 352.773 562.111C373.915 446.976 511.323 400.886 602.687 327.614C671.499 272.43 735.288 213.596 819.672 187.674C906.304 161.06 994.298 175.837 1084.91 179.477Z" stroke="url(#paint76_linear_6_50)" stroke-width="6.25195"/>
<path opacity="0.78" fill-rule="evenodd" clip-rule="evenodd" d="M1079.14 177.675C1221.09 180.894 1403.27 96.4688 1493.76 205.835C1581.53 311.915 1441.5 466.199 1431.3 603.314C1421.83 730.72 1494.63 863.498 1436.42 977.211C1374.28 1098.62 1249.62 1183.98 1117.12 1217.13C987.217 1249.63 846.75 1219.88 730.132 1153.9C624.741 1094.27 577.314 976.703 512.056 874.804C449.242 776.72 338.017 686.071 357.029 571.304C376.075 456.327 512.047 408.056 601.718 333.528C669.255 277.398 731.727 217.723 815.271 190.45C901.041 162.451 988.884 175.629 1079.14 177.675Z" stroke="url(#paint77_linear_6_50)" stroke-width="6.25195"/>
<path opacity="0.79" fill-rule="evenodd" clip-rule="evenodd" d="M1073.26 176.057C1214.61 176.791 1394.48 89.5821 1486.45 196.873C1575.65 300.939 1438.94 456.953 1431.18 593.618C1423.96 720.605 1498.72 851.508 1442.76 965.713C1383.01 1087.65 1260.41 1174.79 1129.1 1210.09C1000.36 1244.7 860.034 1217.53 742.814 1153.88C636.877 1096.36 587.631 980.156 520.909 879.859C456.685 783.318 344.405 695.02 361.337 580.448C378.3 465.666 512.803 415.249 600.765 339.503C667.013 282.455 728.16 221.966 810.843 193.365C895.729 164.001 983.392 175.59 1073.26 176.057Z" stroke="url(#paint78_linear_6_50)" stroke-width="6.25195"/>
<path opacity="0.8" fill-rule="evenodd" clip-rule="evenodd" d="M1067.32 174.637C1208.03 172.908 1385.55 82.9707 1478.94 188.168C1569.53 290.203 1436.17 447.878 1430.81 584.049C1425.83 710.578 1502.51 839.578 1448.8 954.231C1391.44 1076.65 1270.93 1165.52 1140.85 1202.94C1013.31 1239.63 873.162 1215.03 755.385 1153.72C648.945 1098.3 597.913 983.487 529.762 884.812C464.163 789.833 350.876 703.894 365.741 589.554C380.633 475.005 513.634 422.481 599.87 345.552C664.82 287.614 724.632 226.34 806.432 196.431C890.413 165.725 977.868 175.736 1067.32 174.637Z" stroke="url(#paint79_linear_6_50)" stroke-width="6.25195"/>
<path opacity="0.81" fill-rule="evenodd" clip-rule="evenodd" d="M1061.28 173.392C1201.3 169.223 1376.42 76.6124 1471.21 179.698C1563.14 279.687 1433.14 438.954 1430.17 574.589C1427.41 700.62 1505.97 827.69 1454.49 942.748C1399.53 1065.59 1281.12 1156.15 1152.3 1195.67C1026 1234.41 886.082 1212.36 767.793 1153.37C660.891 1100.07 608.106 986.672 538.563 889.639C471.624 796.24 357.376 712.669 370.188 598.599C383.023 484.32 514.489 429.724 598.986 351.651C662.626 292.849 721.095 230.818 801.993 199.624C885.046 167.599 972.265 176.042 1061.28 173.392Z" stroke="url(#paint80_linear_6_50)" stroke-width="6.25195"/>
<path opacity="0.82" fill-rule="evenodd" clip-rule="evenodd" d="M1055.16 172.36C1194.45 165.775 1367.14 70.5474 1463.26 171.506C1556.5 269.432 1429.87 430.222 1429.27 565.279C1428.71 690.773 1509.1 815.888 1459.87 931.308C1407.29 1054.54 1291.02 1146.74 1163.49 1188.31C1038.45 1229.07 898.81 1209.55 780.056 1152.9C672.732 1101.71 618.228 989.753 547.329 894.379C479.085 802.577 363.926 721.382 374.698 607.618C385.49 493.646 515.389 437.016 598.134 357.835C660.453 298.199 717.571 235.438 797.546 202.982C879.653 169.66 966.607 176.547 1055.16 172.36Z" stroke="url(#paint81_linear_6_50)" stroke-width="6.25195"/>
<path opacity="0.83" fill-rule="evenodd" clip-rule="evenodd" d="M1048.94 171.507C1187.45 162.529 1357.67 64.7416 1455.1 163.558C1549.59 259.406 1426.35 421.649 1428.1 556.088C1429.72 681.008 1511.9 804.141 1464.9 919.88C1414.71 1043.45 1300.58 1137.25 1174.38 1180.84C1050.64 1223.58 911.326 1206.59 792.151 1152.27C684.447 1103.18 628.258 992.693 556.04 898.997C486.526 808.81 370.503 729.996 379.25 616.574C388.013 502.945 516.315 444.319 597.294 364.068C658.284 303.626 714.042 240.164 793.076 206.467C874.216 171.873 960.878 177.215 1048.94 171.507Z" stroke="url(#paint82_linear_6_50)" stroke-width="6.25195"/>
<path opacity="0.84" fill-rule="evenodd" clip-rule="evenodd" d="M1042.65 170.863C1180.35 159.518 1348.07 59.2273 1446.74 155.887C1542.45 249.643 1422.61 413.271 1426.68 547.051C1430.46 671.358 1514.39 792.486 1469.62 908.501C1421.82 1032.37 1309.86 1127.71 1185.01 1173.3C1062.61 1217.99 923.655 1203.5 804.104 1151.51C696.06 1104.52 638.222 995.526 564.721 903.524C493.973 814.968 377.134 738.541 383.871 625.497C390.621 512.247 517.296 451.664 596.497 370.379C656.149 309.159 710.54 245.024 788.613 210.11C868.767 174.266 955.11 178.076 1042.65 170.863Z" stroke="url(#paint83_linear_6_50)" stroke-width="6.25195"/>
<path opacity="0.85" fill-rule="evenodd" clip-rule="evenodd" d="M1036.3 170.398C1173.14 156.711 1338.31 53.9742 1438.19 148.464C1535.07 240.114 1418.65 405.059 1425.02 538.139C1430.94 661.797 1516.57 780.896 1474.02 897.145C1428.6 1021.26 1318.83 1118.1 1195.37 1165.65C1074.32 1212.26 935.785 1200.25 815.902 1150.58C707.559 1105.69 648.106 998.221 573.36 907.93C501.412 821.02 383.805 746.983 388.549 634.354C393.302 521.518 518.32 459.017 595.733 376.736C654.037 314.766 707.056 249.986 784.15 213.879C863.299 176.809 949.295 179.099 1036.3 170.398Z" stroke="url(#paint84_linear_6_50)" stroke-width="6.25195"/>
<path opacity="0.86" fill-rule="evenodd" clip-rule="evenodd" d="M1029.85 170.133C1165.8 154.131 1328.4 49.0066 1429.44 141.314C1527.44 230.847 1414.44 397.038 1423.09 529.38C1431.12 652.351 1518.41 769.4 1478.09 885.84C1435.04 1010.16 1327.47 1108.45 1205.43 1157.92C1085.77 1206.42 947.694 1196.88 827.524 1149.53C718.923 1106.73 657.889 1000.8 581.935 912.237C508.825 826.988 390.497 755.346 393.264 643.165C396.035 530.779 519.369 466.398 594.983 383.16C651.931 320.468 703.572 255.072 779.669 217.794C857.795 179.523 943.419 180.306 1029.85 170.133Z" stroke="url(#paint85_linear_6_50)" stroke-width="6.25195"/>
<path opacity="0.87" fill-rule="evenodd" clip-rule="evenodd" d="M1023.37 170.085C1158.38 151.795 1318.37 44.3409 1420.53 134.454C1519.61 221.859 1410.04 389.227 1420.94 520.792C1431.07 643.041 1519.97 758.017 1481.86 874.607C1441.18 999.089 1335.84 1098.79 1215.24 1150.14C1097.01 1200.49 959.424 1193.39 839.012 1148.36C730.191 1107.66 667.614 1003.29 590.489 916.462C516.251 832.888 397.251 763.643 398.057 651.946C398.865 540.044 520.487 473.824 594.292 389.664C649.878 326.28 700.134 260.295 775.218 221.87C852.303 182.422 937.527 181.713 1023.37 170.085Z" stroke="url(#paint86_linear_6_50)" stroke-width="6.25195"/>
<path opacity="0.88" fill-rule="evenodd" clip-rule="evenodd" d="M1016.8 170.23C1150.85 149.679 1308.2 39.9546 1411.42 127.862C1511.55 213.129 1405.41 381.606 1418.54 512.355C1430.74 633.847 1521.21 746.73 1485.31 863.428C1446.98 988.025 1343.88 1089.08 1224.76 1142.28C1107.97 1194.45 970.931 1189.78 850.321 1147.05C741.321 1108.44 677.235 1005.65 598.977 920.582C523.649 838.696 404.023 771.85 402.887 660.67C401.749 549.287 521.632 481.267 593.618 396.225C647.835 332.175 696.703 265.63 770.757 226.083C846.784 185.482 931.583 183.295 1016.8 170.23Z" stroke="url(#paint87_linear_6_50)" stroke-width="6.25195"/>
<path opacity="0.89" fill-rule="evenodd" clip-rule="evenodd" d="M1010.2 170.578C1143.23 147.796 1297.91 35.8598 1402.16 121.553C1503.28 204.671 1400.58 374.189 1415.92 504.085C1430.17 624.783 1522.15 735.555 1488.45 852.319C1452.47 976.987 1351.63 1079.35 1234.01 1134.37C1118.69 1188.32 982.243 1186.06 861.478 1145.63C752.338 1109.09 686.78 1007.91 607.426 924.609C531.043 844.425 410.839 779.977 407.779 669.349C404.713 558.517 522.833 488.738 592.993 402.851C645.834 338.164 693.309 271.088 766.316 230.443C841.268 188.714 925.617 185.063 1010.2 170.578Z" stroke="url(#paint88_linear_6_50)" stroke-width="6.25195"/>
<path opacity="0.9" fill-rule="evenodd" clip-rule="evenodd" d="M1003.54 171.135C1135.53 146.149 1287.51 32.0613 1392.73 115.531C1494.8 196.493 1395.54 366.981 1413.06 495.988C1429.34 615.859 1522.79 724.5 1491.29 841.289C1457.65 965.984 1359.08 1069.61 1242.99 1126.41C1129.17 1182.11 993.346 1182.22 872.47 1144.09C763.229 1109.63 696.236 1010.07 615.823 928.548C538.422 850.076 417.687 788.028 412.722 677.983C407.747 567.737 524.078 496.239 592.404 409.545C643.865 344.25 689.943 276.671 761.888 234.951C835.749 192.12 919.622 187.02 1003.54 171.135Z" stroke="url(#paint89_linear_6_50)" stroke-width="6.25195"/>
<path opacity="0.91" fill-rule="evenodd" clip-rule="evenodd" d="M996.818 171.89C1127.73 144.731 1276.98 28.5516 1383.14 109.79C1486.11 188.587 1390.3 359.979 1409.97 488.059C1428.25 607.07 1523.13 713.562 1493.81 830.336C1462.5 955.015 1366.21 1059.85 1251.68 1118.4C1139.38 1175.8 1004.23 1178.28 883.284 1142.43C773.982 1110.03 705.589 1012.12 624.157 932.391C545.774 855.643 424.555 795.993 417.704 686.565C410.84 576.937 525.358 503.761 591.844 416.297C641.918 350.423 686.597 282.369 757.464 239.6C830.219 195.691 913.591 189.158 996.818 171.89Z" stroke="url(#paint90_linear_6_50)" stroke-width="6.25195"/>
<path opacity="0.92" fill-rule="evenodd" clip-rule="evenodd" d="M990.065 172.853C1119.85 143.55 1266.36 25.3392 1373.4 104.339C1477.23 180.965 1384.87 353.192 1406.67 480.31C1426.92 598.427 1523.18 702.754 1496.03 819.473C1467.04 944.092 1373.04 1050.1 1260.1 1110.35C1149.35 1169.43 1014.91 1174.24 893.939 1140.67C784.614 1110.33 714.86 1014.08 632.445 936.148C553.117 861.134 431.46 803.879 422.743 695.1C414.01 586.122 526.693 511.311 591.332 423.115C640.016 356.69 683.293 288.188 753.067 244.394C824.702 199.434 907.549 191.483 990.065 172.853Z" stroke="url(#paint91_linear_6_50)" stroke-width="6.25195"/>
<path opacity="0.93" fill-rule="evenodd" clip-rule="evenodd" d="M983.264 174.018C1111.9 142.602 1255.62 22.4205 1363.51 99.1758C1468.15 173.625 1379.24 346.619 1403.14 472.74C1425.34 589.93 1522.94 692.077 1497.95 808.7C1471.26 933.217 1379.57 1040.34 1268.23 1102.26C1159.06 1162.98 1025.37 1170.11 904.417 1138.8C795.107 1110.5 724.027 1015.94 640.668 939.815C560.431 866.544 438.384 811.682 427.821 703.584C417.24 595.287 528.065 518.882 590.853 429.992C638.141 363.043 680.015 294.123 748.683 249.33C819.181 203.343 901.48 193.992 983.264 174.018Z" stroke="url(#paint92_linear_6_50)" stroke-width="6.25195"/>
<path opacity="0.94" fill-rule="evenodd" clip-rule="evenodd" d="M976.439 175.397C1103.89 141.899 1244.81 19.8074 1353.49 94.3131C1458.9 166.58 1373.44 340.274 1399.41 465.363C1423.54 581.595 1522.42 681.547 1499.58 798.034C1475.19 922.406 1385.82 1030.6 1276.1 1094.15C1168.53 1156.47 1035.63 1165.89 914.735 1136.83C805.478 1110.57 733.111 1017.7 648.845 943.404C567.736 871.886 445.344 819.413 432.958 712.026C420.548 604.443 529.495 526.485 590.426 436.938C636.317 369.495 676.786 300.184 744.334 254.417C813.683 207.43 895.409 196.694 976.439 175.397Z" stroke="url(#paint93_linear_6_50)" stroke-width="6.25195"/>
<path opacity="0.95" fill-rule="evenodd" clip-rule="evenodd" d="M969.575 176.985C1095.81 141.437 1233.9 17.4964 1343.33 89.7481C1449.47 159.829 1367.45 334.155 1395.46 458.179C1421.49 573.421 1521.61 671.165 1500.9 787.477C1478.8 911.662 1391.75 1020.88 1283.69 1086.03C1177.74 1149.9 1045.67 1161.58 924.873 1134.77C815.708 1110.54 742.09 1019.39 656.957 946.914C575.011 877.156 452.321 827.066 438.132 720.422C423.917 613.583 530.964 534.115 590.036 443.949C634.526 376.04 673.589 306.365 740.004 259.649C808.19 211.688 889.321 199.585 969.575 176.985Z" stroke="url(#paint94_linear_6_50)" stroke-width="6.25195"/>
<path opacity="0.96" fill-rule="evenodd" clip-rule="evenodd" d="M962.698 178.793C1087.68 141.228 1222.92 15.4992 1333.06 85.4937C1439.88 153.385 1361.3 328.277 1391.33 451.202C1419.22 565.424 1520.54 660.946 1501.96 777.045C1482.12 901.001 1397.4 1011.19 1291.02 1077.89C1186.71 1143.3 1055.5 1157.21 934.853 1132.63C825.815 1110.42 750.985 1020.99 665.021 950.356C582.277 882.366 459.334 834.655 443.364 728.783C427.366 622.717 532.495 541.782 589.704 451.034C632.791 382.687 670.447 312.678 735.717 265.038C802.727 216.129 883.24 202.676 962.698 178.793Z" stroke="url(#paint95_linear_6_50)" stroke-width="6.25195"/>
<path opacity="0.97" fill-rule="evenodd" clip-rule="evenodd" d="M955.778 180.801C1079.47 141.251 1211.85 13.7965 1322.65 81.5313C1430.11 147.231 1354.96 322.621 1386.97 444.416C1416.71 557.587 1519.17 650.876 1502.7 766.722C1485.11 890.41 1402.74 1001.52 1298.05 1069.75C1195.41 1136.64 1065.11 1152.76 944.637 1130.4C835.765 1110.19 759.76 1022.51 673.004 953.713C589.497 887.497 466.347 842.157 448.62 737.087C430.86 631.825 534.053 549.464 589.396 458.172C631.079 389.416 667.329 319.099 731.442 270.562C797.264 220.731 877.136 205.946 955.778 180.801Z" stroke="url(#paint96_linear_6_50)" stroke-width="6.25195"/>
<path opacity="0.98" fill-rule="evenodd" clip-rule="evenodd" d="M948.855 183.025C1071.24 141.523 1200.73 12.4039 1312.14 77.8773C1420.2 141.383 1348.48 317.206 1382.44 437.839C1413.99 549.93 1517.55 640.976 1503.18 756.531C1487.83 879.908 1407.8 991.898 1304.83 1061.6C1203.87 1129.94 1074.51 1148.25 954.263 1128.09C845.593 1109.87 768.451 1023.94 680.941 957.001C596.708 892.564 473.396 849.589 453.934 745.35C434.436 640.92 535.674 557.177 589.151 465.379C629.428 396.24 664.273 325.644 727.218 276.235C791.84 225.509 871.05 209.41 948.855 183.025Z" stroke="url(#paint97_linear_6_50)" stroke-width="6.25195"/>
<path opacity="0.99" fill-rule="evenodd" clip-rule="evenodd" d="M941.909 185.451C1062.94 142.032 1189.54 11.3095 1301.51 74.5209C1410.12 135.833 1341.82 312.021 1377.7 431.462C1411.04 542.444 1515.66 631.236 1503.36 746.463C1490.23 869.49 1412.57 982.31 1311.33 1053.45C1212.07 1123.2 1083.68 1143.67 963.703 1125.7C855.271 1109.46 777.03 1025.3 688.804 960.209C603.881 897.558 480.452 856.939 459.279 753.559C438.066 649.99 537.334 564.908 588.944 472.639C627.814 403.147 661.255 332.299 723.021 282.044C786.432 230.449 864.958 213.056 941.909 185.451Z" stroke="url(#paint98_linear_6_50)" stroke-width="6.25195"/>
<path fill-rule="evenodd" clip-rule="evenodd" d="M934.955 188.099C1054.62 142.796 1178.29 10.5328 1290.79 71.4823C1399.91 130.6 1335.02 307.089 1372.79 425.307C1407.88 535.153 1513.51 621.682 1503.27 736.544C1492.35 859.181 1417.04 972.782 1317.56 1045.32C1220.02 1116.45 1092.65 1139.04 972.969 1123.24C864.811 1108.97 785.51 1026.59 696.605 963.359C611.029 902.497 487.527 864.226 464.667 761.733C441.765 659.052 539.045 572.674 588.788 479.973C626.252 410.155 658.291 339.082 718.867 288.007C781.057 235.571 858.878 216.901 934.955 188.099Z" stroke="url(#paint99_linear_6_50)" stroke-width="6.25195"/>
</g>
<defs>
<linearGradient id="paint0_linear_6_50" x1="1207.85" y1="669.318" x2="-362.068" y2="485.668" gradientUnits="userSpaceOnUse">
<stop stop-color="#0A4432"/>
<stop offset="1" stop-color="#5EDCA8"/>
</linearGradient>
<linearGradient id="paint1_linear_6_50" x1="1216.3" y1="660.472" x2="-351.402" y2="504.764" gradientUnits="userSpaceOnUse">
<stop stop-color="#0A4432"/>
<stop offset="1" stop-color="#5EDCA8"/>
</linearGradient>
<linearGradient id="paint2_linear_6_50" x1="1224.51" y1="651.522" x2="-340.473" y2="523.622" gradientUnits="userSpaceOnUse">
<stop stop-color="#0A4432"/>
<stop offset="1" stop-color="#5EDCA8"/>
</linearGradient>
<linearGradient id="paint3_linear_6_50" x1="1232.45" y1="642.47" x2="-329.327" y2="542.237" gradientUnits="userSpaceOnUse">
<stop stop-color="#0A4432"/>
<stop offset="1" stop-color="#5EDCA8"/>
</linearGradient>
<linearGradient id="paint4_linear_6_50" x1="1240.16" y1="633.338" x2="-317.918" y2="560.62" gradientUnits="userSpaceOnUse">
<stop stop-color="#0A4432"/>
<stop offset="1" stop-color="#5EDCA8"/>
</linearGradient>
<linearGradient id="paint5_linear_6_50" x1="1247.61" y1="624.105" x2="-306.292" y2="578.742" gradientUnits="userSpaceOnUse">
<stop stop-color="#0A4432"/>
<stop offset="1" stop-color="#5EDCA8"/>
</linearGradient>
<linearGradient id="paint6_linear_6_50" x1="1254.82" y1="614.804" x2="-294.429" y2="596.628" gradientUnits="userSpaceOnUse">
<stop stop-color="#0A4432"/>
<stop offset="1" stop-color="#5EDCA8"/>
</linearGradient>
<linearGradient id="paint7_linear_6_50" x1="1261.76" y1="605.409" x2="-282.352" y2="614.245" gradientUnits="userSpaceOnUse">
<stop stop-color="#0A4432"/>
<stop offset="1" stop-color="#5EDCA8"/>
</linearGradient>
<linearGradient id="paint8_linear_6_50" x1="1268.47" y1="595.959" x2="-270.038" y2="631.621" gradientUnits="userSpaceOnUse">
<stop stop-color="#0A4432"/>
<stop offset="1" stop-color="#5EDCA8"/>
</linearGradient>
<linearGradient id="paint9_linear_6_50" x1="1274.92" y1="586.433" x2="-257.528" y2="648.728" gradientUnits="userSpaceOnUse">
<stop stop-color="#0A4432"/>
<stop offset="1" stop-color="#5EDCA8"/>
</linearGradient>
<linearGradient id="paint10_linear_6_50" x1="1281.11" y1="576.848" x2="-244.815" y2="665.576" gradientUnits="userSpaceOnUse">
<stop stop-color="#0A4432"/>
<stop offset="1" stop-color="#5EDCA8"/>
</linearGradient>
<linearGradient id="paint11_linear_6_50" x1="1287.04" y1="567.208" x2="-231.908" y2="682.16" gradientUnits="userSpaceOnUse">
<stop stop-color="#0A4432"/>
<stop offset="1" stop-color="#5EDCA8"/>
</linearGradient>
<linearGradient id="paint12_linear_6_50" x1="1292.71" y1="557.522" x2="-218.801" y2="698.482" gradientUnits="userSpaceOnUse">
<stop stop-color="#0A4432"/>
<stop offset="1" stop-color="#5EDCA8"/>
</linearGradient>
<linearGradient id="paint13_linear_6_50" x1="1298.13" y1="547.781" x2="-205.518" y2="714.525" gradientUnits="userSpaceOnUse">
<stop stop-color="#0A4432"/>
<stop offset="1" stop-color="#5EDCA8"/>
</linearGradient>
<linearGradient id="paint14_linear_6_50" x1="1303.3" y1="538.001" x2="-192.038" y2="730.297" gradientUnits="userSpaceOnUse">
<stop stop-color="#0A4432"/>
<stop offset="1" stop-color="#5EDCA8"/>
</linearGradient>
<linearGradient id="paint15_linear_6_50" x1="1308.18" y1="528.2" x2="-178.409" y2="745.808" gradientUnits="userSpaceOnUse">
<stop stop-color="#0A4432"/>
<stop offset="1" stop-color="#5EDCA8"/>
</linearGradient>
<linearGradient id="paint16_linear_6_50" x1="1312.82" y1="518.356" x2="-164.609" y2="761.031" gradientUnits="userSpaceOnUse">
<stop stop-color="#0A4432"/>
<stop offset="1" stop-color="#5EDCA8"/>
</linearGradient>
<linearGradient id="paint17_linear_6_50" x1="1317.2" y1="508.485" x2="-150.639" y2="775.974" gradientUnits="userSpaceOnUse">
<stop stop-color="#0A4432"/>
<stop offset="1" stop-color="#5EDCA8"/>
</linearGradient>
<linearGradient id="paint18_linear_6_50" x1="1321.32" y1="498.614" x2="-136.51" y2="790.655" gradientUnits="userSpaceOnUse">
<stop stop-color="#0A4432"/>
<stop offset="1" stop-color="#5EDCA8"/>
</linearGradient>
<linearGradient id="paint19_linear_6_50" x1="1325.17" y1="488.713" x2="-122.253" y2="805.039" gradientUnits="userSpaceOnUse">
<stop stop-color="#0A4432"/>
<stop offset="1" stop-color="#5EDCA8"/>
</linearGradient>
<linearGradient id="paint20_linear_6_50" x1="1328.77" y1="478.814" x2="-107.84" y2="819.151" gradientUnits="userSpaceOnUse">
<stop stop-color="#0A4432"/>
<stop offset="1" stop-color="#5EDCA8"/>
</linearGradient>
<linearGradient id="paint21_linear_6_50" x1="1332.1" y1="468.896" x2="-93.2966" y2="832.964" gradientUnits="userSpaceOnUse">
<stop stop-color="#0A4432"/>
<stop offset="1" stop-color="#5EDCA8"/>
</linearGradient>
<linearGradient id="paint22_linear_6_50" x1="1335.17" y1="459.002" x2="-78.6314" y2="846.513" gradientUnits="userSpaceOnUse">
<stop stop-color="#0A4432"/>
<stop offset="1" stop-color="#5EDCA8"/>
</linearGradient>
<linearGradient id="paint23_linear_6_50" x1="1337.98" y1="449.099" x2="-63.8466" y2="859.76" gradientUnits="userSpaceOnUse">
<stop stop-color="#0A4432"/>
<stop offset="1" stop-color="#5EDCA8"/>
</linearGradient>
<linearGradient id="paint24_linear_6_50" x1="1340.55" y1="439.222" x2="-48.9132" y2="872.733" gradientUnits="userSpaceOnUse">
<stop stop-color="#0A4432"/>
<stop offset="1" stop-color="#5EDCA8"/>
</linearGradient>
<linearGradient id="paint25_linear_6_50" x1="1342.84" y1="429.36" x2="-33.8949" y2="885.415" gradientUnits="userSpaceOnUse">
<stop stop-color="#0A4432"/>
<stop offset="1" stop-color="#5EDCA8"/>
</linearGradient>
<linearGradient id="paint26_linear_6_50" x1="1344.86" y1="419.511" x2="-18.7871" y2="897.799" gradientUnits="userSpaceOnUse">
<stop stop-color="#0A4432"/>
<stop offset="1" stop-color="#5EDCA8"/>
</linearGradient>
<linearGradient id="paint27_linear_6_50" x1="1346.64" y1="409.698" x2="-3.56727" y2="909.901" gradientUnits="userSpaceOnUse">
<stop stop-color="#0A4432"/>
<stop offset="1" stop-color="#5EDCA8"/>
</linearGradient>
<linearGradient id="paint28_linear_6_50" x1="1348.16" y1="399.926" x2="11.7464" y2="921.721" gradientUnits="userSpaceOnUse">
<stop stop-color="#0A4432"/>
<stop offset="1" stop-color="#5EDCA8"/>
</linearGradient>
<linearGradient id="paint29_linear_6_50" x1="1349.42" y1="390.185" x2="27.1367" y2="933.245" gradientUnits="userSpaceOnUse">
<stop stop-color="#0A4432"/>
<stop offset="1" stop-color="#5EDCA8"/>
</linearGradient>
<linearGradient id="paint30_linear_6_50" x1="1350.44" y1="380.496" x2="42.6166" y2="944.485" gradientUnits="userSpaceOnUse">
<stop stop-color="#0A4432"/>
<stop offset="1" stop-color="#5EDCA8"/>
</linearGradient>
<linearGradient id="paint31_linear_6_50" x1="1351.17" y1="370.861" x2="58.1455" y2="955.442" gradientUnits="userSpaceOnUse">
<stop stop-color="#0A4432"/>
<stop offset="1" stop-color="#5EDCA8"/>
</linearGradient>
<linearGradient id="paint32_linear_6_50" x1="1351.69" y1="361.265" x2="73.7759" y2="966.094" gradientUnits="userSpaceOnUse">
<stop stop-color="#0A4432"/>
<stop offset="1" stop-color="#5EDCA8"/>
</linearGradient>
<linearGradient id="paint33_linear_6_50" x1="1351.94" y1="351.747" x2="89.4434" y2="976.474" gradientUnits="userSpaceOnUse">
<stop stop-color="#0A4432"/>
<stop offset="1" stop-color="#5EDCA8"/>
</linearGradient>
<linearGradient id="paint34_linear_6_50" x1="1351.95" y1="342.275" x2="105.177" y2="986.548" gradientUnits="userSpaceOnUse">
<stop stop-color="#0A4432"/>
<stop offset="1" stop-color="#5EDCA8"/>
</linearGradient>
<linearGradient id="paint35_linear_6_50" x1="1351.7" y1="332.889" x2="120.959" y2="996.349" gradientUnits="userSpaceOnUse">
<stop stop-color="#0A4432"/>
<stop offset="1" stop-color="#5EDCA8"/>
</linearGradient>
<linearGradient id="paint36_linear_6_50" x1="1351.21" y1="323.576" x2="136.772" y2="1005.86" gradientUnits="userSpaceOnUse">
<stop stop-color="#0A4432"/>
<stop offset="1" stop-color="#5EDCA8"/>
</linearGradient>
<linearGradient id="paint37_linear_6_50" x1="1350.47" y1="314.337" x2="152.629" y2="1015.08" gradientUnits="userSpaceOnUse">
<stop stop-color="#0A4432"/>
<stop offset="1" stop-color="#5EDCA8"/>
</linearGradient>
<linearGradient id="paint38_linear_6_50" x1="1349.47" y1="305.183" x2="168.49" y2="1024.02" gradientUnits="userSpaceOnUse">
<stop stop-color="#0A4432"/>
<stop offset="1" stop-color="#5EDCA8"/>
</linearGradient>
<linearGradient id="paint39_linear_6_50" x1="1348.26" y1="296.122" x2="184.408" y2="1032.67" gradientUnits="userSpaceOnUse">
<stop stop-color="#0A4432"/>
<stop offset="1" stop-color="#5EDCA8"/>
</linearGradient>
<linearGradient id="paint40_linear_6_50" x1="1346.79" y1="287.149" x2="200.332" y2="1041.03" gradientUnits="userSpaceOnUse">
<stop stop-color="#0A4432"/>
<stop offset="1" stop-color="#5EDCA8"/>
</linearGradient>
<linearGradient id="paint41_linear_6_50" x1="1345.1" y1="278.29" x2="216.27" y2="1049.13" gradientUnits="userSpaceOnUse">
<stop stop-color="#0A4432"/>
<stop offset="1" stop-color="#5EDCA8"/>
</linearGradient>
<linearGradient id="paint42_linear_6_50" x1="1343.15" y1="269.535" x2="232.204" y2="1056.94" gradientUnits="userSpaceOnUse">
<stop stop-color="#0A4432"/>
<stop offset="1" stop-color="#5EDCA8"/>
</linearGradient>
<linearGradient id="paint43_linear_6_50" x1="1340.98" y1="260.881" x2="248.148" y2="1064.47" gradientUnits="userSpaceOnUse">
<stop stop-color="#0A4432"/>
<stop offset="1" stop-color="#5EDCA8"/>
</linearGradient>
<linearGradient id="paint44_linear_6_50" x1="1338.57" y1="252.348" x2="264.069" y2="1071.72" gradientUnits="userSpaceOnUse">
<stop stop-color="#0A4432"/>
<stop offset="1" stop-color="#5EDCA8"/>
</linearGradient>
<linearGradient id="paint45_linear_6_50" x1="1335.95" y1="243.924" x2="280.003" y2="1078.69" gradientUnits="userSpaceOnUse">
<stop stop-color="#0A4432"/>
<stop offset="1" stop-color="#5EDCA8"/>
</linearGradient>
<linearGradient id="paint46_linear_6_50" x1="1333.1" y1="235.621" x2="295.911" y2="1085.39" gradientUnits="userSpaceOnUse">
<stop stop-color="#0A4432"/>
<stop offset="1" stop-color="#5EDCA8"/>
</linearGradient>
<linearGradient id="paint47_linear_6_50" x1="1330.01" y1="227.462" x2="311.791" y2="1091.83" gradientUnits="userSpaceOnUse">
<stop stop-color="#0A4432"/>
<stop offset="1" stop-color="#5EDCA8"/>
</linearGradient>
<linearGradient id="paint48_linear_6_50" x1="1326.74" y1="219.428" x2="327.672" y2="1097.99" gradientUnits="userSpaceOnUse">
<stop stop-color="#0A4432"/>
<stop offset="1" stop-color="#5EDCA8"/>
</linearGradient>
<linearGradient id="paint49_linear_6_50" x1="1323.24" y1="211.531" x2="343.506" y2="1103.89" gradientUnits="userSpaceOnUse">
<stop stop-color="#0A4432"/>
<stop offset="1" stop-color="#5EDCA8"/>
</linearGradient>
<linearGradient id="paint50_linear_6_50" x1="1319.48" y1="203.768" x2="359.268" y2="1109.51" gradientUnits="userSpaceOnUse">
<stop stop-color="#0A4432"/>
<stop offset="1" stop-color="#5EDCA8"/>
</linearGradient>
<linearGradient id="paint51_linear_6_50" x1="1315.55" y1="196.161" x2="375.019" y2="1114.88" gradientUnits="userSpaceOnUse">
<stop stop-color="#0A4432"/>
<stop offset="1" stop-color="#5EDCA8"/>
</linearGradient>
<linearGradient id="paint52_linear_6_50" x1="1311.4" y1="188.704" x2="390.712" y2="1119.99" gradientUnits="userSpaceOnUse">
<stop stop-color="#0A4432"/>
<stop offset="1" stop-color="#5EDCA8"/>
</linearGradient>
<linearGradient id="paint53_linear_6_50" x1="1307.05" y1="181.385" x2="406.352" y2="1124.83" gradientUnits="userSpaceOnUse">
<stop stop-color="#0A4432"/>
<stop offset="1" stop-color="#5EDCA8"/>
</linearGradient>
<linearGradient id="paint54_linear_6_50" x1="1302.51" y1="174.242" x2="421.946" y2="1129.43" gradientUnits="userSpaceOnUse">
<stop stop-color="#0A4432"/>
<stop offset="1" stop-color="#5EDCA8"/>
</linearGradient>
<linearGradient id="paint55_linear_6_50" x1="1297.76" y1="167.246" x2="437.47" y2="1133.76" gradientUnits="userSpaceOnUse">
<stop stop-color="#0A4432"/>
<stop offset="1" stop-color="#5EDCA8"/>
</linearGradient>
<linearGradient id="paint56_linear_6_50" x1="1292.83" y1="160.423" x2="452.931" y2="1137.85" gradientUnits="userSpaceOnUse">
<stop stop-color="#0A4432"/>
<stop offset="1" stop-color="#5EDCA8"/>
</linearGradient>
<linearGradient id="paint57_linear_6_50" x1="1287.7" y1="153.774" x2="468.32" y2="1141.7" gradientUnits="userSpaceOnUse">
<stop stop-color="#0A4432"/>
<stop offset="1" stop-color="#5EDCA8"/>
</linearGradient>
<linearGradient id="paint58_linear_6_50" x1="1282.37" y1="147.298" x2="483.612" y2="1145.3" gradientUnits="userSpaceOnUse">
<stop stop-color="#0A4432"/>
<stop offset="1" stop-color="#5EDCA8"/>
</linearGradient>
<linearGradient id="paint59_linear_6_50" x1="1276.86" y1="140.993" x2="498.83" y2="1148.66" gradientUnits="userSpaceOnUse">
<stop stop-color="#0A4432"/>
<stop offset="1" stop-color="#5EDCA8"/>
</linearGradient>
<linearGradient id="paint60_linear_6_50" x1="1271.18" y1="134.867" x2="513.967" y2="1151.78" gradientUnits="userSpaceOnUse">
<stop stop-color="#0A4432"/>
<stop offset="1" stop-color="#5EDCA8"/>
</linearGradient>
<linearGradient id="paint61_linear_6_50" x1="1265.31" y1="128.926" x2="528.997" y2="1154.66" gradientUnits="userSpaceOnUse">
<stop stop-color="#0A4432"/>
<stop offset="1" stop-color="#5EDCA8"/>
</linearGradient>
<linearGradient id="paint62_linear_6_50" x1="1259.29" y1="123.183" x2="543.959" y2="1157.33" gradientUnits="userSpaceOnUse">
<stop stop-color="#0A4432"/>
<stop offset="1" stop-color="#5EDCA8"/>
</linearGradient>
<linearGradient id="paint63_linear_6_50" x1="1253.09" y1="117.624" x2="558.807" y2="1159.76" gradientUnits="userSpaceOnUse">
<stop stop-color="#0A4432"/>
<stop offset="1" stop-color="#5EDCA8"/>
</linearGradient>
<linearGradient id="paint64_linear_6_50" x1="1246.73" y1="112.27" x2="573.548" y2="1161.97" gradientUnits="userSpaceOnUse">
<stop stop-color="#0A4432"/>
<stop offset="1" stop-color="#5EDCA8"/>
</linearGradient>
<linearGradient id="paint65_linear_6_50" x1="1240.19" y1="107.103" x2="588.173" y2="1163.96" gradientUnits="userSpaceOnUse">
<stop stop-color="#0A4432"/>
<stop offset="1" stop-color="#5EDCA8"/>
</linearGradient>
<linearGradient id="paint66_linear_6_50" x1="1233.52" y1="102.139" x2="602.707" y2="1165.73" gradientUnits="userSpaceOnUse">
<stop stop-color="#0A4432"/>
<stop offset="1" stop-color="#5EDCA8"/>
</linearGradient>
<linearGradient id="paint67_linear_6_50" x1="1226.69" y1="97.373" x2="617.117" y2="1167.28" gradientUnits="userSpaceOnUse">
<stop stop-color="#0A4432"/>
<stop offset="1" stop-color="#5EDCA8"/>
</linearGradient>
<linearGradient id="paint68_linear_6_50" x1="1219.72" y1="92.8217" x2="631.405" y2="1168.63" gradientUnits="userSpaceOnUse">
<stop stop-color="#0A4432"/>
<stop offset="1" stop-color="#5EDCA8"/>
</linearGradient>
<linearGradient id="paint69_linear_6_50" x1="1212.59" y1="88.485" x2="645.57" y2="1169.78" gradientUnits="userSpaceOnUse">
<stop stop-color="#0A4432"/>
<stop offset="1" stop-color="#5EDCA8"/>
</linearGradient>
<linearGradient id="paint70_linear_6_50" x1="1205.33" y1="84.3627" x2="659.606" y2="1170.73" gradientUnits="userSpaceOnUse">
<stop stop-color="#0A4432"/>
<stop offset="1" stop-color="#5EDCA8"/>
</linearGradient>
<linearGradient id="paint71_linear_6_50" x1="1197.93" y1="80.4512" x2="673.504" y2="1171.48" gradientUnits="userSpaceOnUse">
<stop stop-color="#0A4432"/>
<stop offset="1" stop-color="#5EDCA8"/>
</linearGradient>
<linearGradient id="paint72_linear_6_50" x1="1190.4" y1="76.7502" x2="687.273" y2="1172.03" gradientUnits="userSpaceOnUse">
<stop stop-color="#0A4432"/>
<stop offset="1" stop-color="#5EDCA8"/>
</linearGradient>
<linearGradient id="paint73_linear_6_50" x1="1182.75" y1="73.2794" x2="700.907" y2="1172.4" gradientUnits="userSpaceOnUse">
<stop stop-color="#0A4432"/>
<stop offset="1" stop-color="#5EDCA8"/>
</linearGradient>
<linearGradient id="paint74_linear_6_50" x1="1174.99" y1="70.0307" x2="714.414" y2="1172.58" gradientUnits="userSpaceOnUse">
<stop stop-color="#0A4432"/>
<stop offset="1" stop-color="#5EDCA8"/>
</linearGradient>
<linearGradient id="paint75_linear_6_50" x1="1167.11" y1="67.0081" x2="727.772" y2="1172.59" gradientUnits="userSpaceOnUse">
<stop stop-color="#0A4432"/>
<stop offset="1" stop-color="#5EDCA8"/>
</linearGradient>
<linearGradient id="paint76_linear_6_50" x1="1159.12" y1="64.2152" x2="740.981" y2="1172.42" gradientUnits="userSpaceOnUse">
<stop stop-color="#0A4432"/>
<stop offset="1" stop-color="#5EDCA8"/>
</linearGradient>
<linearGradient id="paint77_linear_6_50" x1="1151.01" y1="61.6481" x2="754.028" y2="1172.07" gradientUnits="userSpaceOnUse">
<stop stop-color="#0A4432"/>
<stop offset="1" stop-color="#5EDCA8"/>
</linearGradient>
<linearGradient id="paint78_linear_6_50" x1="1142.79" y1="59.3105" x2="766.914" y2="1171.55" gradientUnits="userSpaceOnUse">
<stop stop-color="#0A4432"/>
<stop offset="1" stop-color="#5EDCA8"/>
</linearGradient>
<linearGradient id="paint79_linear_6_50" x1="1134.5" y1="57.2177" x2="779.679" y2="1170.88" gradientUnits="userSpaceOnUse">
<stop stop-color="#0A4432"/>
<stop offset="1" stop-color="#5EDCA8"/>
</linearGradient>
<linearGradient id="paint80_linear_6_50" x1="1126.11" y1="55.3461" x2="792.271" y2="1170.04" gradientUnits="userSpaceOnUse">
<stop stop-color="#0A4432"/>
<stop offset="1" stop-color="#5EDCA8"/>
</linearGradient>
<linearGradient id="paint81_linear_6_50" x1="1117.63" y1="53.7344" x2="804.707" y2="1169.07" gradientUnits="userSpaceOnUse">
<stop stop-color="#0A4432"/>
<stop offset="1" stop-color="#5EDCA8"/>
</linearGradient>
<linearGradient id="paint82_linear_6_50" x1="1109.05" y1="52.3471" x2="816.966" y2="1167.93" gradientUnits="userSpaceOnUse">
<stop stop-color="#0A4432"/>
<stop offset="1" stop-color="#5EDCA8"/>
</linearGradient>
<linearGradient id="paint83_linear_6_50" x1="1100.42" y1="51.2151" x2="829.073" y2="1166.66" gradientUnits="userSpaceOnUse">
<stop stop-color="#0A4432"/>
<stop offset="1" stop-color="#5EDCA8"/>
</linearGradient>
<linearGradient id="paint84_linear_6_50" x1="1091.71" y1="50.3068" x2="841.015" y2="1165.23" gradientUnits="userSpaceOnUse">
<stop stop-color="#0A4432"/>
<stop offset="1" stop-color="#5EDCA8"/>
</linearGradient>
<linearGradient id="paint85_linear_6_50" x1="1082.91" y1="49.6451" x2="852.771" y2="1163.67" gradientUnits="userSpaceOnUse">
<stop stop-color="#0A4432"/>
<stop offset="1" stop-color="#5EDCA8"/>
</linearGradient>
<linearGradient id="paint86_linear_6_50" x1="1074.08" y1="49.2452" x2="864.382" y2="1162" gradientUnits="userSpaceOnUse">
<stop stop-color="#0A4432"/>
<stop offset="1" stop-color="#5EDCA8"/>
</linearGradient>
<linearGradient id="paint87_linear_6_50" x1="1065.17" y1="49.0831" x2="875.805" y2="1160.18" gradientUnits="userSpaceOnUse">
<stop stop-color="#0A4432"/>
<stop offset="1" stop-color="#5EDCA8"/>
</linearGradient>
<linearGradient id="paint88_linear_6_50" x1="1056.23" y1="49.1698" x2="887.066" y2="1158.25" gradientUnits="userSpaceOnUse">
<stop stop-color="#0A4432"/>
<stop offset="1" stop-color="#5EDCA8"/>
</linearGradient>
<linearGradient id="paint89_linear_6_50" x1="1047.24" y1="49.5087" x2="898.152" y2="1156.21" gradientUnits="userSpaceOnUse">
<stop stop-color="#0A4432"/>
<stop offset="1" stop-color="#5EDCA8"/>
</linearGradient>
<linearGradient id="paint90_linear_6_50" x1="1038.19" y1="50.0913" x2="909.05" y2="1154.05" gradientUnits="userSpaceOnUse">
<stop stop-color="#0A4432"/>
<stop offset="1" stop-color="#5EDCA8"/>
</linearGradient>
<linearGradient id="paint91_linear_6_50" x1="1029.12" y1="50.9247" x2="919.78" y2="1151.78" gradientUnits="userSpaceOnUse">
<stop stop-color="#0A4432"/>
<stop offset="1" stop-color="#5EDCA8"/>
</linearGradient>
<linearGradient id="paint92_linear_6_50" x1="1020.01" y1="52.0041" x2="930.322" y2="1149.41" gradientUnits="userSpaceOnUse">
<stop stop-color="#0A4432"/>
<stop offset="1" stop-color="#5EDCA8"/>
</linearGradient>
<linearGradient id="paint93_linear_6_50" x1="1010.88" y1="53.3405" x2="940.695" y2="1146.94" gradientUnits="userSpaceOnUse">
<stop stop-color="#0A4432"/>
<stop offset="1" stop-color="#5EDCA8"/>
</linearGradient>
<linearGradient id="paint94_linear_6_50" x1="1001.73" y1="54.9291" x2="950.88" y2="1144.38" gradientUnits="userSpaceOnUse">
<stop stop-color="#0A4432"/>
<stop offset="1" stop-color="#5EDCA8"/>
</linearGradient>
<linearGradient id="paint95_linear_6_50" x1="992.568" y1="56.7807" x2="960.895" y2="1141.74" gradientUnits="userSpaceOnUse">
<stop stop-color="#0A4432"/>
<stop offset="1" stop-color="#5EDCA8"/>
</linearGradient>
<linearGradient id="paint96_linear_6_50" x1="983.378" y1="58.8747" x2="970.706" y2="1139.01" gradientUnits="userSpaceOnUse">
<stop stop-color="#0A4432"/>
<stop offset="1" stop-color="#5EDCA8"/>
</linearGradient>
<linearGradient id="paint97_linear_6_50" x1="974.198" y1="61.2258" x2="980.349" y2="1136.21" gradientUnits="userSpaceOnUse">
<stop stop-color="#0A4432"/>
<stop offset="1" stop-color="#5EDCA8"/>
</linearGradient>
<linearGradient id="paint98_linear_6_50" x1="965.007" y1="63.8211" x2="989.797" y2="1133.32" gradientUnits="userSpaceOnUse">
<stop stop-color="#0A4432"/>
<stop offset="1" stop-color="#5EDCA8"/>
</linearGradient>
<linearGradient id="paint99_linear_6_50" x1="955.822" y1="66.679" x2="999.062" y2="1130.37" gradientUnits="userSpaceOnUse">
<stop stop-color="#0A4432"/>
<stop offset="1" stop-color="#5EDCA8"/>
</linearGradient>
<clipPath id="clip0_6_50">
<rect width="1440" height="1070" fill="white"/>
</clipPath>
</defs>
</svg>
