<svg width="26" height="32" viewBox="0 0 26 32" fill="none" xmlns="http://www.w3.org/2000/svg">
<path fill-rule="evenodd" clip-rule="evenodd" d="M4.37339 23.7524V29.4042H12.3304C16.2202 29.4042 21.4893 26.5241 21.4893 22.9708L16.1189 25.7337C15.3787 26.1147 14.5433 26.3148 13.6932 26.3148H9.7291L19.9513 20.3519L13.6854 20.4773C12.752 20.4928 11.9859 19.8052 11.9859 18.9527C11.9859 18.1104 12.7335 17.4275 13.6555 17.4275H25.8655V20.0228C25.8655 26.6377 19.9952 32 12.7537 32H0V21.1972C0 14.2753 3.60894 7.70561 9.83324 3.76153C13.5767 1.38891 18.1179 0 23.017 0H26V3.99756C20.0268 3.99756 13.8255 5.48212 9.91205 9.05698C5.99857 12.6319 4.37339 18.2986 4.37339 23.7529V23.7524Z" fill="#00A965"/>
</svg>
