<svg width="946" height="2233" viewBox="0 0 946 2233" fill="none" xmlns="http://www.w3.org/2000/svg">
<path d="M-925.088 824.088C-902.045 720.486 -835.35 622.211 -748.31 559.747C-661.16 497.205 -543.308 448.566 -442.44 477.432C-380.355 495.2 -337.841 544.909 -295.759 597.291C-253.824 649.49 -212.312 704.369 -152.347 731.016C-139.194 736.861 -125.988 735.587 -112.901 730.717C-99.8687 725.867 -86.7796 717.386 -73.7457 708.609C-60.6385 699.783 -47.5792 690.653 -34.3808 684.225C-21.2018 677.806 -8.10572 674.199 5.03526 676.226C17.9178 678.214 28.7426 684.962 38.635 694.204C48.5518 703.467 57.4006 715.106 66.3987 726.757C75.3491 738.345 84.4484 749.945 94.7493 758.821C105.084 767.725 116.742 773.99 130.829 774.771C162.86 776.547 195.72 768.566 228.517 756.795C261.282 745.035 294.233 729.391 326.258 715.798C390.63 688.475 451.186 669.503 502.569 703.573C512.201 709.96 518.487 717.497 522.19 725.955C525.9 734.429 527.071 743.943 526.283 754.347C524.701 775.224 515.266 799.357 503.207 825.109C491.223 850.702 476.576 878.022 465.022 904.666C453.444 931.366 444.752 957.842 444.657 982.157C444.51 1020.08 454.696 1055.87 466.687 1091.22C478.707 1126.66 492.498 1161.56 499.85 1198.11C504.687 1222.16 512.521 1246.5 520.886 1270.83C529.264 1295.2 538.161 1319.52 545.204 1343.69C559.291 1392.04 565.799 1439.28 545.88 1483.79C526.952 1526.08 484.884 1546.5 438.24 1564.5C415.027 1573.46 390.646 1581.83 367.838 1591.99C344.997 1602.17 323.538 1614.21 306.044 1630.64C286.791 1648.72 272.174 1674.04 259.475 1701.52C246.808 1728.93 235.871 1758.93 224.264 1786.06C212.595 1813.33 200.183 1837.86 184.402 1855.06C168.698 1872.16 149.721 1881.93 124.731 1879.87C91.6638 1877.13 65.8214 1861.41 43.6823 1838.35C21.5016 1815.25 3.12146 1784.87 -14.999 1752.97C-33.0782 1721.15 -50.9038 1687.8 -71.8912 1659.1C-92.8936 1630.37 -117.19 1606.12 -148.343 1592.56C-166.91 1584.47 -185.674 1585.17 -204.486 1590.57C-223.251 1595.96 -242.18 1606.07 -261.157 1616.93C-280.201 1627.83 -299.279 1639.48 -318.583 1648.19C-337.866 1656.89 -357.177 1662.57 -376.587 1661.6C-416.636 1659.62 -452.966 1644.46 -488.721 1625.92C-524.356 1607.43 -559.622 1585.44 -596.986 1570.29C-623.48 1559.55 -652.594 1552.29 -682.234 1545.96C-711.938 1539.61 -742.067 1534.21 -770.896 1527.15C-828.534 1513.04 -880.068 1492.48 -910.149 1445.49C-937.761 1402.36 -928.877 1351.47 -913.003 1297.63C-905.118 1270.89 -895.438 1243.2 -887.978 1215.93C-880.491 1188.58 -875.114 1161.24 -875.761 1134.7C-877.063 1081.32 -895.288 1029.29 -910.138 977.975C-925.028 926.521 -936.566 875.697 -925.088 824.088Z" stroke="#0E3322" stroke-width="3.72718"/>
<path d="M-916.198 827.45C-893.438 725.071 -827.541 627.961 -741.537 566.242C-655.421 504.443 -538.968 456.391 -439.295 484.925C-377.947 502.488 -335.933 551.613 -294.34 603.385C-252.895 654.975 -211.864 709.218 -152.596 735.561C-139.59 741.342 -126.534 740.083 -113.597 735.27C-100.716 730.477 -87.7802 722.095 -74.9009 713.422C-61.9482 704.7 -49.0447 695.68 -36.004 689.329C-22.9832 682.989 -10.0471 679.427 2.93276 681.431C15.658 683.396 26.353 690.062 36.1281 699.194C45.9276 708.349 54.6721 719.851 63.5659 731.366C72.4119 742.819 81.4064 754.286 91.5889 763.06C101.805 771.863 113.33 778.058 127.258 778.832C158.916 780.59 191.393 772.705 223.803 761.075C256.181 749.456 288.745 733.998 320.39 720.568C384.002 693.572 443.833 674.834 494.603 708.502C504.12 714.813 510.329 722.259 513.988 730.614C517.654 738.984 518.811 748.384 518.033 758.663C516.472 779.29 507.153 803.136 495.239 828.585C483.399 853.875 468.926 880.875 457.511 907.205C446.071 933.592 437.482 959.759 437.391 983.793C437.249 1021.28 447.319 1056.65 459.173 1091.59C471.055 1126.61 484.686 1161.11 491.955 1197.23C496.738 1220.99 504.482 1245.05 512.751 1269.09C521.033 1293.18 529.828 1317.21 536.791 1341.1C550.716 1388.88 557.149 1435.56 537.472 1479.54C518.775 1521.32 477.214 1541.5 431.121 1559.28C408.183 1568.13 384.088 1576.41 361.548 1586.45C338.976 1596.5 317.769 1608.41 300.48 1624.64C281.452 1642.51 267.007 1667.53 254.46 1694.69C241.945 1721.78 231.139 1751.43 219.673 1778.23C208.143 1805.18 195.881 1829.43 180.29 1846.41C164.777 1863.31 146.031 1872.96 121.343 1870.92C88.6719 1868.22 63.1367 1852.68 41.2586 1829.89C19.3387 1807.06 1.17254 1777.04 -16.7378 1745.51C-34.6068 1714.06 -52.2256 1681.09 -72.9696 1652.73C-93.7287 1624.34 -117.744 1600.37 -148.537 1586.95C-166.892 1578.96 -185.44 1579.65 -204.034 1584.98C-222.581 1590.31 -241.288 1600.3 -260.04 1611.03C-278.86 1621.8 -297.71 1633.31 -316.785 1641.92C-335.839 1650.52 -354.918 1656.12 -374.094 1655.17C-413.667 1653.2 -449.567 1638.22 -484.902 1619.89C-520.117 1601.62 -554.974 1579.88 -591.901 1564.9C-618.086 1554.28 -646.858 1547.11 -676.15 1540.85C-705.506 1534.57 -735.28 1529.23 -763.77 1522.25C-820.73 1508.3 -871.652 1487.98 -901.379 1441.55C-928.664 1398.93 -919.893 1348.64 -904.21 1295.44C-896.422 1269.01 -886.857 1241.65 -879.487 1214.7C-872.092 1187.67 -866.78 1160.65 -867.422 1134.42C-868.713 1081.66 -886.731 1030.24 -901.411 979.523C-916.131 928.671 -927.536 878.446 -916.198 827.45Z" stroke="#0E3322" stroke-width="3.72718"/>
<path d="M-907.302 830.806C-884.824 729.65 -819.726 633.704 -734.756 572.729C-649.674 511.673 -534.621 464.21 -436.143 492.412C-375.532 509.771 -334.016 558.31 -292.914 609.473C-251.959 660.452 -211.407 714.061 -152.836 740.1C-139.979 745.816 -127.072 744.572 -114.287 739.816C-101.557 735.08 -88.773 726.798 -76.0483 718.23C-63.2501 709.612 -50.5032 700.701 -37.6202 694.429C-24.757 688.165 -11.9799 684.649 0.83946 686.63C13.4073 688.572 23.9711 695.157 33.6287 704.18C43.3109 713.226 51.9516 724.59 60.7409 735.97C69.4824 747.288 78.3724 758.621 88.4363 767.293C98.5337 775.994 109.926 782.12 123.694 782.886C154.98 784.628 187.072 776.838 219.096 765.349C251.089 753.871 283.265 738.599 314.53 725.332C377.383 698.662 436.487 680.159 486.645 713.425C496.046 719.66 502.179 727.015 505.794 735.267C509.415 743.534 510.558 752.818 509.791 762.973C508.251 783.351 499.047 806.91 487.277 832.055C475.582 857.041 461.283 883.722 450.007 909.738C438.706 935.811 430.22 961.671 430.133 985.424C429.997 1022.47 439.951 1057.42 451.667 1091.95C463.411 1126.56 476.883 1160.64 484.069 1196.33C488.797 1219.82 496.452 1243.59 504.625 1267.35C512.811 1291.15 521.502 1314.9 528.384 1338.51C542.148 1385.72 548.508 1431.84 529.073 1475.28C510.607 1516.56 469.552 1536.49 424.009 1554.06C401.347 1562.8 377.537 1570.98 355.267 1580.9C332.963 1590.83 312.007 1602.59 294.924 1618.63C276.121 1636.29 261.85 1661.01 249.455 1687.85C237.091 1714.62 226.415 1743.92 215.09 1770.4C203.7 1797.03 191.588 1820.98 176.187 1837.76C160.864 1854.45 142.349 1863.99 117.963 1861.96C85.6879 1859.29 60.4597 1843.94 38.8426 1821.42C17.1838 1798.86 -0.767377 1769.2 -18.4675 1738.04C-36.1263 1706.96 -53.5396 1674.39 -74.0402 1646.35C-94.5559 1618.3 -118.291 1594.6 -148.723 1581.35C-166.866 1573.44 -185.199 1574.12 -203.574 1579.39C-221.902 1584.65 -240.387 1594.52 -258.914 1605.12C-277.51 1615.77 -296.133 1627.14 -314.978 1635.64C-333.803 1644.13 -352.651 1649.67 -371.594 1648.72C-410.691 1646.78 -446.161 1631.98 -481.077 1613.86C-515.872 1595.8 -550.318 1574.32 -586.807 1559.51C-612.683 1549.01 -641.116 1541.92 -670.059 1535.73C-699.067 1529.53 -728.484 1524.25 -756.635 1517.35C-812.917 1503.56 -863.227 1483.47 -892.599 1437.6C-919.558 1395.49 -910.9 1345.81 -895.41 1293.24C-887.717 1267.13 -878.269 1240.09 -870.99 1213.47C-863.685 1186.75 -858.438 1160.05 -859.075 1134.13C-860.356 1081.99 -878.166 1031.18 -892.675 981.065C-907.225 930.815 -918.498 881.19 -907.302 830.806Z" stroke="#0E3322" stroke-width="3.72718"/>
<path d="M-898.405 834.163C-876.209 734.231 -811.91 639.449 -727.976 579.219C-643.928 518.907 -530.274 472.03 -432.991 499.901C-373.116 517.054 -332.1 565.009 -291.487 615.562C-251.022 665.932 -210.951 718.906 -153.078 744.641C-140.367 750.293 -127.61 749.064 -114.976 744.365C-102.397 739.686 -89.7659 731.503 -77.1956 723.039C-64.552 714.526 -51.9615 705.725 -39.2364 699.53C-26.5309 693.344 -13.9131 689.873 -1.25446 691.83C11.156 693.749 21.5894 700.253 31.1296 709.167C40.6942 718.103 49.2305 729.331 57.9153 740.575C66.5524 751.758 75.3375 762.958 85.2829 771.529C95.2618 780.129 106.523 786.185 120.131 786.943C151.044 788.667 182.751 780.973 214.39 769.625C245.996 758.288 277.784 743.202 308.67 730.098C370.763 703.754 429.143 685.485 478.688 718.349C487.973 724.508 494.029 731.773 497.599 739.922C501.175 748.086 502.306 757.255 501.549 767.285C500.03 787.413 490.941 810.684 479.316 835.527C467.765 860.209 453.641 886.572 442.503 912.274C431.341 938.033 422.958 963.584 422.874 987.057C422.744 1023.66 432.583 1058.2 444.162 1092.31C455.768 1126.51 469.079 1160.18 476.182 1195.44C480.855 1218.65 488.421 1242.13 496.498 1265.61C504.588 1289.13 513.177 1312.59 519.978 1335.92C533.581 1382.56 539.866 1428.12 520.674 1471.03C502.439 1511.8 461.889 1531.48 416.897 1548.84C394.51 1557.47 370.987 1565.55 348.985 1575.35C326.951 1585.16 306.246 1596.78 289.368 1612.63C270.79 1630.07 256.692 1654.5 244.449 1681.02C232.237 1707.46 221.692 1736.41 210.506 1762.57C199.257 1788.88 187.294 1812.54 172.083 1829.11C156.95 1845.6 138.666 1855.01 114.584 1853.01C82.7036 1850.37 57.7823 1835.2 36.4261 1812.95C15.0281 1790.66 -2.70858 1761.36 -20.1985 1730.58C-37.6471 1699.87 -54.8543 1667.68 -75.1115 1639.98C-95.3838 1612.26 -118.838 1588.84 -148.91 1575.74C-166.84 1567.93 -184.958 1568.59 -203.114 1573.8C-221.223 1579 -239.487 1588.75 -257.79 1599.22C-276.161 1609.73 -294.558 1620.97 -313.173 1629.36C-331.769 1637.75 -350.385 1643.22 -369.094 1642.28C-407.714 1640.36 -442.755 1625.73 -477.25 1607.83C-511.625 1589.98 -545.661 1568.75 -581.713 1554.12C-607.28 1543.75 -635.372 1536.74 -663.968 1530.62C-692.627 1524.48 -721.69 1519.27 -749.502 1512.45C-805.105 1498.82 -854.803 1478.97 -883.821 1433.65C-910.453 1392.06 -901.908 1342.98 -886.61 1291.04C-879.014 1265.25 -869.68 1238.53 -862.492 1212.23C-855.277 1185.84 -850.096 1159.46 -850.728 1133.84C-852 1082.33 -869.601 1032.12 -883.94 982.607C-898.32 932.96 -909.459 883.935 -898.405 834.163Z" stroke="#0E3322" stroke-width="3.72718"/>
<path d="M-889.512 837.518C-867.6 738.809 -804.097 645.191 -721.198 585.705C-638.184 526.136 -525.931 479.846 -429.842 507.386C-370.704 524.335 -330.187 571.705 -290.065 621.648C-250.089 671.408 -210.498 723.747 -153.323 749.177C-140.76 754.765 -128.152 753.551 -115.668 748.909C-103.24 744.288 -90.7626 736.204 -78.3469 727.845C-65.8579 719.436 -53.4238 710.745 -40.8565 704.627C-28.3089 698.518 -15.8502 695.092 -3.35229 697.026C8.901 698.922 19.2034 705.346 28.6264 714.151C38.0737 722.978 46.506 734.068 55.0864 745.177C63.619 756.224 72.299 767.29 82.1258 775.76C91.9862 784.258 103.115 790.245 116.564 790.996C147.104 792.703 178.427 785.104 209.679 773.897C240.899 762.701 272.299 747.801 302.806 734.861C364.14 708.843 421.794 690.808 470.726 723.27C479.895 729.353 485.875 736.527 489.4 744.573C492.932 752.634 494.05 761.687 493.304 771.592C491.806 791.471 482.833 814.456 471.351 838.995C459.945 863.374 445.994 889.416 434.995 914.805C423.971 940.25 415.692 965.494 415.612 988.685C415.487 1024.85 425.21 1058.97 436.651 1092.67C448.12 1126.46 461.272 1159.72 468.291 1194.55C472.911 1217.47 480.387 1240.68 488.368 1263.87C496.361 1287.1 504.847 1310.28 511.568 1333.32C525.009 1379.4 531.22 1424.4 512.27 1466.78C494.266 1507.04 454.223 1526.47 409.781 1543.61C387.669 1552.14 364.432 1560.11 342.7 1569.79C320.934 1579.48 300.481 1590.96 283.808 1606.62C265.456 1623.85 251.53 1647.99 239.439 1674.18C227.379 1700.3 216.964 1728.9 205.919 1754.74C194.809 1780.72 182.996 1804.09 167.976 1820.46C153.033 1836.74 134.98 1846.03 111.198 1844.06C79.7145 1841.44 55.1014 1826.46 34.0062 1804.48C12.8693 1782.46 -4.65237 1753.51 -21.9321 1723.1C-39.1705 1692.77 -56.1727 1660.97 -76.1866 1633.6C-96.2155 1606.21 -119.388 1583.08 -149.1 1570.13C-166.818 1562.41 -184.72 1563.06 -202.658 1568.21C-220.549 1573.34 -238.591 1582.97 -256.669 1593.32C-274.815 1603.7 -292.985 1614.79 -311.371 1623.08C-329.737 1631.37 -348.122 1636.76 -366.597 1635.84C-404.742 1633.93 -439.353 1619.48 -473.428 1601.79C-507.383 1584.16 -541.009 1563.19 -576.624 1548.73C-601.882 1538.48 -629.633 1531.55 -657.881 1525.5C-686.192 1519.44 -714.899 1514.28 -742.372 1507.54C-797.297 1494.07 -846.383 1474.46 -875.047 1429.7C-901.352 1388.62 -892.919 1340.15 -877.813 1288.84C-870.313 1263.37 -861.096 1236.97 -853.998 1210.99C-846.874 1184.92 -841.758 1158.86 -842.385 1133.55C-843.647 1082.66 -861.039 1033.05 -875.208 984.146C-889.417 935.102 -900.425 886.677 -889.512 837.518Z" stroke="#0E3322" stroke-width="3.72718"/>
</svg>
