<svg width="112" height="96" viewBox="0 0 112 96" fill="none" xmlns="http://www.w3.org/2000/svg">
<path d="M96.0068 95.1279C99.0694 95.5461 102.873 95.5472 105.927 95.4414C107.45 95.3886 108.78 95.3091 109.729 95.2432C110.172 95.2124 110.532 95.185 110.789 95.1641V73.7158C110.659 73.715 110.507 73.7144 110.337 73.7119C109.751 73.7032 108.944 73.6821 108.064 73.6318C106.334 73.5329 104.224 73.3179 102.987 72.8232C100.65 71.8885 98.2141 70.4263 96.957 69.2842L96.8389 69.1768C95.4794 67.9436 94.5645 66.9416 93.8545 65.876C93.1446 64.8105 92.6533 63.7019 92.1191 62.2773C91.0251 59.3596 91.0369 55.0256 91.2998 51.4932C91.4323 49.7126 91.6314 48.1097 91.7969 46.9521C91.8796 46.3734 91.9539 45.9051 92.0078 45.5811C92.0348 45.4192 92.0571 45.2929 92.0723 45.207C92.0798 45.1641 92.0858 45.1307 92.0898 45.1084C92.0918 45.0974 92.0927 45.0888 92.0938 45.083C92.0943 45.0801 92.0954 45.0777 92.0957 45.0762V45.0742L92.1719 44.665H111.494V0.5H62.5625C62.562 0.565426 62.5611 0.637085 62.5605 0.714844C62.5573 1.17907 62.5529 1.86074 62.5479 2.72949C62.5377 4.46737 62.5253 6.95539 62.5156 9.95312C62.4962 15.9487 62.488 23.9856 62.5342 32.1504C62.5804 40.3159 62.6802 48.6064 62.877 55.1113C62.9753 58.3643 63.0977 61.1661 63.249 63.2803C63.3247 64.3379 63.4075 65.2181 63.4971 65.8936C63.5892 66.5887 63.6829 67.0137 63.7617 67.2012C65.487 71.3067 66.3916 73.3108 68.8447 77.3691C69.1694 77.9063 69.4699 78.411 69.7539 78.8896C71.3086 81.5092 72.4052 83.356 74.7705 85.7441C77.8604 88.8638 79.9878 90.3197 83.9766 92.1699C88.0292 94.0498 90.7434 94.4173 95.001 94.9912C95.3268 95.0351 95.6619 95.0808 96.0068 95.1279Z" stroke="#07DF84"/>
<path d="M34.0068 95.1279C37.0694 95.5461 40.873 95.5472 43.9268 95.4414C45.45 95.3886 46.7803 95.3091 47.7295 95.2432C48.1721 95.2124 48.5317 95.185 48.7891 95.1641V73.7158C48.6592 73.715 48.5073 73.7144 48.3369 73.7119C47.7508 73.7032 46.9441 73.6821 46.0645 73.6318C44.3337 73.5329 42.224 73.3179 40.9873 72.8232C38.6504 71.8885 36.2141 70.4263 34.957 69.2842L34.8389 69.1768C33.4794 67.9436 32.5645 66.9416 31.8545 65.876C31.1446 64.8105 30.6533 63.7019 30.1191 62.2773C29.0251 59.3596 29.0369 55.0256 29.2998 51.4932C29.4323 49.7126 29.6314 48.1097 29.7969 46.9521C29.8796 46.3734 29.9539 45.9051 30.0078 45.5811C30.0348 45.4192 30.0571 45.2929 30.0723 45.207C30.0798 45.1641 30.0858 45.1307 30.0898 45.1084C30.0918 45.0974 30.0927 45.0888 30.0938 45.083C30.0943 45.0801 30.0954 45.0777 30.0957 45.0762V45.0742L30.1719 44.665H49.4941V0.5H0.5625C0.562037 0.565426 0.561084 0.637085 0.560547 0.714844C0.557338 1.17907 0.55294 1.86074 0.547852 2.72949C0.537673 4.46737 0.525349 6.95539 0.515625 9.95312C0.496177 15.9487 0.488005 23.9856 0.53418 32.1504C0.580359 40.3159 0.680236 48.6064 0.876953 55.1113C0.97533 58.3643 1.09767 61.1661 1.24902 63.2803C1.32474 64.3379 1.40751 65.2181 1.49707 65.8936C1.58924 66.5887 1.68294 67.0137 1.76172 67.2012C3.48704 71.3067 4.39161 73.3108 6.84473 77.3691C7.16945 77.9063 7.46986 78.411 7.75391 78.8896C9.30857 81.5092 10.4052 83.356 12.7705 85.7441C15.8604 88.8638 17.9878 90.3197 21.9766 92.1699C26.0292 94.0498 28.7434 94.4173 33.001 94.9912C33.3268 95.0351 33.6619 95.0808 34.0068 95.1279Z" stroke="#07DF84"/>
</svg>
