<svg width="272" height="236" viewBox="0 0 272 236" fill="none" xmlns="http://www.w3.org/2000/svg">
<g style="mix-blend-mode:overlay" opacity="0.95">
<mask id="path-1-inside-1_694_9934" fill="white">
<path d="M271.235 236H148.494C148.494 236 147.275 80.4467 151.53 70.3211C155.785 60.1955 158.035 55.2109 164.107 45.1657C164.903 43.8499 165.637 42.613 166.336 41.4359C170.164 34.9858 172.925 30.3336 178.854 24.3474C186.558 16.569 191.909 12.9069 201.841 8.29999C211.984 3.59489 218.816 2.67404 229.296 1.26143C230.097 1.15341 230.92 1.04252 231.767 0.926843C247.038 -1.15851 269.5 0.926775 269.5 0.926775V56.0085C269.5 56.0085 255.201 55.857 249.549 58.1177C243.897 60.3784 238.045 63.9047 235.093 66.5875L234.803 66.8513C228.2 72.8405 226.129 76.393 223.526 83.3325C218.355 97.1218 223.526 124.969 223.526 124.969H271.235V236Z"/>
</mask>
<path d="M271.235 236H148.494C148.494 236 147.275 80.4467 151.53 70.3211C155.785 60.1955 158.035 55.2109 164.107 45.1657C164.903 43.8499 165.637 42.613 166.336 41.4359C170.164 34.9858 172.925 30.3336 178.854 24.3474C186.558 16.569 191.909 12.9069 201.841 8.29999C211.984 3.59489 218.816 2.67404 229.296 1.26143C230.097 1.15341 230.92 1.04252 231.767 0.926843C247.038 -1.15851 269.5 0.926775 269.5 0.926775V56.0085C269.5 56.0085 255.201 55.857 249.549 58.1177C243.897 60.3784 238.045 63.9047 235.093 66.5875L234.803 66.8513C228.2 72.8405 226.129 76.393 223.526 83.3325C218.355 97.1218 223.526 124.969 223.526 124.969H271.235V236Z" fill="url(#paint0_linear_694_9934)"/>
<path d="M271.235 236.434C271.235 236.145 271.235 235.855 271.235 235.566C258.689 235.602 246.144 235.637 233.598 235.672C205.242 235.752 176.885 235.831 148.529 235.913C148.517 235.913 148.505 235.913 148.494 235.913L148.581 235.999C148.57 235.219 148.48 234.102 148.475 233.276C148.28 200.929 148.246 168.632 148.585 136.328C148.987 114.984 148.684 93.4483 151.055 72.1603C151.082 72.0124 151.109 71.871 151.137 71.7363C151.167 71.5839 151.218 71.3515 151.26 71.1835C151.348 70.8295 151.437 70.541 151.53 70.3211C154.866 62.218 158.576 54.2522 163.146 46.7679C163.465 46.2328 163.781 45.7061 164.107 45.1657C164.538 44.4537 164.965 43.7401 165.391 43.0255C165.706 42.4959 166.021 41.9659 166.336 41.4359C169.883 35.3165 173.778 29.3218 178.854 24.3474C185.348 17.5143 193.22 12.0951 201.841 8.29999C210.415 4.1039 219.893 2.41748 229.296 1.26143C230.119 1.1504 230.943 1.03932 231.767 0.926843C244.281 -0.610301 256.969 -0.0476125 269.5 0.926775C269.5 19.2873 269.5 37.6479 269.5 56.0085C263.512 56.0435 257.439 56.1736 251.563 57.489C250.876 57.66 250.202 57.8577 249.549 58.1177C244.567 60.1635 239.753 62.7462 235.574 66.1654C235.412 66.303 235.248 66.4467 235.093 66.5875C234.997 66.6754 234.9 66.7634 234.803 66.8513C229.894 71.0982 225.892 76.4465 223.796 82.6211C223.705 82.8576 223.617 83.0913 223.526 83.3325C219.376 96.8185 221.447 111.263 223.507 124.973L223.51 124.989L223.526 124.989C239.429 125.003 255.332 125.026 271.235 125.057L271.147 124.969C271.1 149.434 271.034 173.899 270.948 198.363C270.904 210.909 270.855 223.454 270.801 236C271.09 236 271.379 236 271.669 236C271.615 223.454 271.566 210.909 271.522 198.363C271.436 173.899 271.37 149.434 271.322 124.969L271.322 124.882L271.235 124.882C255.332 124.912 239.429 124.935 223.526 124.95L223.546 124.966C221.461 111.265 219.376 96.8188 223.526 83.3325C223.617 83.0913 223.705 82.8576 223.796 82.6211C225.892 76.4465 229.894 71.0982 234.803 66.8513C234.9 66.7634 234.997 66.6754 235.093 66.5875C235.248 66.4467 235.412 66.303 235.574 66.1654C239.753 62.7462 244.567 60.1635 249.549 58.1177C250.202 57.8577 250.876 57.66 251.563 57.489C257.439 56.1736 263.512 56.0435 269.5 56.0085C269.5 37.6479 269.5 19.2873 269.5 0.926775C256.969 -0.0476125 244.281 -0.610301 231.767 0.926843C230.943 1.03932 230.119 1.1504 229.296 1.26143C219.893 2.41748 210.415 4.1039 201.841 8.29999C193.22 12.0951 185.348 17.5143 178.854 24.3474C173.778 29.3218 169.883 35.3165 166.336 41.4359C166.021 41.9659 165.706 42.4959 165.391 43.0255C164.965 43.7401 164.538 44.4537 164.107 45.1657C163.781 45.7061 163.465 46.2328 163.146 46.7679C158.576 54.2522 154.866 62.218 151.53 70.3211C151.437 70.541 151.348 70.8295 151.26 71.1835C151.218 71.3515 151.167 71.5839 151.137 71.7363C151.109 71.871 151.082 72.0124 151.055 72.1603C148.684 93.4483 148.987 114.984 148.585 136.328C148.246 168.632 148.28 200.929 148.475 233.276C148.48 234.102 148.405 235.22 148.407 236.001L148.408 236.087L148.494 236.087C148.505 236.087 148.517 236.087 148.529 236.087C176.885 236.169 205.242 236.248 233.598 236.328C246.144 236.363 258.689 236.398 271.235 236.434ZM271.235 235.566V236.434L271.67 236.432L271.669 236H270.801L271.235 235.566Z" fill="black" mask="url(#path-1-inside-1_694_9934)"/>
<mask id="path-3-inside-2_694_9934" fill="white">
<path d="M122.903 236H0.161796C0.161796 236 -1.05747 80.4467 3.19772 70.3211C7.45291 60.1955 9.70343 55.2109 15.7754 45.1657C16.5708 43.8499 17.3049 42.613 18.0035 41.4359C21.8315 34.9858 24.5926 30.3336 30.5217 24.3474C38.226 16.569 43.577 12.9069 53.5086 8.29999C63.6519 3.59489 70.4837 2.67404 80.9637 1.26143C81.765 1.15341 82.5877 1.04252 83.4349 0.926843C98.7064 -1.15851 121.168 0.926775 121.168 0.926775V56.0085C121.168 56.0085 106.869 55.857 101.217 58.1177C95.5655 60.3784 89.7133 63.9047 86.7614 66.5875L86.4709 66.8513C79.8682 72.8405 77.7966 76.393 75.1943 83.3325C70.0233 97.1218 75.1943 124.969 75.1943 124.969H122.903V236Z"/>
</mask>
<path d="M122.903 236H0.161796C0.161796 236 -1.05747 80.4467 3.19772 70.3211C7.45291 60.1955 9.70343 55.2109 15.7754 45.1657C16.5708 43.8499 17.3049 42.613 18.0035 41.4359C21.8315 34.9858 24.5926 30.3336 30.5217 24.3474C38.226 16.569 43.577 12.9069 53.5086 8.29999C63.6519 3.59489 70.4837 2.67404 80.9637 1.26143C81.765 1.15341 82.5877 1.04252 83.4349 0.926843C98.7064 -1.15851 121.168 0.926775 121.168 0.926775V56.0085C121.168 56.0085 106.869 55.857 101.217 58.1177C95.5655 60.3784 89.7133 63.9047 86.7614 66.5875L86.4709 66.8513C79.8682 72.8405 77.7966 76.393 75.1943 83.3325C70.0233 97.1218 75.1943 124.969 75.1943 124.969H122.903V236Z" fill="url(#paint1_linear_694_9934)"/>
<path d="M122.903 236.434C122.903 236.145 122.903 235.855 122.903 235.566C110.357 235.602 97.8118 235.637 85.2663 235.672C56.9098 235.752 28.5533 235.831 0.196729 235.913C0.185098 235.913 0.17344 235.913 0.161796 235.913L0.24881 235.999C0.238125 235.219 0.148023 234.102 0.142532 233.276C-0.0518927 200.929 -0.0862635 168.632 0.252577 136.328C0.654954 114.984 0.351774 93.4483 2.72285 72.1603C2.74982 72.0124 2.77706 71.871 2.80454 71.7363C2.83537 71.5839 2.88633 71.3515 2.92816 71.1835C3.01548 70.8295 3.10531 70.541 3.19772 70.3211C6.53425 62.218 10.2435 54.2522 14.8138 46.7679C15.1326 46.2328 15.4488 45.7061 15.7754 45.1657C16.2058 44.4537 16.6332 43.7401 17.0589 43.0255C17.3744 42.4959 17.689 41.9659 18.0035 41.4359C21.5512 35.3165 25.4458 29.3218 30.5217 24.3474C37.0157 17.5143 44.8875 12.0951 53.5086 8.29999C62.0825 4.1039 71.5605 2.41748 80.9637 1.26143C81.7874 1.1504 82.6112 1.03932 83.4349 0.926843C95.9488 -0.610301 108.637 -0.0476125 121.168 0.926775C121.168 19.2873 121.168 37.6479 121.168 56.0085C115.18 56.0435 109.107 56.1736 103.231 57.489C102.544 57.66 101.87 57.8577 101.217 58.1177C96.2345 60.1635 91.421 62.7462 87.2415 66.1654C87.08 66.303 86.9162 66.4467 86.7614 66.5875C86.6645 66.6754 86.5677 66.7634 86.4709 66.8513C81.5619 71.0982 77.56 76.4465 75.4639 82.6211C75.3732 82.8576 75.2847 83.0913 75.1943 83.3325C71.0439 96.8185 73.1153 111.263 75.1751 124.973L75.178 124.989L75.1943 124.989C91.0972 125.003 107 125.026 122.903 125.057L122.815 124.969C122.768 149.434 122.702 173.899 122.616 198.363C122.572 210.909 122.523 223.454 122.469 236C122.758 236 123.047 236 123.337 236C123.283 223.454 123.234 210.909 123.19 198.363C123.104 173.899 123.038 149.434 122.99 124.969L122.99 124.882L122.903 124.882C107 124.912 91.0972 124.935 75.1943 124.95L75.2135 124.966C73.1292 111.265 71.0442 96.8188 75.1943 83.3325C75.2847 83.0913 75.3732 82.8576 75.4639 82.6211C77.56 76.4465 81.5619 71.0982 86.4709 66.8513C86.5677 66.7634 86.6645 66.6754 86.7614 66.5875C86.9162 66.4467 87.08 66.303 87.2415 66.1654C91.421 62.7462 96.2345 60.1635 101.217 58.1177C101.87 57.8577 102.544 57.66 103.231 57.489C109.107 56.1736 115.18 56.0435 121.168 56.0085C121.168 37.6479 121.168 19.2873 121.168 0.926775C108.637 -0.0476125 95.9488 -0.610301 83.4349 0.926843C82.6112 1.03932 81.7874 1.1504 80.9637 1.26143C71.5605 2.41748 62.0825 4.1039 53.5086 8.29999C44.8875 12.0951 37.0157 17.5143 30.5217 24.3474C25.4458 29.3218 21.5512 35.3165 18.0035 41.4359C17.689 41.9659 17.3744 42.4959 17.0589 43.0255C16.6332 43.7401 16.2058 44.4537 15.7754 45.1657C15.4488 45.7061 15.1326 46.2328 14.8138 46.7679C10.2435 54.2522 6.53425 62.218 3.19772 70.3211C3.10531 70.541 3.01548 70.8295 2.92816 71.1835C2.88633 71.3515 2.83537 71.5839 2.80454 71.7363C2.77706 71.871 2.74982 72.0124 2.72285 72.1603C0.351774 93.4483 0.654954 114.984 0.252577 136.328C-0.0862635 168.632 -0.0518927 200.929 0.142532 233.276C0.148023 234.102 0.0734166 235.22 0.0747816 236.001L0.0758918 236.087L0.161796 236.087C0.17344 236.087 0.185098 236.087 0.196729 236.087C28.5533 236.169 56.9098 236.248 85.2663 236.328C97.8118 236.363 110.357 236.398 122.903 236.434ZM122.903 235.566V236.434L123.338 236.432L123.337 236H122.469L122.903 235.566Z" fill="black" mask="url(#path-3-inside-2_694_9934)"/>
</g>
<defs>
<linearGradient id="paint0_linear_694_9934" x1="211.382" y1="0" x2="211.382" y2="236" gradientUnits="userSpaceOnUse">
<stop stop-color="#8CC286"/>
<stop offset="1" stop-color="#21422F"/>
</linearGradient>
<linearGradient id="paint1_linear_694_9934" x1="63.0504" y1="0" x2="63.0504" y2="236" gradientUnits="userSpaceOnUse">
<stop stop-color="#8CC286"/>
<stop offset="1" stop-color="#21422F"/>
</linearGradient>
</defs>
</svg>
