<svg width="112" height="96" viewBox="0 0 112 96" fill="none" xmlns="http://www.w3.org/2000/svg">
<path d="M77.9854 95.1279C74.9228 95.5461 71.1192 95.5472 68.0654 95.4414C66.5422 95.3886 65.2118 95.3091 64.2627 95.2432C63.8201 95.2124 63.4605 95.185 63.2031 95.1641V73.7158C63.333 73.715 63.4849 73.7144 63.6553 73.7119C64.2414 73.7032 65.0481 73.6821 65.9277 73.6318C67.6585 73.5329 69.7682 73.3179 71.0049 72.8232C73.3417 71.8885 75.7781 70.4263 77.0352 69.2842L77.1533 69.1768C78.5128 67.9436 79.4277 66.9416 80.1377 65.876C80.8476 64.8105 81.3388 63.7019 81.873 62.2773C82.9671 59.3596 82.9553 55.0256 82.6924 51.4932C82.5599 49.7126 82.3608 48.1097 82.1953 46.9521C82.1126 46.3734 82.0383 45.9051 81.9844 45.5811C81.9574 45.4192 81.9351 45.2929 81.9199 45.207C81.9123 45.1641 81.9064 45.1307 81.9023 45.1084C81.9003 45.0974 81.8995 45.0888 81.8984 45.083C81.8979 45.0801 81.8968 45.0777 81.8965 45.0762V45.0742L81.8203 44.665H62.498V0.5H111.43C111.43 0.565426 111.431 0.637085 111.432 0.714844C111.435 1.17907 111.439 1.86074 111.444 2.72949C111.455 4.46737 111.467 6.95539 111.477 9.95312C111.496 15.9487 111.504 23.9856 111.458 32.1504C111.412 40.3159 111.312 48.6064 111.115 55.1113C111.017 58.3643 110.895 61.1661 110.743 63.2803C110.667 64.3379 110.585 65.2181 110.495 65.8936C110.403 66.5887 110.309 67.0137 110.23 67.2012C108.505 71.3067 107.601 73.3108 105.147 77.3691C104.823 77.9063 104.522 78.411 104.238 78.8896C102.684 81.5092 101.587 83.356 99.2217 85.7441C96.1318 88.8638 94.0044 90.3197 90.0156 92.1699C85.963 94.0498 83.2488 94.4173 78.9912 94.9912C78.6654 95.0351 78.3303 95.0808 77.9854 95.1279Z" stroke="#07DF84"/>
<path d="M15.9854 95.1279C12.9228 95.5461 9.1192 95.5472 6.06543 95.4414C4.54221 95.3886 3.21184 95.3091 2.2627 95.2432C1.82009 95.2124 1.46051 95.185 1.20312 95.1641V73.7158C1.33298 73.715 1.4849 73.7144 1.65527 73.7119C2.24139 73.7032 3.04807 73.6821 3.92773 73.6318C5.65853 73.5329 7.76821 73.3179 9.00488 72.8232C11.3417 71.8885 13.7781 70.4263 15.0352 69.2842L15.1533 69.1768C16.5128 67.9436 17.4277 66.9416 18.1377 65.876C18.8476 64.8105 19.3388 63.7019 19.873 62.2773C20.9671 59.3596 20.9553 55.0256 20.6924 51.4932C20.5599 49.7126 20.3608 48.1097 20.1953 46.9521C20.1126 46.3734 20.0383 45.9051 19.9844 45.5811C19.9574 45.4192 19.9351 45.2929 19.9199 45.207C19.9123 45.1641 19.9064 45.1307 19.9023 45.1084C19.9003 45.0974 19.8995 45.0888 19.8984 45.083C19.8979 45.0801 19.8968 45.0777 19.8965 45.0762V45.0742L19.8203 44.665H0.498047V0.5H49.4297C49.4302 0.565426 49.4311 0.637085 49.4316 0.714844C49.4348 1.17907 49.4392 1.86074 49.4443 2.72949C49.4545 4.46737 49.4668 6.95539 49.4766 9.95312C49.496 15.9487 49.5042 23.9856 49.458 32.1504C49.4118 40.3159 49.312 48.6064 49.1152 55.1113C49.0169 58.3643 48.8945 61.1661 48.7432 63.2803C48.6674 64.3379 48.5847 65.2181 48.4951 65.8936C48.4029 66.5887 48.3092 67.0137 48.2305 67.2012C46.5051 71.3067 45.6006 73.3108 43.1475 77.3691C42.8227 77.9063 42.5223 78.411 42.2383 78.8896C40.6836 81.5092 39.587 83.356 37.2217 85.7441C34.1318 88.8638 32.0044 90.3197 28.0156 92.1699C23.963 94.0498 21.2488 94.4173 16.9912 94.9912C16.6654 95.0351 16.3303 95.0808 15.9854 95.1279Z" stroke="#07DF84"/>
</svg>
