<svg width="258" height="224" viewBox="0 0 258 224" fill="none" xmlns="http://www.w3.org/2000/svg">
<mask id="path-1-inside-1_0_1" fill="white">
<path d="M-0.000465393 2.99985H114.938C114.938 2.99985 116.08 148.665 112.095 158.147C108.111 167.629 106.003 172.297 100.317 181.703C99.5724 182.936 98.885 184.094 98.2308 185.196C94.6461 191.236 92.0605 195.593 86.5083 201.198C79.2938 208.482 74.2829 211.912 64.9826 216.226C55.4841 220.632 49.0866 221.494 39.2728 222.817C38.5224 222.918 37.752 223.022 36.9587 223.13C22.658 225.083 1.62411 223.13 1.62411 223.13V171.55C1.62411 171.55 15.0142 171.692 20.3067 169.575C25.5992 167.458 31.0793 164.156 33.8436 161.643L34.1157 161.396C40.2987 155.788 42.2386 152.461 44.6754 145.963C49.5177 133.05 44.6754 106.973 44.6754 106.973H-0.000465393V2.99985Z"/>
</mask>
<path d="M-0.000465393 2.99985H114.938C114.938 2.99985 116.08 148.665 112.095 158.147C108.111 167.629 106.003 172.297 100.317 181.703C99.5724 182.936 98.885 184.094 98.2308 185.196C94.6461 191.236 92.0605 195.593 86.5083 201.198C79.2938 208.482 74.2829 211.912 64.9826 216.226C55.4841 220.632 49.0866 221.494 39.2728 222.817C38.5224 222.918 37.752 223.022 36.9587 223.13C22.658 225.083 1.62411 223.13 1.62411 223.13V171.55C1.62411 171.55 15.0142 171.692 20.3067 169.575C25.5992 167.458 31.0793 164.156 33.8436 161.643L34.1157 161.396C40.2987 155.788 42.2386 152.461 44.6754 145.963C49.5177 133.05 44.6754 106.973 44.6754 106.973H-0.000465393V2.99985Z" fill="url(#paint0_linear_0_1)"/>
<path d="M-0.000465393 2.5937C-0.000465393 2.86447 -0.000465393 3.13524 -0.000465393 3.40599C11.7476 3.37282 23.4957 3.33984 35.2437 3.3069C61.7977 3.23242 88.3516 3.15805 114.906 3.08147C114.917 3.08144 114.927 3.08139 114.938 3.08134L114.857 3.00049C114.867 3.73161 114.951 4.77676 114.956 5.55092C115.138 35.8419 115.171 66.0856 114.853 96.3356C114.477 116.324 114.76 136.49 112.54 156.425C112.515 156.563 112.489 156.696 112.464 156.822C112.435 156.964 112.387 157.182 112.348 157.339C112.266 157.671 112.182 157.941 112.095 158.147C108.971 165.735 105.498 173.194 101.218 180.203C100.919 180.704 100.623 181.197 100.317 181.703C99.9142 182.37 99.514 183.038 99.1154 183.708C98.8199 184.203 98.5253 184.7 98.2308 185.196C94.9086 190.927 91.2615 196.54 86.5083 201.198C80.4271 207.597 73.0557 212.672 64.9826 216.226C56.9538 220.155 48.0783 221.734 39.2728 222.817C38.5014 222.921 37.7299 223.025 36.9587 223.13C25.2402 224.57 13.359 224.043 1.62411 223.13C1.62411 205.937 1.62411 188.743 1.62411 171.55C7.23189 171.517 12.9182 171.395 18.4214 170.163C19.0638 170.003 19.6954 169.818 20.3067 169.575C24.9727 167.659 29.4802 165.24 33.394 162.039C33.5452 161.91 33.6986 161.775 33.8436 161.643C33.9343 161.561 34.025 161.479 34.1157 161.396C38.7126 157.419 42.4601 152.411 44.423 146.629C44.5079 146.407 44.5907 146.189 44.6754 145.963C48.562 133.334 46.6223 119.807 44.6934 106.969L44.6907 106.955L44.6754 106.955C29.7835 106.941 14.8915 106.92 -0.000465393 106.891L0.0814133 106.973C0.125694 84.0632 0.187935 61.1536 0.268135 38.244C0.309258 26.496 0.35511 14.7479 0.405678 2.99985C0.134918 2.99985 -0.135849 2.99985 -0.406609 2.99985C-0.356041 14.7479 -0.310188 26.496 -0.269066 38.244C-0.188866 61.1536 -0.126625 84.0632 -0.0823441 106.973L-0.0821838 107.055L-0.000465393 107.055C14.8915 107.026 29.7835 107.005 44.6754 106.991L44.6574 106.976C46.6093 119.806 48.5617 133.334 44.6754 145.963C44.5907 146.189 44.5079 146.407 44.423 146.629C42.4601 152.411 38.7126 157.419 34.1157 161.396C34.025 161.479 33.9343 161.561 33.8436 161.643C33.6986 161.775 33.5452 161.91 33.394 162.039C29.4802 165.24 24.9727 167.659 20.3067 169.575C19.6954 169.818 19.0638 170.003 18.4214 170.163C12.9182 171.395 7.23189 171.517 1.62411 171.55C1.62411 188.743 1.62411 205.937 1.62411 223.13C13.359 224.043 25.2402 224.57 36.9587 223.13C37.7299 223.025 38.5014 222.921 39.2728 222.817C48.0783 221.734 56.9538 220.155 64.9826 216.226C73.0557 212.672 80.4271 207.597 86.5083 201.198C91.2615 196.54 94.9086 190.927 98.2308 185.196C98.5253 184.7 98.8199 184.203 99.1154 183.708C99.514 183.038 99.9142 182.37 100.317 181.703C100.623 181.197 100.919 180.704 101.218 180.203C105.498 173.194 108.971 165.735 112.095 158.147C112.182 157.941 112.266 157.671 112.348 157.339C112.387 157.182 112.435 156.964 112.464 156.822C112.489 156.696 112.515 156.563 112.54 156.425C114.76 136.49 114.477 116.324 114.853 96.3356C115.171 66.0856 115.138 35.8419 114.956 5.55092C114.951 4.77676 115.021 3.73058 115.02 2.99921L115.019 2.91797L114.938 2.91837C114.927 2.91832 114.917 2.91827 114.906 2.91824C88.3516 2.84166 61.7977 2.76727 35.2437 2.69279C23.4957 2.65985 11.7476 2.62689 -0.000465393 2.5937ZM-0.000465393 3.40599V2.5937L-0.408356 2.59486L-0.406609 2.99985H0.405678L-0.000465393 3.40599Z" fill="black" mask="url(#path-1-inside-1_0_1)"/>
<mask id="path-3-inside-2_0_1" fill="white">
<path d="M142 -0.000152588H256.938C256.938 -0.000152588 258.08 145.665 254.095 155.147C250.111 164.629 248.003 169.297 242.317 178.703C241.572 179.936 240.885 181.094 240.231 182.196C236.646 188.236 234.06 192.593 228.508 198.198C221.294 205.482 216.283 208.912 206.983 213.226C197.484 217.632 191.087 218.494 181.273 219.817C180.522 219.918 179.752 220.022 178.959 220.13C164.658 222.083 143.624 220.13 143.624 220.13V168.55C143.624 168.55 157.014 168.692 162.307 166.575C167.599 164.458 173.079 161.156 175.844 158.643L176.116 158.396C182.299 152.788 184.239 149.461 186.675 142.963C191.518 130.05 186.675 103.973 186.675 103.973H142V-0.000152588Z"/>
</mask>
<path d="M142 -0.000152588H256.938C256.938 -0.000152588 258.08 145.665 254.095 155.147C250.111 164.629 248.003 169.297 242.317 178.703C241.572 179.936 240.885 181.094 240.231 182.196C236.646 188.236 234.06 192.593 228.508 198.198C221.294 205.482 216.283 208.912 206.983 213.226C197.484 217.632 191.087 218.494 181.273 219.817C180.522 219.918 179.752 220.022 178.959 220.13C164.658 222.083 143.624 220.13 143.624 220.13V168.55C143.624 168.55 157.014 168.692 162.307 166.575C167.599 164.458 173.079 161.156 175.844 158.643L176.116 158.396C182.299 152.788 184.239 149.461 186.675 142.963C191.518 130.05 186.675 103.973 186.675 103.973H142V-0.000152588Z" fill="url(#paint1_linear_0_1)"/>
<path d="M142 -0.406296C142 -0.135529 142 0.135223 142 0.405991C153.748 0.372818 165.496 0.339844 177.244 0.3069C203.798 0.232422 230.352 0.158035 256.906 0.0814667C256.917 0.0814362 256.927 0.0813904 256.938 0.0813293L256.857 0.000488281C256.867 0.731613 256.951 1.77678 256.956 2.55093C257.138 32.842 257.171 63.0856 256.853 93.3356C256.477 113.324 256.76 133.49 254.54 153.425C254.515 153.563 254.489 153.696 254.464 153.822C254.435 153.964 254.387 154.182 254.348 154.339C254.266 154.671 254.182 154.941 254.095 155.147C250.971 162.735 247.498 170.194 243.218 177.203C242.919 177.704 242.623 178.197 242.317 178.703C241.914 179.37 241.514 180.038 241.115 180.708C240.82 181.203 240.525 181.7 240.231 182.196C236.909 187.927 233.262 193.54 228.508 198.198C222.427 204.597 215.056 209.672 206.983 213.226C198.954 217.155 190.078 218.734 181.273 219.817C180.501 219.921 179.73 220.025 178.959 220.13C167.24 221.57 155.359 221.043 143.624 220.13C143.624 202.937 143.624 185.743 143.624 168.55C149.232 168.517 154.918 168.395 160.421 167.163C161.064 167.003 161.695 166.818 162.307 166.575C166.973 164.659 171.48 162.24 175.394 159.039C175.545 158.91 175.699 158.775 175.844 158.643C175.934 158.561 176.025 158.479 176.116 158.396C180.713 154.419 184.46 149.411 186.423 143.629C186.508 143.407 186.591 143.189 186.675 142.963C190.562 130.334 188.622 116.807 186.693 103.969L186.691 103.955L186.675 103.955C171.783 103.941 156.891 103.92 142 103.891L142.081 103.973C142.126 81.0632 142.188 58.1536 142.268 35.244C142.309 23.496 142.355 11.7479 142.406 -0.000152588C142.135 -0.000152588 141.864 -0.000152588 141.593 -0.000152588C141.644 11.7479 141.69 23.496 141.731 35.244C141.811 58.1536 141.873 81.0632 141.918 103.973L141.918 104.055L142 104.055C156.891 104.026 171.783 104.005 186.675 103.991L186.657 103.976C188.609 116.806 190.562 130.334 186.675 142.963C186.591 143.189 186.508 143.407 186.423 143.629C184.46 149.411 180.713 154.419 176.116 158.396C176.025 158.479 175.934 158.561 175.844 158.643C175.699 158.775 175.545 158.91 175.394 159.039C171.48 162.24 166.973 164.659 162.307 166.575C161.695 166.818 161.064 167.003 160.421 167.163C154.918 168.395 149.232 168.517 143.624 168.55C143.624 185.743 143.624 202.937 143.624 220.13C155.359 221.043 167.24 221.57 178.959 220.13C179.73 220.025 180.501 219.921 181.273 219.817C190.078 218.734 198.954 217.155 206.983 213.226C215.056 209.672 222.427 204.597 228.508 198.198C233.262 193.54 236.909 187.927 240.231 182.196C240.525 181.7 240.82 181.203 241.115 180.708C241.514 180.038 241.914 179.37 242.317 178.703C242.623 178.197 242.919 177.704 243.218 177.203C247.498 170.194 250.971 162.735 254.095 155.147C254.182 154.941 254.266 154.671 254.348 154.339C254.387 154.182 254.435 153.964 254.464 153.822C254.489 153.696 254.515 153.563 254.54 153.425C256.76 133.49 256.477 113.324 256.853 93.3356C257.171 63.0856 257.138 32.842 256.956 2.55093C256.951 1.77678 257.021 0.730576 257.02 -0.000793457L257.019 -0.0820312L256.938 -0.0816345C256.927 -0.0816956 256.917 -0.0817413 256.906 -0.0817719C230.352 -0.15834 203.798 -0.232727 177.244 -0.307205C165.496 -0.340149 153.748 -0.373123 142 -0.406296ZM142 0.405991V-0.406296L141.592 -0.405151L141.593 -0.000152588H142.406L142 0.405991Z" fill="black" mask="url(#path-3-inside-2_0_1)"/>
<defs>
<linearGradient id="paint0_linear_0_1" x1="56.0474" y1="223.998" x2="56.0474" y2="2.99981" gradientUnits="userSpaceOnUse">
<stop stop-color="#8CC286"/>
<stop offset="1" stop-color="#21422F"/>
</linearGradient>
<linearGradient id="paint1_linear_0_1" x1="198.047" y1="220.998" x2="198.047" y2="-0.000192105" gradientUnits="userSpaceOnUse">
<stop stop-color="#8CC286"/>
<stop offset="1" stop-color="#21422F"/>
</linearGradient>
</defs>
</svg>
