<svg width="795" height="2233" viewBox="0 0 795 2233" fill="none" xmlns="http://www.w3.org/2000/svg">
<path d="M-1076.09 824.088C-1053.04 720.486 -986.35 622.211 -899.31 559.747C-812.16 497.205 -694.308 448.566 -593.44 477.432C-531.355 495.2 -488.841 544.909 -446.759 597.291C-404.824 649.49 -363.312 704.369 -303.347 731.016C-290.194 736.861 -276.988 735.587 -263.901 730.717C-250.869 725.867 -237.78 717.386 -224.746 708.609C-211.639 699.783 -198.579 690.653 -185.381 684.225C-172.202 677.806 -159.106 674.199 -145.965 676.226C-133.082 678.214 -122.257 684.962 -112.365 694.204C-102.448 703.467 -93.5994 715.106 -84.6013 726.757C-75.6509 738.345 -66.5516 749.945 -56.2507 758.821C-45.9161 767.725 -34.2579 773.99 -20.1705 774.771C11.8602 776.547 44.7203 768.566 77.5167 756.795C110.282 745.035 143.233 729.391 175.258 715.798C239.63 688.475 300.186 669.503 351.569 703.573C361.201 709.96 367.487 717.497 371.19 725.955C374.9 734.429 376.071 743.943 375.283 754.347C373.701 775.224 364.266 799.357 352.207 825.109C340.223 850.702 325.576 878.022 314.022 904.666C302.444 931.366 293.752 957.842 293.657 982.157C293.51 1020.08 303.696 1055.87 315.687 1091.22C327.707 1126.66 341.498 1161.56 348.85 1198.11C353.687 1222.16 361.521 1246.5 369.886 1270.83C378.264 1295.2 387.161 1319.52 394.204 1343.69C408.291 1392.04 414.799 1439.28 394.88 1483.79C375.952 1526.08 333.884 1546.5 287.24 1564.5C264.027 1573.46 239.646 1581.83 216.838 1591.99C193.997 1602.17 172.538 1614.21 155.044 1630.64C135.791 1648.72 121.174 1674.04 108.475 1701.52C95.8076 1728.93 84.8706 1758.93 73.2644 1786.06C61.5946 1813.33 49.1829 1837.86 33.4017 1855.06C17.6977 1872.16 -1.27922 1881.93 -26.2689 1879.87C-59.3362 1877.13 -85.1786 1861.41 -107.318 1838.35C-129.498 1815.25 -147.879 1784.87 -165.999 1752.97C-184.078 1721.15 -201.904 1687.8 -222.891 1659.1C-243.894 1630.37 -268.19 1606.12 -299.343 1592.56C-317.91 1584.47 -336.674 1585.17 -355.486 1590.57C-374.251 1595.96 -393.18 1606.07 -412.157 1616.93C-431.201 1627.83 -450.279 1639.48 -469.583 1648.19C-488.866 1656.89 -508.177 1662.57 -527.587 1661.6C-567.636 1659.62 -603.966 1644.46 -639.721 1625.92C-675.356 1607.43 -710.622 1585.44 -747.986 1570.29C-774.48 1559.55 -803.594 1552.29 -833.234 1545.96C-862.938 1539.61 -893.067 1534.21 -921.896 1527.15C-979.534 1513.04 -1031.07 1492.48 -1061.15 1445.49C-1088.76 1402.36 -1079.88 1351.47 -1064 1297.63C-1056.12 1270.89 -1046.44 1243.2 -1038.98 1215.93C-1031.49 1188.58 -1026.11 1161.24 -1026.76 1134.7C-1028.06 1081.32 -1046.29 1029.29 -1061.14 977.975C-1076.03 926.521 -1087.57 875.697 -1076.09 824.088Z" stroke="#B4C0BA" stroke-width="3.72718"/>
<path d="M-1067.2 827.45C-1044.44 725.071 -978.541 627.961 -892.537 566.242C-806.421 504.443 -689.968 456.391 -590.295 484.925C-528.947 502.488 -486.933 551.613 -445.34 603.385C-403.895 654.975 -362.864 709.218 -303.596 735.561C-290.59 741.342 -277.534 740.083 -264.597 735.27C-251.716 730.477 -238.78 722.095 -225.901 713.422C-212.948 704.7 -200.045 695.68 -187.004 689.329C-173.983 682.989 -161.047 679.427 -148.067 681.431C-135.342 683.396 -124.647 690.062 -114.872 699.194C-105.072 708.349 -96.3279 719.851 -87.4341 731.366C-78.5881 742.819 -69.5936 754.286 -59.4111 763.06C-49.1951 771.863 -37.6698 778.058 -23.7419 778.832C7.91624 780.59 40.3925 772.705 72.8028 761.075C105.181 749.456 137.745 733.998 169.39 720.568C233.002 693.572 292.833 674.834 343.603 708.502C353.12 714.813 359.329 722.259 362.988 730.614C366.654 738.984 367.811 748.384 367.033 758.663C365.472 779.29 356.153 803.136 344.239 828.585C332.399 853.875 317.926 880.875 306.511 907.205C295.071 933.592 286.482 959.759 286.391 983.793C286.249 1021.28 296.319 1056.65 308.173 1091.59C320.055 1126.61 333.686 1161.11 340.955 1197.23C345.738 1220.99 353.482 1245.05 361.751 1269.09C370.033 1293.18 378.828 1317.21 385.791 1341.1C399.716 1388.88 406.149 1435.56 386.472 1479.54C367.775 1521.32 326.214 1541.5 280.121 1559.28C257.183 1568.13 233.088 1576.41 210.548 1586.45C187.976 1596.5 166.769 1608.41 149.48 1624.64C130.452 1642.51 116.007 1667.53 103.46 1694.69C90.9447 1721.78 80.1391 1751.43 68.6731 1778.23C57.1434 1805.18 44.8814 1829.43 29.2903 1846.41C13.7767 1863.31 -4.96914 1872.96 -29.6566 1870.92C-62.3281 1868.22 -87.8633 1852.68 -109.741 1829.89C-131.661 1807.06 -149.827 1777.04 -167.738 1745.51C-185.607 1714.06 -203.226 1681.09 -223.97 1652.73C-244.729 1624.34 -268.744 1600.37 -299.537 1586.95C-317.892 1578.96 -336.44 1579.65 -355.034 1584.98C-373.581 1590.31 -392.288 1600.3 -411.04 1611.03C-429.86 1621.8 -448.71 1633.31 -467.785 1641.92C-486.839 1650.52 -505.918 1656.12 -525.094 1655.17C-564.667 1653.2 -600.567 1638.22 -635.902 1619.89C-671.117 1601.62 -705.974 1579.88 -742.901 1564.9C-769.086 1554.28 -797.858 1547.11 -827.15 1540.85C-856.506 1534.57 -886.28 1529.23 -914.77 1522.25C-971.73 1508.3 -1022.65 1487.98 -1052.38 1441.55C-1079.66 1398.93 -1070.89 1348.64 -1055.21 1295.44C-1047.42 1269.01 -1037.86 1241.65 -1030.49 1214.7C-1023.09 1187.67 -1017.78 1160.65 -1018.42 1134.42C-1019.71 1081.66 -1037.73 1030.24 -1052.41 979.523C-1067.13 928.671 -1078.54 878.446 -1067.2 827.45Z" stroke="#B4C0BA" stroke-width="3.72718"/>
<path d="M-1058.3 830.806C-1035.82 729.65 -970.726 633.704 -885.756 572.729C-800.674 511.673 -685.621 464.21 -587.143 492.412C-526.532 509.771 -485.016 558.31 -443.914 609.473C-402.959 660.452 -362.407 714.061 -303.836 740.1C-290.979 745.816 -278.072 744.572 -265.287 739.816C-252.557 735.08 -239.773 726.798 -227.048 718.23C-214.25 709.612 -201.503 700.701 -188.62 694.429C-175.757 688.165 -162.98 684.649 -150.161 686.63C-137.593 688.572 -127.029 695.157 -117.371 704.18C-107.689 713.226 -99.0484 724.59 -90.2591 735.97C-81.5176 747.288 -72.6276 758.621 -62.5637 767.293C-52.4663 775.994 -41.0738 782.12 -27.3055 782.886C3.98005 784.628 36.0719 776.838 68.0962 765.349C100.089 753.871 132.265 738.599 163.53 725.332C226.383 698.662 285.487 680.159 335.645 713.425C345.046 719.66 351.179 727.015 354.794 735.267C358.415 743.534 359.558 752.818 358.791 762.973C357.251 783.351 348.047 806.91 336.277 832.055C324.582 857.041 310.283 883.722 299.007 909.738C287.706 935.811 279.22 961.671 279.133 985.424C278.997 1022.47 288.951 1057.42 300.667 1091.95C312.411 1126.56 325.883 1160.64 333.069 1196.33C337.797 1219.82 345.452 1243.59 353.625 1267.35C361.811 1291.15 370.502 1314.9 377.384 1338.51C391.148 1385.72 397.508 1431.84 378.073 1475.28C359.607 1516.56 318.552 1536.49 273.009 1554.06C250.347 1562.8 226.537 1570.98 204.267 1580.9C181.963 1590.83 161.007 1602.59 143.924 1618.63C125.121 1636.29 110.85 1661.01 98.4548 1687.85C86.091 1714.62 75.4154 1743.92 64.0896 1770.4C52.7 1797.03 40.5876 1820.98 25.1868 1837.76C9.86356 1854.45 -8.6513 1863.99 -33.0365 1861.96C-65.3121 1859.29 -90.5403 1843.94 -112.157 1821.42C-133.816 1798.86 -151.767 1769.2 -169.467 1738.04C-187.126 1706.96 -204.54 1674.39 -225.04 1646.35C-245.556 1618.3 -269.291 1594.6 -299.723 1581.35C-317.866 1573.44 -336.199 1574.12 -354.574 1579.39C-372.902 1584.65 -391.387 1594.52 -409.914 1605.12C-428.51 1615.77 -447.133 1627.14 -465.978 1635.64C-484.803 1644.13 -503.651 1649.67 -522.594 1648.72C-561.691 1646.78 -597.161 1631.98 -632.077 1613.86C-666.872 1595.8 -701.318 1574.32 -737.807 1559.51C-763.683 1549.01 -792.116 1541.92 -821.059 1535.73C-850.067 1529.53 -879.484 1524.25 -907.635 1517.35C-963.917 1503.56 -1014.23 1483.47 -1043.6 1437.6C-1070.56 1395.49 -1061.9 1345.81 -1046.41 1293.24C-1038.72 1267.13 -1029.27 1240.09 -1021.99 1213.47C-1014.68 1186.75 -1009.44 1160.05 -1010.07 1134.13C-1011.36 1081.99 -1029.17 1031.18 -1043.68 981.065C-1058.22 930.815 -1069.5 881.19 -1058.3 830.806Z" stroke="#B4C0BA" stroke-width="3.72718"/>
<path d="M-1049.4 834.163C-1027.21 734.231 -962.91 639.449 -878.976 579.219C-794.928 518.907 -681.274 472.03 -583.991 499.901C-524.116 517.054 -483.1 565.009 -442.487 615.562C-402.022 665.932 -361.951 718.906 -304.078 744.641C-291.367 750.293 -278.61 749.064 -265.976 744.365C-253.397 739.686 -240.766 731.503 -228.196 723.039C-215.552 714.526 -202.962 705.725 -190.236 699.53C-177.531 693.344 -164.913 689.873 -152.254 691.83C-139.844 693.749 -129.411 700.253 -119.87 709.167C-110.306 718.103 -101.769 729.331 -93.0847 740.575C-84.4476 751.758 -75.6625 762.958 -65.7171 771.529C-55.7382 780.129 -44.4773 786.185 -30.8685 786.943C0.0443488 788.667 31.7515 780.973 63.3895 769.625C94.9958 758.288 126.784 743.202 157.67 730.098C219.763 703.754 278.143 685.485 327.688 718.349C336.973 724.508 343.029 731.773 346.599 739.922C350.175 748.086 351.306 757.255 350.549 767.285C349.03 787.413 339.941 810.684 328.316 835.527C316.765 860.209 302.641 886.572 291.503 912.274C280.341 938.033 271.958 963.584 271.874 987.057C271.744 1023.66 281.583 1058.2 293.162 1092.31C304.768 1126.51 318.079 1160.18 325.182 1195.44C329.855 1218.65 337.421 1242.13 345.498 1265.61C353.588 1289.13 362.177 1312.59 368.978 1335.92C382.581 1382.56 388.866 1428.12 369.674 1471.03C351.439 1511.8 310.889 1531.48 265.897 1548.84C243.51 1557.47 219.987 1565.55 197.985 1575.35C175.951 1585.16 155.246 1596.78 138.368 1612.63C119.79 1630.07 105.692 1654.5 93.4486 1681.02C81.2366 1707.46 70.6918 1736.41 59.5061 1762.57C48.2567 1788.88 36.2938 1812.54 21.0833 1829.11C5.95043 1845.6 -12.3335 1855.01 -36.4164 1853.01C-68.2964 1850.37 -93.2177 1835.2 -114.574 1812.95C-135.972 1790.66 -153.709 1761.36 -171.199 1730.58C-188.647 1699.87 -205.854 1667.68 -226.112 1639.98C-246.384 1612.26 -269.838 1588.84 -299.91 1575.74C-317.84 1567.93 -335.958 1568.59 -354.114 1573.8C-372.223 1579 -390.487 1588.75 -408.79 1599.22C-427.161 1609.73 -445.558 1620.97 -464.173 1629.36C-482.769 1637.75 -501.385 1643.22 -520.094 1642.28C-558.714 1640.36 -593.755 1625.73 -628.25 1607.83C-662.625 1589.98 -696.661 1568.75 -732.713 1554.12C-758.28 1543.75 -786.372 1536.74 -814.968 1530.62C-843.627 1524.48 -872.69 1519.27 -900.502 1512.45C-956.105 1498.82 -1005.8 1478.97 -1034.82 1433.65C-1061.45 1392.06 -1052.91 1342.98 -1037.61 1291.04C-1030.01 1265.25 -1020.68 1238.53 -1013.49 1212.23C-1006.28 1185.84 -1001.1 1159.46 -1001.73 1133.84C-1003 1082.33 -1020.6 1032.12 -1034.94 982.607C-1049.32 932.96 -1060.46 883.935 -1049.4 834.163Z" stroke="#B4C0BA" stroke-width="3.72718"/>
<path d="M-1040.51 837.518C-1018.6 738.809 -955.097 645.191 -872.198 585.705C-789.184 526.136 -676.931 479.846 -580.842 507.386C-521.704 524.335 -481.187 571.705 -441.065 621.648C-401.089 671.408 -361.498 723.747 -304.323 749.177C-291.76 754.765 -279.152 753.551 -266.668 748.909C-254.24 744.288 -241.763 736.204 -229.347 727.845C-216.858 719.436 -204.424 710.745 -191.857 704.627C-179.309 698.518 -166.85 695.092 -154.352 697.026C-142.099 698.922 -131.797 705.346 -122.374 714.151C-112.926 722.978 -104.494 734.068 -95.9136 745.177C-87.381 756.224 -78.701 767.29 -68.8742 775.76C-59.0138 784.258 -47.8854 790.245 -34.436 790.996C-3.89574 792.703 27.427 785.104 58.6789 773.897C89.8991 762.701 121.299 747.801 151.806 734.861C213.14 708.843 270.794 690.808 319.726 723.27C328.895 729.353 334.875 736.527 338.4 744.573C341.932 752.634 343.05 761.687 342.304 771.592C340.806 791.471 331.833 814.456 320.351 838.995C308.945 863.374 294.994 889.416 283.995 914.805C272.971 940.25 264.692 965.494 264.612 988.685C264.487 1024.85 274.21 1058.97 285.651 1092.67C297.12 1126.46 310.272 1159.72 317.291 1194.55C321.911 1217.47 329.387 1240.68 337.368 1263.87C345.361 1287.1 353.847 1310.28 360.568 1333.32C374.009 1379.4 380.22 1424.4 361.27 1466.78C343.266 1507.04 303.223 1526.47 258.781 1543.61C236.669 1552.14 213.432 1560.11 191.7 1569.79C169.934 1579.48 149.481 1590.96 132.808 1606.62C114.456 1623.85 100.53 1647.99 88.4391 1674.18C76.379 1700.3 65.9643 1728.9 54.9187 1754.74C43.8095 1780.72 31.9962 1804.09 16.976 1820.46C2.03328 1836.74 -16.0204 1846.03 -39.8016 1844.06C-71.2855 1841.44 -95.8986 1826.46 -116.994 1804.48C-138.131 1782.46 -155.652 1753.51 -172.932 1723.1C-190.171 1692.77 -207.173 1660.97 -227.187 1633.6C-247.216 1606.21 -270.388 1583.08 -300.1 1570.13C-317.818 1562.41 -335.72 1563.06 -353.658 1568.21C-371.549 1573.34 -389.591 1582.97 -407.669 1593.32C-425.815 1603.7 -443.985 1614.79 -462.371 1623.08C-480.737 1631.37 -499.122 1636.76 -517.597 1635.84C-555.742 1633.93 -590.353 1619.48 -624.428 1601.79C-658.383 1584.16 -692.009 1563.19 -727.624 1548.73C-752.882 1538.48 -780.633 1531.55 -808.881 1525.5C-837.192 1519.44 -865.899 1514.28 -893.372 1507.54C-948.297 1494.07 -997.383 1474.46 -1026.05 1429.7C-1052.35 1388.62 -1043.92 1340.15 -1028.81 1288.84C-1021.31 1263.37 -1012.1 1236.97 -1005 1210.99C-997.874 1184.92 -992.758 1158.86 -993.385 1133.55C-994.647 1082.66 -1012.04 1033.05 -1026.21 984.146C-1040.42 935.102 -1051.42 886.677 -1040.51 837.518Z" stroke="#B4C0BA" stroke-width="3.72718"/>
</svg>
