<svg width="1009" height="840" viewBox="0 0 1009 840" fill="none" xmlns="http://www.w3.org/2000/svg">
<path opacity="0.01" fill-rule="evenodd" clip-rule="evenodd" d="M-727.134 336.07C-738.93 129.819 -881.982 -124.258 -734.494 -268.589C-591.437 -408.583 -352.362 -223.995 -153.129 -225.646C31.997 -227.18 215.352 -348.655 386.346 -277.875C568.913 -202.305 706.656 -31.7548 769.882 156.417C831.874 340.913 805.176 548.182 723.385 725.205C649.468 885.188 485.139 968.055 345.513 1074.9C211.115 1177.75 93.0648 1349.91 -74.9103 1336.09C-243.193 1322.25 -328.67 1130.85 -446.707 1009.74C-535.608 918.525 -629.041 835.079 -678.113 717.193C-728.493 596.166 -719.634 467.198 -727.134 336.07Z" stroke="url(#paint0_linear_1359_435)" stroke-width="6.75677"/>
<path opacity="0.02" fill-rule="evenodd" clip-rule="evenodd" d="M-736.589 340.83C-751.935 135.505 -898.915 -115.198 -754.448 -261.588C-614.322 -403.58 -372.859 -223.793 -174.343 -228.901C10.117 -233.648 190.725 -357.886 362.36 -290.326C545.612 -218.194 685.848 -50.6334 752.132 135.782C817.12 318.556 794.122 525.565 715.695 703.391C644.817 864.101 482.498 949.535 345.214 1058.44C213.07 1163.26 98.4242 1336.87 -69.2114 1326.02C-237.154 1315.15 -325.667 1125.91 -445.405 1007.27C-535.586 917.922 -630.149 836.391 -681.104 719.77C-733.416 600.042 -726.833 471.37 -736.589 340.83Z" stroke="url(#paint1_linear_1359_435)" stroke-width="6.75677"/>
<path opacity="0.03" fill-rule="evenodd" clip-rule="evenodd" d="M-745.872 345.736C-764.738 141.397 -915.573 -105.872 -774.154 -254.261C-636.985 -398.19 -393.229 -223.231 -195.489 -231.773C-11.7506 -239.709 166.07 -366.651 338.286 -302.312C522.159 -233.618 664.826 -69.0826 734.124 115.527C802.069 296.53 782.753 503.213 707.693 681.78C639.858 843.158 479.588 931.115 344.674 1042.02C214.813 1148.77 103.586 1323.77 -63.6583 1315.87C-231.208 1307.96 -322.709 1120.92 -444.097 1004.78C-535.521 917.31 -631.175 837.709 -683.983 722.383C-738.198 603.983 -733.878 475.649 -745.872 345.736Z" stroke="url(#paint2_linear_1359_435)" stroke-width="6.75677"/>
<path opacity="0.04" fill-rule="evenodd" clip-rule="evenodd" d="M-754.946 350.786C-777.303 147.493 -931.917 -96.2845 -793.572 -246.61C-659.384 -392.418 -413.43 -222.312 -216.525 -234.26C-33.5635 -245.363 141.43 -374.95 314.167 -313.831C498.597 -248.575 643.632 -87.0981 715.903 95.6578C786.762 274.843 771.11 481.136 699.419 660.379C634.628 822.369 476.445 912.802 343.931 1025.66C216.378 1134.3 108.583 1310.61 -58.2176 1305.65C-225.323 1300.68 -319.761 1115.88 -442.749 1002.27C-535.377 916.693 -632.085 839.035 -686.717 725.032C-742.804 607.991 -740.732 480.033 -754.946 350.786Z" stroke="url(#paint3_linear_1359_435)" stroke-width="6.75677"/>
<path opacity="0.05" fill-rule="evenodd" clip-rule="evenodd" d="M-763.853 355.952C-789.67 153.765 -947.988 -86.464 -812.741 -238.664C-681.558 -386.29 -433.501 -221.06 -237.49 -236.39C-55.3589 -250.634 116.769 -382.806 289.969 -324.905C474.892 -263.085 622.231 -104.7 697.431 76.1545C771.161 253.476 759.154 459.312 690.832 639.17C629.086 801.715 473.028 894.579 342.94 1009.35C217.723 1119.81 113.371 1297.38 -52.9344 1295.33C-219.544 1293.29 -316.869 1110.78 -441.406 999.706C-535.201 916.046 -632.923 840.343 -689.348 727.692C-747.277 612.039 -747.439 484.496 -763.853 355.952Z" stroke="url(#paint4_linear_1359_435)" stroke-width="6.75677"/>
<path opacity="0.06" fill-rule="evenodd" clip-rule="evenodd" d="M-772.556 361.266C-801.802 160.244 -963.747 -76.3825 -831.621 -230.395C-703.466 -379.779 -453.401 -219.446 -258.342 -238.129C-77.095 -255.49 92.1315 -390.186 265.733 -335.502C451.086 -277.116 600.666 -121.852 678.75 57.0546C755.309 232.467 746.926 437.783 681.972 618.192C623.271 781.234 469.375 876.483 341.738 993.105C218.881 1105.36 117.984 1284.11 -47.7757 1284.96C-213.839 1285.82 -314 1105.66 -440.034 997.135C-534.957 915.402 -633.655 841.666 -691.843 730.395C-751.582 616.159 -753.963 489.07 -772.556 361.266Z" stroke="url(#paint5_linear_1359_435)" stroke-width="6.75677"/>
<path opacity="0.07" fill-rule="evenodd" clip-rule="evenodd" d="M-781.067 366.688C-813.708 166.889 -979.203 -66.0819 -850.221 -221.844C-725.115 -372.926 -473.136 -217.51 -279.086 -239.518C-98.7769 -259.968 67.5124 -397.128 241.457 -345.656C427.176 -290.7 578.934 -138.589 659.857 38.3255C739.199 211.783 734.419 416.516 672.832 597.414C617.174 760.898 465.475 858.483 340.315 976.91C219.842 1090.9 122.409 1270.77 -42.7544 1274.5C-208.221 1278.24 -311.165 1100.46 -438.646 994.518C-534.658 914.726 -634.293 842.967 -694.214 733.103C-755.731 620.311 -760.315 493.715 -781.067 366.688Z" stroke="url(#paint6_linear_1359_435)" stroke-width="6.75677"/>
<path opacity="0.08" fill-rule="evenodd" clip-rule="evenodd" d="M-789.389 372.257C-825.391 173.737 -994.358 -55.5263 -868.54 -212.976C-746.502 -365.695 -492.706 -215.214 -299.721 -240.517C-120.402 -264.028 42.9155 -403.591 217.144 -355.326C403.165 -303.795 557.037 -154.865 640.754 20.0121C722.835 191.472 721.634 395.559 663.411 576.882C610.794 740.751 461.326 840.627 338.667 960.808C220.601 1076.49 126.641 1257.41 -37.8764 1264C-202.696 1270.61 -308.372 1095.25 -437.247 991.895C-534.31 914.057 -634.844 844.287 -696.465 735.856C-759.729 624.535 -766.5 498.47 -789.389 372.257Z" stroke="url(#paint7_linear_1359_435)" stroke-width="6.75677"/>
<path opacity="0.09" fill-rule="evenodd" clip-rule="evenodd" d="M-797.531 377.913C-836.861 180.728 -1009.22 -44.7774 -886.586 -203.852C-767.636 -358.146 -512.117 -212.616 -320.253 -241.184C-141.976 -267.729 18.337 -409.632 192.79 -364.57C379.052 -316.457 534.972 -170.734 621.436 2.06163C706.212 171.482 708.565 374.859 653.703 556.547C604.122 720.745 456.92 822.862 336.785 944.745C221.149 1062.06 130.668 1243.97 -33.1547 1253.4C-197.277 1262.85 -305.632 1089.95 -435.851 989.213C-533.926 913.34 -635.318 845.567 -698.609 738.596C-763.587 628.773 -772.527 503.277 -797.531 377.913Z" stroke="url(#paint8_linear_1359_435)" stroke-width="6.75677"/>
<path opacity="0.1" fill-rule="evenodd" clip-rule="evenodd" d="M-805.467 383.701C-848.088 187.908 -1023.76 -33.7917 -904.328 -194.428C-788.483 -350.237 -531.336 -209.671 -340.649 -241.473C-163.465 -271.023 -6.18814 -415.204 168.432 -373.336C354.871 -328.635 512.774 -186.146 601.939 -15.4734C689.362 151.865 695.246 354.472 643.739 536.461C597.19 700.932 452.286 805.243 334.697 928.778C221.511 1047.69 134.515 1230.52 -28.5635 1242.76C-191.941 1255.03 -302.92 1084.63 -434.431 986.52C-533.479 912.625 -635.691 846.858 -700.619 741.37C-767.277 633.071 -778.369 508.181 -805.467 383.701Z" stroke="url(#paint9_linear_1359_435)" stroke-width="6.75677"/>
<path opacity="0.11" fill-rule="evenodd" clip-rule="evenodd" d="M-813.182 389.591C-859.058 195.243 -1037.96 -22.6034 -921.75 -184.738C-809.028 -342 -550.348 -206.412 -360.892 -241.415C-184.851 -273.939 -30.6407 -420.336 144.088 -381.656C330.643 -340.357 490.464 -201.126 582.281 -32.6187C672.305 132.597 681.693 334.373 633.535 516.602C590.013 681.291 447.438 787.745 332.415 912.88C221.7 1033.33 138.194 1217.01 -24.0923 1232.05C-186.676 1247.11 -300.225 1079.26 -432.976 983.788C-532.958 911.881 -635.952 848.128 -702.484 744.149C-770.79 637.4 -784.015 513.151 -813.182 389.591Z" stroke="url(#paint10_linear_1359_435)" stroke-width="6.75677"/>
<path opacity="0.12" fill-rule="evenodd" clip-rule="evenodd" d="M-820.704 395.592C-869.797 202.744 -1051.86 -11.2047 -938.876 -174.774C-829.291 -333.429 -569.175 -202.828 -381.002 -240.999C-206.154 -276.467 -55.04 -425.017 119.739 -389.514C306.348 -351.609 468.022 -215.66 562.444 -49.3575C655.021 113.696 667.885 314.58 623.069 496.989C582.567 661.839 442.352 770.388 329.916 897.072C221.69 1019.01 141.678 1203.48 -19.7694 1221.29C-181.512 1239.12 -297.577 1073.85 -431.515 981.032C-532.392 911.124 -636.128 849.392 -704.233 746.945C-774.152 641.769 -789.492 518.199 -820.704 395.592Z" stroke="url(#paint11_linear_1359_435)" stroke-width="6.75677"/>
<path opacity="0.13" fill-rule="evenodd" clip-rule="evenodd" d="M-828.027 401.685C-880.3 210.39 -1065.43 0.381634 -955.699 -164.56C-849.266 -324.545 -587.807 -198.941 -400.971 -240.246C-227.364 -278.626 -79.3747 -429.265 95.3969 -396.93C281.998 -362.407 445.459 -229.762 542.437 -65.7042C637.519 95.1488 653.832 295.081 612.349 477.608C574.86 642.565 437.034 753.159 327.203 881.339C221.486 1004.72 144.968 1189.91 -15.5923 1210.46C-176.447 1231.04 -294.971 1068.39 -430.046 978.236C-531.778 910.334 -636.217 850.63 -705.86 749.739C-777.359 646.16 -794.794 523.305 -828.027 401.685Z" stroke="url(#paint12_linear_1359_435)" stroke-width="6.75677"/>
<path opacity="0.14" fill-rule="evenodd" clip-rule="evenodd" d="M-835.14 407.883C-890.553 218.192 -1078.67 12.1672 -972.203 -154.083C-868.934 -315.337 -606.228 -194.737 -420.781 -239.14C-248.464 -280.4 -103.626 -433.065 71.0817 -403.887C257.615 -372.734 422.797 -243.414 522.28 -81.6389C619.819 76.9758 639.552 275.897 601.392 458.482C566.907 623.492 431.498 736.08 324.291 865.703C221.099 990.473 148.077 1176.33 -11.5501 1199.59C-171.47 1222.89 -292.398 1062.9 -428.557 975.416C-531.106 909.531 -636.209 851.861 -707.357 752.548C-780.401 650.588 -799.91 528.483 -835.14 407.883Z" stroke="url(#paint13_linear_1359_435)" stroke-width="6.75677"/>
<path opacity="0.15" fill-rule="evenodd" clip-rule="evenodd" d="M-842.053 414.166C-900.565 226.131 -1091.59 24.1289 -988.397 -143.366C-888.305 -305.828 -624.446 -190.236 -440.438 -237.703C-269.459 -281.808 -127.796 -436.435 46.79 -410.402C233.194 -382.606 400.031 -256.631 501.97 -97.1762C601.918 59.1635 625.039 257.016 590.193 439.598C558.701 604.606 425.738 719.138 321.171 850.153C220.52 976.262 150.993 1162.71 -7.65507 1188.66C-166.594 1214.66 -289.871 1057.35 -427.061 972.558C-530.387 908.697 -636.115 853.064 -708.734 755.351C-783.289 655.033 -804.852 533.713 -842.053 414.166Z" stroke="url(#paint14_linear_1359_435)" stroke-width="6.75677"/>
<path opacity="0.16" fill-rule="evenodd" clip-rule="evenodd" d="M-848.737 420.532C-910.309 234.203 -1104.16 36.2628 -1004.25 -132.414C-907.345 -296.022 -642.428 -185.442 -459.909 -235.935C-290.315 -282.852 -151.853 -439.377 22.5562 -416.475C208.771 -392.023 377.197 -269.41 481.541 -112.312C583.847 41.7171 610.326 238.443 578.781 420.963C550.272 585.914 419.781 702.34 317.871 834.694C219.776 962.091 153.743 1149.06 -3.88129 1177.68C-161.794 1206.35 -287.362 1051.76 -425.532 969.663C-529.595 907.833 -635.909 854.243 -709.966 758.15C-785.997 659.496 -809.592 538.995 -848.737 420.532Z" stroke="url(#paint15_linear_1359_435)" stroke-width="6.75677"/>
<path opacity="0.17" fill-rule="evenodd" clip-rule="evenodd" d="M-855.205 426.984C-919.794 242.411 -1116.38 48.5686 -1019.77 -121.226C-926.061 -285.919 -660.181 -180.352 -479.201 -233.834C-311.037 -283.529 -175.798 -441.886 -1.6227 -422.102C184.343 -400.978 354.291 -281.745 460.99 -127.039C565.604 24.6454 595.408 220.188 567.151 402.587C541.615 567.428 413.621 685.695 314.381 819.335C218.858 947.971 156.315 1135.4 -0.240692 1166.66C-157.083 1197.97 -284.885 1046.13 -423.982 966.738C-528.744 906.945 -635.605 855.4 -711.065 760.948C-788.536 663.979 -814.141 544.331 -855.205 426.984Z" stroke="url(#paint16_linear_1359_435)" stroke-width="6.75677"/>
<path opacity="0.18" fill-rule="evenodd" clip-rule="evenodd" d="M-861.482 433.529C-929.046 250.759 -1128.29 61.0502 -1034.98 -109.799C-944.478 -275.514 -677.728 -174.961 -498.336 -231.394C-331.647 -283.83 -199.654 -443.956 -25.7667 -427.274C159.89 -409.463 331.295 -293.625 440.296 -141.345C547.168 7.96105 580.264 202.265 555.282 384.483C532.705 549.16 407.233 669.218 310.678 804.092C217.738 933.915 158.682 1121.74 3.23862 1155.61C-152.49 1189.53 -282.467 1040.47 -422.44 963.794C-527.861 906.042 -635.23 856.547 -712.058 763.755C-790.934 668.491 -818.527 549.729 -861.482 433.529Z" stroke="url(#paint17_linear_1359_435)" stroke-width="6.75677"/>
<path opacity="0.19" fill-rule="evenodd" clip-rule="evenodd" d="M-867.541 440.117C-938.037 259.198 -1139.86 73.6567 -1049.86 -98.1837C-962.564 -264.861 -695.038 -169.319 -517.281 -228.663C-352.111 -283.805 -223.383 -445.635 -49.8402 -432.039C135.45 -417.522 308.243 -305.094 419.495 -155.273C528.574 -8.37787 564.928 184.632 543.206 366.61C523.574 531.072 400.647 652.868 306.789 788.922C216.446 919.882 160.872 1108.04 6.58361 1144.48C-147.987 1180.99 -280.083 1034.75 -420.878 960.785C-526.919 905.081 -634.758 857.635 -712.919 766.523C-793.164 672.983 -822.721 555.14 -867.541 440.117Z" stroke="url(#paint18_linear_1359_435)" stroke-width="6.75677"/>
<path opacity="0.2" fill-rule="evenodd" clip-rule="evenodd" d="M-873.353 446.798C-946.737 267.777 -1151.04 86.434 -1064.36 -86.3342C-980.286 -253.911 -712.077 -163.377 -536.003 -225.593C-372.396 -283.403 -246.953 -446.872 -73.8084 -436.345C111.056 -425.105 285.173 -316.1 398.623 -168.769C509.856 -24.3167 549.433 167.345 530.955 349.026C514.255 513.218 393.895 636.701 302.746 773.883C215.011 905.928 162.911 1094.36 9.82096 1133.35C-143.549 1172.41 -277.705 1029 -419.271 957.765C-525.893 904.112 -634.162 858.718 -713.622 769.304C-795.199 677.507 -826.697 560.615 -873.353 446.798Z" stroke="url(#paint19_linear_1359_435)" stroke-width="6.75677"/>
<path opacity="0.21" fill-rule="evenodd" clip-rule="evenodd" d="M-878.977 453.528C-955.204 276.449 -1161.91 99.3352 -1078.55 -74.2976C-997.7 -242.713 -728.902 -157.182 -554.555 -222.228C-392.554 -282.669 -270.414 -447.711 -97.7215 -440.235C86.6599 -432.254 262.033 -326.683 377.628 -181.874C490.964 -39.8941 533.729 150.365 518.477 331.691C504.693 495.563 386.922 620.68 298.493 758.937C213.375 892.016 164.743 1080.65 12.8922 1122.16C-139.236 1163.74 -275.392 1023.2 -417.678 954.693C-524.841 903.095 -633.502 859.753 -714.225 772.054C-797.099 682.018 -830.514 566.109 -878.977 453.528Z" stroke="url(#paint20_linear_1359_435)" stroke-width="6.75677"/>
<path opacity="0.22" fill-rule="evenodd" clip-rule="evenodd" d="M-884.376 460.338C-963.401 285.247 -1172.43 112.391 -1092.4 -62.0434C-1014.77 -231.236 -745.472 -150.7 -572.898 -218.537C-412.544 -281.57 -293.723 -448.12 -121.537 -443.676C62.3044 -438.932 238.867 -336.806 356.553 -194.549C471.941 -55.0708 517.856 133.734 505.812 314.648C494.928 478.147 379.766 604.845 294.066 744.124C211.575 878.187 166.402 1066.96 15.8321 1110.96C-135.013 1155.03 -273.111 1017.39 -416.064 951.607C-523.729 902.066 -632.743 860.777 -714.694 774.809C-798.828 686.551 -834.135 571.656 -884.376 460.338Z" stroke="url(#paint21_linear_1359_435)" stroke-width="6.75677"/>
<path opacity="0.23" fill-rule="evenodd" clip-rule="evenodd" d="M-889.532 467.178C-971.309 294.117 -1182.57 125.545 -1105.86 -49.6272C-1031.46 -219.536 -761.763 -143.987 -591.006 -214.571C-432.341 -280.158 -316.854 -448.151 -145.227 -446.719C38.0171 -445.19 215.702 -346.518 335.427 -206.842C452.813 -69.8941 501.84 117.404 492.986 297.85C484.984 460.926 372.451 589.152 289.488 729.399C209.633 864.395 167.908 1053.25 18.6599 1099.7C-130.862 1146.23 -270.842 1011.5 -414.41 948.459C-522.539 900.976 -631.868 861.738 -715.01 777.518C-800.367 691.054 -837.541 577.204 -889.532 467.178Z" stroke="url(#paint22_linear_1359_435)" stroke-width="6.75677"/>
<path opacity="0.24" fill-rule="evenodd" clip-rule="evenodd" d="M-894.478 474.091C-978.96 303.104 -1192.37 138.841 -1118.99 -37.0069C-1047.82 -207.571 -777.807 -136.998 -608.911 -210.288C-451.974 -278.388 -339.835 -447.758 -168.82 -449.317C13.7713 -450.982 192.513 -355.773 314.221 -218.704C433.553 -84.3138 485.654 101.427 479.969 281.348C474.832 443.95 364.944 573.652 284.728 714.815C207.515 850.692 169.228 1039.56 21.3405 1088.43C-126.818 1137.39 -268.621 1005.61 -412.752 945.296C-521.305 899.873 -630.911 862.684 -715.208 780.228C-801.753 695.574 -840.767 582.799 -894.478 474.091Z" stroke="url(#paint23_linear_1359_435)" stroke-width="6.75677"/>
<path opacity="0.25" fill-rule="evenodd" clip-rule="evenodd" d="M-899.227 481.021C-986.366 312.149 -1201.83 152.219 -1131.79 -24.2423C-1063.85 -195.401 -793.611 -129.792 -626.617 -205.743C-471.448 -276.317 -362.671 -446.999 -192.319 -451.527C-10.4364 -456.363 169.295 -364.622 292.933 -230.189C414.156 -98.3812 469.292 85.7524 466.756 265.093C464.464 427.171 357.24 558.295 279.775 700.321C205.212 837.029 170.35 1025.85 23.8623 1077.11C-122.893 1128.46 -266.46 999.642 -411.103 942.067C-520.042 898.703 -629.886 863.562 -715.303 782.884C-802.996 700.055 -843.826 588.384 -899.227 481.021Z" stroke="url(#paint24_linear_1359_435)" stroke-width="6.75677"/>
<path opacity="0.26" fill-rule="evenodd" clip-rule="evenodd" d="M-903.726 488.009C-993.475 321.292 -1210.92 165.717 -1144.2 -11.2952C-1079.49 -182.988 -809.121 -122.329 -644.071 -200.898C-490.708 -273.904 -385.304 -445.832 -215.667 -453.308C-34.5472 -461.289 146.107 -373.023 271.62 -241.25C394.681 -112.05 452.811 70.4267 453.402 249.133C453.936 410.636 349.391 543.129 274.684 685.965C202.775 823.453 171.326 1012.17 26.276 1065.78C-119.039 1119.49 -264.308 993.657 -409.412 938.816C-518.697 897.512 -628.742 864.415 -715.242 785.528C-804.048 704.539 -846.666 594.002 -903.726 488.009Z" stroke="url(#paint25_linear_1359_435)" stroke-width="6.75677"/>
<path opacity="0.27" fill-rule="evenodd" clip-rule="evenodd" d="M-907.995 495.04C-1000.31 330.519 -1219.64 179.318 -1156.25 1.81764C-1094.76 -170.349 -824.352 -114.624 -661.286 -195.767C-509.766 -271.163 -407.745 -444.272 -238.874 -454.671C-58.5718 -465.773 122.939 -380.986 250.272 -251.897C375.118 -125.33 436.201 55.4425 439.895 233.459C443.234 394.34 341.384 528.148 269.439 671.742C200.189 809.958 172.137 998.504 28.5626 1054.44C-115.275 1110.47 -262.186 987.642 -407.699 935.534C-517.293 896.289 -627.5 865.232 -715.047 788.15C-804.928 709.013 -849.307 599.638 -907.995 495.04Z" stroke="url(#paint26_linear_1359_435)" stroke-width="6.75677"/>
<path opacity="0.28" fill-rule="evenodd" clip-rule="evenodd" d="M-912.054 502.101C-1006.88 339.813 -1228.01 193.005 -1167.94 15.0787C-1109.68 -157.501 -839.32 -106.694 -678.278 -190.364C-528.638 -268.11 -430.009 -442.334 -261.953 -455.632C-82.5226 -469.829 99.7794 -388.523 228.877 -262.142C355.452 -138.229 419.447 40.7908 426.221 218.064C432.343 378.274 333.201 513.344 264.023 657.642C197.435 796.536 172.765 984.851 30.7024 1043.07C-111.62 1101.39 -260.113 981.588 -405.985 932.211C-515.848 895.022 -626.181 866.001 -714.738 790.736C-805.656 713.465 -851.769 605.279 -912.054 502.101Z" stroke="url(#paint27_linear_1359_435)" stroke-width="6.75677"/>
<path opacity="0.29" fill-rule="evenodd" clip-rule="evenodd" d="M-915.883 509.17C-1013.17 349.153 -1236.02 206.754 -1179.27 28.4635C-1124.22 -144.47 -854.002 -98.5615 -695.021 -184.714C-547.298 -264.766 -452.068 -440.04 -284.878 -456.211C-106.371 -473.476 76.6554 -395.653 207.462 -272.002C335.712 -150.766 402.577 26.4556 412.405 202.933C421.288 362.423 324.867 498.702 258.458 643.651C194.535 783.173 173.23 971.197 32.7158 1031.66C-108.056 1092.24 -258.071 975.479 -404.249 928.828C-514.344 893.694 -624.765 866.704 -714.296 793.268C-806.213 717.874 -854.032 610.904 -915.883 509.17Z" stroke="url(#paint28_linear_1359_435)" stroke-width="6.75677"/>
<path opacity="0.3" fill-rule="evenodd" clip-rule="evenodd" d="M-919.477 516.276C-1019.17 358.566 -1243.65 220.592 -1190.22 41.9978C-1138.39 -131.23 -868.391 -90.1996 -711.509 -178.788C-565.736 -261.103 -473.913 -437.362 -307.637 -456.379C-130.106 -476.685 53.5791 -402.346 186.038 -281.445C315.91 -162.907 385.6 12.4715 398.458 188.101C410.078 346.824 316.391 484.257 252.751 629.806C191.495 769.904 173.538 957.577 34.6065 1020.26C-104.579 1083.05 -256.055 969.348 -402.49 925.42C-512.779 892.336 -623.25 867.371 -713.718 795.775C-806.596 722.271 -856.093 616.543 -919.477 516.276Z" stroke="url(#paint29_linear_1359_435)" stroke-width="6.75677"/>
<path opacity="0.31" fill-rule="evenodd" clip-rule="evenodd" d="M-922.864 523.392C-1024.92 368.025 -1250.95 234.488 -1200.82 55.6523C-1152.19 -117.81 -882.51 -81.6363 -727.763 -172.614C-583.975 -257.149 -495.563 -434.326 -330.25 -456.164C-153.747 -479.48 30.5321 -408.624 164.588 -290.495C296.025 -174.673 368.498 -1.18276 384.359 173.546C398.692 331.456 307.749 469.99 246.88 616.086C188.291 756.71 173.663 943.973 36.3485 1008.83C-101.217 1073.8 -254.092 963.174 -400.734 921.964C-511.178 890.926 -621.663 867.98 -713.031 798.234C-806.834 726.629 -857.979 622.17 -922.864 523.392Z" stroke="url(#paint30_linear_1359_435)" stroke-width="6.75677"/>
<path opacity="0.32" fill-rule="evenodd" clip-rule="evenodd" d="M-926.001 530.517C-1030.37 377.526 -1257.85 248.439 -1211.02 69.422C-1165.59 -104.216 -896.312 -72.8754 -743.737 -166.194C-601.966 -252.905 -516.969 -430.936 -352.666 -455.566C-177.242 -481.864 7.56453 -414.489 143.161 -299.149C276.109 -186.062 351.319 -14.5038 370.155 159.274C387.177 316.323 298.988 455.905 240.89 602.495C184.967 743.596 173.648 930.389 37.9844 997.384C-97.9275 1064.5 -252.141 956.96 -398.939 918.461C-509.501 889.466 -619.963 868.531 -712.194 800.645C-806.883 730.949 -859.648 627.784 -926.001 530.517Z" stroke="url(#paint31_linear_1359_435)" stroke-width="6.75677"/>
<path opacity="0.33" fill-rule="evenodd" clip-rule="evenodd" d="M-928.948 537.663C-1035.57 387.081 -1264.43 262.454 -1220.88 83.3163C-1178.65 -90.4387 -909.854 -63.9062 -759.484 -159.518C-619.762 -248.36 -538.185 -427.18 -374.939 -454.574C-200.643 -483.823 -15.3737 -419.926 121.708 -307.392C256.111 -197.058 334.013 -27.4742 355.795 145.301C375.481 301.446 290.054 442.021 234.725 589.054C181.467 730.58 173.437 916.846 39.4568 985.942C-94.7687 1055.16 -250.26 950.724 -397.165 914.93C-507.807 887.971 -618.209 869.04 -711.266 803.022C-806.803 735.244 -861.159 633.398 -928.948 537.663Z" stroke="url(#paint32_linear_1359_435)" stroke-width="6.75677"/>
<path opacity="0.34" fill-rule="evenodd" clip-rule="evenodd" d="M-931.636 544.788C-1040.47 396.648 -1270.61 276.489 -1230.34 97.2905C-1191.29 -76.5234 -923.066 -54.7723 -774.935 -152.629C-637.293 -243.557 -559.135 -423.101 -396.993 -453.23C-223.875 -485.398 -38.2082 -424.974 100.301 -315.265C236.104 -207.699 316.653 -40.1307 341.353 131.593C363.675 286.787 281.018 428.303 228.456 575.726C177.862 717.628 173.098 903.309 40.8327 974.468C-91.6744 1045.76 -248.382 944.43 -395.344 911.331C-506.029 886.403 -616.336 869.467 -710.182 805.325C-806.529 739.474 -862.445 638.97 -931.636 544.788Z" stroke="url(#paint33_linear_1359_435)" stroke-width="6.75677"/>
<path opacity="0.35" fill-rule="evenodd" clip-rule="evenodd" d="M-934.118 551.936C-1045.1 406.269 -1276.44 290.585 -1239.44 111.386C-1203.56 -62.4293 -935.995 -45.4316 -790.136 -145.485C-654.604 -238.453 -579.866 -418.656 -418.873 -451.489C-246.982 -486.545 -60.9816 -429.588 78.8988 -322.718C216.046 -217.936 299.195 -52.4245 326.782 118.199C351.714 272.399 271.834 414.8 222.035 562.562C174.101 704.791 172.581 889.83 42.0621 963.013C-88.6954 1036.33 -246.558 938.126 -393.528 907.714C-504.219 884.81 -614.395 869.86 -708.993 807.602C-806.112 743.685 -863.558 644.547 -934.118 551.936Z" stroke="url(#paint34_linear_1359_435)" stroke-width="6.75677"/>
<path opacity="0.36" fill-rule="evenodd" clip-rule="evenodd" d="M-936.374 559.058C-1049.46 415.894 -1281.91 304.69 -1248.17 125.549C-1215.44 -48.2097 -948.619 -35.9357 -805.062 -138.136C-671.671 -233.099 -600.352 -413.896 -440.552 -449.403C-269.936 -487.314 -83.6664 -433.817 57.5284 -329.801C195.965 -227.816 281.666 -64.4006 312.11 105.074C339.623 258.235 262.526 401.469 215.487 549.519C170.208 692.025 171.908 876.365 43.1655 951.533C-85.8123 1026.84 -244.77 931.767 -391.699 904.033C-502.359 883.145 -612.368 870.171 -707.681 809.804C-805.534 747.828 -864.479 650.078 -936.374 559.058Z" stroke="url(#paint35_linear_1359_435)" stroke-width="6.75677"/>
<path opacity="0.37" fill-rule="evenodd" clip-rule="evenodd" d="M-938.385 566.175C-1053.52 425.542 -1286.99 318.821 -1256.5 139.797C-1226.92 -33.8478 -960.916 -26.2665 -819.692 -130.563C-688.468 -227.475 -620.567 -408.803 -462.005 -446.952C-292.71 -487.683 -106.236 -437.639 36.2165 -336.489C175.886 -237.316 264.092 -76.0342 297.361 92.2443C327.428 244.324 253.118 388.337 208.832 536.623C166.205 679.357 171.099 862.943 44.1628 940.056C-83.0058 1017.31 -242.996 925.38 -389.836 900.312C-500.429 881.432 -610.235 870.425 -706.226 811.954C-804.775 751.925 -865.189 655.585 -938.385 566.175Z" stroke="url(#paint36_linear_1359_435)" stroke-width="6.75677"/>
<path opacity="0.38" fill-rule="evenodd" clip-rule="evenodd" d="M-940.187 573.275C-1057.31 435.201 -1291.73 332.965 -1264.46 154.117C-1238.01 -19.3576 -972.918 -16.4365 -834.056 -122.78C-705.027 -221.593 -640.54 -403.388 -483.259 -444.146C-315.332 -487.664 -128.716 -441.063 14.9368 -342.792C155.784 -246.441 246.446 -87.3316 282.508 79.7038C315.098 230.66 243.579 375.398 202.041 523.87C162.059 666.783 170.122 849.559 45.0204 928.578C-80.3104 1007.74 -241.273 918.958 -387.975 896.545C-498.464 879.665 -608.033 870.612 -704.665 814.043C-803.872 755.966 -865.723 661.058 -940.187 573.275Z" stroke="url(#paint37_linear_1359_435)" stroke-width="6.75677"/>
<path opacity="0.39" fill-rule="evenodd" clip-rule="evenodd" d="M-941.736 580.359C-1060.8 444.871 -1296.08 347.121 -1272.02 168.506C-1248.69 -4.74203 -984.58 -6.44715 -848.109 -114.787C-721.301 -215.455 -660.223 -397.652 -504.266 -440.987C-337.752 -487.255 -151.058 -444.088 -6.26135 -348.707C135.707 -255.189 228.778 -98.288 267.598 67.4582C302.682 217.25 233.957 362.659 195.16 511.267C157.816 654.309 169.021 836.221 45.7818 917.105C-77.6834 998.136 -239.557 912.507 -386.074 892.737C-496.423 877.847 -605.72 870.737 -702.956 816.074C-802.783 759.954 -866.04 666.499 -941.736 580.359Z" stroke="url(#paint38_linear_1359_435)" stroke-width="6.75677"/>
<path opacity="0.4" fill-rule="evenodd" clip-rule="evenodd" d="M-943.093 587.413C-1064.04 454.536 -1300.09 361.27 -1279.23 182.946C-1258.99 9.98036 -995.957 3.68435 -861.904 -106.601C-737.343 -209.076 -679.668 -391.613 -525.077 -437.491C-360.021 -486.474 -173.312 -446.728 -27.4281 -354.247C115.606 -263.572 211.035 -108.914 252.581 55.4976C290.128 204.083 224.197 350.111 188.133 498.804C153.42 641.928 167.74 822.922 46.3897 905.63C-75.1831 988.489 -237.908 906.017 -384.191 888.876C-494.365 875.966 -603.356 870.788 -701.159 818.035C-801.568 763.876 -866.198 671.893 -943.093 587.413Z" stroke="url(#paint39_linear_1359_435)" stroke-width="6.75677"/>
<path opacity="0.41" fill-rule="evenodd" clip-rule="evenodd" d="M-944.222 594.442C-1067 464.2 -1303.74 375.415 -1286.05 197.439C-1268.9 24.8107 -1007.01 13.9605 -875.403 -98.2184C-753.113 -202.454 -698.835 -385.267 -545.651 -433.653C-382.097 -485.314 -195.435 -448.978 -48.521 -359.404C95.5227 -271.581 193.26 -119.202 237.497 43.8314C277.476 191.171 214.341 337.764 181.001 486.492C148.91 629.65 166.316 809.673 46.8802 894.163C-72.774 978.808 -236.288 899.499 -382.292 884.973C-492.255 874.032 -600.906 870.772 -699.239 819.932C-800.192 767.736 -866.164 677.245 -944.222 594.442Z" stroke="url(#paint40_linear_1359_435)" stroke-width="6.75677"/>
<path opacity="0.42" fill-rule="evenodd" clip-rule="evenodd" d="M-945.113 601.418C-1069.66 473.835 -1307.01 389.527 -1292.48 211.955C-1278.4 39.7185 -1017.73 24.3524 -888.592 -89.669C-768.596 -195.616 -717.707 -378.643 -565.97 -429.502C-403.961 -483.804 -217.407 -450.863 -69.5207 -364.206C75.477 -279.242 175.473 -129.173 222.365 32.4372C264.743 178.491 204.404 325.597 173.778 474.31C144.299 617.454 164.762 796.454 47.2663 882.685C-70.4443 969.075 -234.687 892.929 -380.365 881.003C-490.083 872.021 -598.359 870.665 -697.185 821.74C-798.644 771.512 -865.926 682.531 -945.113 601.418Z" stroke="url(#paint41_linear_1359_435)" stroke-width="6.75677"/>
<path opacity="0.43" fill-rule="evenodd" clip-rule="evenodd" d="M-945.777 608.358C-1072.05 483.455 -1309.91 403.618 -1298.53 226.506C-1287.49 54.7164 -1028.13 34.8737 -901.479 -80.9382C-783.799 -188.549 -736.291 -371.727 -586.04 -425.024C-425.618 -481.928 -239.234 -452.367 -90.4314 -368.633C55.4645 -286.534 157.668 -138.81 207.179 21.3357C251.924 166.065 194.378 313.631 166.456 462.28C139.58 605.363 163.069 783.287 47.5375 871.218C-68.2052 959.31 -233.117 886.33 -378.422 876.988C-487.859 869.952 -595.729 870.487 -695.011 823.479C-796.938 775.219 -865.498 687.767 -945.777 608.358Z" stroke="url(#paint42_linear_1359_435)" stroke-width="6.75677"/>
<path opacity="0.44" fill-rule="evenodd" clip-rule="evenodd" d="M-946.244 615.266C-1074.18 493.066 -1312.48 417.691 -1304.21 241.095C-1296.2 69.8049 -1038.22 45.5265 -914.088 -72.0238C-798.746 -181.25 -754.607 -364.517 -605.881 -420.215C-447.088 -479.683 -260.936 -453.486 -111.273 -372.68C35.4653 -293.453 139.825 -148.103 191.918 10.5353C238.997 153.903 184.243 301.876 159.013 450.412C134.727 593.386 161.211 770.185 47.6677 859.773C-66.0836 949.525 -231.604 879.71 -376.491 872.936C-485.613 867.834 -593.043 870.244 -692.744 825.155C-795.102 778.863 -864.906 692.957 -946.244 615.266Z" stroke="url(#paint43_linear_1359_435)" stroke-width="6.75677"/>
<path opacity="0.45" fill-rule="evenodd" clip-rule="evenodd" d="M-946.446 622.108C-1075.99 502.63 -1314.64 431.709 -1309.48 255.683C-1304.47 84.9461 -1047.94 56.2741 -926.35 -62.9622C-813.367 -173.755 -772.586 -357.049 -625.423 -415.112C-468.299 -477.104 -282.438 -454.254 -131.973 -376.381C15.553 -300.029 122.017 -157.083 176.656 0.00605308C226.034 141.974 174.068 290.302 151.517 438.677C129.811 581.496 159.257 757.119 47.7243 848.321C-64.013 939.691 -230.081 873.04 -374.505 868.816C-483.279 865.635 -590.236 869.906 -690.32 826.734C-793.072 782.412 -864.087 698.07 -946.446 622.108Z" stroke="url(#paint44_linear_1359_435)" stroke-width="6.75677"/>
<path opacity="0.46" fill-rule="evenodd" clip-rule="evenodd" d="M-946.477 628.909C-1077.57 512.17 -1316.49 445.693 -1314.41 270.291C-1312.38 100.16 -1057.39 67.1375 -938.352 -53.7321C-827.746 -166.043 -790.311 -349.303 -644.748 -409.692C-489.333 -474.169 -303.823 -454.648 -152.612 -379.711C-4.35481 -306.237 104.162 -165.725 161.307 -10.2248C212.951 130.307 163.769 278.939 143.884 427.104C124.744 569.721 157.12 744.119 47.6191 836.893C-62.0825 929.838 -228.639 866.349 -372.555 864.657C-480.946 863.382 -587.399 869.498 -687.829 828.245C-790.937 785.892 -863.13 703.127 -946.477 628.909Z" stroke="url(#paint45_linear_1359_435)" stroke-width="6.75677"/>
<path opacity="0.47" fill-rule="evenodd" clip-rule="evenodd" d="M-946.269 635.659C-1078.86 521.679 -1317.97 459.633 -1318.94 284.909C-1319.87 115.435 -1066.48 78.1071 -950.025 -44.343C-841.816 -158.122 -807.712 -341.288 -663.786 -403.966C-510.117 -470.887 -325.018 -454.675 -173.118 -382.676C-24.1844 -312.083 86.3329 -174.033 145.946 -20.1607C199.82 118.9 153.416 267.782 136.183 415.691C119.596 558.06 154.868 731.184 47.4198 825.487C-60.2255 919.964 -227.211 859.633 -370.575 860.454C-478.55 861.072 -584.466 869.017 -685.207 829.68C-788.633 789.295 -861.971 708.125 -946.269 635.659Z" stroke="url(#paint46_linear_1359_435)" stroke-width="6.75677"/>
<path opacity="0.48" fill-rule="evenodd" clip-rule="evenodd" d="M-945.836 642.322C-1079.87 531.116 -1319.08 473.487 -1323.08 299.494C-1326.95 130.729 -1075.24 89.1413 -961.378 -34.8362C-855.582 -150.035 -824.796 -333.046 -682.541 -397.974C-530.658 -467.297 -346.028 -454.375 -193.494 -385.315C-43.9403 -317.604 68.5245 -182.042 130.566 -29.8368C186.635 107.717 143.003 256.799 128.407 404.403C114.358 546.48 152.492 718.282 47.116 814.071C-58.4529 910.036 -225.808 852.86 -368.576 856.173C-476.102 858.669 -581.451 868.426 -682.466 831.004C-786.173 792.584 -860.622 713.023 -945.836 642.322Z" stroke="url(#paint47_linear_1359_435)" stroke-width="6.75677"/>
<path opacity="0.49" fill-rule="evenodd" clip-rule="evenodd" d="M-945.222 648.92C-1080.64 540.504 -1319.88 487.277 -1326.88 314.067C-1333.66 146.062 -1083.69 100.261 -972.452 -25.1903C-869.086 -141.759 -841.601 -324.555 -701.053 -391.694C-550.991 -463.378 -366.889 -453.724 -213.778 -387.603C-63.6585 -322.773 50.7007 -189.727 115.131 -39.2256C173.359 96.7882 132.492 246.019 120.517 393.271C108.991 535.01 149.95 705.443 46.666 802.674C-56.8074 900.084 -224.473 846.057 -366.602 851.843C-473.647 856.2 -578.397 867.752 -679.65 832.242C-783.601 795.786 -859.128 717.848 -945.222 648.92Z" stroke="url(#paint48_linear_1359_435)" stroke-width="6.75677"/>
<path opacity="0.5" fill-rule="evenodd" clip-rule="evenodd" d="M-944.377 655.454C-1081.12 549.843 -1320.31 501.001 -1330.28 328.625C-1339.95 161.43 -1091.8 111.465 -983.193 -15.4074C-882.273 -133.296 -858.073 -315.819 -719.264 -385.129C-571.06 -459.131 -387.544 -452.722 -233.912 -389.54C-83.2808 -327.591 32.9194 -197.084 99.6977 -48.3241C160.048 86.116 121.938 235.444 112.567 382.299C103.547 523.655 147.297 692.674 46.1225 791.303C-55.2374 890.114 -223.155 839.228 -364.602 847.466C-471.134 853.669 -575.255 866.997 -676.71 833.397C-780.869 798.902 -857.439 722.599 -944.377 655.454Z" stroke="url(#paint49_linear_1359_435)" stroke-width="6.75677"/>
<path opacity="0.51" fill-rule="evenodd" clip-rule="evenodd" d="M-943.283 661.917C-1081.3 559.123 -1320.35 514.648 -1333.27 343.158C-1345.81 176.822 -1099.54 122.742 -993.581 -5.49765C-895.121 -124.657 -874.187 -306.847 -737.151 -378.288C-590.84 -454.565 -407.966 -451.379 -253.868 -391.133C-102.781 -332.064 15.2066 -204.118 84.2919 -57.136C146.727 75.6978 111.364 225.072 104.581 371.484C98.0508 512.413 144.554 679.972 45.5061 779.956C-53.7231 880.123 -221.834 832.373 -362.557 843.039C-468.544 851.072 -572.006 866.158 -673.628 834.464C-777.957 801.925 -855.537 727.27 -943.283 661.917Z" stroke="url(#paint50_linear_1359_435)" stroke-width="6.75677"/>
<path opacity="0.52" fill-rule="evenodd" clip-rule="evenodd" d="M-942.016 668.285C-1081.25 568.321 -1320.08 528.193 -1335.93 357.639C-1351.3 192.211 -1106.99 134.066 -1003.69 4.51282C-907.701 -115.867 -890.014 -297.667 -754.783 -371.198C-610.398 -449.707 -428.223 -449.719 -273.716 -392.406C-122.226 -336.212 -2.50514 -210.852 68.8456 -65.6822C133.328 65.5137 100.703 214.885 96.4878 360.808C92.4302 501.267 141.649 667.321 44.7442 768.616C-52.3377 870.096 -220.584 825.471 -360.542 838.543C-465.952 848.389 -568.726 865.214 -670.478 835.421C-774.943 804.833 -853.498 731.84 -942.016 668.285Z" stroke="url(#paint51_linear_1359_435)" stroke-width="6.75677"/>
<path opacity="0.53" fill-rule="evenodd" clip-rule="evenodd" d="M-940.518 674.563C-1080.91 577.439 -1319.45 541.637 -1338.19 372.069C-1356.37 207.596 -1114.08 145.439 -1013.45 14.6256C-919.95 -106.925 -905.492 -288.277 -772.096 -363.857C-629.671 -444.554 -448.251 -447.738 -293.388 -393.354C-141.551 -340.033 -20.1507 -217.279 53.4234 -73.9555C119.915 55.5717 90.0171 204.89 88.3509 350.279C86.7471 490.224 138.643 654.731 43.8972 757.291C-51.0221 860.04 -219.346 818.53 -358.498 833.986C-463.301 845.627 -565.357 864.172 -667.205 836.274C-771.768 807.633 -851.264 736.311 -940.518 674.563Z" stroke="url(#paint52_linear_1359_435)" stroke-width="6.75677"/>
<path opacity="0.54" fill-rule="evenodd" clip-rule="evenodd" d="M-938.827 680.773C-1080.32 586.5 -1318.49 555.002 -1340.09 386.468C-1361.05 222.999 -1120.84 156.882 -1022.91 24.8618C-931.903 -97.8097 -920.651 -278.656 -789.121 -356.244C-648.688 -439.084 -468.077 -445.414 -312.915 -393.955C-160.784 -343.5 -37.7587 -223.373 37.9961 -81.9294C106.459 45.899 79.2754 195.114 80.1385 339.926C80.9694 479.314 135.504 642.23 42.9311 746.013C-49.811 849.985 -218.155 811.581 -356.461 829.395C-460.626 842.812 -561.936 863.057 -663.845 837.05C-768.469 810.349 -848.872 740.71 -938.827 680.773Z" stroke="url(#paint53_linear_1359_435)" stroke-width="6.75677"/>
<path opacity="0.55" fill-rule="evenodd" clip-rule="evenodd" d="M-936.94 686.863C-1079.47 595.448 -1317.2 568.23 -1341.64 400.779C-1365.34 238.359 -1127.28 168.336 -1032.05 35.1635C-943.552 -88.5789 -935.484 -268.863 -805.849 -348.417C-667.44 -433.355 -487.693 -442.805 -332.286 -394.263C-179.915 -346.669 -55.3188 -229.188 22.5736 -89.6564C92.9682 36.4441 68.4869 185.508 71.8588 329.697C75.1043 468.487 132.237 629.771 41.8517 734.731C-48.6994 839.883 -217.007 804.571 -354.426 824.719C-457.924 839.894 -558.46 861.819 -660.394 837.695C-765.045 812.929 -846.321 744.981 -936.94 686.863Z" stroke="url(#paint54_linear_1359_435)" stroke-width="6.75677"/>
<path opacity="0.56" fill-rule="evenodd" clip-rule="evenodd" d="M-934.846 692.877C-1078.37 604.33 -1315.57 581.366 -1342.81 415.045C-1369.23 253.721 -1133.39 179.846 -1040.86 45.5751C-954.883 -79.1881 -949.977 -258.855 -822.266 -340.332C-685.91 -427.323 -507.08 -439.863 -351.483 -394.232C-198.925 -349.492 -72.8129 -234.675 7.17357 -97.0868C79.4606 27.2574 57.6679 176.12 63.5269 319.645C69.1666 457.795 128.858 617.405 40.6721 723.498C-47.6753 829.785 -215.89 797.552 -352.383 820.009C-455.184 836.923 -554.918 860.506 -656.844 838.259C-761.486 815.419 -843.599 749.173 -934.846 692.877Z" stroke="url(#paint55_linear_1359_435)" stroke-width="6.75677"/>
<path opacity="0.57" fill-rule="evenodd" clip-rule="evenodd" d="M-932.553 698.771C-1077.01 613.096 -1313.61 594.361 -1343.62 429.216C-1372.73 269.033 -1139.16 191.363 -1049.35 56.0469C-965.899 -69.6871 -964.129 -248.681 -838.369 -332.038C-704.097 -421.037 -526.237 -436.639 -370.503 -393.91C-217.811 -352.016 -90.2386 -239.88 -8.20212 -104.265C65.9376 18.295 46.819 166.909 55.1431 309.726C63.1555 447.195 125.364 605.092 39.3901 712.272C-46.7416 819.649 -214.808 790.483 -350.337 815.222C-452.411 833.855 -551.316 859.075 -653.199 838.697C-757.796 817.776 -840.713 753.24 -932.553 698.771Z" stroke="url(#paint56_linear_1359_435)" stroke-width="6.75677"/>
<path opacity="0.58" fill-rule="evenodd" clip-rule="evenodd" d="M-930.065 704.558C-1075.39 621.763 -1311.32 607.228 -1344.07 443.305C-1375.83 284.307 -1144.6 202.898 -1057.52 66.5915C-976.6 -60.0633 -977.943 -238.33 -854.16 -323.524C-721.999 -414.485 -545.162 -433.118 -389.345 -393.283C-236.572 -354.225 -107.594 -244.786 -23.5515 -111.174C52.4007 9.57562 35.9409 157.893 46.7071 299.96C57.0703 436.707 121.755 592.851 38.0034 701.076C-45.9015 809.498 -213.763 783.382 -348.29 810.377C-449.609 830.708 -547.659 857.544 -649.464 839.027C-753.983 820.017 -837.669 757.197 -930.065 704.558Z" stroke="url(#paint57_linear_1359_435)" stroke-width="6.75677"/>
<path opacity="0.59" fill-rule="evenodd" clip-rule="evenodd" d="M-927.357 710.233C-1073.51 630.321 -1308.68 619.956 -1344.14 457.3C-1378.52 299.532 -1149.68 214.442 -1065.33 77.1981C-986.957 -50.3275 -991.387 -227.813 -869.607 -314.8C-739.585 -407.676 -563.822 -429.31 -407.975 -392.358C-255.173 -356.127 -124.844 -249.4 -38.8415 -117.82C38.8828 1.09397 25.0655 149.068 38.2503 290.343C50.9413 426.328 118.06 580.682 36.5411 689.905C-45.127 799.327 -212.729 776.246 -346.216 805.469C-446.753 827.479 -543.921 855.908 -645.615 839.243C-750.02 822.134 -834.44 761.039 -927.357 710.233Z" stroke="url(#paint58_linear_1359_435)" stroke-width="6.75677"/>
<path opacity="0.6" fill-rule="evenodd" clip-rule="evenodd" d="M-924.459 715.794C-1071.37 638.768 -1305.72 632.544 -1343.85 471.2C-1380.82 314.703 -1154.44 225.991 -1072.83 87.8635C-996.996 -40.4829 -1004.49 -217.133 -884.734 -305.871C-756.877 -400.615 -582.239 -425.218 -426.416 -391.137C-273.637 -357.723 -142.012 -253.72 -54.0937 -124.2C25.3618 -7.14723 14.1699 140.436 29.7489 280.879C44.7445 416.062 114.254 568.589 34.9774 678.765C-44.4446 789.143 -211.732 769.079 -344.144 800.502C-443.87 824.169 -540.131 854.17 -641.681 839.347C-745.937 824.129 -831.057 764.765 -924.459 715.794Z" stroke="url(#paint59_linear_1359_435)" stroke-width="6.75677"/>
<path opacity="0.61" fill-rule="evenodd" clip-rule="evenodd" d="M-921.384 721.242C-1069 647.104 -1302.46 644.988 -1343.22 484.999C-1382.75 329.817 -1158.87 237.542 -1080.01 98.5847C-1006.73 -30.5327 -1017.25 -206.296 -899.549 -296.74C-773.883 -393.305 -600.419 -420.844 -444.672 -389.623C-291.968 -359.012 -159.103 -257.748 -69.3142 -130.313C11.8312 -15.1457 3.24704 132 21.1952 271.57C38.4713 405.914 110.329 556.576 33.3023 667.661C-43.8652 778.95 -210.785 761.885 -342.084 795.48C-440.973 820.782 -536.301 852.331 -637.673 839.34C-741.747 826.003 -827.532 768.376 -921.384 721.242Z" stroke="url(#paint60_linear_1359_435)" stroke-width="6.75677"/>
<path opacity="0.62" fill-rule="evenodd" clip-rule="evenodd" d="M-918.107 726.568C-1066.38 655.32 -1298.87 657.279 -1342.23 498.688C-1384.28 344.862 -1162.96 249.083 -1086.85 109.35C-1016.12 -20.4883 -1029.65 -195.313 -914.022 -287.417C-790.571 -385.756 -618.33 -416.198 -462.711 -387.824C-310.133 -360.004 -176.083 -261.489 -84.4704 -136.166C-1.67641 -22.9069 -7.67164 123.756 12.62 262.413C32.1518 395.878 106.313 544.642 31.5448 656.591C-43.3608 768.745 -209.858 754.661 -340.011 790.398C-438.035 817.314 -532.407 850.388 -633.568 839.218C-737.425 827.751 -823.842 771.865 -918.107 726.568Z" stroke="url(#paint61_linear_1359_435)" stroke-width="6.75677"/>
<path opacity="0.63" fill-rule="evenodd" clip-rule="evenodd" d="M-914.665 731.746C-1063.53 663.388 -1294.98 669.388 -1340.9 512.236C-1385.45 359.806 -1166.74 260.586 -1093.38 120.13C-1025.21 -10.3799 -1041.71 -184.215 -928.184 -277.935C-806.971 -378 -636.002 -411.31 -480.564 -385.769C-328.161 -360.727 -192.982 -264.971 -99.5915 -141.785C-15.1909 -30.456 -18.6166 115.678 3.99211 253.384C25.7542 385.933 102.176 532.763 29.6713 645.531C-42.9656 758.506 -208.988 747.383 -337.959 785.232C-435.094 813.739 -528.484 848.314 -629.402 838.954C-733.01 829.345 -820.022 775.206 -914.665 731.746Z" stroke="url(#paint62_linear_1359_435)" stroke-width="6.75677"/>
<path opacity="0.64" fill-rule="evenodd" clip-rule="evenodd" d="M-911.027 736.806C-1060.43 671.337 -1290.78 681.342 -1339.22 525.67C-1386.22 374.676 -1170.18 272.077 -1099.58 130.952C-1033.97 -0.180155 -1053.41 -172.975 -941.997 -268.267C-823.046 -370.009 -653.396 -406.152 -498.189 -383.429C-346.013 -361.15 -209.759 -268.163 -114.638 -147.137C-28.6723 -37.7601 -29.5489 107.801 -4.65 244.517C19.3165 376.113 97.9528 520.976 27.7187 634.518C-42.6439 748.269 -208.14 740.085 -335.894 780.017C-432.113 810.092 -524.499 846.143 -625.141 838.582C-728.466 830.819 -816.04 778.43 -911.027 736.806Z" stroke="url(#paint63_linear_1359_435)" stroke-width="6.75677"/>
<path opacity="0.65" fill-rule="evenodd" clip-rule="evenodd" d="M-907.205 741.718C-1057.09 679.135 -1286.26 693.108 -1337.2 538.957C-1386.6 389.437 -1173.29 283.522 -1105.44 141.781C-1042.39 10.0761 -1064.74 -161.629 -955.471 -258.447C-838.802 -361.819 -670.518 -400.759 -515.593 -380.838C-363.694 -361.306 -226.421 -271.097 -129.615 -152.253C-42.1271 -44.8489 -40.4755 100.095 -13.3141 235.782C12.8301 366.389 93.6361 509.253 25.6771 623.525C-42.4063 738.006 -207.323 732.74 -333.829 774.724C-429.107 806.344 -520.465 843.848 -620.8 838.072C-723.81 832.142 -811.91 781.506 -907.205 741.718Z" stroke="url(#paint64_linear_1359_435)" stroke-width="6.75677"/>
<path opacity="0.66" fill-rule="evenodd" clip-rule="evenodd" d="M-903.191 746.504C-1053.51 686.805 -1281.43 704.708 -1334.82 552.116C-1386.6 404.11 -1176.06 294.942 -1110.96 152.637C-1050.47 20.4091 -1075.71 -150.157 -968.59 -248.456C-854.224 -353.408 -687.352 -395.11 -532.759 -377.974C-381.186 -361.172 -242.949 -273.747 -144.506 -157.108C-55.5384 -51.6967 -51.3805 92.5858 -21.9849 227.208C6.30983 356.789 89.2397 497.623 23.5597 612.58C-42.2406 727.747 -206.527 725.377 -331.751 769.38C-426.064 802.521 -516.372 841.452 -616.368 837.449C-719.03 833.34 -807.623 784.459 -903.191 746.504Z" stroke="url(#paint65_linear_1359_435)" stroke-width="6.75677"/>
<path opacity="0.67" fill-rule="evenodd" clip-rule="evenodd" d="M-899.031 751.141C-1049.72 694.321 -1276.34 716.115 -1332.13 565.122C-1386.25 418.665 -1178.53 306.309 -1116.19 163.494C-1058.26 30.7911 -1086.34 -138.589 -981.396 -238.322C-869.353 -344.807 -703.937 -389.232 -549.726 -374.863C-398.528 -360.775 -259.383 -276.14 -159.349 -161.727C-68.9447 -58.3263 -62.303 85.2518 -30.7021 218.773C-0.28461 347.294 84.7231 486.066 21.3252 601.663C-42.1888 717.472 -205.794 717.973 -329.705 763.965C-423.029 798.603 -512.265 838.937 -611.891 836.693C-714.173 834.389 -803.225 787.265 -899.031 751.141Z" stroke="url(#paint66_linear_1359_435)" stroke-width="6.75677"/>
<path opacity="0.68" fill-rule="evenodd" clip-rule="evenodd" d="M-894.691 755.632C-1045.71 701.687 -1270.94 727.332 -1329.11 577.974C-1385.53 433.104 -1180.67 317.624 -1121.08 174.351C-1065.71 41.2227 -1096.6 -126.923 -993.851 -228.046C-884.149 -336.014 -720.234 -383.125 -566.455 -371.504C-415.679 -360.111 -275.68 -278.272 -174.104 -166.104C-82.3059 -64.7323 -73.2037 78.0989 -39.4269 210.482C-6.91496 337.908 80.1239 474.59 19.0105 590.783C-42.2149 707.189 -205.09 710.537 -327.656 758.485C-419.967 794.596 -508.11 836.306 -607.336 835.807C-709.206 835.295 -798.681 789.929 -894.691 755.632Z" stroke="url(#paint67_linear_1359_435)" stroke-width="6.75677"/>
<path opacity="0.69" fill-rule="evenodd" clip-rule="evenodd" d="M-890.187 759.978C-1041.47 708.9 -1265.26 738.355 -1325.76 590.669C-1384.44 447.421 -1182.5 328.883 -1125.65 185.205C-1072.83 51.6999 -1106.5 -115.166 -1005.96 -217.632C-898.621 -327.033 -736.25 -376.791 -582.951 -367.9C-432.646 -359.183 -291.849 -280.143 -188.778 -170.239C-95.6288 -70.9134 -84.0902 71.1289 -48.1676 202.34C-13.5901 328.637 75.433 463.2 16.6054 579.945C-42.33 696.903 -204.425 703.073 -325.616 752.943C-416.892 790.503 -503.92 833.564 -602.715 834.795C-704.142 836.059 -794.008 792.451 -890.187 759.978Z" stroke="url(#paint68_linear_1359_435)" stroke-width="6.75677"/>
<path opacity="0.7" fill-rule="evenodd" clip-rule="evenodd" d="M-885.501 764.151C-1036.99 715.934 -1259.28 749.155 -1322.07 603.177C-1382.98 461.586 -1183.98 340.056 -1129.88 196.025C-1079.61 62.1915 -1116.03 -103.349 -1017.72 -207.111C-912.747 -317.898 -751.962 -370.262 -599.191 -364.081C-449.405 -358.02 -307.864 -281.782 -203.346 -174.159C-108.889 -76.8963 -94.9391 64.3157 -56.9012 194.32C-20.2877 319.456 70.6724 451.871 14.1311 569.124C-42.5138 686.59 -203.78 695.555 -323.567 747.315C-413.785 786.298 -499.679 830.684 -598.012 833.63C-698.966 836.655 -789.188 794.806 -885.501 764.151Z" stroke="url(#paint69_linear_1359_435)" stroke-width="6.75677"/>
<path opacity="0.71" fill-rule="evenodd" clip-rule="evenodd" d="M-880.665 768.174C-1032.31 722.81 -1253.03 759.754 -1318.07 615.519C-1381.16 475.618 -1185.17 351.164 -1133.81 206.83C-1086.08 72.7169 -1125.2 -91.4531 -1029.13 -196.466C-926.552 -308.588 -767.393 -363.52 -615.199 -360.026C-465.978 -356.6 -323.748 -283.167 -217.831 -177.843C-122.111 -82.657 -105.774 57.684 -65.6519 186.447C-27.0323 310.389 65.8171 440.632 11.5619 558.347C-42.7927 676.278 -203.182 688.012 -321.535 741.627C-410.674 782.008 -495.414 827.692 -593.257 832.338C-693.706 837.107 -784.25 797.015 -880.665 768.174Z" stroke="url(#paint70_linear_1359_435)" stroke-width="6.75677"/>
<path opacity="0.72" fill-rule="evenodd" clip-rule="evenodd" d="M-875.66 772.039C-1027.42 729.518 -1246.5 770.141 -1313.75 627.683C-1378.98 489.505 -1186.02 362.193 -1137.4 217.61C-1092.21 83.2643 -1134.01 -79.4914 -1040.18 -185.709C-940.012 -299.116 -782.521 -356.574 -630.95 -355.746C-482.34 -354.934 -339.476 -284.305 -232.209 -181.296C-135.268 -88.2022 -116.571 51.2278 -74.3965 178.718C-33.8012 301.433 60.8893 429.478 8.91903 547.613C-43.1464 665.963 -202.611 680.437 -319.504 735.875C-407.541 777.627 -491.109 824.583 -588.431 830.912C-688.347 837.409 -779.179 799.073 -875.66 772.039Z" stroke="url(#paint71_linear_1359_435)" stroke-width="6.75677"/>
<path opacity="0.73" fill-rule="evenodd" clip-rule="evenodd" d="M-870.496 775.743C-1022.3 736.055 -1239.69 780.311 -1309.11 639.662C-1376.44 503.239 -1186.56 373.138 -1140.66 228.356C-1098.01 93.8257 -1142.44 -67.4727 -1050.88 -174.848C-953.13 -289.491 -797.347 -349.434 -646.445 -351.249C-498.491 -353.029 -355.047 -285.204 -246.479 -184.524C-148.361 -93.5359 -127.331 44.9436 -83.1359 171.128C-40.5961 292.586 55.8874 418.408 6.20007 536.918C-43.5782 655.645 -202.072 672.831 -317.476 730.056C-404.392 773.154 -486.768 821.355 -583.542 829.35C-682.894 837.557 -773.981 800.975 -870.496 775.743Z" stroke="url(#paint72_linear_1359_435)" stroke-width="6.75677"/>
<path opacity="0.74" fill-rule="evenodd" clip-rule="evenodd" d="M-865.193 779.276C-1017 742.41 -1232.64 790.252 -1304.18 651.445C-1373.57 516.809 -1186.81 383.987 -1143.63 239.057C-1103.5 104.389 -1150.53 -55.4098 -1061.25 -163.896C-965.924 -279.726 -811.886 -342.111 -661.7 -346.546C-514.448 -350.894 -370.478 -285.872 -260.656 -187.536C-161.405 -98.6653 -138.069 38.8249 -91.8868 163.672C-47.4337 283.843 50.7941 407.419 3.38695 526.261C-44.107 645.32 -201.585 665.189 -315.473 724.165C-401.248 768.583 -482.415 818.001 -578.61 827.645C-677.37 837.546 -768.678 802.714 -865.193 779.276Z" stroke="url(#paint73_linear_1359_435)" stroke-width="6.75677"/>
<path opacity="0.75" fill-rule="evenodd" clip-rule="evenodd" d="M-859.744 782.632C-1011.5 748.576 -1225.32 799.956 -1298.95 663.022C-1370.36 530.202 -1186.75 394.728 -1146.28 249.701C-1108.67 114.943 -1158.25 -43.3152 -1071.26 -152.866C-978.379 -269.832 -826.124 -334.618 -676.699 -341.648C-530.193 -348.54 -385.752 -286.319 -274.724 -190.339C-174.384 -103.598 -148.771 32.8648 -100.634 156.343C-54.2996 275.198 45.6235 396.505 0.493005 515.636C-44.7202 634.984 -201.136 657.505 -313.483 718.198C-398.097 763.909 -478.037 814.517 -573.628 825.792C-671.766 837.368 -763.262 804.283 -859.744 782.632Z" stroke="url(#paint74_linear_1359_435)" stroke-width="6.75677"/>
<path opacity="0.76" fill-rule="evenodd" clip-rule="evenodd" d="M-854.156 785.817C-1005.81 754.558 -1217.76 809.428 -1293.42 674.397C-1366.81 543.423 -1186.39 405.366 -1148.62 260.292C-1113.52 125.491 -1165.62 -31.1865 -1080.92 -141.755C-990.497 -259.808 -840.063 -326.951 -691.443 -336.551C-545.727 -345.963 -400.867 -286.538 -288.684 -192.927C-187.299 -108.327 -159.436 27.0714 -109.378 149.152C-61.1951 266.661 40.3743 385.678 -2.48409 505.054C-45.4209 624.649 -200.731 649.791 -311.511 712.164C-394.946 759.141 -473.643 810.912 -568.6 823.8C-666.089 837.032 -757.74 805.691 -854.156 785.817Z" stroke="url(#paint75_linear_1359_435)" stroke-width="6.75677"/>
<path opacity="0.77" fill-rule="evenodd" clip-rule="evenodd" d="M-848.421 788.82C-999.917 760.344 -1209.95 818.654 -1287.6 685.555C-1362.92 556.455 -1185.73 415.886 -1150.64 270.815C-1118.05 136.016 -1172.62 -19.0406 -1090.23 -130.58C-1002.27 -249.67 -853.687 -319.127 -705.917 -331.27C-561.034 -343.176 -415.81 -286.545 -302.518 -195.313C-200.132 -112.863 -170.05 21.4337 -118.106 142.087C-68.1061 258.222 35.0603 374.928 -5.53119 494.507C-46.197 614.305 -200.357 642.036 -309.547 706.055C-391.783 754.271 -469.221 807.176 -563.519 821.659C-660.33 836.528 -752.103 806.925 -848.421 788.82Z" stroke="url(#paint76_linear_1359_435)" stroke-width="6.75677"/>
<path opacity="0.78" fill-rule="evenodd" clip-rule="evenodd" d="M-842.694 792.723C-993.985 767.014 -1202.03 828.715 -1281.64 697.576C-1358.85 570.378 -1184.91 427.366 -1152.5 282.348C-1122.39 147.598 -1179.4 -5.80045 -1099.33 -118.265C-1013.84 -238.341 -867.148 -310.067 -720.27 -324.728C-576.262 -339.102 -430.727 -285.257 -316.377 -196.415C-213.034 -116.124 -180.762 17.0343 -126.965 136.231C-75.1824 250.965 29.5313 365.342 -8.79924 485.081C-47.2 605.039 -200.168 635.328 -307.743 700.954C-388.764 750.381 -464.926 804.393 -558.538 820.451C-654.644 836.938 -746.507 809.068 -842.694 792.723Z" stroke="url(#paint77_linear_1359_435)" stroke-width="6.75677"/>
<path opacity="0.79" fill-rule="evenodd" clip-rule="evenodd" d="M-836.506 794.306C-987.541 771.35 -1193.55 836.389 -1275.06 707.238C-1354.12 581.967 -1183.47 436.584 -1153.73 291.667C-1126.1 157.011 -1185.5 5.3099 -1107.75 -108.032C-1024.73 -229.046 -879.969 -302.996 -734.027 -320.146C-590.937 -336.962 -445.142 -285.898 -329.782 -199.454C-225.526 -121.331 -191.095 10.6545 -135.481 128.368C-81.9489 241.673 24.2625 353.703 -11.814 473.559C-47.9566 593.635 -199.689 626.448 -305.628 693.646C-385.416 744.257 -460.289 799.346 -553.187 816.961C-648.562 835.045 -740.483 808.902 -836.506 794.306Z" stroke="url(#paint78_linear_1359_435)" stroke-width="6.75677"/>
<path opacity="0.8" fill-rule="evenodd" clip-rule="evenodd" d="M-830.381 796.754C-981.111 776.532 -1185.04 844.858 -1268.4 717.721C-1349.27 594.404 -1181.93 446.72 -1154.84 301.953C-1129.67 167.437 -1191.43 17.469 -1116.01 -96.7041C-1035.48 -218.605 -892.669 -294.735 -747.705 -314.347C-605.572 -333.575 -459.572 -285.285 -343.25 -201.248C-238.126 -125.3 -201.566 5.47825 -144.17 121.681C-88.9228 233.533 18.7363 343.196 -15.0938 463.129C-48.9858 583.28 -199.443 618.583 -303.722 687.316C-382.261 739.082 -455.83 795.221 -547.99 814.372C-642.606 834.033 -734.552 809.61 -830.381 796.754Z" stroke="url(#paint79_linear_1359_435)" stroke-width="6.75677"/>
<path opacity="0.81" fill-rule="evenodd" clip-rule="evenodd" d="M-824.116 799.034C-974.491 781.53 -1176.28 853.089 -1261.46 727.992C-1344.08 606.653 -1180.09 456.74 -1155.64 312.171C-1132.92 177.839 -1196.99 29.64 -1123.9 -85.3178C-1045.86 -208.057 -905.039 -286.32 -761.094 -308.364C-619.96 -329.978 -473.806 -284.453 -356.571 -202.829C-250.622 -129.062 -211.965 0.473998 -152.823 115.14C-95.8948 225.512 13.1619 332.795 -18.4301 452.761C-50.0799 572.946 -199.22 610.705 -301.82 680.935C-379.093 733.829 -451.344 790.988 -542.741 811.655C-636.574 832.872 -728.512 810.163 -824.116 799.034Z" stroke="url(#paint80_linear_1359_435)" stroke-width="6.75677"/>
<path opacity="0.82" fill-rule="evenodd" clip-rule="evenodd" d="M-817.725 801.1C-967.696 786.294 -1167.29 861.034 -1254.24 738C-1338.58 618.663 -1177.96 466.592 -1156.13 322.269C-1135.85 188.166 -1202.19 41.7709 -1131.43 -73.925C-1055.89 -197.452 -917.089 -277.803 -774.203 -302.25C-634.108 -326.22 -487.851 -283.45 -369.753 -204.246C-263.022 -132.667 -222.301 -4.405 -161.449 108.699C-102.874 217.567 7.5298 322.453 -21.8333 442.412C-51.2502 562.59 -199.034 602.769 -299.934 674.458C-375.926 728.452 -446.846 786.603 -537.455 808.764C-630.478 831.516 -722.378 810.513 -817.725 801.1Z" stroke="url(#paint81_linear_1359_435)" stroke-width="6.75677"/>
<path opacity="0.83" fill-rule="evenodd" clip-rule="evenodd" d="M-811.21 802.983C-960.729 790.856 -1158.09 868.721 -1246.76 747.775C-1332.77 630.463 -1175.54 476.305 -1156.32 332.276C-1138.46 198.445 -1207.02 53.8875 -1138.61 -62.5001C-1065.56 -186.766 -928.814 -269.157 -787.026 -295.978C-648.009 -322.274 -501.701 -282.25 -382.787 -205.471C-275.32 -136.083 -232.567 -9.12796 -170.041 102.389C-109.855 209.73 1.84593 312.205 -25.2982 432.115C-52.4921 552.244 -198.881 594.808 -298.061 667.919C-372.758 722.983 -442.334 782.098 -532.131 805.733C-624.32 829.998 -716.15 810.692 -811.21 802.983Z" stroke="url(#paint82_linear_1359_435)" stroke-width="6.75677"/>
<path opacity="0.84" fill-rule="evenodd" clip-rule="evenodd" d="M-804.593 804.662C-953.612 795.195 -1148.68 876.129 -1239.03 757.293C-1326.67 642.028 -1172.86 485.856 -1156.23 342.167C-1140.77 208.652 -1211.52 65.9653 -1145.45 -51.0677C-1074.9 -176.022 -940.231 -260.408 -799.581 -289.571C-661.68 -318.163 -515.373 -280.872 -395.692 -206.523C-287.532 -139.33 -242.78 -13.7143 -178.617 96.1921C-116.856 201.983 -3.90735 302.033 -28.8432 421.854C-53.8248 541.894 -198.781 586.806 -296.222 661.301C-369.609 717.407 -437.83 777.456 -526.79 802.543C-618.121 828.298 -709.85 810.681 -804.593 804.662Z" stroke="url(#paint83_linear_1359_435)" stroke-width="6.75677"/>
<path opacity="0.85" fill-rule="evenodd" clip-rule="evenodd" d="M-797.866 806.158C-946.339 799.329 -1139.07 883.277 -1231.06 766.572C-1320.27 653.374 -1169.91 495.261 -1155.85 351.958C-1142.78 218.803 -1215.66 78.0179 -1151.93 -39.6144C-1083.89 -165.209 -951.328 -251.541 -811.855 -283.014C-675.107 -313.872 -528.852 -279.303 -408.452 -207.386C-299.642 -142.392 -252.926 -18.1455 -187.162 90.1273C-123.861 194.345 -9.71628 291.96 -32.4553 411.651C-55.236 531.561 -198.722 578.784 -294.406 654.624C-366.471 711.744 -433.325 772.697 -521.426 799.214C-611.875 826.438 -703.472 810.5 -797.866 806.158Z" stroke="url(#paint84_linear_1359_435)" stroke-width="6.75677"/>
<path opacity="0.86" fill-rule="evenodd" clip-rule="evenodd" d="M-791.015 807.447C-938.895 803.234 -1129.25 890.139 -1222.82 775.587C-1313.57 664.476 -1166.67 504.493 -1155.16 361.622C-1144.46 228.868 -1219.44 90.017 -1158.05 -28.1684C-1092.52 -154.354 -962.085 -242.585 -823.826 -276.336C-688.269 -309.428 -542.114 -277.567 -421.044 -208.085C-311.629 -145.291 -262.982 -22.445 -195.655 84.1719C-130.85 186.796 -15.5595 281.963 -36.1138 401.484C-56.7058 521.224 -198.685 570.722 -292.595 647.868C-363.324 705.972 -428.801 767.801 -516.02 795.726C-605.563 824.395 -696.998 810.126 -791.015 807.447Z" stroke="url(#paint85_linear_1359_435)" stroke-width="6.75677"/>
<path opacity="0.87" fill-rule="evenodd" clip-rule="evenodd" d="M-784.087 808.517C-931.328 806.897 -1119.26 896.703 -1214.36 784.321C-1306.6 675.317 -1163.18 513.536 -1154.21 371.143C-1145.86 238.833 -1222.89 101.945 -1163.85 -16.7477C-1100.82 -143.475 -972.544 -233.557 -835.536 -269.554C-701.205 -304.847 -555.202 -275.681 -433.51 -208.635C-323.532 -148.043 -272.988 -26.6259 -204.137 78.3137C-137.864 179.324 -21.478 272.033 -39.8605 391.345C-58.2767 510.875 -198.714 562.608 -290.834 641.023C-360.215 700.081 -424.304 762.756 -510.619 792.066C-599.234 822.157 -690.475 809.548 -784.087 808.517Z" stroke="url(#paint86_linear_1359_435)" stroke-width="6.75677"/>
<path opacity="0.88" fill-rule="evenodd" clip-rule="evenodd" d="M-777.05 809.392C-923.608 810.341 -1109.07 902.989 -1205.66 792.797C-1299.35 685.917 -1159.43 522.412 -1152.97 380.541C-1146.96 248.716 -1225.98 113.82 -1169.29 -5.33398C-1108.76 -132.554 -982.669 -224.439 -846.949 -262.648C-713.879 -300.111 -568.077 -273.623 -445.81 -209.014C-335.313 -150.624 -282.909 -30.6649 -212.57 72.5767C-144.866 171.952 -27.435 262.195 -43.6592 381.258C-59.9132 500.539 -198.774 554.469 -289.089 634.113C-357.109 694.098 -419.802 757.589 -505.19 788.261C-592.855 819.751 -683.874 808.788 -777.05 809.392Z" stroke="url(#paint87_linear_1359_435)" stroke-width="6.75677"/>
<path opacity="0.89" fill-rule="evenodd" clip-rule="evenodd" d="M-769.93 810.055C-915.758 813.549 -1098.72 908.98 -1196.75 800.997C-1291.83 696.258 -1155.43 531.101 -1151.46 389.796C-1147.76 258.498 -1228.74 125.622 -1174.39 6.05152C-1116.37 -121.613 -992.48 -215.252 -858.082 -255.639C-726.309 -295.238 -580.756 -271.413 -457.963 -209.241C-346.99 -153.052 -292.76 -34.579 -220.973 66.945C-151.874 164.667 -33.4482 252.435 -47.5286 371.211C-61.6347 490.204 -198.885 546.292 -287.379 627.126C-354.029 688.007 -415.316 752.285 -499.757 784.296C-586.449 817.16 -677.216 807.834 -769.93 810.055Z" stroke="url(#paint88_linear_1359_435)" stroke-width="6.75677"/>
<path opacity="0.9" fill-rule="evenodd" clip-rule="evenodd" d="M-762.717 810.503C-907.773 816.517 -1088.18 914.673 -1187.61 808.913C-1284.05 706.331 -1151.17 539.596 -1149.67 398.901C-1148.27 268.169 -1231.16 137.341 -1179.15 17.3993C-1123.62 -110.661 -1001.96 -206.005 -868.923 -248.537C-738.481 -290.237 -593.225 -269.059 -469.954 -209.321C-358.548 -155.334 -302.528 -38.3728 -229.33 61.4145C-158.874 157.465 -39.5043 242.751 -51.4557 361.201C-63.429 479.868 -199.037 538.074 -285.696 620.059C-350.965 681.807 -410.837 746.842 -494.311 780.168C-580.01 814.382 -670.495 806.68 -762.717 810.503Z" stroke="url(#paint89_linear_1359_435)" stroke-width="6.75677"/>
<path opacity="0.91" fill-rule="evenodd" clip-rule="evenodd" d="M-755.421 810.752C-899.661 819.26 -1077.48 920.08 -1178.25 816.56C-1276 716.151 -1146.67 547.909 -1147.61 407.867C-1148.49 277.742 -1233.24 148.986 -1183.57 28.7192C-1130.53 -99.6888 -1011.13 -196.689 -879.477 -241.329C-750.398 -285.098 -605.487 -266.549 -481.785 -209.243C-369.989 -157.454 -312.215 -42.0321 -237.646 56.0004C-165.869 150.362 -45.6056 233.16 -55.4437 351.246C-65.2998 469.549 -199.232 529.832 -284.045 612.929C-347.922 675.514 -406.372 741.277 -488.859 775.894C-573.543 811.434 -663.718 805.342 -755.421 810.752Z" stroke="url(#paint90_linear_1359_435)" stroke-width="6.75677"/>
<path opacity="0.92" fill-rule="evenodd" clip-rule="evenodd" d="M-748.043 810.777C-891.424 821.753 -1066.62 925.177 -1168.69 823.912C-1267.69 725.689 -1141.92 556.013 -1145.29 416.667C-1148.42 287.187 -1234.99 160.53 -1187.65 39.9821C-1137.1 -88.7259 -1019.96 -187.333 -889.737 -234.047C-762.054 -279.848 -617.536 -263.909 -493.449 -209.033C-381.307 -159.439 -321.815 -45.5815 -245.913 50.6788C-172.853 143.334 -51.7464 223.64 -59.4876 341.324C-67.243 459.225 -199.469 521.546 -282.422 605.715C-344.899 669.107 -401.92 735.568 -483.399 771.452C-567.05 808.293 -656.886 803.799 -748.043 810.777Z" stroke="url(#paint91_linear_1359_435)" stroke-width="6.75677"/>
<path opacity="0.93" fill-rule="evenodd" clip-rule="evenodd" d="M-740.592 810.599C-883.072 824.015 -1055.6 929.982 -1158.93 830.985C-1259.14 734.963 -1136.94 563.926 -1142.71 425.316C-1148.07 296.522 -1236.41 171.987 -1191.39 51.2023C-1143.33 -77.7581 -1028.48 -177.922 -899.709 -226.673C-773.452 -274.472 -629.374 -261.124 -504.95 -208.673C-392.503 -161.271 -331.33 -49.0024 -254.134 45.4692C-179.829 136.403 -57.9295 214.211 -63.5908 331.458C-69.2625 448.919 -199.753 513.236 -280.835 598.438C-341.902 662.608 -397.488 729.737 -477.941 766.863C-560.538 804.979 -650.007 802.07 -740.592 810.599Z" stroke="url(#paint92_linear_1359_435)" stroke-width="6.75677"/>
<path opacity="0.94" fill-rule="evenodd" clip-rule="evenodd" d="M-733.075 810.195C-874.613 826.023 -1044.45 934.472 -1148.97 837.755C-1250.36 743.945 -1131.73 571.619 -1139.87 433.788C-1147.44 305.717 -1237.5 183.327 -1194.8 62.3504C-1149.22 -66.8152 -1036.68 -168.486 -909.395 -219.238C-784.596 -268.999 -641.003 -258.222 -516.289 -208.191C-403.579 -162.976 -340.763 -52.3203 -262.313 40.347C-186.8 129.544 -64.1572 204.852 -67.7562 321.623C-71.3619 438.609 -200.087 504.88 -279.287 591.076C-338.937 655.994 -393.082 723.762 -472.49 762.105C-554.015 801.471 -643.089 800.132 -733.075 810.195Z" stroke="url(#paint93_linear_1359_435)" stroke-width="6.75677"/>
<path opacity="0.95" fill-rule="evenodd" clip-rule="evenodd" d="M-725.485 809.575C-866.041 827.786 -1033.15 938.656 -1138.83 844.232C-1241.33 752.646 -1126.28 579.103 -1136.78 442.091C-1146.53 314.78 -1238.26 194.558 -1197.88 73.4326C-1154.76 -55.8912 -1044.55 -159.02 -918.784 -211.735C-795.473 -263.421 -652.411 -255.194 -527.452 -207.577C-414.522 -164.544 -350.101 -55.5245 -270.435 35.3235C-193.752 122.769 -70.4164 195.575 -71.9716 311.835C-73.5296 428.309 -200.461 496.493 -277.769 583.642C-335.995 649.279 -388.693 717.655 -467.039 757.191C-547.473 797.781 -636.125 797.997 -725.485 809.575Z" stroke="url(#paint94_linear_1359_435)" stroke-width="6.75677"/>
<path opacity="0.96" fill-rule="evenodd" clip-rule="evenodd" d="M-717.849 808.721C-857.382 829.286 -1021.72 942.513 -1128.51 850.393C-1232.09 761.041 -1120.63 586.355 -1133.45 450.201C-1145.37 323.688 -1238.72 205.653 -1200.64 84.4239C-1159.98 -45.0114 -1052.12 -149.547 -927.896 -204.189C-806.101 -257.764 -663.616 -252.065 -538.459 -206.855C-425.35 -165.998 -359.361 -58.6362 -278.519 30.3785C-200.704 116.06 -76.7255 186.362 -76.2557 302.075C-75.785 418.001 -200.895 488.056 -276.303 576.119C-333.097 642.444 -384.344 711.399 -461.61 752.102C-540.936 793.89 -629.138 795.646 -717.849 808.721Z" stroke="url(#paint95_linear_1359_435)" stroke-width="6.75677"/>
<path opacity="0.97" fill-rule="evenodd" clip-rule="evenodd" d="M-710.134 807.656C-848.606 830.545 -1010.15 946.068 -1118 856.261C-1222.61 769.152 -1114.74 593.394 -1129.86 458.138C-1143.91 332.459 -1238.84 216.633 -1203.05 95.342C-1164.85 -34.1585 -1059.34 -140.051 -936.696 -196.582C-816.446 -252.008 -674.582 -248.814 -549.272 -206.005C-436.025 -167.316 -368.507 -61.6338 -286.529 25.5343C-207.621 109.438 -83.0481 177.236 -80.5728 292.368C-78.093 407.711 -201.356 479.594 -274.855 568.531C-330.211 635.515 -380.002 705.019 -456.172 746.863C-534.372 789.823 -622.098 793.104 -710.134 807.656Z" stroke="url(#paint96_linear_1359_435)" stroke-width="6.75677"/>
<defs>
<linearGradient id="paint0_linear_1359_435" x1="-903.053" y1="245.747" x2="746.861" y2="688.374" gradientUnits="userSpaceOnUse">
<stop stop-color="#0A4432"/>
<stop offset="1" stop-color="#5EDCA8"/>
</linearGradient>
<linearGradient id="paint1_linear_1359_435" x1="-913.473" y1="253.881" x2="738.449" y2="666.281" gradientUnits="userSpaceOnUse">
<stop stop-color="#0A4432"/>
<stop offset="1" stop-color="#5EDCA8"/>
</linearGradient>
<linearGradient id="paint2_linear_1359_435" x1="-923.657" y1="262.166" x2="729.722" y2="644.405" gradientUnits="userSpaceOnUse">
<stop stop-color="#0A4432"/>
<stop offset="1" stop-color="#5EDCA8"/>
</linearGradient>
<linearGradient id="paint3_linear_1359_435" x1="-933.567" y1="270.6" x2="720.721" y2="622.752" gradientUnits="userSpaceOnUse">
<stop stop-color="#0A4432"/>
<stop offset="1" stop-color="#5EDCA8"/>
</linearGradient>
<linearGradient id="paint4_linear_1359_435" x1="-943.247" y1="279.155" x2="711.405" y2="601.306" gradientUnits="userSpaceOnUse">
<stop stop-color="#0A4432"/>
<stop offset="1" stop-color="#5EDCA8"/>
</linearGradient>
<linearGradient id="paint5_linear_1359_435" x1="-952.66" y1="287.86" x2="701.814" y2="580.104" gradientUnits="userSpaceOnUse">
<stop stop-color="#0A4432"/>
<stop offset="1" stop-color="#5EDCA8"/>
</linearGradient>
<linearGradient id="paint6_linear_1359_435" x1="-961.817" y1="296.674" x2="691.942" y2="559.116" gradientUnits="userSpaceOnUse">
<stop stop-color="#0A4432"/>
<stop offset="1" stop-color="#5EDCA8"/>
</linearGradient>
<linearGradient id="paint7_linear_1359_435" x1="-970.721" y1="305.635" x2="681.788" y2="538.389" gradientUnits="userSpaceOnUse">
<stop stop-color="#0A4432"/>
<stop offset="1" stop-color="#5EDCA8"/>
</linearGradient>
<linearGradient id="paint8_linear_1359_435" x1="-979.383" y1="314.681" x2="671.345" y2="517.871" gradientUnits="userSpaceOnUse">
<stop stop-color="#0A4432"/>
<stop offset="1" stop-color="#5EDCA8"/>
</linearGradient>
<linearGradient id="paint9_linear_1359_435" x1="-987.775" y1="323.859" x2="660.645" y2="497.618" gradientUnits="userSpaceOnUse">
<stop stop-color="#0A4432"/>
<stop offset="1" stop-color="#5EDCA8"/>
</linearGradient>
<linearGradient id="paint10_linear_1359_435" x1="-995.884" y1="333.134" x2="649.706" y2="477.605" gradientUnits="userSpaceOnUse">
<stop stop-color="#0A4432"/>
<stop offset="1" stop-color="#5EDCA8"/>
</linearGradient>
<linearGradient id="paint11_linear_1359_435" x1="-1003.74" y1="342.516" x2="638.504" y2="457.851" gradientUnits="userSpaceOnUse">
<stop stop-color="#0A4432"/>
<stop offset="1" stop-color="#5EDCA8"/>
</linearGradient>
<linearGradient id="paint12_linear_1359_435" x1="-1011.33" y1="351.984" x2="627.048" y2="438.344" gradientUnits="userSpaceOnUse">
<stop stop-color="#0A4432"/>
<stop offset="1" stop-color="#5EDCA8"/>
</linearGradient>
<linearGradient id="paint13_linear_1359_435" x1="-1018.65" y1="361.55" x2="615.355" y2="419.105" gradientUnits="userSpaceOnUse">
<stop stop-color="#0A4432"/>
<stop offset="1" stop-color="#5EDCA8"/>
</linearGradient>
<linearGradient id="paint14_linear_1359_435" x1="-1025.71" y1="371.193" x2="603.42" y2="400.122" gradientUnits="userSpaceOnUse">
<stop stop-color="#0A4432"/>
<stop offset="1" stop-color="#5EDCA8"/>
</linearGradient>
<linearGradient id="paint15_linear_1359_435" x1="-1032.48" y1="380.911" x2="591.274" y2="381.401" gradientUnits="userSpaceOnUse">
<stop stop-color="#0A4432"/>
<stop offset="1" stop-color="#5EDCA8"/>
</linearGradient>
<linearGradient id="paint16_linear_1359_435" x1="-1038.97" y1="390.704" x2="578.911" y2="362.953" gradientUnits="userSpaceOnUse">
<stop stop-color="#0A4432"/>
<stop offset="1" stop-color="#5EDCA8"/>
</linearGradient>
<linearGradient id="paint17_linear_1359_435" x1="-1045.21" y1="400.579" x2="566.31" y2="344.79" gradientUnits="userSpaceOnUse">
<stop stop-color="#0A4432"/>
<stop offset="1" stop-color="#5EDCA8"/>
</linearGradient>
<linearGradient id="paint18_linear_1359_435" x1="-1051.17" y1="410.484" x2="553.503" y2="326.873" gradientUnits="userSpaceOnUse">
<stop stop-color="#0A4432"/>
<stop offset="1" stop-color="#5EDCA8"/>
</linearGradient>
<linearGradient id="paint19_linear_1359_435" x1="-1056.83" y1="420.47" x2="540.524" y2="309.257" gradientUnits="userSpaceOnUse">
<stop stop-color="#0A4432"/>
<stop offset="1" stop-color="#5EDCA8"/>
</linearGradient>
<linearGradient id="paint20_linear_1359_435" x1="-1062.23" y1="430.488" x2="527.319" y2="291.904" gradientUnits="userSpaceOnUse">
<stop stop-color="#0A4432"/>
<stop offset="1" stop-color="#5EDCA8"/>
</linearGradient>
<linearGradient id="paint21_linear_1359_435" x1="-1067.36" y1="440.573" x2="513.93" y2="274.855" gradientUnits="userSpaceOnUse">
<stop stop-color="#0A4432"/>
<stop offset="1" stop-color="#5EDCA8"/>
</linearGradient>
<linearGradient id="paint22_linear_1359_435" x1="-1072.18" y1="450.67" x2="500.382" y2="258.065" gradientUnits="userSpaceOnUse">
<stop stop-color="#0A4432"/>
<stop offset="1" stop-color="#5EDCA8"/>
</linearGradient>
<linearGradient id="paint23_linear_1359_435" x1="-1076.74" y1="460.822" x2="486.647" y2="241.584" gradientUnits="userSpaceOnUse">
<stop stop-color="#0A4432"/>
<stop offset="1" stop-color="#5EDCA8"/>
</linearGradient>
<linearGradient id="paint24_linear_1359_435" x1="-1081.04" y1="470.973" x2="472.717" y2="225.363" gradientUnits="userSpaceOnUse">
<stop stop-color="#0A4432"/>
<stop offset="1" stop-color="#5EDCA8"/>
</linearGradient>
<linearGradient id="paint25_linear_1359_435" x1="-1085.03" y1="481.162" x2="458.651" y2="209.449" gradientUnits="userSpaceOnUse">
<stop stop-color="#0A4432"/>
<stop offset="1" stop-color="#5EDCA8"/>
</linearGradient>
<linearGradient id="paint26_linear_1359_435" x1="-1088.74" y1="491.374" x2="444.435" y2="193.835" gradientUnits="userSpaceOnUse">
<stop stop-color="#0A4432"/>
<stop offset="1" stop-color="#5EDCA8"/>
</linearGradient>
<linearGradient id="paint27_linear_1359_435" x1="-1092.19" y1="501.595" x2="430.055" y2="178.513" gradientUnits="userSpaceOnUse">
<stop stop-color="#0A4432"/>
<stop offset="1" stop-color="#5EDCA8"/>
</linearGradient>
<linearGradient id="paint28_linear_1359_435" x1="-1095.34" y1="511.8" x2="415.537" y2="163.466" gradientUnits="userSpaceOnUse">
<stop stop-color="#0A4432"/>
<stop offset="1" stop-color="#5EDCA8"/>
</linearGradient>
<linearGradient id="paint29_linear_1359_435" x1="-1098.21" y1="522.018" x2="400.892" y2="148.73" gradientUnits="userSpaceOnUse">
<stop stop-color="#0A4432"/>
<stop offset="1" stop-color="#5EDCA8"/>
</linearGradient>
<linearGradient id="paint30_linear_1359_435" x1="-1100.82" y1="532.223" x2="386.1" y2="134.285" gradientUnits="userSpaceOnUse">
<stop stop-color="#0A4432"/>
<stop offset="1" stop-color="#5EDCA8"/>
</linearGradient>
<linearGradient id="paint31_linear_1359_435" x1="-1103.12" y1="542.41" x2="371.207" y2="120.134" gradientUnits="userSpaceOnUse">
<stop stop-color="#0A4432"/>
<stop offset="1" stop-color="#5EDCA8"/>
</linearGradient>
<linearGradient id="paint32_linear_1359_435" x1="-1105.19" y1="552.593" x2="356.164" y2="106.296" gradientUnits="userSpaceOnUse">
<stop stop-color="#0A4432"/>
<stop offset="1" stop-color="#5EDCA8"/>
</linearGradient>
<linearGradient id="paint33_linear_1359_435" x1="-1106.94" y1="562.727" x2="341.042" y2="92.7329" gradientUnits="userSpaceOnUse">
<stop stop-color="#0A4432"/>
<stop offset="1" stop-color="#5EDCA8"/>
</linearGradient>
<linearGradient id="paint34_linear_1359_435" x1="-1108.43" y1="572.856" x2="325.798" y2="79.4958" gradientUnits="userSpaceOnUse">
<stop stop-color="#0A4432"/>
<stop offset="1" stop-color="#5EDCA8"/>
</linearGradient>
<linearGradient id="paint35_linear_1359_435" x1="-1109.65" y1="582.931" x2="310.457" y2="66.5397" gradientUnits="userSpaceOnUse">
<stop stop-color="#0A4432"/>
<stop offset="1" stop-color="#5EDCA8"/>
</linearGradient>
<linearGradient id="paint36_linear_1359_435" x1="-1110.57" y1="592.969" x2="295.045" y2="53.8901" gradientUnits="userSpaceOnUse">
<stop stop-color="#0A4432"/>
<stop offset="1" stop-color="#5EDCA8"/>
</linearGradient>
<linearGradient id="paint37_linear_1359_435" x1="-1111.24" y1="602.961" x2="279.535" y2="41.5412" gradientUnits="userSpaceOnUse">
<stop stop-color="#0A4432"/>
<stop offset="1" stop-color="#5EDCA8"/>
</linearGradient>
<linearGradient id="paint38_linear_1359_435" x1="-1111.6" y1="612.905" x2="263.974" y2="29.4985" gradientUnits="userSpaceOnUse">
<stop stop-color="#0A4432"/>
<stop offset="1" stop-color="#5EDCA8"/>
</linearGradient>
<linearGradient id="paint39_linear_1359_435" x1="-1111.72" y1="622.787" x2="248.312" y2="17.7518" gradientUnits="userSpaceOnUse">
<stop stop-color="#0A4432"/>
<stop offset="1" stop-color="#5EDCA8"/>
</linearGradient>
<linearGradient id="paint40_linear_1359_435" x1="-1111.57" y1="632.61" x2="232.59" y2="6.31033" gradientUnits="userSpaceOnUse">
<stop stop-color="#0A4432"/>
<stop offset="1" stop-color="#5EDCA8"/>
</linearGradient>
<linearGradient id="paint41_linear_1359_435" x1="-1111.14" y1="642.347" x2="216.826" y2="-4.8482" gradientUnits="userSpaceOnUse">
<stop stop-color="#0A4432"/>
<stop offset="1" stop-color="#5EDCA8"/>
</linearGradient>
<linearGradient id="paint42_linear_1359_435" x1="-1110.43" y1="652.013" x2="201.015" y2="-15.7036" gradientUnits="userSpaceOnUse">
<stop stop-color="#0A4432"/>
<stop offset="1" stop-color="#5EDCA8"/>
</linearGradient>
<linearGradient id="paint43_linear_1359_435" x1="-1109.48" y1="661.612" x2="185.136" y2="-26.2474" gradientUnits="userSpaceOnUse">
<stop stop-color="#0A4432"/>
<stop offset="1" stop-color="#5EDCA8"/>
</linearGradient>
<linearGradient id="paint44_linear_1359_435" x1="-1108.23" y1="671.11" x2="169.261" y2="-36.5098" gradientUnits="userSpaceOnUse">
<stop stop-color="#0A4432"/>
<stop offset="1" stop-color="#5EDCA8"/>
</linearGradient>
<linearGradient id="paint45_linear_1359_435" x1="-1106.76" y1="680.528" x2="153.309" y2="-46.4637" gradientUnits="userSpaceOnUse">
<stop stop-color="#0A4432"/>
<stop offset="1" stop-color="#5EDCA8"/>
</linearGradient>
<linearGradient id="paint46_linear_1359_435" x1="-1105" y1="689.859" x2="137.351" y2="-56.1128" gradientUnits="userSpaceOnUse">
<stop stop-color="#0A4432"/>
<stop offset="1" stop-color="#5EDCA8"/>
</linearGradient>
<linearGradient id="paint47_linear_1359_435" x1="-1102.99" y1="699.064" x2="121.382" y2="-65.4923" gradientUnits="userSpaceOnUse">
<stop stop-color="#0A4432"/>
<stop offset="1" stop-color="#5EDCA8"/>
</linearGradient>
<linearGradient id="paint48_linear_1359_435" x1="-1100.75" y1="708.166" x2="105.366" y2="-74.575" gradientUnits="userSpaceOnUse">
<stop stop-color="#0A4432"/>
<stop offset="1" stop-color="#5EDCA8"/>
</linearGradient>
<linearGradient id="paint49_linear_1359_435" x1="-1098.24" y1="717.165" x2="89.3591" y2="-83.3579" gradientUnits="userSpaceOnUse">
<stop stop-color="#0A4432"/>
<stop offset="1" stop-color="#5EDCA8"/>
</linearGradient>
<linearGradient id="paint50_linear_1359_435" x1="-1095.44" y1="726.052" x2="73.3878" y2="-91.8452" gradientUnits="userSpaceOnUse">
<stop stop-color="#0A4432"/>
<stop offset="1" stop-color="#5EDCA8"/>
</linearGradient>
<linearGradient id="paint51_linear_1359_435" x1="-1092.43" y1="734.804" x2="57.3842" y2="-100.058" gradientUnits="userSpaceOnUse">
<stop stop-color="#0A4432"/>
<stop offset="1" stop-color="#5EDCA8"/>
</linearGradient>
<linearGradient id="paint52_linear_1359_435" x1="-1089.16" y1="743.425" x2="41.4132" y2="-107.988" gradientUnits="userSpaceOnUse">
<stop stop-color="#0A4432"/>
<stop offset="1" stop-color="#5EDCA8"/>
</linearGradient>
<linearGradient id="paint53_linear_1359_435" x1="-1085.66" y1="751.937" x2="25.4452" y2="-115.611" gradientUnits="userSpaceOnUse">
<stop stop-color="#0A4432"/>
<stop offset="1" stop-color="#5EDCA8"/>
</linearGradient>
<linearGradient id="paint54_linear_1359_435" x1="-1081.92" y1="760.285" x2="9.49084" y2="-122.978" gradientUnits="userSpaceOnUse">
<stop stop-color="#0A4432"/>
<stop offset="1" stop-color="#5EDCA8"/>
</linearGradient>
<linearGradient id="paint55_linear_1359_435" x1="-1077.95" y1="768.516" x2="-6.4325" y2="-130.041" gradientUnits="userSpaceOnUse">
<stop stop-color="#0A4432"/>
<stop offset="1" stop-color="#5EDCA8"/>
</linearGradient>
<linearGradient id="paint56_linear_1359_435" x1="-1073.74" y1="776.582" x2="-22.3226" y2="-136.843" gradientUnits="userSpaceOnUse">
<stop stop-color="#0A4432"/>
<stop offset="1" stop-color="#5EDCA8"/>
</linearGradient>
<linearGradient id="paint57_linear_1359_435" x1="-1069.3" y1="784.499" x2="-38.1773" y2="-143.368" gradientUnits="userSpaceOnUse">
<stop stop-color="#0A4432"/>
<stop offset="1" stop-color="#5EDCA8"/>
</linearGradient>
<linearGradient id="paint58_linear_1359_435" x1="-1064.62" y1="792.259" x2="-53.9636" y2="-149.622" gradientUnits="userSpaceOnUse">
<stop stop-color="#0A4432"/>
<stop offset="1" stop-color="#5EDCA8"/>
</linearGradient>
<linearGradient id="paint59_linear_1359_435" x1="-1059.71" y1="799.86" x2="-69.703" y2="-155.603" gradientUnits="userSpaceOnUse">
<stop stop-color="#0A4432"/>
<stop offset="1" stop-color="#5EDCA8"/>
</linearGradient>
<linearGradient id="paint60_linear_1359_435" x1="-1054.6" y1="807.304" x2="-85.4012" y2="-161.31" gradientUnits="userSpaceOnUse">
<stop stop-color="#0A4432"/>
<stop offset="1" stop-color="#5EDCA8"/>
</linearGradient>
<linearGradient id="paint61_linear_1359_435" x1="-1049.26" y1="814.58" x2="-101.026" y2="-166.75" gradientUnits="userSpaceOnUse">
<stop stop-color="#0A4432"/>
<stop offset="1" stop-color="#5EDCA8"/>
</linearGradient>
<linearGradient id="paint62_linear_1359_435" x1="-1043.72" y1="821.663" x2="-116.606" y2="-171.948" gradientUnits="userSpaceOnUse">
<stop stop-color="#0A4432"/>
<stop offset="1" stop-color="#5EDCA8"/>
</linearGradient>
<linearGradient id="paint63_linear_1359_435" x1="-1037.97" y1="828.581" x2="-132.101" y2="-176.873" gradientUnits="userSpaceOnUse">
<stop stop-color="#0A4432"/>
<stop offset="1" stop-color="#5EDCA8"/>
</linearGradient>
<linearGradient id="paint64_linear_1359_435" x1="-1032" y1="835.305" x2="-147.518" y2="-181.555" gradientUnits="userSpaceOnUse">
<stop stop-color="#0A4432"/>
<stop offset="1" stop-color="#5EDCA8"/>
</linearGradient>
<linearGradient id="paint65_linear_1359_435" x1="-1025.82" y1="841.855" x2="-162.839" y2="-185.971" gradientUnits="userSpaceOnUse">
<stop stop-color="#0A4432"/>
<stop offset="1" stop-color="#5EDCA8"/>
</linearGradient>
<linearGradient id="paint66_linear_1359_435" x1="-1019.46" y1="848.21" x2="-178.102" y2="-190.144" gradientUnits="userSpaceOnUse">
<stop stop-color="#0A4432"/>
<stop offset="1" stop-color="#5EDCA8"/>
</linearGradient>
<linearGradient id="paint67_linear_1359_435" x1="-1012.91" y1="854.372" x2="-193.267" y2="-194.069" gradientUnits="userSpaceOnUse">
<stop stop-color="#0A4432"/>
<stop offset="1" stop-color="#5EDCA8"/>
</linearGradient>
<linearGradient id="paint68_linear_1359_435" x1="-1006.17" y1="860.341" x2="-208.341" y2="-197.747" gradientUnits="userSpaceOnUse">
<stop stop-color="#0A4432"/>
<stop offset="1" stop-color="#5EDCA8"/>
</linearGradient>
<linearGradient id="paint69_linear_1359_435" x1="-999.227" y1="866.089" x2="-223.299" y2="-201.205" gradientUnits="userSpaceOnUse">
<stop stop-color="#0A4432"/>
<stop offset="1" stop-color="#5EDCA8"/>
</linearGradient>
<linearGradient id="paint70_linear_1359_435" x1="-992.114" y1="871.64" x2="-238.164" y2="-204.421" gradientUnits="userSpaceOnUse">
<stop stop-color="#0A4432"/>
<stop offset="1" stop-color="#5EDCA8"/>
</linearGradient>
<linearGradient id="paint71_linear_1359_435" x1="-984.815" y1="876.984" x2="-252.911" y2="-207.401" gradientUnits="userSpaceOnUse">
<stop stop-color="#0A4432"/>
<stop offset="1" stop-color="#5EDCA8"/>
</linearGradient>
<linearGradient id="paint72_linear_1359_435" x1="-977.337" y1="882.117" x2="-267.54" y2="-210.152" gradientUnits="userSpaceOnUse">
<stop stop-color="#0A4432"/>
<stop offset="1" stop-color="#5EDCA8"/>
</linearGradient>
<linearGradient id="paint73_linear_1359_435" x1="-969.706" y1="887.033" x2="-282.066" y2="-212.682" gradientUnits="userSpaceOnUse">
<stop stop-color="#0A4432"/>
<stop offset="1" stop-color="#5EDCA8"/>
</linearGradient>
<linearGradient id="paint74_linear_1359_435" x1="-961.912" y1="891.721" x2="-296.473" y2="-214.998" gradientUnits="userSpaceOnUse">
<stop stop-color="#0A4432"/>
<stop offset="1" stop-color="#5EDCA8"/>
</linearGradient>
<linearGradient id="paint75_linear_1359_435" x1="-953.965" y1="896.191" x2="-310.761" y2="-217.096" gradientUnits="userSpaceOnUse">
<stop stop-color="#0A4432"/>
<stop offset="1" stop-color="#5EDCA8"/>
</linearGradient>
<linearGradient id="paint76_linear_1359_435" x1="-945.857" y1="900.429" x2="-324.913" y2="-218.987" gradientUnits="userSpaceOnUse">
<stop stop-color="#0A4432"/>
<stop offset="1" stop-color="#5EDCA8"/>
</linearGradient>
<linearGradient id="paint77_linear_1359_435" x1="-937.745" y1="905.518" x2="-339.078" y2="-219.591" gradientUnits="userSpaceOnUse">
<stop stop-color="#0A4432"/>
<stop offset="1" stop-color="#5EDCA8"/>
</linearGradient>
<linearGradient id="paint78_linear_1359_435" x1="-929.161" y1="908.238" x2="-352.78" y2="-222.129" gradientUnits="userSpaceOnUse">
<stop stop-color="#0A4432"/>
<stop offset="1" stop-color="#5EDCA8"/>
</linearGradient>
<linearGradient id="paint79_linear_1359_435" x1="-920.629" y1="911.774" x2="-366.535" y2="-223.418" gradientUnits="userSpaceOnUse">
<stop stop-color="#0A4432"/>
<stop offset="1" stop-color="#5EDCA8"/>
</linearGradient>
<linearGradient id="paint80_linear_1359_435" x1="-911.947" y1="915.093" x2="-380.131" y2="-224.491" gradientUnits="userSpaceOnUse">
<stop stop-color="#0A4432"/>
<stop offset="1" stop-color="#5EDCA8"/>
</linearGradient>
<linearGradient id="paint81_linear_1359_435" x1="-903.131" y1="918.148" x2="-393.577" y2="-225.398" gradientUnits="userSpaceOnUse">
<stop stop-color="#0A4432"/>
<stop offset="1" stop-color="#5EDCA8"/>
</linearGradient>
<linearGradient id="paint82_linear_1359_435" x1="-894.182" y1="920.971" x2="-406.866" y2="-226.109" gradientUnits="userSpaceOnUse">
<stop stop-color="#0A4432"/>
<stop offset="1" stop-color="#5EDCA8"/>
</linearGradient>
<linearGradient id="paint83_linear_1359_435" x1="-885.124" y1="923.542" x2="-420.015" y2="-226.645" gradientUnits="userSpaceOnUse">
<stop stop-color="#0A4432"/>
<stop offset="1" stop-color="#5EDCA8"/>
</linearGradient>
<linearGradient id="paint84_linear_1359_435" x1="-875.952" y1="925.88" x2="-433.007" y2="-226.99" gradientUnits="userSpaceOnUse">
<stop stop-color="#0A4432"/>
<stop offset="1" stop-color="#5EDCA8"/>
</linearGradient>
<linearGradient id="paint85_linear_1359_435" x1="-866.651" y1="927.963" x2="-445.822" y2="-227.17" gradientUnits="userSpaceOnUse">
<stop stop-color="#0A4432"/>
<stop offset="1" stop-color="#5EDCA8"/>
</linearGradient>
<linearGradient id="paint86_linear_1359_435" x1="-857.268" y1="929.777" x2="-458.499" y2="-227.198" gradientUnits="userSpaceOnUse">
<stop stop-color="#0A4432"/>
<stop offset="1" stop-color="#5EDCA8"/>
</linearGradient>
<linearGradient id="paint87_linear_1359_435" x1="-847.775" y1="931.347" x2="-471.001" y2="-227.054" gradientUnits="userSpaceOnUse">
<stop stop-color="#0A4432"/>
<stop offset="1" stop-color="#5EDCA8"/>
</linearGradient>
<linearGradient id="paint88_linear_1359_435" x1="-838.195" y1="932.657" x2="-483.344" y2="-226.756" gradientUnits="userSpaceOnUse">
<stop stop-color="#0A4432"/>
<stop offset="1" stop-color="#5EDCA8"/>
</linearGradient>
<linearGradient id="paint89_linear_1359_435" x1="-828.522" y1="933.704" x2="-495.515" y2="-226.311" gradientUnits="userSpaceOnUse">
<stop stop-color="#0A4432"/>
<stop offset="1" stop-color="#5EDCA8"/>
</linearGradient>
<linearGradient id="paint90_linear_1359_435" x1="-818.767" y1="934.502" x2="-507.515" y2="-225.706" gradientUnits="userSpaceOnUse">
<stop stop-color="#0A4432"/>
<stop offset="1" stop-color="#5EDCA8"/>
</linearGradient>
<linearGradient id="paint91_linear_1359_435" x1="-808.93" y1="935.03" x2="-519.338" y2="-224.968" gradientUnits="userSpaceOnUse">
<stop stop-color="#0A4432"/>
<stop offset="1" stop-color="#5EDCA8"/>
</linearGradient>
<linearGradient id="paint92_linear_1359_435" x1="-799.021" y1="935.306" x2="-530.987" y2="-224.081" gradientUnits="userSpaceOnUse">
<stop stop-color="#0A4432"/>
<stop offset="1" stop-color="#5EDCA8"/>
</linearGradient>
<linearGradient id="paint93_linear_1359_435" x1="-789.05" y1="935.307" x2="-542.463" y2="-223.07" gradientUnits="userSpaceOnUse">
<stop stop-color="#0A4432"/>
<stop offset="1" stop-color="#5EDCA8"/>
</linearGradient>
<linearGradient id="paint94_linear_1359_435" x1="-779.01" y1="935.046" x2="-553.754" y2="-221.929" gradientUnits="userSpaceOnUse">
<stop stop-color="#0A4432"/>
<stop offset="1" stop-color="#5EDCA8"/>
</linearGradient>
<linearGradient id="paint95_linear_1359_435" x1="-768.927" y1="934.504" x2="-564.878" y2="-220.679" gradientUnits="userSpaceOnUse">
<stop stop-color="#0A4432"/>
<stop offset="1" stop-color="#5EDCA8"/>
</linearGradient>
<linearGradient id="paint96_linear_1359_435" x1="-758.772" y1="933.703" x2="-575.798" y2="-219.3" gradientUnits="userSpaceOnUse">
<stop stop-color="#0A4432"/>
<stop offset="1" stop-color="#5EDCA8"/>
</linearGradient>
</defs>
</svg>