<svg width="90" height="90" viewBox="0 0 90 90" fill="none" xmlns="http://www.w3.org/2000/svg">
<rect x="0.15" y="0.15" width="89.7" height="89.7" rx="15.85" fill="#CEDEFF"/>
<rect x="0.15" y="0.15" width="89.7" height="89.7" rx="15.85" stroke="#3D4EEC" stroke-width="0.3"/>
<path d="M25.8482 47.2596C22.0927 47.3889 22.0927 53.4931 25.8482 53.6224C29.6025 53.4931 29.6025 47.3889 25.8482 47.2596ZM25.8482 52.4584C23.4776 52.3871 23.4776 48.4949 25.8482 48.4236C28.2188 48.4949 28.2188 52.3871 25.8482 52.4584ZM69.8521 47.2596C66.0977 47.3889 66.0977 53.4931 69.8521 53.6224C73.6075 53.4931 73.6075 47.3889 69.8521 47.2596ZM69.8521 52.4584C67.4815 52.3871 67.4815 48.4949 69.8521 48.4236C72.2227 48.4949 72.2227 52.3871 69.8521 52.4584ZM82.3846 51.2956C82.1419 50.9366 81.6037 49.6445 81.3082 49.6155L75.0042 47.3466C73.6971 44.6318 71.2876 43.6116 69.0454 43.9706L62.1125 40.0796C60.9078 39.404 59.5111 39.1888 58.191 39.4765L50.0287 41.2425C50.1312 40.898 50.4386 40.6538 50.7589 40.6683C51.8611 40.6683 52.7704 39.6626 52.7704 38.4128C52.7455 37.8821 53.6558 36.5213 53.0659 36.4778L42.7627 33C42.1221 33 41.4943 37.1351 40.9432 37.4941L36.5224 40.3661C34.8949 41.587 31.6528 41.3718 29.7815 41.6015C29.1409 41.645 28.5898 42.1333 28.3849 42.7933C28.3849 42.7933 26.9245 42.7933 26.2451 42.7933V41.8891C26.2451 40.8121 25.4631 39.9503 24.5151 39.9503H18.6587C17.6977 39.9503 16.9287 40.8254 16.9287 41.8891V45.9965C16.9287 46.6709 17.2491 47.3031 17.7624 47.6476C17.852 47.6766 19.2745 48.7246 20.1072 49.271C19.4148 53.1341 22.3106 57.0976 25.873 56.9973C27.2449 57.0408 28.5391 56.4509 29.5507 55.5033L30.7813 55.8623C30.8202 55.8768 30.8709 55.8768 30.9097 55.8768H60.9208C61.1257 55.8768 61.3058 55.7474 61.3953 55.5468C61.3953 55.5468 61.6898 54.8711 62.0489 54.0383C62.3433 53.9234 63.9061 53.3348 64.5349 53.0906C65.4571 55.3739 67.5462 57.0263 69.878 56.9973C71.993 57.0686 73.7995 55.7329 74.8371 53.8521C75.7603 53.8231 78.874 53.7373 78.8869 53.7373H81.9748C82.2573 53.7373 82.5 53.4786 82.5 53.1486C82.4364 52.919 82.5388 51.4818 82.3846 51.2956ZM28.8206 43.9573C29.1032 43.9573 29.3458 43.6986 29.3458 43.3674C29.3458 43.1668 29.4235 43.0229 29.5001 42.9371C29.5896 42.8223 29.7179 42.7643 29.8592 42.751C31.1146 42.6216 32.8316 42.6349 34.3955 42.363L41.8405 45.7378C41.9042 45.7668 41.9678 45.7801 42.0325 45.7801H46.8633C49.9392 45.7801 52.7067 47.8205 53.9503 50.9366C53.3096 51.095 52.8739 51.2098 52.8739 51.2098C52.463 51.3391 51.9 51.4249 51.2334 51.4963C49.9133 51.6256 48.1963 51.6401 46.53 51.6256C44.5444 51.6111 42.6473 51.5688 41.6227 51.5966C41.6227 51.5966 41.187 51.3391 40.9173 51.1808C40.3662 50.8508 39.7644 50.4773 39.1496 50.1328C39.0849 50.0893 38.8412 49.9454 38.8412 49.9454C38.4572 49.6723 37.9827 49.5006 37.4704 49.3713C36.9322 49.1984 36.394 49.0836 35.8817 49.1271C35.8817 49.1271 35.8051 49.1271 35.6639 49.1271C34.7924 49.0836 33.908 49.1126 33.0883 49.1271C32.4984 49.1271 31.9472 49.1271 31.5892 49.1271C31.5892 49.0981 31.5762 49.0836 31.5762 49.0546C31.5244 48.7536 31.4479 48.4659 31.3584 48.1795C31.3454 48.165 31.3454 48.1359 31.3325 48.1214C30.8072 46.5126 29.8204 45.3498 28.6157 44.6608C28.0516 44.3163 27.4368 44.0721 26.7832 43.9573H28.8206ZM17.9544 45.9965V41.8891C17.9544 41.4576 18.2618 41.1131 18.6458 41.1131H24.5022C24.8872 41.1131 25.1946 41.4576 25.1946 41.8891V43.44C25.1816 43.5693 25.1816 43.7131 25.1946 43.8558V43.9138C24.7459 43.9706 24.3231 44.0854 23.9003 44.2583C23.8615 44.2728 23.8227 44.2873 23.7849 44.3018C23.6954 44.3441 23.6048 44.3731 23.5153 44.4166C22.3624 44.9473 21.3626 45.8816 20.696 47.2741C20.696 47.2741 20.696 47.2886 20.6831 47.2886C20.5806 47.5038 20.4911 47.7334 20.4016 47.9631C20.3887 48.0066 20.3628 48.0501 20.3509 48.1069L18.2618 46.6709C18.0828 46.5126 17.9544 46.2684 17.9544 45.9965ZM21.8749 53.4786C20.2991 51.0224 21.0811 47.7479 23.016 46.0823C23.1691 45.9529 23.3104 45.8381 23.4776 45.7378C23.4894 45.7378 23.4894 45.7233 23.5024 45.7233C24.1689 45.3063 24.912 45.0621 25.7069 45.0488C25.7586 45.0488 25.8093 45.0343 25.8482 45.0343C26.2839 45.0343 26.7067 45.1056 27.1036 45.2204C27.1294 45.235 27.1553 45.235 27.1801 45.2495C27.2826 45.2785 27.3732 45.3208 27.4757 45.3643C27.5263 45.3788 27.5781 45.4078 27.6288 45.4211C27.7054 45.4501 27.783 45.4936 27.8467 45.5371C27.9232 45.5794 27.988 45.6085 28.0645 45.652C28.1163 45.6798 28.167 45.7088 28.2188 45.7378C28.3083 45.7946 28.3978 45.8526 28.4873 45.9239C28.5132 45.9384 28.5391 45.9675 28.565 45.982C28.6793 46.0678 28.7828 46.1536 28.8853 46.2551L28.8972 46.2684C29.6025 46.9296 30.1407 47.806 30.4222 48.8104C30.461 48.9688 30.4998 49.1271 30.5376 49.2855C30.5635 49.4426 30.5894 49.6155 30.6152 49.7871C30.6152 49.8161 30.6271 49.8451 30.6271 49.8596C30.6271 50.0458 30.653 50.2476 30.653 50.4193C30.653 50.6779 30.6271 50.9366 30.6023 51.1808C30.5894 51.2956 30.5764 51.4104 30.5505 51.5253C30.5376 51.5833 30.5247 51.6256 30.5128 51.6691C30.3327 52.4874 29.9994 53.2344 29.513 53.8811C29.3976 54.0238 29.2951 54.1676 29.1668 54.2969C29.1538 54.3114 29.1538 54.3114 29.1409 54.3259C27.1553 56.3941 23.6825 56.4654 21.8749 53.4786ZM60.5746 54.7285H30.9604L30.4093 54.5701C30.845 53.9669 31.1782 53.278 31.3961 52.531C31.614 51.8275 31.7294 51.0805 31.7035 50.3189C32.1144 50.348 32.6267 50.3335 33.1908 50.3189H35.6768C36.2657 50.348 36.8168 50.4193 37.3172 50.5486C37.6753 50.6634 38.0344 50.8073 38.3548 51.0079L41.2506 52.7316C41.3272 52.7751 41.4048 52.8041 41.4943 52.8041H49.7591C50.6057 52.8464 51.7846 52.6603 53.0659 52.3871C55.2693 51.9133 57.7553 51.1518 59.2296 50.8218C60.2165 50.5776 61.267 50.5776 62.2538 50.8363L60.5746 54.7285ZM64.1628 51.9991L62.6637 52.5733C62.6637 52.5733 63.2277 51.2811 63.4068 50.8508C63.4456 50.7638 63.4704 50.6924 63.4704 50.6924C63.4963 50.6066 63.5092 50.5196 63.5092 50.4483C63.5092 50.4338 63.5092 50.4193 63.5092 50.4193C63.4963 50.1038 63.2277 49.8886 62.8556 49.7593C62.8298 49.7448 62.8179 49.7448 62.792 49.7303C62.7532 49.7158 62.7025 49.7013 62.6637 49.6868C62.215 49.5429 61.638 49.4861 61.075 49.4716C60.9337 49.4571 60.8054 49.4571 60.7159 49.4426C60.5498 49.4281 60.2931 49.4571 59.9857 49.5006C59.5629 49.5296 59.2038 49.5864 59.0247 49.6578C59.0247 49.6578 58.8446 49.7013 58.5502 49.7738C57.435 50.0313 56.103 50.377 55.0007 50.6779C53.6418 47.0299 50.4386 44.6173 46.8891 44.6173H42.135C42.135 44.6173 38.2653 42.8658 36.1125 41.8891C36.4458 41.7453 36.7661 41.587 37.0476 41.3718L41.4685 38.4998C41.8654 38.2411 42.9539 33.9713 43.4155 33.9713L51.8662 36.9791C52.0323 37.6113 51.4513 39.4898 50.7589 39.4898C50.3361 39.4898 49.9392 39.6481 49.6059 39.9503C49.2856 40.2513 49.0548 40.6683 48.9782 41.1131L48.837 41.8601C48.7474 42.2481 49.0936 42.6349 49.4388 42.5491L58.3841 40.6248C59.4982 40.3806 60.6263 40.5535 61.6509 41.1276L67.5074 44.4166C66.9692 44.6608 66.4827 45.0198 66.047 45.4356C66.0211 45.4646 65.9952 45.4791 65.9823 45.5081C65.9186 45.5649 65.8539 45.6375 65.7903 45.6943C64.893 46.6274 64.2523 47.8918 64.0604 49.4571C63.9838 49.9744 63.9708 50.5051 64.0086 51.0224C64.0086 51.095 64.0215 51.1663 64.0345 51.2376C64.0474 51.3391 64.0604 51.454 64.0733 51.5543C64.0992 51.6981 64.124 51.8408 64.1499 51.9701C64.1628 51.9846 64.1628 51.9846 64.1628 51.9991ZM65.291 52.172C65.1238 51.6256 65.0343 51.0369 65.0343 50.4338C65.0343 50.1183 65.0602 49.8016 65.1108 49.5006C65.1108 49.4716 65.1238 49.4281 65.1367 49.4003C65.1756 49.1984 65.2262 48.9978 65.278 48.7971C65.5854 47.7479 66.1872 46.8148 66.9562 46.1403C67.0716 46.0388 67.187 45.9529 67.3024 45.8671C67.3542 45.8236 67.4179 45.7946 67.4685 45.7523C67.9302 45.4646 68.4425 45.235 68.9936 45.1346C69.0065 45.1346 69.0065 45.1346 69.0195 45.1201C69.2891 45.0766 69.5577 45.0343 69.8402 45.0488C72.4028 44.9618 74.4143 47.4034 74.6321 50.0603C74.6451 50.1896 74.658 50.3189 74.6451 50.4483C74.6451 51.3246 74.4531 52.1998 74.081 52.9758C72.1979 57.0976 66.5852 56.6093 65.291 52.172ZM81.4236 52.56C79.9633 52.531 76.8496 52.6023 75.3623 52.6603C75.4906 52.2723 75.5683 51.8698 75.619 51.4685C75.7603 50.5776 75.7344 49.6445 75.5165 48.7536L80.8089 50.6489L81.4236 51.7549V52.56ZM11.7565 51.1808H14.6912C15.3707 51.1808 15.3707 50.5986 14.6912 50.5986H11.7565C11.0771 50.5986 11.0771 51.1953 11.7565 51.1808Z" fill="#F7F7F7"/>
<path d="M10.9443 54.2969H8.0096C7.33013 54.3114 7.33013 53.7148 8.0096 53.7148H10.9443C11.6237 53.7148 11.6237 54.2969 10.9443 54.2969Z" fill="#F7F7F7"/>
<path d="M25.8482 47.2596C22.0927 47.3889 22.0927 53.4931 25.8482 53.6224C29.6025 53.4931 29.6025 47.3889 25.8482 47.2596ZM25.8482 52.4584C23.4776 52.3871 23.4776 48.4949 25.8482 48.4236C28.2188 48.4949 28.2188 52.3871 25.8482 52.4584ZM69.8521 47.2596C66.0977 47.3889 66.0977 53.4931 69.8521 53.6224C73.6075 53.4931 73.6075 47.3889 69.8521 47.2596ZM69.8521 52.4584C67.4815 52.3871 67.4815 48.4949 69.8521 48.4236C72.2227 48.4949 72.2227 52.3871 69.8521 52.4584ZM82.3846 51.2956C82.1419 50.9366 81.6037 49.6445 81.3082 49.6155L75.0042 47.3466C73.6971 44.6318 71.2876 43.6116 69.0454 43.9706L62.1125 40.0796C60.9078 39.404 59.5111 39.1888 58.191 39.4765L50.0287 41.2425C50.1312 40.898 50.4386 40.6538 50.7589 40.6683C51.8611 40.6683 52.7704 39.6626 52.7704 38.4128C52.7455 37.8821 53.6558 36.5213 53.0659 36.4778L42.7627 33C42.1221 33 41.4943 37.1351 40.9432 37.4941L36.5224 40.3661C34.8949 41.587 31.6528 41.3718 29.7815 41.6015C29.1409 41.645 28.5898 42.1333 28.3849 42.7933C28.3849 42.7933 26.9245 42.7933 26.2451 42.7933V41.8891C26.2451 40.8121 25.4631 39.9503 24.5151 39.9503H18.6587C17.6977 39.9503 16.9287 40.8254 16.9287 41.8891V45.9965C16.9287 46.6709 17.2491 47.3031 17.7624 47.6476C17.852 47.6766 19.2745 48.7246 20.1072 49.271C19.4148 53.1341 22.3106 57.0976 25.873 56.9973C27.2449 57.0408 28.5391 56.4509 29.5507 55.5033L30.7813 55.8623C30.8202 55.8768 30.8709 55.8768 30.9097 55.8768H60.9208C61.1257 55.8768 61.3058 55.7474 61.3953 55.5468C61.3953 55.5468 61.6898 54.8711 62.0489 54.0383C62.3433 53.9234 63.9061 53.3348 64.5349 53.0906C65.4571 55.3739 67.5462 57.0263 69.878 56.9973C71.993 57.0686 73.7995 55.7329 74.8371 53.8521C75.7603 53.8231 78.874 53.7373 78.8869 53.7373H81.9748C82.2573 53.7373 82.5 53.4786 82.5 53.1486C82.4364 52.919 82.5388 51.4818 82.3846 51.2956ZM28.8206 43.9573C29.1032 43.9573 29.3458 43.6986 29.3458 43.3674C29.3458 43.1668 29.4235 43.0229 29.5001 42.9371C29.5896 42.8223 29.7179 42.7643 29.8592 42.751C31.1146 42.6216 32.8316 42.6349 34.3955 42.363L41.8405 45.7378C41.9042 45.7668 41.9678 45.7801 42.0325 45.7801H46.8633C49.9392 45.7801 52.7067 47.8205 53.9503 50.9366C53.3096 51.095 52.8739 51.2098 52.8739 51.2098C52.463 51.3391 51.9 51.4249 51.2334 51.4963C49.9133 51.6256 48.1963 51.6401 46.53 51.6256C44.5444 51.6111 42.6473 51.5688 41.6227 51.5966C41.6227 51.5966 41.187 51.3391 40.9173 51.1808C40.3662 50.8508 39.7644 50.4773 39.1496 50.1328C39.0849 50.0893 38.8412 49.9454 38.8412 49.9454C38.4572 49.6723 37.9827 49.5006 37.4704 49.3713C36.9322 49.1984 36.394 49.0836 35.8817 49.1271C35.8817 49.1271 35.8051 49.1271 35.6639 49.1271C34.7924 49.0836 33.908 49.1126 33.0883 49.1271C32.4984 49.1271 31.9472 49.1271 31.5892 49.1271C31.5892 49.0981 31.5762 49.0836 31.5762 49.0546C31.5244 48.7536 31.4479 48.4659 31.3584 48.1795C31.3454 48.165 31.3454 48.1359 31.3325 48.1214C30.8072 46.5126 29.8204 45.3498 28.6157 44.6608C28.0516 44.3163 27.4368 44.0721 26.7832 43.9573H28.8206ZM17.9544 45.9965V41.8891C17.9544 41.4576 18.2618 41.1131 18.6458 41.1131H24.5022C24.8872 41.1131 25.1946 41.4576 25.1946 41.8891V43.44C25.1816 43.5693 25.1816 43.7131 25.1946 43.8558V43.9138C24.7459 43.9706 24.3231 44.0854 23.9003 44.2583C23.8615 44.2728 23.8227 44.2873 23.7849 44.3018C23.6954 44.3441 23.6048 44.3731 23.5153 44.4166C22.3624 44.9473 21.3626 45.8816 20.696 47.2741C20.696 47.2741 20.696 47.2886 20.6831 47.2886C20.5806 47.5038 20.4911 47.7334 20.4016 47.9631C20.3887 48.0066 20.3628 48.0501 20.3509 48.1069L18.2618 46.6709C18.0828 46.5126 17.9544 46.2684 17.9544 45.9965ZM21.8749 53.4786C20.2991 51.0224 21.0811 47.7479 23.016 46.0823C23.1691 45.9529 23.3104 45.8381 23.4776 45.7378C23.4894 45.7378 23.4894 45.7233 23.5024 45.7233C24.1689 45.3063 24.912 45.0621 25.7069 45.0488C25.7586 45.0488 25.8093 45.0343 25.8482 45.0343C26.2839 45.0343 26.7067 45.1056 27.1036 45.2204C27.1294 45.235 27.1553 45.235 27.1801 45.2495C27.2826 45.2785 27.3732 45.3208 27.4757 45.3643C27.5263 45.3788 27.5781 45.4078 27.6288 45.4211C27.7054 45.4501 27.783 45.4936 27.8467 45.5371C27.9232 45.5794 27.988 45.6085 28.0645 45.652C28.1163 45.6798 28.167 45.7088 28.2188 45.7378C28.3083 45.7946 28.3978 45.8526 28.4873 45.9239C28.5132 45.9384 28.5391 45.9675 28.565 45.982C28.6793 46.0678 28.7828 46.1536 28.8853 46.2551L28.8972 46.2684C29.6025 46.9296 30.1407 47.806 30.4222 48.8104C30.461 48.9688 30.4998 49.1271 30.5376 49.2855C30.5635 49.4426 30.5894 49.6155 30.6152 49.7871C30.6152 49.8161 30.6271 49.8451 30.6271 49.8596C30.6271 50.0458 30.653 50.2476 30.653 50.4193C30.653 50.6779 30.6271 50.9366 30.6023 51.1808C30.5894 51.2956 30.5764 51.4104 30.5505 51.5253C30.5376 51.5833 30.5247 51.6256 30.5128 51.6691C30.3327 52.4874 29.9994 53.2344 29.513 53.8811C29.3976 54.0238 29.2951 54.1676 29.1668 54.2969C29.1538 54.3114 29.1538 54.3114 29.1409 54.3259C27.1553 56.3941 23.6825 56.4654 21.8749 53.4786ZM60.5746 54.7285H30.9604L30.4093 54.5701C30.845 53.9669 31.1782 53.278 31.3961 52.531C31.614 51.8275 31.7294 51.0805 31.7035 50.3189C32.1144 50.348 32.6267 50.3335 33.1908 50.3189H35.6768C36.2657 50.348 36.8168 50.4193 37.3172 50.5486C37.6753 50.6634 38.0344 50.8073 38.3548 51.0079L41.2506 52.7316C41.3272 52.7751 41.4048 52.8041 41.4943 52.8041H49.7591C50.6057 52.8464 51.7846 52.6603 53.0659 52.3871C55.2693 51.9133 57.7553 51.1518 59.2296 50.8218C60.2165 50.5776 61.267 50.5776 62.2538 50.8363L60.5746 54.7285ZM64.1628 51.9991L62.6637 52.5733C62.6637 52.5733 63.2277 51.2811 63.4068 50.8508C63.4456 50.7638 63.4704 50.6924 63.4704 50.6924C63.4963 50.6066 63.5092 50.5196 63.5092 50.4483C63.5092 50.4338 63.5092 50.4193 63.5092 50.4193C63.4963 50.1038 63.2277 49.8886 62.8556 49.7593C62.8298 49.7448 62.8179 49.7448 62.792 49.7303C62.7532 49.7158 62.7025 49.7013 62.6637 49.6868C62.215 49.5429 61.638 49.4861 61.075 49.4716C60.9337 49.4571 60.8054 49.4571 60.7159 49.4426C60.5498 49.4281 60.2931 49.4571 59.9857 49.5006C59.5629 49.5296 59.2038 49.5864 59.0247 49.6578C59.0247 49.6578 58.8446 49.7013 58.5502 49.7738C57.435 50.0313 56.103 50.377 55.0007 50.6779C53.6418 47.0299 50.4386 44.6173 46.8891 44.6173H42.135C42.135 44.6173 38.2653 42.8658 36.1125 41.8891C36.4458 41.7453 36.7661 41.587 37.0476 41.3718L41.4685 38.4998C41.8654 38.2411 42.9539 33.9713 43.4155 33.9713L51.8662 36.9791C52.0323 37.6113 51.4513 39.4898 50.7589 39.4898C50.3361 39.4898 49.9392 39.6481 49.6059 39.9503C49.2856 40.2513 49.0548 40.6683 48.9782 41.1131L48.837 41.8601C48.7474 42.2481 49.0936 42.6349 49.4388 42.5491L58.3841 40.6248C59.4982 40.3806 60.6263 40.5535 61.6509 41.1276L67.5074 44.4166C66.9692 44.6608 66.4827 45.0198 66.047 45.4356C66.0211 45.4646 65.9952 45.4791 65.9823 45.5081C65.9186 45.5649 65.8539 45.6375 65.7903 45.6943C64.893 46.6274 64.2523 47.8918 64.0604 49.4571C63.9838 49.9744 63.9708 50.5051 64.0086 51.0224C64.0086 51.095 64.0215 51.1663 64.0345 51.2376C64.0474 51.3391 64.0604 51.454 64.0733 51.5543C64.0992 51.6981 64.124 51.8408 64.1499 51.9701C64.1628 51.9846 64.1628 51.9846 64.1628 51.9991ZM65.291 52.172C65.1238 51.6256 65.0343 51.0369 65.0343 50.4338C65.0343 50.1183 65.0602 49.8016 65.1108 49.5006C65.1108 49.4716 65.1238 49.4281 65.1367 49.4003C65.1756 49.1984 65.2262 48.9978 65.278 48.7971C65.5854 47.7479 66.1872 46.8148 66.9562 46.1403C67.0716 46.0388 67.187 45.9529 67.3024 45.8671C67.3542 45.8236 67.4179 45.7946 67.4685 45.7523C67.9302 45.4646 68.4425 45.235 68.9936 45.1346C69.0065 45.1346 69.0065 45.1346 69.0195 45.1201C69.2891 45.0766 69.5577 45.0343 69.8402 45.0488C72.4028 44.9618 74.4143 47.4034 74.6321 50.0603C74.6451 50.1896 74.658 50.3189 74.6451 50.4483C74.6451 51.3246 74.4531 52.1998 74.081 52.9758C72.1979 57.0976 66.5852 56.6093 65.291 52.172ZM81.4236 52.56C79.9633 52.531 76.8496 52.6023 75.3623 52.6603C75.4906 52.2723 75.5683 51.8698 75.619 51.4685C75.7603 50.5776 75.7344 49.6445 75.5165 48.7536L80.8089 50.6489L81.4236 51.7549V52.56ZM11.7565 51.1808H14.6912C15.3707 51.1808 15.3707 50.5986 14.6912 50.5986H11.7565C11.0771 50.5986 11.0771 51.1953 11.7565 51.1808Z" stroke="#3D4EEC" stroke-width="1.35618"/>
<path d="M10.9443 54.2969H8.0096C7.33013 54.3114 7.33013 53.7148 8.0096 53.7148H10.9443C11.6237 53.7148 11.6237 54.2969 10.9443 54.2969Z" stroke="#3D4EEC" stroke-width="1.35618"/>
</svg>
