<svg width="52" height="52" viewBox="0 0 52 52" fill="none" xmlns="http://www.w3.org/2000/svg">
<rect width="52" height="52" rx="16" fill="#F7F7F7"/>
<rect x="26" y="11" width="12" height="12" rx="6" fill="#8AF0C6"/>
<path d="M35 25.7501H17C16.04 25.7501 15.25 24.9601 15.25 24.0001V20.6801C15.25 20.0001 15.72 19.3101 16.35 19.0601L25.35 15.4602C25.73 15.3102 26.27 15.3102 26.65 15.4602L35.65 19.0601C36.28 19.3101 36.75 20.0101 36.75 20.6801V24.0001C36.75 24.9601 35.96 25.7501 35 25.7501ZM26 16.8402C25.96 16.8402 25.92 16.8401 25.9 16.8501L16.91 20.4501C16.85 20.4801 16.75 20.6101 16.75 20.6801V24.0001C16.75 24.1401 16.86 24.2501 17 24.2501H35C35.14 24.2501 35.25 24.1401 35.25 24.0001V20.6801C35.25 20.6101 35.16 20.4801 35.09 20.4501L26.09 16.8501C26.07 16.8401 26.04 16.8402 26 16.8402Z" fill="#0E3322"/>
<path d="M36 36.75H16C15.59 36.75 15.25 36.41 15.25 36V33C15.25 32.04 16.04 31.25 17 31.25H35C35.96 31.25 36.75 32.04 36.75 33V36C36.75 36.41 36.41 36.75 36 36.75ZM16.75 35.25H35.25V33C35.25 32.86 35.14 32.75 35 32.75H17C16.86 32.75 16.75 32.86 16.75 33V35.25Z" fill="#0E3322"/>
<path d="M18 32.75C17.59 32.75 17.25 32.41 17.25 32V25C17.25 24.59 17.59 24.25 18 24.25C18.41 24.25 18.75 24.59 18.75 25V32C18.75 32.41 18.41 32.75 18 32.75Z" fill="#0E3322"/>
<path d="M22 32.75C21.59 32.75 21.25 32.41 21.25 32V25C21.25 24.59 21.59 24.25 22 24.25C22.41 24.25 22.75 24.59 22.75 25V32C22.75 32.41 22.41 32.75 22 32.75Z" fill="#0E3322"/>
<path d="M26 32.75C25.59 32.75 25.25 32.41 25.25 32V25C25.25 24.59 25.59 24.25 26 24.25C26.41 24.25 26.75 24.59 26.75 25V32C26.75 32.41 26.41 32.75 26 32.75Z" fill="#0E3322"/>
<path d="M30 32.75C29.59 32.75 29.25 32.41 29.25 32V25C29.25 24.59 29.59 24.25 30 24.25C30.41 24.25 30.75 24.59 30.75 25V32C30.75 32.41 30.41 32.75 30 32.75Z" fill="#0E3322"/>
<path d="M34 32.75C33.59 32.75 33.25 32.41 33.25 32V25C33.25 24.59 33.59 24.25 34 24.25C34.41 24.25 34.75 24.59 34.75 25V32C34.75 32.41 34.41 32.75 34 32.75Z" fill="#0E3322"/>
<path d="M37 36.75H15C14.59 36.75 14.25 36.41 14.25 36C14.25 35.59 14.59 35.25 15 35.25H37C37.41 35.25 37.75 35.59 37.75 36C37.75 36.41 37.41 36.75 37 36.75Z" fill="#0E3322"/>
<path d="M26 23.25C24.76 23.25 23.75 22.24 23.75 21C23.75 19.76 24.76 18.75 26 18.75C27.24 18.75 28.25 19.76 28.25 21C28.25 22.24 27.24 23.25 26 23.25ZM26 20.25C25.59 20.25 25.25 20.59 25.25 21C25.25 21.41 25.59 21.75 26 21.75C26.41 21.75 26.75 21.41 26.75 21C26.75 20.59 26.41 20.25 26 20.25Z" fill="#0E3322"/>
</svg>
