<svg width="52" height="52" viewBox="0 0 52 52" fill="none" xmlns="http://www.w3.org/2000/svg">
<rect x="0.15" y="0.15" width="51.7" height="51.7" rx="15.85" fill="#E2FBE0"/>
<rect x="0.15" y="0.15" width="51.7" height="51.7" rx="15.85" stroke="#07DF84" stroke-width="0.3"/>
<path d="M17.4578 19.5801L14.4019 28.694C14.4019 28.694 13.6258 24.8387 13.549 24.3547C11.8093 20.3853 9.24219 20.6064 9.24219 20.6064L12.2678 32.3806V32.3782H15.9461L21.0326 19.5801H17.4578Z" fill="black" fill-opacity="0.87"/>
<path d="M20.375 32.3806H23.7159L25.7361 19.5801H22.3533L20.375 32.3806Z" fill="black" fill-opacity="0.87"/>
<path d="M44.012 19.5801H40.4966L35.0156 32.3806H38.3344L39.0187 30.5524H43.2033L43.5594 32.3806H46.6001L44.012 19.5801ZM39.945 28.1075L41.7638 23.2701L42.7157 28.1075H39.945Z" fill="black" fill-opacity="0.87"/>
<path d="M30.475 23.31C30.475 22.6049 31.0545 22.08 32.7163 22.08C33.7962 22.08 35.0332 22.8644 35.0332 22.8644L35.5754 20.1774C35.5754 20.1774 33.9952 19.5781 32.444 19.5781C28.9308 19.5781 27.119 21.2585 27.119 23.3857C27.119 27.2328 31.7493 26.7057 31.7493 28.6816C31.7493 29.0202 31.4805 29.8034 29.5522 29.8034C27.6182 29.8034 26.3416 29.0947 26.3416 29.0947L25.7656 31.6734C25.7656 31.6734 27.0026 32.3786 29.3928 32.3786C31.7888 32.3786 35.1123 30.5865 35.1123 28.0125C35.1123 24.9159 30.475 24.6925 30.475 23.31Z" fill="black" fill-opacity="0.87"/>
<path d="M13.9963 26.496L12.8722 20.9709C12.8722 20.9709 12.3637 19.7734 11.0417 19.7734C9.7198 19.7734 5.875 19.7734 5.875 19.7734C5.875 19.7734 12.4626 21.7191 13.9963 26.496Z" fill="#00DF82"/>
</svg>
