<svg width="52" height="52" viewBox="0 0 52 52" fill="none" xmlns="http://www.w3.org/2000/svg">
<rect x="0.15" y="0.15" width="51.7" height="51.7" rx="15.85" fill="#DFF5DD"/>
<rect x="0.15" y="0.15" width="51.7" height="51.7" rx="15.85" stroke="#07DF84" stroke-width="0.3"/>
<rect x="26" y="11" width="12" height="12" rx="6" fill="#8AF0C6"/>
<path d="M25.9984 36.7495C24.8684 36.7495 23.7884 36.4195 22.9784 35.8095L18.6784 32.5995C17.5384 31.7495 16.6484 29.9795 16.6484 28.5595V21.1195C16.6484 19.5795 17.7784 17.9395 19.2284 17.3995L24.2184 15.5295C25.2084 15.1595 26.7684 15.1595 27.7584 15.5295L32.7584 17.3995C34.2084 17.9395 35.3384 19.5795 35.3384 21.1195V24.5495C35.3384 24.9595 34.9984 25.2995 34.5884 25.2995C34.1784 25.2995 33.8384 24.9595 33.8384 24.5495V21.1195C33.8384 20.2095 33.0884 19.1295 32.2284 18.7995L27.2384 16.9295C26.5784 16.6795 25.4084 16.6795 24.7484 16.9295L19.7584 18.8095C18.8984 19.1295 18.1484 20.2095 18.1484 21.1295V28.5595C18.1484 29.5095 18.8184 30.8395 19.5684 31.3995L23.8684 34.6095C24.4184 35.0195 25.1884 35.2495 25.9884 35.2495C26.3984 35.2495 26.7384 35.5895 26.7384 35.9995C26.7384 36.4095 26.4084 36.7495 25.9984 36.7495Z" fill="#0E3322"/>
<path d="M30 34.75C27.38 34.75 25.25 32.62 25.25 30C25.25 27.38 27.38 25.25 30 25.25C32.62 25.25 34.75 27.38 34.75 30C34.75 32.62 32.62 34.75 30 34.75ZM30 26.76C28.21 26.76 26.75 28.22 26.75 30.01C26.75 31.8 28.21 33.26 30 33.26C31.79 33.26 33.25 31.8 33.25 30.01C33.25 28.22 31.79 26.76 30 26.76Z" fill="#0E3322"/>
<path d="M35 35.9992C34.93 35.9992 34.87 35.9892 34.8 35.9792C34.74 35.9692 34.68 35.9492 34.62 35.9192C34.56 35.8992 34.5 35.8692 34.44 35.8292C34.39 35.7892 34.34 35.7492 34.29 35.7092C34.11 35.5192 34 35.2592 34 34.9992C34 34.8692 34.03 34.7392 34.08 34.6192C34.13 34.4992 34.2 34.3892 34.29 34.2892C34.66 33.9192 35.34 33.9192 35.71 34.2892C35.8 34.3892 35.87 34.4992 35.92 34.6192C35.97 34.7392 36 34.8692 36 34.9992C36 35.2592 35.89 35.5192 35.71 35.7092C35.52 35.8892 35.26 35.9992 35 35.9992Z" fill="#0E3322"/>
</svg>
