<svg width="94" height="94" viewBox="0 0 94 94" fill="none" xmlns="http://www.w3.org/2000/svg">
<rect x="0.15" y="0.15" width="93.7" height="93.7" rx="15.85" fill="#B9F7FF"/>
<rect x="0.15" y="0.15" width="93.7" height="93.7" rx="15.85" stroke="#125C94" stroke-width="0.3"/>
<path d="M50.8492 18.7295L49.7486 20.9742L50.8492 18.7295ZM65.4324 25.8797L64.3318 28.1244L65.4324 25.8797ZM70.3304 33.736L72.8304 33.736V33.736L70.3304 33.736ZM70.3306 51.2784H72.8306V51.2783L70.3306 51.2784ZM50.7219 75.1397L49.4484 72.9883V72.9883L50.7219 75.1397ZM43.2724 75.1397L44.5459 72.9883V72.9883L43.2724 75.1397ZM23.6643 51.2784L26.1643 51.2784V51.2783L23.6643 51.2784ZM23.6641 33.7362L26.1641 33.7362L23.6641 33.7362ZM28.562 25.8796L27.4614 23.6349H27.4614L28.562 25.8796ZM43.1451 18.7295L44.2457 20.9742V20.9742L43.1451 18.7295ZM40.0151 45.2313C39.0388 44.255 37.4559 44.255 36.4795 45.2313C35.5032 46.2076 35.5032 47.7906 36.4795 48.7669L38.2473 46.9991L40.0151 45.2313ZM44.0806 52.8324L42.3129 54.6002C43.2892 55.5765 44.8721 55.5765 45.8484 54.6002L44.0806 52.8324ZM58.9734 41.4752C59.9497 40.4989 59.9497 38.916 58.9734 37.9397C57.9971 36.9634 56.4142 36.9634 55.4379 37.9397L57.2056 39.7074L58.9734 41.4752ZM50.8492 18.7295L49.7486 20.9742L64.3318 28.1244L65.4324 25.8797L66.533 23.635L51.9498 16.4848L50.8492 18.7295ZM70.3304 33.736L67.8304 33.7361L67.8306 51.2784L70.3306 51.2784L72.8306 51.2783L72.8304 33.736L70.3304 33.736ZM70.3306 51.2784H67.8306C67.8306 55.7255 65.1397 60.1098 61.2206 64.0668C57.3566 67.9681 52.6593 71.0877 49.4484 72.9883L50.7219 75.1397L51.9953 77.291C55.3727 75.2919 60.4798 71.92 64.7731 67.5853C69.0113 63.3061 72.8306 57.7095 72.8306 51.2784H70.3306ZM43.2724 75.1397L44.5459 72.9883C41.335 71.0877 36.6379 67.9681 32.774 64.0668C28.855 60.1098 26.1642 55.7256 26.1643 51.2784L23.6643 51.2784L21.1643 51.2783C21.1642 57.7095 24.9834 63.306 29.2215 67.5852C33.5146 71.92 38.6217 75.2919 41.9989 77.291L43.2724 75.1397ZM23.6643 51.2784L26.1643 51.2783L26.1641 33.7362L23.6641 33.7362L21.1641 33.7363L21.1643 51.2784L23.6643 51.2784ZM28.562 25.8796L29.6626 28.1243L44.2457 20.9742L43.1451 18.7295L42.0445 16.4848L27.4614 23.6349L28.562 25.8796ZM50.7219 75.1397L49.4484 72.9883C47.9223 73.8917 46.072 73.8917 44.5459 72.9883L43.2724 75.1397L41.9989 77.291C45.0957 79.1241 48.8985 79.1241 51.9953 77.291L50.7219 75.1397ZM65.4324 25.8797L64.3318 28.1244C66.4731 29.1743 67.8303 31.3512 67.8304 33.7361L70.3304 33.736L72.8304 33.736C72.8303 29.4433 70.3874 25.5248 66.533 23.635L65.4324 25.8797ZM23.6641 33.7362L26.1641 33.7362C26.164 31.3513 27.5212 29.1742 29.6626 28.1243L28.562 25.8796L27.4614 23.6349C23.607 25.5248 21.164 29.4434 21.1641 33.7363L23.6641 33.7362ZM50.8492 18.7295L51.9498 16.4848C48.8257 14.953 45.1686 14.953 42.0445 16.4848L43.1451 18.7295L44.2457 20.9742C45.9813 20.1232 48.013 20.1232 49.7486 20.9742L50.8492 18.7295ZM38.2473 46.9991L36.4795 48.7669L42.3129 54.6002L44.0806 52.8324L45.8484 51.0647L40.0151 45.2313L38.2473 46.9991ZM44.0806 52.8324L45.8484 54.6002L58.9734 41.4752L57.2056 39.7074L55.4379 37.9397L42.3129 51.0647L44.0806 52.8324Z" fill="#125C94"/>
</svg>
